<svg width="21" height="30" viewBox="0 0 21 30" fill="none" xmlns="http://www.w3.org/2000/svg">
<path d="M10.8708 0.00612615C4.90185 -0.195032 0 4.58372 0 10.5073C0 17.2298 6.45137 22.1086 10.0674 29.125C10.2509 29.4812 10.7638 29.4817 10.948 29.1255C14.2192 22.8122 19.81 18.5788 20.8462 12.4966C21.919 6.20283 17.2517 0.221248 10.8708 0.00612615ZM10.5072 16.011C7.46757 16.011 5.00343 13.5468 5.00343 10.5073C5.00343 7.46775 7.46763 5.00355 10.5072 5.00355C13.5467 5.00355 16.0109 7.46775 16.0109 10.5073C16.0109 13.5468 13.5467 16.011 10.5072 16.011Z" fill="white"/>
</svg>
