<svg width="9" height="15" viewBox="0 0 9 15" fill="none" xmlns="http://www.w3.org/2000/svg">
<path d="M8.5972 7.15447C8.69755 7.25454 8.74756 7.36968 8.74756 7.49992C8.74756 7.63016 8.69739 7.74551 8.5972 7.84564L1.59309 14.8496C1.49291 14.95 1.37767 15 1.24721 15C1.11708 15 1.00184 14.9498 0.901654 14.8496L0.150099 14.0983C0.0499153 13.9981 0.000166844 13.8828 0.000166838 13.7526C0.000166833 13.6223 0.0502319 13.507 0.150099 13.4069L6.05731 7.49992L0.150098 1.59277C0.0499147 1.49264 -4.44645e-05 1.37729 -4.44702e-05 1.24726C-4.44759e-05 1.11681 0.0498622 1.00151 0.150098 0.901383L0.901654 0.149933C1.00184 0.0498031 1.11713 5.27856e-05 1.24721 5.27799e-05C1.37767 5.27742e-05 1.49291 0.0501188 1.59309 0.149933L8.5972 7.15447Z" fill="#9A3723"/>
</svg>
