<svg width="9" height="15" viewBox="0 0 9 15" fill="none" xmlns="http://www.w3.org/2000/svg">
<path d="M0.150353 7.84553C0.0500123 7.74546 -3.33532e-07 7.63032 -3.27839e-07 7.50008C-3.22146e-07 7.36984 0.0501702 7.25449 0.150353 7.15436L7.15447 0.150354C7.25465 0.0500128 7.36989 3.22148e-07 7.50034 3.2785e-07C7.63048 3.33539e-07 7.74572 0.0501707 7.8459 0.150354L8.59746 0.901699C8.69764 1.00188 8.74739 1.11717 8.74739 1.24742C8.74739 1.37766 8.69733 1.49295 8.59746 1.59313L2.69025 7.50008L8.59746 13.4072C8.69764 13.5074 8.7476 13.6227 8.7476 13.7527C8.7476 13.8832 8.6977 13.9985 8.59746 14.0986L7.8459 14.8501C7.74572 14.9502 7.63043 14.9999 7.50034 14.9999C7.36989 14.9999 7.25465 14.9499 7.15447 14.8501L0.150353 7.84553Z" fill="#9A3723"/>
</svg>
