<svg width="14" height="17" viewBox="0 0 14 17" fill="none" xmlns="http://www.w3.org/2000/svg">
<path d="M5.05651 4.65252V4.18198H1.04536V5.23815H0V9.62119H1.04536V10.6773H1.91861V10.6774H4.35399V10.6773H5.05651V10.2067L5.05656 10.2068V4.65248L5.05651 4.65252Z" fill="white"/>
<path d="M4.52472 11.8655H2.08936L2.70266 16.1345H5.13805L4.52472 11.8655Z" fill="white"/>
<path d="M6.75364 3.82762C6.41911 4.02105 6.11211 4.18047 5.84058 4.31094V10.5484C6.11209 10.6788 6.41911 10.8383 6.75364 11.0317C7.89471 11.6914 9.58954 12.8873 11.25 14.8593V0C9.58954 1.97207 7.89471 3.16789 6.75364 3.82762Z" fill="white"/>
<path d="M12.2418 4.65726H12.0339V10.2021H12.2418C12.7682 10.2021 13.1966 9.55292 13.1966 8.75499V6.10429C13.1966 5.3064 12.7682 4.65726 12.2418 4.65726Z" fill="white"/>
</svg>
