<svg width="13" height="14" viewBox="0 0 13 14" fill="none" xmlns="http://www.w3.org/2000/svg">
<path d="M12.7031 2.29693C12.5054 2.09901 12.2708 2.00004 12 2.00004H11.0001V1.25001C11.0001 0.906327 10.8776 0.612035 10.6328 0.367243C10.3879 0.122451 10.0938 0 9.74996 0H9.25008C8.90627 0 8.61203 0.122451 8.36724 0.36727C8.12236 0.612035 7.99996 0.906354 7.99996 1.25004V2.00007H5.00013V1.25004C5.00013 0.906354 4.87767 0.612062 4.63285 0.36727C4.38809 0.122451 4.09382 0 3.75001 0H3.25005C2.90631 0 2.61202 0.122451 2.3672 0.36727C2.12244 0.612035 1.99996 0.906354 1.99996 1.25004V2.00007H1.00005C0.72915 2.00007 0.494811 2.09904 0.296892 2.29696C0.0989731 2.49485 0 2.7293 0 3.00011V13.0001C0 13.2707 0.0989731 13.5051 0.296892 13.7032C0.494783 13.901 0.729123 14 1.00005 14H11.9998C12.2706 14 12.5052 13.901 12.7029 13.7032C12.9008 13.5052 12.9998 13.2707 12.9998 13.0001V3.00008C12.9998 2.72919 12.9009 2.49485 12.7031 2.29693ZM3.24997 13H1.00005V10.7499H3.24997V13ZM3.24997 10.25H1.00005V7.75016H3.24997V10.25ZM3.24997 7.24993H1.00005V5.00004H3.24997V7.24993ZM3.0743 3.67579C3.0248 3.62629 3.00009 3.56782 3.00009 3.50004V1.25012C3.00009 1.18242 3.0248 1.12378 3.0743 1.07437C3.1238 1.02486 3.18227 1.00016 3.25005 1.00016H3.75001C3.8177 1.00016 3.87634 1.02486 3.92576 1.07437C3.97526 1.12381 4.00002 1.18242 4.00002 1.25012V3.50004C4.00002 3.56785 3.97515 3.62632 3.92576 3.67579C3.87631 3.72529 3.81778 3.75 3.75001 3.75H3.25005C3.18235 3.75003 3.1238 3.72529 3.0743 3.67579ZM6.24997 13H3.74992V10.7499H6.24997V13ZM6.24997 10.25H3.74992V7.75016H6.24997V10.25ZM6.24997 7.24993H3.74992V5.00004H6.24997V7.24993ZM9.25008 13H6.75006V10.7499H9.25008V13ZM9.25008 10.25H6.75006V7.75016H9.25008V10.25ZM9.25008 7.24993H6.75006V5.00004H9.25008V7.24993ZM9.07422 3.67579C9.02478 3.62629 9.00015 3.56782 9.00015 3.50004V1.25012C9.00015 1.18242 9.02478 1.12378 9.07422 1.07437C9.12369 1.02486 9.18228 1.00016 9.25008 1.00016H9.74996C9.81776 1.00016 9.8763 1.02486 9.92582 1.07437C9.9753 1.12381 9.9999 1.18242 9.9999 1.25012V3.50004C9.9999 3.56785 9.97519 3.62632 9.92582 3.67579C9.87638 3.72529 9.81776 3.75 9.74996 3.75H9.25008C9.18231 3.75003 9.1235 3.72529 9.07422 3.67579ZM11.9998 13H9.74977V10.7499H11.9998V13ZM11.9998 10.25H9.74977V7.75016H11.9998V10.25ZM11.9998 7.24993H9.74977V5.00004H11.9998V7.24993Z" fill="#555555"/>
</svg>
