<svg width="16" height="16" viewBox="0 0 16 16" fill="none" xmlns="http://www.w3.org/2000/svg">
<path d="M15.6348 2.62506C15.3914 2.39887 15.1027 2.28575 14.7694 2.28575H13.5388V1.42858C13.5388 1.0358 13.388 0.699467 13.0868 0.419705C12.7853 0.139943 12.4233 0 12.0001 0H11.3849C10.9617 0 10.5996 0.139944 10.2983 0.419737C9.99689 0.699467 9.84625 1.03583 9.84625 1.42861V2.28579H6.15409V1.42861C6.15409 1.03583 6.00338 0.699499 5.70206 0.419737C5.4008 0.139944 5.03862 0 4.61546 0H4.00012C3.57705 0 3.21484 0.139944 2.91352 0.419737C2.61226 0.699467 2.46152 1.03583 2.46152 1.42861V2.28579H1.23084C0.897428 2.28579 0.609006 2.3989 0.365411 2.62509C0.121815 2.85125 0 3.11919 0 3.42869V14.8572C0 15.1665 0.121815 15.4344 0.365411 15.6607C0.608973 15.8869 0.897395 16 1.23084 16H14.7692C15.1025 16 15.3912 15.8869 15.6345 15.6607C15.8782 15.4345 16 15.1665 16 14.8572V3.42866C16 3.11907 15.8783 2.85125 15.6348 2.62506ZM4.00002 14.8571H1.23084V12.2856H4.00002V14.8571ZM4.00002 11.7143H1.23084V8.85731H4.00002V11.7143ZM4.00002 8.28562H1.23084V5.71432H4.00002V8.28562ZM3.7838 4.2009C3.72288 4.14433 3.69247 4.0775 3.69247 4.00004V1.42871C3.69247 1.35134 3.72288 1.28432 3.7838 1.22784C3.84473 1.17127 3.9167 1.14303 4.00012 1.14303H4.61546C4.69878 1.14303 4.77095 1.17127 4.83177 1.22784C4.8927 1.28435 4.92318 1.35134 4.92318 1.42871V4.00004C4.92318 4.07753 4.89256 4.14436 4.83177 4.2009C4.77092 4.25747 4.69888 4.28571 4.61546 4.28571H4.00012C3.9168 4.28574 3.84473 4.25747 3.7838 4.2009ZM7.69238 14.8571H4.61535V12.2856H7.69238V14.8571ZM7.69238 11.7143H4.61535V8.85731H7.69238V11.7143ZM7.69238 8.28562H4.61535V5.71432H7.69238V8.28562ZM11.3849 14.8571H8.30789V12.2856H11.3849V14.8571ZM11.3849 11.7143H8.30789V8.85731H11.3849V11.7143ZM11.3849 8.28562H8.30789V5.71432H11.3849V8.28562ZM11.1684 4.2009C11.1076 4.14433 11.0773 4.0775 11.0773 4.00004V1.42871C11.0773 1.35134 11.1076 1.28432 11.1684 1.22784C11.2293 1.17127 11.3014 1.14303 11.3849 1.14303H12.0001C12.0836 1.14303 12.1556 1.17127 12.2166 1.22784C12.2775 1.28435 12.3077 1.35134 12.3077 1.42871V4.00004C12.3077 4.07753 12.2773 4.14436 12.2166 4.2009C12.1557 4.25747 12.0836 4.28571 12.0001 4.28571H11.3849C11.3015 4.28574 11.2291 4.25747 11.1684 4.2009ZM14.7692 14.8571H11.9999V12.2856H14.7692V14.8571ZM14.7692 11.7143H11.9999V8.85731H14.7692V11.7143ZM14.7692 8.28562H11.9999V5.71432H14.7692V8.28562Z" fill="#9A3723"/>
</svg>
