<svg width="15" height="15" viewBox="0 0 15 15" fill="none" xmlns="http://www.w3.org/2000/svg">
<path d="M5.92233 14.0983C5.8222 13.9981 5.77209 13.8828 5.77209 13.7526C5.77209 13.6223 5.8222 13.507 5.92233 13.4069L11.8294 7.49992L5.92233 1.59277C5.8222 1.49264 5.77209 1.37729 5.77209 1.24726C5.77209 1.1168 5.8222 1.00151 5.92233 0.901382L6.67394 0.149933C6.77407 0.0498027 6.88942 5.23611e-05 7.01945 5.23626e-05C7.14975 5.23642e-05 7.26504 0.0501184 7.36517 0.149933L14.3693 7.15447C14.4697 7.25454 14.5195 7.36968 14.5195 7.49992C14.5195 7.63016 14.4695 7.74551 14.3693 7.84564L7.36522 14.8496C7.26504 14.95 7.1499 15 7.01934 15C6.88942 15 6.77413 14.9498 6.67394 14.8496L5.92233 14.0983Z" fill="#9A3723"/>
<path d="M8.59769 7.15447C8.69803 7.25454 8.74805 7.36968 8.74805 7.49992C8.74805 7.63016 8.69788 7.74551 8.59769 7.84564L1.59358 14.8496C1.4934 14.95 1.37816 15 1.2477 15C1.11756 15 1.00233 14.9498 0.902143 14.8496L0.150587 14.0983C0.0504036 13.9981 0.000655188 13.8828 0.000655189 13.7526C0.000655191 13.6223 0.0507202 13.507 0.150587 13.4069L6.0578 7.49992L0.150587 1.59277C0.0504038 1.49264 0.000444575 1.37729 0.000444576 1.24726C0.000444578 1.1168 0.0503513 1.00151 0.150587 0.901382L0.902143 0.149933C1.00233 0.0498027 1.11762 5.23611e-05 1.2477 5.23626e-05C1.37816 5.23642e-05 1.4934 0.0501184 1.59358 0.149933L8.59769 7.15447Z" fill="#9A3723"/>
</svg>
