<svg width="18" height="16" viewBox="0 0 18 16" fill="none" xmlns="http://www.w3.org/2000/svg">
<path d="M17.2537 0.61566C16.4823 0.200311 15.6219 1.00134 15.1176 1.47603C13.9606 2.6034 12.9816 3.90879 11.8838 5.0955C10.6674 6.40088 9.54004 7.70627 8.29399 8.98203C7.58196 9.69406 6.8106 10.4654 6.33591 11.3555C5.26787 10.317 4.34817 9.18966 3.16146 8.27C2.30109 7.61731 0.877038 7.14263 0.906706 8.71502C0.966042 10.7621 2.77578 12.9576 4.11083 14.3519C4.67452 14.9453 5.41621 15.5683 6.27658 15.598C7.31495 15.6573 8.38299 14.4112 9.00602 13.7289C10.1038 12.5422 10.9938 11.2071 12.0025 9.99074C13.3078 8.38868 14.6429 6.81623 15.9186 5.1845C16.7196 4.1758 19.2414 1.68365 17.2537 0.61566ZM2.21204 8.59635C2.18237 8.59635 2.15271 8.59635 2.09337 8.62597C1.9747 8.59635 1.8857 8.56663 1.76702 8.5073C1.85603 8.44796 2.00437 8.47763 2.21204 8.59635Z" fill="white"/>
</svg>
