<svg width="15" height="15" viewBox="0 0 15 15" fill="none" xmlns="http://www.w3.org/2000/svg">
<path d="M8.83743 0.901699C8.93756 1.00188 8.98768 1.11717 8.98768 1.24742C8.98768 1.37766 8.93756 1.49295 8.83743 1.59313L2.93038 7.50008L8.83743 13.4072C8.93756 13.5074 8.98768 13.6227 8.98768 13.7527C8.98768 13.8832 8.93756 13.9985 8.83743 14.0986L8.08582 14.8501C7.98569 14.9502 7.87035 14.9999 7.74032 14.9999C7.61002 14.9999 7.49473 14.9499 7.3946 14.8501L0.390429 7.84553C0.290089 7.74546 0.240234 7.63032 0.240234 7.50008C0.240234 7.36984 0.290247 7.25449 0.390429 7.15436L7.39455 0.150354C7.49473 0.0500128 7.60986 3.22137e-07 7.74042 3.27844e-07C7.87035 3.33523e-07 7.98564 0.0501707 8.08582 0.150354L8.83743 0.901699Z" fill="#9A3723"/>
<path d="M6.16207 7.84553C6.06173 7.74546 6.01172 7.63032 6.01172 7.50008C6.01172 7.36984 6.06189 7.25449 6.16207 7.15436L13.1662 0.150354C13.2664 0.0500128 13.3816 3.22148e-07 13.5121 3.2785e-07C13.6422 3.33539e-07 13.7574 0.0501707 13.8576 0.150354L14.6092 0.901699C14.7094 1.00188 14.7591 1.11717 14.7591 1.24742C14.7591 1.37766 14.709 1.49295 14.6092 1.59313L8.70197 7.50008L14.6092 13.4072C14.7094 13.5074 14.7593 13.6227 14.7593 13.7527C14.7593 13.8832 14.7094 13.9985 14.6092 14.0986L13.8576 14.8501C13.7574 14.9502 13.6421 14.9999 13.5121 14.9999C13.3816 14.9999 13.2664 14.9499 13.1662 14.8501L6.16207 7.84553Z" fill="#9A3723"/>
</svg>
