<svg width="19" height="19" viewBox="0 0 19 19" fill="none" xmlns="http://www.w3.org/2000/svg">
<path d="M18.8935 3.41118C19.0493 3.1075 19.0231 2.76323 18.8867 2.47745C18.9251 2.15226 18.84 1.82208 18.5322 1.56884C18.2456 1.33311 17.9591 1.09725 17.6727 0.861486C17.1691 0.447107 16.3805 0.316318 15.8907 0.861486C13.6658 3.33737 11.3391 5.70571 8.92717 7.98784C7.13397 6.3127 5.31899 4.66031 3.517 3.00577C2.88457 2.42491 1.96914 2.60718 1.57123 3.29916C0.991652 3.58682 0.521855 3.96184 0.133378 4.60192C-0.0515938 4.90688 -0.0371787 5.29184 0.133378 5.5979C1.2967 7.68365 3.54529 9.51749 5.39409 11.2051C5.1467 11.4266 4.90113 11.6501 4.64875 11.8669C2.15791 14.0059 0.477786 15.3631 3.59489 17.5563C3.63695 17.5859 3.67983 17.5794 3.72252 17.5967C3.78224 17.6242 3.83954 17.6436 3.90576 17.6545C3.92635 17.6553 3.94557 17.6588 3.96584 17.6572C4.03 17.6624 4.09279 17.6787 4.15782 17.6659C5.83368 17.3374 7.39216 16.0241 8.80618 14.5779C10.1836 15.9356 11.6504 17.2327 13.2632 18.0023C13.6472 18.1856 14.105 18.0788 14.4006 17.8225C14.8963 17.8599 15.3483 17.5519 15.5751 17.1092C15.6087 17.0884 15.6304 17.0766 15.6667 17.0538C16.3874 16.6036 16.4533 15.707 15.92 15.089C14.7158 13.6936 13.4358 12.3671 12.131 11.0642C14.4804 8.76845 17.4141 6.29252 18.8935 3.41118Z" fill="white"/>
</svg>
