<svg width="22" height="14" viewBox="0 0 22 14" fill="none" xmlns="http://www.w3.org/2000/svg">
<path d="M21.5352 6.16161C20.4008 4.30626 18.8755 2.81549 16.9594 1.68934C15.0433 0.563157 13.0199 0 10.8891 0C8.75826 0 6.73481 0.562944 4.81867 1.68934C2.90249 2.81549 1.37724 4.30626 0.24297 6.16161C0.0810043 6.44514 0 6.72468 0 7.00021C0 7.27575 0.0810043 7.55528 0.24297 7.83873C1.37724 9.69417 2.90249 11.1851 4.81867 12.311C6.73481 13.4373 8.75826 14 10.8891 14C13.02 14 15.0434 13.4391 16.9594 12.3171C18.8755 11.195 20.401 9.70213 21.5352 7.83873C21.6972 7.55528 21.7782 7.27587 21.7782 7.00021C21.7782 6.72468 21.6972 6.44514 21.5352 6.16161ZM8.28211 2.83771C9.00719 2.11263 9.8761 1.74996 10.889 1.74996C11.0509 1.74996 11.1888 1.80683 11.3023 1.92018C11.4156 2.03358 11.4725 2.17137 11.4725 2.33338C11.4725 2.49551 11.4156 2.63322 11.3025 2.74644C11.1892 2.85997 11.0513 2.91667 10.8893 2.91667C10.1925 2.91667 9.59686 3.16389 9.10271 3.65801C8.60838 4.15242 8.36137 4.74784 8.36137 5.44457C8.36137 5.60679 8.3045 5.74441 8.19114 5.85789C8.07762 5.97146 7.93996 6.02812 7.77795 6.02812C7.61581 6.02812 7.47811 5.97133 7.36463 5.85789C7.2511 5.74441 7.1944 5.60662 7.1944 5.44457C7.1944 4.43191 7.55707 3.56283 8.28211 2.83771ZM16.1697 10.9684C14.5452 11.9525 12.785 12.4449 10.8891 12.4449C8.99323 12.4449 7.23309 11.9528 5.60867 10.9684C3.98424 9.98392 2.63322 8.66125 1.55568 7.00021C2.78718 5.08808 4.3306 3.65796 6.18596 2.71022C5.69176 3.5527 5.44457 4.46426 5.44457 5.44453C5.44457 6.94356 5.97738 8.22537 7.04269 9.29094C8.10801 10.3565 9.39029 10.8891 10.8891 10.8891C12.388 10.8891 13.6699 10.3562 14.7355 9.29094C15.8011 8.22566 16.3337 6.94356 16.3337 5.44453C16.3337 4.46426 16.0864 3.55257 15.5922 2.71022C17.4475 3.65796 18.991 5.0882 20.2224 7.00021C19.1451 8.66125 17.7942 9.98392 16.1697 10.9684Z" fill="#555555"/>
</svg>
