<svg width="14" height="9" viewBox="0 0 14 9" fill="none" xmlns="http://www.w3.org/2000/svg">
<path d="M13.8438 3.96096C13.1145 2.76825 12.134 1.80992 10.9023 1.08598C9.67051 0.362022 8.3698 0 7 0C5.6302 0 4.32944 0.361886 3.09766 1.08598C1.86585 1.80992 0.885354 2.76825 0.156192 3.96096C0.0520732 4.14323 0 4.32292 0 4.50005C0 4.67717 0.0520732 4.85687 0.156192 5.03909C0.885354 6.23184 1.86585 7.19026 3.09766 7.91403C4.32944 8.63807 5.6302 8.99982 7 8.99982C8.36983 8.99982 9.67054 8.63928 10.9023 7.91797C12.134 7.19664 13.1147 6.23696 13.8438 5.03909C13.948 4.85687 14 4.67726 14 4.50005C14 4.32292 13.948 4.14323 13.8438 3.96096ZM5.32411 1.8242C5.79022 1.35809 6.3488 1.12495 6.99992 1.12495C7.10404 1.12495 7.19264 1.16151 7.26559 1.23438C7.33844 1.30728 7.37505 1.39585 7.37505 1.5C7.37505 1.60423 7.33843 1.69275 7.26576 1.76554C7.19291 1.83851 7.10426 1.87496 7.00011 1.87496C6.55222 1.87496 6.16929 2.03389 5.85163 2.35153C5.53385 2.66936 5.37506 3.05212 5.37506 3.50001C5.37506 3.6043 5.3385 3.69276 5.26563 3.76572C5.19265 3.83872 5.10416 3.87514 5.00001 3.87514C4.89578 3.87514 4.80726 3.83864 4.73431 3.76572C4.66133 3.69276 4.62488 3.60419 4.62488 3.50001C4.62488 2.84903 4.85802 2.29034 5.32411 1.8242ZM10.3946 7.05095C9.35027 7.6836 8.21878 8.00012 7 8.00012C5.78125 8.00012 4.64976 7.68379 3.6055 7.05095C2.56125 6.41811 1.69275 5.56784 1.00006 4.50005C1.79172 3.27084 2.7839 2.3515 3.97661 1.74225C3.65892 2.28383 3.50001 2.86983 3.50001 3.49999C3.50001 4.46363 3.84253 5.28763 4.52736 5.97263C5.21219 6.65762 6.0365 6.99997 7 6.99997C7.96359 6.99997 8.78765 6.65743 9.47264 5.97263C10.1576 5.28782 10.5 4.46363 10.5 3.49999C10.5 2.86983 10.3411 2.28375 10.0234 1.74225C11.216 2.3515 12.2082 3.27092 12.9999 4.50005C12.3073 5.56784 11.4389 6.41811 10.3946 7.05095Z" fill="#9A9797"/>
</svg>
