<svg width="17" height="13" viewBox="0 0 17 13" fill="none" xmlns="http://www.w3.org/2000/svg">
<path d="M6.64408 11.8361C6.62328 11.7828 6.61612 11.7375 6.62317 11.7009C6.63019 11.6644 6.60601 11.6343 6.55056 11.611C6.49511 11.5878 6.46744 11.5693 6.46744 11.5561C6.46744 11.5428 6.4277 11.5328 6.34803 11.5262C6.2684 11.5195 6.22866 11.5161 6.22866 11.5161H6.09376H5.97958H2.98975C2.53299 11.5161 2.14192 11.3596 1.8166 11.0462C1.49135 10.733 1.32874 10.3565 1.32874 9.91671V2.87888C1.32874 2.43903 1.49131 2.06259 1.8166 1.74935C2.14192 1.43608 2.53299 1.27939 2.98975 1.27939H6.31174C6.40174 1.27939 6.47249 1.25789 6.52453 1.21447C6.57634 1.17116 6.61088 1.10614 6.62826 1.01951C6.64557 0.932888 6.65601 0.854666 6.6595 0.784672C6.66292 0.714749 6.66124 0.626372 6.65426 0.519754C6.64739 0.41317 6.64394 0.346537 6.64394 0.319751C6.64394 0.233126 6.61103 0.1583 6.54532 0.094854C6.47955 0.031688 6.40173 0 6.31178 0H2.98975C2.16625 0 1.46201 0.281586 0.877139 0.844722C0.292416 1.40786 0 2.08591 0 2.87899V9.91667C0 10.7097 0.292416 11.3879 0.877139 11.9508C1.46201 12.5142 2.16625 12.7958 2.98975 12.7958H6.31189C6.40188 12.7958 6.47268 12.7741 6.52467 12.7309C6.57649 12.6875 6.61103 12.6226 6.62841 12.5359C6.64572 12.4493 6.65615 12.3707 6.65964 12.301C6.66306 12.231 6.66139 12.1428 6.65441 12.0362C6.64746 11.9295 6.64408 11.8629 6.64408 11.8361Z" fill="#555555"/>
<path d="M16.0807 5.94802L10.4333 0.50962C10.3019 0.383148 10.1462 0.319702 9.96621 0.319702C9.78626 0.319702 9.63049 0.383148 9.49894 0.50962C9.36742 0.636267 9.30171 0.786374 9.30171 0.959555V3.83865H4.65091C4.47085 3.83865 4.31519 3.90209 4.18367 4.02857C4.05215 4.15521 3.98645 4.30521 3.98645 4.4785V8.31734C3.98645 8.49059 4.05215 8.64059 4.18367 8.76717C4.31534 8.89357 4.47096 8.95719 4.65091 8.95719H9.30175V11.8362C9.30175 12.0094 9.36746 12.1595 9.49897 12.2861C9.63049 12.4127 9.78626 12.4761 9.96625 12.4761C10.1462 12.4761 10.3019 12.4127 10.4334 12.2861L16.0807 6.84792C16.2122 6.72117 16.278 6.57138 16.278 6.39806C16.278 6.22481 16.2122 6.07467 16.0807 5.94802Z" fill="#555555"/>
</svg>
