<svg width="21" height="17" viewBox="0 0 21 17" fill="none" xmlns="http://www.w3.org/2000/svg">
<path d="M2.01558 5.08591C2.28123 5.27337 3.08199 5.83011 4.4179 6.75585C5.75385 7.68159 6.77728 8.39439 7.48823 8.89428C7.56634 8.94908 7.73228 9.06819 7.98615 9.25179C8.24006 9.43551 8.45103 9.58397 8.61891 9.69722C8.78691 9.81042 8.99 9.93741 9.22839 10.078C9.4667 10.2185 9.69135 10.3241 9.90228 10.394C10.1133 10.4646 10.3085 10.4995 10.4882 10.4995H10.5H10.5118C10.6915 10.4995 10.8868 10.4645 11.0978 10.394C11.3087 10.3241 11.5335 10.2183 11.7716 10.078C12.0098 9.93725 12.2129 9.81038 12.3809 9.69722C12.5489 9.58397 12.7597 9.43551 13.0137 9.25179C13.2676 9.06803 13.4337 8.94908 13.5118 8.89428C14.2305 8.39439 16.0587 7.12481 18.9961 5.08567C19.5664 4.6874 20.0429 4.20684 20.4256 3.64431C20.8087 3.08203 21 2.49216 21 1.87504C21 1.35935 20.8143 0.917902 20.4432 0.550749C20.0721 0.183515 19.6326 0 19.1249 0H1.87492C1.2734 0 0.810485 0.203093 0.486267 0.60928C0.162089 1.01555 0 1.52336 0 2.13269C0 2.62486 0.214915 3.15821 0.644538 3.7324C1.07412 4.30662 1.53129 4.75784 2.01558 5.08591Z" fill="white"/>
<path d="M19.8279 6.3398C17.2657 8.07402 15.3202 9.42179 13.9922 10.3828C13.5469 10.7108 13.1857 10.9669 12.9082 11.1503C12.6308 11.3339 12.2619 11.5214 11.8008 11.7127C11.34 11.9043 10.9105 11.9999 10.512 11.9999H10.5H10.4882C10.0898 11.9999 9.66006 11.9043 9.19921 11.7127C8.73835 11.5214 8.36914 11.3339 8.0918 11.1503C7.81453 10.9669 7.45317 10.7108 7.00791 10.3828C5.95316 9.60945 4.01179 8.2616 1.18371 6.3398C0.738286 6.04312 0.343756 5.70306 0 5.32031V14.6247C0 15.1407 0.183515 15.5819 0.550749 15.9491C0.917901 16.3164 1.35939 16.5 1.87504 16.5H19.1251C19.6406 16.5 20.0821 16.3164 20.4493 15.9491C20.8166 15.5817 21 15.1407 21 14.6247V5.32031C20.664 5.69514 20.2735 6.0352 19.8279 6.3398Z" fill="white"/>
</svg>
