<svg width="10" height="17" viewBox="0 0 10 17" fill="none" xmlns="http://www.w3.org/2000/svg">
<path d="M8.91749 0.00353713L6.69489 0C4.19788 0 2.5842 1.64211 2.5842 4.18372V6.1127H0.349482C0.156375 6.1127 0 6.26798 0 6.45951V9.25438C0 9.44592 0.156554 9.60102 0.349482 9.60102H2.5842V16.6534C2.5842 16.8449 2.74058 17 2.93368 17H5.84936C6.04247 17 6.19884 16.8447 6.19884 16.6534V9.60102H8.81175C9.00486 9.60102 9.16123 9.44592 9.16123 9.25438L9.1623 6.45951C9.1623 6.36755 9.12539 6.27948 9.05996 6.21439C8.99452 6.14931 8.90536 6.1127 8.81264 6.1127H6.19884V4.47748C6.19884 3.69153 6.38767 3.29254 7.41989 3.29254L8.91713 3.29201C9.11006 3.29201 9.26643 3.13673 9.26643 2.94537V0.350176C9.26643 0.158994 9.11024 0.00389085 8.91749 0.00353713Z" fill="white"/>
</svg>
