<svg width="80" height="50" viewBox="0 0 80 50" fill="none" xmlns="http://www.w3.org/2000/svg">
<path d="M17.3184 27.9718V40.4618C17.3184 40.4618 29.2956 35.4723 39.9152 35.4723C50.5348 35.4723 62.5146 40.4618 62.5146 40.4618V27.7974C62.5146 27.7974 51.0879 21.7542 39.7384 21.7542C28.3938 21.7492 17.3184 27.9718 17.3184 27.9718Z" fill="#DC4200"/>
<path d="M75.2016 24.9975L79.6956 22.5812L75.2016 20.0927V18.9119C75.2016 18.9119 76.4671 12.495 69.2753 15.8504C68.9091 16.0497 68.7123 16.2515 68.6326 16.4483L38.9734 0L0 22.3047L14.7175 28.9906V26.8209C14.7175 26.8209 27.0659 19.8884 39.7232 19.8884C52.3781 19.8884 65.1151 26.6266 65.1151 26.6266V30.4155L73.2411 26.0512C73.2411 31.1055 73.2411 41.9166 73.2411 43.7201H70.5358V50L74.133 47.514L78.1262 50V43.7176H75.2016V24.9975ZM73.2386 17.8208C73.2386 17.9728 73.2386 18.3913 73.2386 19.0041L70.8671 17.6888C71.7315 17.1159 73.2386 16.3212 73.2386 17.8208ZM72.4365 24.7509C71.3878 24.7509 70.5333 23.9015 70.5333 22.8527C70.5333 21.804 71.3878 20.9521 72.4365 20.9521C73.4878 20.9521 74.3372 21.804 74.3372 22.8527C74.3372 23.9015 73.4878 24.7509 72.4365 24.7509Z" fill="#DC4200"/>
</svg>
