<svg width="53" height="33" viewBox="0 0 53 33" fill="none" xmlns="http://www.w3.org/2000/svg">
<path d="M12.2517 18.2732V26.4326C12.2517 26.4326 20.0759 23.1731 27.0132 23.1731C33.9505 23.1731 41.7763 26.4326 41.7763 26.4326V18.1593C41.7763 18.1593 34.3117 14.2114 26.8976 14.2114C19.4868 14.2081 12.2517 18.2732 12.2517 18.2732Z" fill="white"/>
<path d="M50.0642 16.3302L52.9999 14.7517L50.0642 13.126V12.3547C50.0642 12.3547 50.8908 8.16266 46.1928 10.3547C45.9535 10.4849 45.825 10.6167 45.7729 10.7452L26.398 0L0.938477 14.5711L10.5527 18.9388V17.5214C10.5527 17.5214 18.6194 12.9926 26.8878 12.9926C35.1546 12.9926 43.4751 17.3945 43.4751 17.3945V19.8696L48.7835 17.0186C48.7835 20.3204 48.7835 27.383 48.7835 28.5612H47.0162V32.6637L49.366 31.0396L51.9746 32.6637V28.5595H50.0642V16.3302ZM48.7818 11.6419C48.7818 11.7411 48.7818 12.0145 48.7818 12.4149L47.2326 11.5556C47.7973 11.1813 48.7818 10.6622 48.7818 11.6419ZM48.2578 16.1691C47.5727 16.1691 47.0146 15.6142 47.0146 14.9291C47.0146 14.244 47.5727 13.6874 48.2578 13.6874C48.9446 13.6874 49.4995 14.244 49.4995 14.9291C49.4995 15.6142 48.9446 16.1691 48.2578 16.1691Z" fill="white"/>
</svg>
