<svg width="31" height="28" viewBox="0 0 31 28" fill="none" xmlns="http://www.w3.org/2000/svg">
<path d="M4.21517 26.7734C4.21517 26.7734 4.18763 27.4663 4.86454 27.4663C5.70665 27.4663 12.6788 27.4571 12.6788 27.4571L12.6903 21.0541C12.6903 21.0541 12.5801 19.9986 13.6047 19.9986H16.8469C18.0585 19.9986 17.9839 21.0541 17.9839 21.0541L17.9701 27.4365C17.9701 27.4365 24.5809 27.4365 25.6192 27.4365C26.4785 27.4365 26.4395 26.5737 26.4395 26.5737V14.7692L15.6595 5.18005L4.21517 14.7692V26.7734Z" fill="#9A3723"/>
<path d="M0 13.8766C0 13.8766 0.971762 15.6675 3.09082 13.8766L15.7547 3.1631L27.6281 13.81C30.081 15.5792 31 13.81 31 13.81L15.7547 0L0 13.8766Z" fill="#9A3723"/>
<path d="M27.3401 3.13785H24.286L24.2986 6.84133L27.3401 9.4216V3.13785Z" fill="#9A3723"/>
</svg>
