<svg width="16" height="16" viewBox="0 0 16 16" fill="none" xmlns="http://www.w3.org/2000/svg">
<path d="M15.0866 10.8775C15.4145 10.4592 15.5717 10.0109 15.5517 9.54914C15.5316 9.04057 15.3041 8.64241 15.1167 8.39816C15.3342 7.85613 15.4178 7.00293 14.6918 6.34044C14.1598 5.85529 13.2564 5.63781 12.005 5.69803C11.1251 5.73818 10.389 5.90213 10.3588 5.90882H10.3555C10.1882 5.93894 10.0109 5.97574 9.8302 6.01589C9.81681 5.80176 9.85362 5.26976 10.2484 4.07194C10.7169 2.64659 10.6901 1.55583 10.1614 0.826432C9.60602 0.0602259 8.71936 0 8.45839 0C8.20744 0 7.97658 0.103722 7.81263 0.294437C7.44124 0.726056 7.48473 1.52238 7.53158 1.89042C7.08992 3.07486 5.85194 5.97909 4.80468 6.78545C4.78461 6.79883 4.76788 6.81556 4.75115 6.83229C4.44333 7.15684 4.23588 7.50816 4.09536 7.81598C3.89795 7.70891 3.67378 7.64868 3.43287 7.64868H1.39189C0.622334 7.64868 0 8.27436 0 9.04057V14.4776C0 15.2472 0.62568 15.8695 1.39189 15.8695H3.43287C3.73066 15.8695 4.00836 15.7758 4.23588 15.6152L5.02217 15.7089C5.14262 15.7256 7.28398 15.9967 9.48223 15.9532C9.88039 15.9833 10.2551 16 10.6031 16C11.202 16 11.724 15.9532 12.1589 15.8595C13.1828 15.642 13.8821 15.207 14.2367 14.568C14.5077 14.0795 14.5077 13.5943 14.4642 13.2865C15.1301 12.6842 15.2472 12.0184 15.2238 11.55C15.2104 11.279 15.1501 11.0481 15.0866 10.8775ZM1.39189 14.9661C1.12087 14.9661 0.903388 14.7453 0.903388 14.4776V9.03722C0.903388 8.76621 1.12422 8.54872 1.39189 8.54872H3.43287C3.70389 8.54872 3.92137 8.76955 3.92137 9.03722V14.4743C3.92137 14.7453 3.70054 14.9628 3.43287 14.9628H1.39189V14.9661ZM14.23 10.486C14.0895 10.6332 14.0627 10.8574 14.1698 11.0314C14.1698 11.0347 14.307 11.2689 14.3237 11.5901C14.3471 12.0284 14.1363 12.4166 13.6947 12.7478C13.5374 12.8683 13.4739 13.0757 13.5408 13.2631C13.5408 13.2664 13.6847 13.7081 13.4504 14.1263C13.2263 14.5278 12.7277 14.8156 11.9716 14.9762C11.366 15.1066 10.5429 15.1301 9.53241 15.0498C9.51903 15.0498 9.5023 15.0498 9.48557 15.0498C7.33417 15.0966 5.15935 14.8156 5.13593 14.8122H5.13258L4.79465 14.7721C4.81472 14.6784 4.82476 14.578 4.82476 14.4776V9.03722C4.82476 8.89335 4.80134 8.75282 4.76119 8.62233C4.82141 8.39816 4.98871 7.89962 5.38352 7.4747C6.88582 6.28356 8.35466 2.26516 8.41823 2.09118C8.445 2.02091 8.45169 1.94396 8.43831 1.867C8.38143 1.49226 8.4015 1.03388 8.48181 0.896696C8.65914 0.900042 9.1376 0.95023 9.42535 1.34839C9.76663 1.82016 9.75324 2.66332 9.38519 3.78084C8.82309 5.4839 8.77624 6.38059 9.22125 6.77541C9.44207 6.97281 9.73651 6.98285 9.95065 6.9059C10.1547 6.85905 10.3488 6.8189 10.5328 6.78879C10.5462 6.78545 10.5629 6.7821 10.5763 6.77875C11.6035 6.55458 13.4437 6.4174 14.0828 6.99958C14.6248 7.49477 14.2401 8.15056 14.1966 8.22083C14.0728 8.4082 14.1096 8.65245 14.2769 8.80301C14.2802 8.80636 14.6315 9.1376 14.6483 9.5826C14.6616 9.88038 14.5211 10.1849 14.23 10.486Z" fill="#9A3723"/>
</svg>
