<svg width="20" height="20" viewBox="0 0 20 20" fill="none" xmlns="http://www.w3.org/2000/svg">
<path d="M19.3127 10.6626C19.771 10.1377 20.0002 9.51688 20.0002 8.80013C20.0002 8.15015 19.7624 7.58773 19.2884 7.11248C18.8134 6.63728 18.251 6.39981 17.601 6.39981H14.1387C14.1719 6.28317 14.2053 6.18318 14.2386 6.09986C14.2715 6.01654 14.3179 5.92478 14.376 5.82478C14.4341 5.72474 14.4759 5.6497 14.5008 5.59979C14.6508 5.31661 14.7656 5.08312 14.8448 4.89994C14.9239 4.71641 15.0027 4.4665 15.0821 4.14983C15.1614 3.83333 15.2008 3.51653 15.2008 3.19986C15.2008 2.99995 15.1984 2.8373 15.1945 2.7124C15.1906 2.5874 15.1693 2.39984 15.1322 2.1498C15.0944 1.8999 15.0443 1.69154 14.982 1.52495C14.9194 1.35832 14.8193 1.17067 14.682 0.962493C14.5445 0.753918 14.3779 0.585403 14.1819 0.45616C13.9859 0.327004 13.736 0.218689 13.4319 0.131257C13.1274 0.0437377 12.7839 0 12.4003 0C12.1837 0 11.9963 0.0792008 11.8378 0.237559C11.6712 0.404191 11.5293 0.612503 11.4128 0.862408C11.296 1.11244 11.2147 1.32912 11.1688 1.51252C11.123 1.69583 11.0709 1.95007 11.0128 2.27498C10.9375 2.62514 10.8815 2.87706 10.8438 3.03121C10.8063 3.18537 10.7332 3.38742 10.625 3.63737C10.5165 3.88749 10.3875 4.08735 10.2375 4.23744C9.96253 4.51239 9.54175 5.01241 8.97495 5.73735C8.56651 6.27061 8.14573 6.77475 7.71243 7.24978C7.27903 7.7249 6.9624 7.97069 6.76245 7.98737C6.55427 8.00401 6.37508 8.08942 6.22504 8.24367C6.075 8.39782 6 8.57912 6 8.78739V16.7998C6 17.0165 6.07911 17.2018 6.23747 17.356C6.39574 17.5103 6.58326 17.5915 6.79993 17.5999C7.09156 17.6083 7.7499 17.7914 8.77496 18.1501C9.41653 18.3664 9.91853 18.5312 10.281 18.6436C10.6435 18.7559 11.1501 18.8768 11.7996 19.0062C12.4497 19.1353 13.0496 19.2 13.5994 19.2H13.812H14.762H15.2119C16.3205 19.1834 17.141 18.8583 17.6745 18.2251C18.1577 17.65 18.3617 16.8959 18.287 15.9625C18.612 15.6542 18.8371 15.2627 18.9619 14.7876C19.1034 14.2796 19.1034 13.792 18.9619 13.3254C19.3452 12.8171 19.5244 12.2463 19.4992 11.6129C19.5003 11.346 19.4379 11.0294 19.3127 10.6626Z" fill="#1270ED"/>
<path d="M4.40004 8.00011H0.80015C0.583344 8.00011 0.395828 8.07931 0.237514 8.23766C0.0792007 8.39594 0 8.58345 0 8.80013V16.8004C0 17.0168 0.0792007 17.2044 0.237558 17.3629C0.396003 17.521 0.583519 17.6002 0.800194 17.6002H4.40004C4.61667 17.6002 4.8041 17.521 4.9625 17.3629C5.12081 17.2044 5.19997 17.0168 5.19997 16.8004V8.80013C5.19997 8.58345 5.12077 8.39598 4.9625 8.23766C4.80414 8.07926 4.61671 8.00011 4.40004 8.00011ZM2.96247 15.7689C2.80416 15.923 2.61669 16.0001 2.40001 16.0001C2.17498 16.0001 1.98536 15.923 1.83129 15.7689C1.67714 15.6147 1.60008 15.4252 1.60008 15.2001C1.60008 14.9835 1.67709 14.796 1.83129 14.6377C1.9854 14.4793 2.17498 14.4 2.40001 14.4C2.61669 14.4 2.80416 14.4793 2.96247 14.6377C3.12083 14.7959 3.20003 14.9835 3.20003 15.2001C3.20003 15.4252 3.121 15.6147 2.96247 15.7689Z" fill="#1270ED"/>
</svg>
