<svg width="28" height="32" viewBox="0 0 28 32" fill="none" xmlns="http://www.w3.org/2000/svg">
<path d="M19.9625 13.8239C19.9625 13.1562 19.4213 12.615 18.7536 12.615H6.3017C5.63401 12.615 5.09277 13.1562 5.09277 13.8239C5.09277 14.4916 5.63401 15.0329 6.3017 15.0329H18.7536C19.4213 15.0329 19.9625 14.4916 19.9625 13.8239Z" fill="white"/>
<path d="M6.3017 17.4507C5.63401 17.4507 5.09277 17.9919 5.09277 18.6596C5.09277 19.3273 5.63401 19.8686 6.3017 19.8686H13.8642C14.5319 19.8686 15.0731 19.3273 15.0731 18.6596C15.0731 17.9919 14.5319 17.4507 13.8642 17.4507H6.3017Z" fill="white"/>
<path d="M9.14256 29.0564H5.09937C3.76617 29.0564 2.68152 27.9717 2.68152 26.6385V5.36145C2.68152 4.02825 3.76617 2.94361 5.09937 2.94361H19.9624C21.2956 2.94361 22.3803 4.02825 22.3803 5.36145V12.7963C22.3803 13.464 22.9215 14.0053 23.5892 14.0053C24.2569 14.0053 24.7981 13.464 24.7981 12.7963V5.36145C24.7981 2.69505 22.6288 0.525757 19.9624 0.525757H5.09937C2.43297 0.525757 0.263672 2.69505 0.263672 5.36145V26.6385C0.263672 29.3049 2.43297 31.4742 5.09937 31.4742H9.14256C9.81025 31.4742 10.3515 30.933 10.3515 30.2653C10.3515 29.5976 9.81025 29.0564 9.14256 29.0564Z" fill="white"/>
<path d="M26.9395 18.0293C25.5255 16.6152 23.2246 16.6152 21.8115 18.0283L15.1743 24.6508C15.0333 24.7915 14.9294 24.9647 14.8715 25.1553L13.426 29.9139C13.2979 30.3358 13.4095 30.7939 13.7174 31.1095C13.9481 31.3459 14.2614 31.4742 14.5828 31.4742C14.6904 31.4742 14.7989 31.4599 14.9055 31.4303L19.785 30.0787C19.9858 30.0231 20.1688 29.9165 20.3163 29.7692L26.9396 23.1584C28.3537 21.7443 28.3537 19.4435 26.9395 18.0293ZM18.8332 27.8334L16.3784 28.5135L17.0968 26.1483L21.5752 21.6798L23.2852 23.3898L18.8332 27.8334ZM25.2308 21.448L24.9966 21.6818L23.2868 19.9721L23.5203 19.7391C23.9916 19.2677 24.7586 19.2677 25.2299 19.7391C25.7013 20.2105 25.7013 20.9774 25.2308 21.448Z" fill="white"/>
<path d="M18.7536 7.77931H6.3017C5.63401 7.77931 5.09277 8.32055 5.09277 8.98824C5.09277 9.65593 5.63401 10.1972 6.3017 10.1972H18.7536C19.4213 10.1972 19.9625 9.65593 19.9625 8.98824C19.9625 8.32055 19.4213 7.77931 18.7536 7.77931Z" fill="white"/>
</svg>
