<svg width="9" height="11" viewBox="0 0 9 11" fill="none" xmlns="http://www.w3.org/2000/svg">
<path d="M0.948508 3.30405V4.4526H0.872088C0.391091 4.4526 0 4.84369 0 5.32468V10.1279C0 10.6089 0.391091 11 0.872088 11H7.57458C8.05558 11 8.44667 10.6089 8.44667 10.1279V5.32244C8.44667 4.84144 8.05558 4.45035 7.57458 4.45035H7.55211V3.3018C7.55211 1.4812 6.0709 0 4.25031 0C2.42971 0.00224765 0.948508 1.48345 0.948508 3.30405ZM4.74029 7.9387C4.67287 7.98815 4.65488 8.03535 4.65488 8.11402C4.65713 8.4669 4.65713 8.81753 4.65713 9.17041C4.66387 9.31651 4.5897 9.46036 4.45934 9.52554C4.15141 9.68288 3.84348 9.46261 3.84348 9.17041V9.16817C3.84348 8.81528 3.84348 8.4624 3.84573 8.10952C3.84573 8.0376 3.83 7.9904 3.76706 7.9432C3.4479 7.70719 3.34226 7.30486 3.50184 6.95198C3.65693 6.60809 4.03678 6.4058 4.39416 6.47773C4.79199 6.55864 5.06845 6.87781 5.07295 7.27564C5.07295 7.5521 4.96281 7.77687 4.74029 7.9387ZM2.39375 3.30405C2.39375 2.27912 3.22763 1.44749 4.25031 1.44749C5.27524 1.44749 6.10687 2.28136 6.10687 3.30405V4.4526H2.39375V3.30405Z" fill="#555555"/>
</svg>
