<svg width="21" height="18" viewBox="0 0 21 18" fill="none" xmlns="http://www.w3.org/2000/svg">
<path d="M10.6154 3.15819C14.1539 3.19291 16.3706 2.97275 16.6699 6.89475H20.9849C20.9849 0.818957 15.686 0 10.5031 0C5.31975 0 0.0212402 0.818957 0.0212402 6.89475H4.30269C4.63395 2.898 7.10634 3.12388 10.6154 3.15819Z" fill="white"/>
<path d="M2.16115 8.84799C3.21211 8.84799 4.08661 8.91089 4.28104 7.87709C4.30718 7.73658 4.32229 7.57728 4.32229 7.39307H4.27246H0C0 8.93091 0.967635 8.84799 2.16115 8.84799Z" fill="white"/>
<path d="M16.6977 7.39307H16.6572C16.6572 7.57851 16.6732 7.73821 16.703 7.87709C16.908 8.83043 17.7813 8.7712 18.8286 8.7712C20.0278 8.7712 20.9999 8.85003 20.9999 7.39307H16.6977Z" fill="white"/>
<path d="M14.5896 6.3458V5.73475C14.5896 5.46149 14.2747 5.44434 13.8858 5.44434H13.2507C12.8622 5.44434 12.5473 5.46149 12.5473 5.73475V6.26125V6.66971H8.05428V6.26125V5.73475C8.05428 5.46149 7.73936 5.44434 7.35092 5.44434H6.71536C6.32692 5.44434 6.012 5.46149 6.012 5.73475V6.3458V6.87925C4.9884 7.94287 1.63905 12.4706 1.51733 13.0188L1.51897 16.6765C1.51897 17.0143 1.79386 17.2892 2.13165 17.2892H18.4699C18.8077 17.2892 19.0826 17.0143 19.0826 16.6765V13.0004C18.9621 12.4682 15.6136 7.94246 14.5896 6.87884V6.3458ZM7.8329 13.511C7.50409 13.511 7.23737 13.2446 7.23737 12.9154C7.23737 12.5862 7.50409 12.3199 7.8329 12.3199C8.1617 12.3199 8.42843 12.5862 8.42843 12.9154C8.42843 13.2446 8.1617 13.511 7.8329 13.511ZM7.8329 11.4687C7.50409 11.4687 7.23737 11.2024 7.23737 10.8731C7.23737 10.5439 7.50409 10.2776 7.8329 10.2776C8.1617 10.2776 8.42843 10.5439 8.42843 10.8731C8.42843 11.2024 8.1617 11.4687 7.8329 11.4687ZM7.8329 9.42679C7.50409 9.42679 7.23737 9.16048 7.23737 8.83126C7.23737 8.50245 7.50409 8.23573 7.8329 8.23573C8.1617 8.23573 8.42843 8.50245 8.42843 8.83126C8.42843 9.16048 8.1617 9.42679 7.8329 9.42679ZM10.2836 13.511C9.95483 13.511 9.68811 13.2446 9.68811 12.9154C9.68811 12.5862 9.95483 12.3199 10.2836 12.3199C10.6129 12.3199 10.8792 12.5862 10.8792 12.9154C10.8792 13.2446 10.6129 13.511 10.2836 13.511ZM10.2836 11.4687C9.95483 11.4687 9.68811 11.2024 9.68811 10.8731C9.68811 10.5439 9.95483 10.2776 10.2836 10.2776C10.6129 10.2776 10.8792 10.5439 10.8792 10.8731C10.8792 11.2024 10.6129 11.4687 10.2836 11.4687ZM10.2836 9.42679C9.95483 9.42679 9.68811 9.16048 9.68811 8.83126C9.68811 8.50245 9.95483 8.23573 10.2836 8.23573C10.6129 8.23573 10.8792 8.50245 10.8792 8.83126C10.8792 9.16048 10.6129 9.42679 10.2836 9.42679ZM12.7344 13.511C12.4052 13.511 12.1389 13.2446 12.1389 12.9154C12.1389 12.5862 12.4052 12.3199 12.7344 12.3199C13.0636 12.3199 13.3299 12.5862 13.3299 12.9154C13.3299 13.2446 13.0636 13.511 12.7344 13.511ZM12.7344 11.4687C12.4052 11.4687 12.1389 11.2024 12.1389 10.8731C12.1389 10.5439 12.4052 10.2776 12.7344 10.2776C13.0636 10.2776 13.3299 10.5439 13.3299 10.8731C13.3299 11.2024 13.0636 11.4687 12.7344 11.4687ZM12.7344 9.42679C12.4052 9.42679 12.1389 9.16048 12.1389 8.83126C12.1389 8.50245 12.4052 8.23573 12.7344 8.23573C13.0636 8.23573 13.3299 8.50245 13.3299 8.83126C13.3299 9.16048 13.0636 9.42679 12.7344 9.42679Z" fill="white"/>
</svg>
