<svg width="21" height="21" viewBox="0 0 21 21" fill="none" xmlns="http://www.w3.org/2000/svg">
<path d="M15.9659 13.8919C15.2798 13.2145 14.4233 13.2145 13.7416 13.8919C13.2216 14.4075 12.7015 14.9232 12.1903 15.4476C12.0504 15.5918 11.9324 15.6224 11.762 15.5262C11.4255 15.3427 11.0672 15.1941 10.7438 14.9931C9.23621 14.0448 7.97331 12.8256 6.85461 11.4535C6.29963 10.7718 5.80583 10.042 5.46061 9.22045C5.39069 9.05439 5.4038 8.94514 5.53927 8.80968C6.05929 8.30714 6.5662 7.79149 7.07748 7.27584C7.78977 6.55918 7.78977 5.72015 7.07311 4.99912C6.66671 4.58835 6.2603 4.18632 5.8539 3.77555C5.43439 3.35604 5.01925 2.93216 4.59537 2.51701C3.90929 1.84842 3.05279 1.84842 2.37109 2.52138C1.8467 3.03703 1.34416 3.56579 0.81103 4.0727C0.317231 4.54028 0.0681459 5.11274 0.015707 5.78133C-0.0673212 6.86944 0.199243 7.89637 0.575055 8.89707C1.34416 10.9684 2.51529 12.8081 3.93551 14.4949C5.8539 16.776 8.14373 18.5808 10.8225 19.883C12.0286 20.4686 13.2784 20.9187 14.6374 20.993C15.5726 21.0454 16.3854 20.8094 17.0365 20.0797C17.4822 19.5815 17.9848 19.127 18.4567 18.6507C19.1559 17.9428 19.1603 17.0863 18.4655 16.3871C17.6352 15.5524 16.8005 14.7222 15.9659 13.8919Z" fill="white"/>
<path d="M15.1313 10.4093L16.7438 10.134C16.4903 8.65262 15.7911 7.31106 14.7292 6.2448C13.6062 5.12173 12.1859 4.41381 10.6215 4.19531L10.3943 5.81655C11.6048 5.98697 12.706 6.53321 13.5756 7.40282C14.3971 8.22437 14.9346 9.2644 15.1313 10.4093Z" fill="white"/>
<path d="M17.6527 3.39979C15.7911 1.53821 13.4357 0.362702 10.8356 0L10.6084 1.62124C12.8545 1.93587 14.8909 2.95406 16.499 4.55781C18.0241 6.08291 19.0248 8.01004 19.3875 10.1294L21 9.85414C20.5762 7.39825 19.4181 5.1696 17.6527 3.39979Z" fill="white"/>
</svg>
