<svg width="20" height="20" viewBox="0 0 20 20" fill="none" xmlns="http://www.w3.org/2000/svg">
<path d="M20 3.12227C19.9992 2.2867 19.6726 1.50164 19.0802 0.91158C17.8583 -0.30546 15.8719 -0.303782 14.6514 0.916157L2.04387 13.553C1.63378 13.9621 1.32075 14.4685 1.13856 15.0177L1.12679 15.0534L0 20L4.96874 18.8895L5.00573 18.8773C5.55598 18.6954 6.06358 18.3832 6.47474 17.9729L19.084 5.33449C19.6754 4.74336 20.0008 3.95769 20 3.12227ZM2.75537 17.7841L2.22851 17.2578L2.60894 15.5873L4.43286 17.4092L2.75537 17.7841ZM17.9766 4.23189L5.73527 16.5016L3.51853 14.2873L11.9039 5.88258L13.1807 7.1573L14.2866 6.05333L13.0074 4.77632L14.197 3.58415L15.4785 4.86345L16.5843 3.75948L15.3006 2.47789L15.7587 2.01876C16.3693 1.40841 17.3639 1.40749 17.9755 2.01677C18.2721 2.31218 18.4356 2.70525 18.4361 3.12349C18.4364 3.54189 18.2736 3.93511 17.9766 4.23189ZM8.22713 18.4218H20V19.9831H6.66855L8.22713 18.4218Z" fill="white"/>
</svg>
