<svg width="17" height="17" viewBox="0 0 17 17" fill="none" xmlns="http://www.w3.org/2000/svg">
<path d="M0.10791 8.97964C1.138 8.97964 2.09105 9.17164 3.01551 9.58448C3.94155 9.96849 4.76435 10.5461 5.47914 11.2861C6.19234 12.055 6.74987 12.8798 7.11838 13.8398C7.51628 14.8279 7.67512 15.8456 7.67512 16.8608H10.8265C10.8265 13.8135 9.76468 11.2046 7.67512 9.00601C5.55618 6.80993 3.06792 5.7395 0.10791 5.7395V8.97964Z" fill="white"/>
<path d="M0.10791 0V3.24014C3.73188 3.24014 6.8277 4.58497 9.36679 7.22273C11.9106 9.91406 13.2068 13.127 13.2068 16.8904H16.3304C16.3304 12.2486 14.7428 8.23795 11.5937 4.94343C8.41612 1.64644 4.60551 0 0.10791 0Z" fill="white"/>
<path d="M3.73198 13.0991C3.30708 12.6335 2.80594 12.4143 2.19519 12.4143C1.58921 12.4143 1.08489 12.6335 0.634572 13.0991C0.212848 13.5663 0 14.0879 0 14.7183C0 15.352 0.212848 15.8728 0.635366 16.3137C1.08489 16.7793 1.59 17.0001 2.19598 17.0001C2.80673 17.0001 3.30708 16.7793 3.73278 16.3137C4.18071 15.8736 4.39197 15.352 4.39197 14.7183C4.39118 14.0879 4.18071 13.5663 3.73198 13.0991Z" fill="white"/>
</svg>
