<svg width="15" height="11" viewBox="0 0 15 11" fill="none" xmlns="http://www.w3.org/2000/svg">
<path d="M14.6895 3.80293L8.29365 0.0604783C8.15711 -0.0194698 7.98836 -0.0201536 7.85095 0.0584273C7.71369 0.137116 7.62895 0.28316 7.62881 0.441401L7.62751 2.13125C7.61985 2.13312 7.61384 2.13463 7.6097 2.13578C7.44988 2.18036 7.28002 2.22944 7.07525 2.29028C6.41117 2.48756 5.72898 2.74338 4.92839 3.0953C4.23364 3.40067 3.5539 3.79483 2.90809 4.26678C2.44661 4.60403 2.0124 4.99294 1.61759 5.42269C0.543293 6.5919 -0.0453074 8.14448 0.00272624 9.68239C0.0111456 9.95181 0.041441 10.2104 0.0699733 10.4278C0.0983257 10.6439 0.280098 10.807 0.498066 10.8119C0.501412 10.812 0.504758 10.812 0.508033 10.812C0.721755 10.812 0.905542 10.6586 0.94289 10.4472C1.06177 9.77518 1.25138 9.2231 1.52257 8.75939C1.8615 8.17996 2.32216 7.69347 2.85459 7.35249C3.31219 7.05939 3.79558 6.83451 4.33248 6.6648C4.95872 6.4668 5.64925 6.3427 6.44348 6.28538C6.76395 6.26221 7.10918 6.25059 7.53008 6.24865C7.54282 6.24865 7.57009 6.2489 7.60557 6.24937L7.60672 7.84293C7.60683 8.00024 7.69062 8.14564 7.82666 8.22458C7.96274 8.30359 8.13055 8.30424 8.26724 8.22634L14.685 4.56794C14.8222 4.48979 14.9071 4.3445 14.908 4.18666C14.909 4.02892 14.8256 3.88266 14.6895 3.80293Z" fill="#0A58BF"/>
</svg>
