<svg width="32" height="32" viewBox="0 0 32 32" fill="none" xmlns="http://www.w3.org/2000/svg">
<path d="M32 15.9915L17.4115 0V9.5791H15.7168C11.5188 9.5791 7.57194 11.2134 4.60339 14.1809C1.63484 17.1484 0 21.094 0 25.2908V32L2.79979 28.9333C6.54497 24.8315 11.8612 22.4587 17.4115 22.4048V31.9832L32 15.9915ZM1.87589 27.1792V25.2908C1.87589 21.595 3.31559 18.1201 5.92977 15.5068C8.54395 12.8936 12.0198 11.4543 15.7168 11.4543H19.2871V4.83911L29.4615 15.9915L19.2871 27.144V20.5288H17.6042C11.6832 20.5288 5.98936 22.9446 1.87589 27.1792Z" fill="#3C5996"/>
</svg>
