<svg width="21" height="18" viewBox="0 0 21 18" fill="none" xmlns="http://www.w3.org/2000/svg">
<path d="M21 2.02543C20.1738 2.38079 19.3475 2.60271 18.5217 2.69185C19.4544 2.13222 20.0853 1.34161 20.414 0.320071C19.5608 0.826312 18.6504 1.17266 17.6822 1.3593C16.8294 0.453223 15.7813 0 14.5374 0C13.3472 0 12.3324 0.419667 11.4926 1.25919C10.6532 2.09866 10.2335 3.11348 10.2335 4.30378C10.2335 4.62352 10.269 4.95232 10.3401 5.28984C8.58119 5.20103 6.93118 4.7591 5.38981 3.96406C3.84855 3.16892 2.5405 2.10958 1.46566 0.786035C1.07479 1.45213 0.879284 2.17623 0.879284 2.95792C0.879284 3.69523 1.05248 4.37934 1.39911 5.01005C1.7455 5.64067 2.21198 6.15139 2.79831 6.54231C2.10529 6.51561 1.45684 6.33346 0.852868 5.99588V6.04918C0.852868 7.0886 1.17933 8.00116 1.83217 8.78756C2.4851 9.57388 3.30908 10.0688 4.30392 10.2732C3.93078 10.3708 3.55317 10.4197 3.17126 10.4197C2.9225 10.4197 2.65153 10.3975 2.35843 10.3534C2.63379 11.2149 3.14017 11.9231 3.87739 12.4786C4.61475 13.0338 5.44979 13.32 6.38256 13.3382C4.81917 14.5639 3.0381 15.1767 1.03937 15.1767C0.657316 15.1767 0.31097 15.1593 0 15.1235C1.99878 16.4115 4.2018 17.0554 6.60919 17.0554C8.13711 17.0554 9.57178 16.8136 10.9127 16.3294C12.2543 15.8454 13.4002 15.1968 14.3508 14.3839C15.3011 13.5711 16.1208 12.6361 16.8091 11.5791C17.4975 10.5219 18.0103 9.41828 18.3482 8.26793C18.6856 7.11734 18.8545 5.96499 18.8545 4.80997C18.8545 4.56121 18.85 4.37476 18.8411 4.25034C19.6852 3.63769 20.4048 2.8958 21 2.02543Z" fill="white"/>
</svg>
