<svg width="34" height="32" viewBox="0 0 34 32" fill="none" xmlns="http://www.w3.org/2000/svg">
<path d="M31.9618 17.6463C32.7203 16.7775 33.0997 15.7501 33.0997 14.5639C33.0997 13.4882 32.7061 12.5575 31.9216 11.7709C31.1355 10.9845 30.2047 10.5915 29.129 10.5915H23.399C23.454 10.3985 23.5092 10.233 23.5643 10.0951C23.6189 9.9572 23.6955 9.80533 23.7917 9.63984C23.8879 9.47427 23.9571 9.35008 23.9983 9.26748C24.2465 8.79883 24.4365 8.41241 24.5676 8.10925C24.6985 7.80551 24.8289 7.39193 24.9603 6.86785C25.0915 6.34405 25.1568 5.81975 25.1568 5.29567C25.1568 4.96483 25.1528 4.69565 25.1463 4.48893C25.1398 4.28207 25.1047 3.97166 25.0431 3.55786C24.9807 3.14428 24.8978 2.79945 24.7946 2.52375C24.691 2.24798 24.5254 1.93743 24.2982 1.5929C24.0706 1.24771 23.7949 0.968824 23.4705 0.75493C23.1462 0.541182 22.7326 0.361923 22.2292 0.217226C21.7253 0.0723846 21.1568 0 20.522 0C20.1635 0 19.8534 0.131075 19.5911 0.393152C19.3153 0.668924 19.0805 1.01367 18.8876 1.42726C18.6945 1.84106 18.5599 2.19965 18.484 2.50317C18.4081 2.80655 18.3218 3.22731 18.2257 3.76502C18.1011 4.34453 18.0084 4.76145 17.946 5.01657C17.884 5.27169 17.763 5.60608 17.5839 6.01974C17.4044 6.43368 17.1909 6.76445 16.9426 7.01283C16.4876 7.46786 15.7912 8.29539 14.8531 9.49514C14.1772 10.3777 13.4808 11.212 12.7637 11.9982C12.0464 12.7845 11.5224 13.1912 11.1915 13.2189C10.847 13.2464 10.5504 13.3878 10.3021 13.643C10.0538 13.8981 9.92969 14.1982 9.92969 14.5429V27.8032C9.92969 28.1618 10.0606 28.4685 10.3227 28.7237C10.5846 28.9791 10.895 29.1135 11.2536 29.1273C11.7362 29.1412 12.8257 29.4442 14.5222 30.0378C15.5839 30.3958 16.4147 30.6686 17.0147 30.8545C17.6145 31.0405 18.4529 31.2406 19.5278 31.4546C20.6037 31.6683 21.5965 31.7755 22.5065 31.7755H22.8583H24.4306H25.1752C27.0099 31.7479 28.3677 31.2099 29.2507 30.162C30.0503 29.2103 30.388 27.9621 30.2643 26.4175C30.8021 25.9072 31.1748 25.2593 31.3813 24.473C31.6154 23.6322 31.6154 22.8254 31.3813 22.0532C32.0156 21.2119 32.3122 20.2672 32.2705 19.219C32.2723 18.7773 32.1691 18.2533 31.9618 17.6463Z" fill="#9A3723"/>
<path d="M7.28194 13.2399H1.32423C0.965418 13.2399 0.655085 13.371 0.39308 13.6331C0.131075 13.895 0 14.2054 0 14.564V27.8042C0 28.1623 0.131075 28.4727 0.393152 28.735C0.655374 28.9967 0.965708 29.1278 1.3243 29.1278H7.28194C7.64046 29.1278 7.95064 28.9967 8.21279 28.735C8.4748 28.4727 8.6058 28.1623 8.6058 27.8042V14.564C8.6058 14.2054 8.47473 13.8951 8.21279 13.6331C7.95072 13.3709 7.64053 13.2399 7.28194 13.2399ZM4.90281 26.097C4.6408 26.3521 4.33054 26.4797 3.97195 26.4797C3.59952 26.4797 3.28571 26.3521 3.03074 26.097C2.77561 25.8419 2.64809 25.5282 2.64809 25.1558C2.64809 24.7973 2.77554 24.4869 3.03074 24.2249C3.28578 23.9629 3.59952 23.8316 3.97195 23.8316C4.33054 23.8316 4.6408 23.9629 4.90281 24.2249C5.16489 24.4868 5.29596 24.7972 5.29596 25.1558C5.29596 25.5282 5.16518 25.8418 4.90281 26.097Z" fill="#9A3723"/>
</svg>
