<svg width="19" height="19" viewBox="0 0 19 19" fill="none" xmlns="http://www.w3.org/2000/svg">
<path d="M18.3472 10.1295C18.7826 9.63076 19.0004 9.04103 19.0004 8.36012C19.0004 7.74264 18.7745 7.20834 18.3242 6.75685C17.8729 6.30541 17.3386 6.07981 16.7211 6.07981H13.4319C13.4635 5.96901 13.4952 5.87401 13.5268 5.79486C13.5582 5.71571 13.6022 5.62853 13.6574 5.53354C13.7126 5.4385 13.7523 5.36721 13.776 5.31979C13.9184 5.05078 14.0275 4.82896 14.1028 4.65494C14.1779 4.48058 14.2528 4.24318 14.3282 3.94234C14.4035 3.64167 14.441 3.3407 14.441 3.03986C14.441 2.84995 14.4387 2.69544 14.4349 2.57677C14.4312 2.45803 14.4111 2.27985 14.3758 2.04231C14.3399 1.8049 14.2923 1.60696 14.2331 1.44871C14.1736 1.2904 14.0785 1.11214 13.9481 0.914368C13.8175 0.716221 13.6592 0.556132 13.473 0.433351C13.2868 0.310654 13.0494 0.207754 12.7605 0.124694C12.4712 0.0415508 12.1449 0 11.7805 0C11.5747 0 11.3967 0.0752407 11.2461 0.22568C11.0878 0.383981 10.953 0.581878 10.8423 0.819287C10.7314 1.05682 10.6542 1.26266 10.6106 1.43689C10.567 1.61104 10.5175 1.85257 10.4623 2.16123C10.3908 2.49388 10.3376 2.7332 10.3018 2.87965C10.2662 3.0261 10.1968 3.21805 10.0939 3.4555C9.99091 3.69312 9.86834 3.88298 9.7258 4.02556C9.4646 4.28676 9.06486 4.76179 8.5264 5.45048C8.13838 5.95707 7.73864 6.43601 7.327 6.88729C6.91528 7.33865 6.61448 7.57215 6.42453 7.588C6.22676 7.6038 6.05652 7.68495 5.91398 7.83148C5.77144 7.97792 5.7002 8.15016 5.7002 8.34801V15.9598C5.7002 16.1657 5.77535 16.3417 5.92579 16.4882C6.07615 16.6348 6.25429 16.712 6.46013 16.7199C6.73718 16.7278 7.3626 16.9018 8.33641 17.2426C8.9459 17.4481 9.4228 17.6047 9.76719 17.7114C10.1115 17.8181 10.5928 17.933 11.2098 18.0559C11.8274 18.1785 12.3973 18.24 12.9196 18.24H13.1216H14.0241H14.4515C15.5047 18.2242 16.2841 17.9154 16.791 17.3138C17.25 16.7675 17.4439 16.0511 17.3729 15.1644C17.6816 14.8715 17.8955 14.4996 18.014 14.0482C18.1484 13.5656 18.1484 13.1024 18.014 12.6592C18.3781 12.1762 18.5484 11.6339 18.5245 11.0323C18.5255 10.7787 18.4662 10.4779 18.3472 10.1295Z" fill="#9A3723"/>
<path d="M4.18003 7.6001H0.760142C0.554177 7.6001 0.376037 7.67534 0.225639 7.82578C0.0752406 7.97613 0 8.15428 0 8.36012V15.9604C0 16.1659 0.0752406 16.3442 0.22568 16.4947C0.376203 16.6449 0.554343 16.7202 0.760184 16.7202H4.18003C4.38583 16.7202 4.56389 16.6449 4.71437 16.4947C4.86477 16.3442 4.93997 16.166 4.93997 15.9604V8.36012C4.93997 8.15428 4.86473 7.97618 4.71437 7.82578C4.56393 7.6753 4.38587 7.6001 4.18003 7.6001ZM2.81435 14.9804C2.66395 15.1269 2.48585 15.2001 2.28001 15.2001C2.06623 15.2001 1.88609 15.1269 1.73973 14.9804C1.59328 14.834 1.52008 14.6539 1.52008 14.4401C1.52008 14.2343 1.59324 14.0562 1.73973 13.9058C1.88613 13.7554 2.06623 13.68 2.28001 13.68C2.48585 13.68 2.66395 13.7554 2.81435 13.9058C2.96479 14.0561 3.04003 14.2343 3.04003 14.4401C3.04003 14.6539 2.96495 14.8339 2.81435 14.9804Z" fill="#9A3723"/>
</svg>
