<svg width="32" height="32" viewBox="0 0 32 32" fill="none" xmlns="http://www.w3.org/2000/svg">
<path d="M30.1732 21.7549C30.829 20.9185 31.1435 20.0218 31.1033 19.0983C31.0632 18.0811 30.6081 17.2848 30.2334 16.7963C30.6684 15.7123 30.8357 14.0059 29.3835 12.6809C28.3196 11.7106 26.5128 11.2756 24.0101 11.3961C22.2501 11.4764 20.7779 11.8043 20.7177 11.8177H20.711C20.3764 11.8779 20.0218 11.9515 19.6604 12.0318C19.6336 11.6035 19.7073 10.5395 20.4969 8.14388C21.4337 5.29319 21.3802 3.11167 20.3229 1.65287C19.2121 0.120452 17.4387 0 16.9168 0C16.4149 0 15.9532 0.207445 15.6253 0.588875C14.8825 1.45211 14.9695 3.04475 15.0632 3.78085C14.1799 6.14973 11.7039 11.9582 9.60938 13.5709C9.56922 13.5977 9.53577 13.6311 9.50231 13.6646C8.88667 14.3137 8.47178 15.0163 8.19072 15.632C7.79591 15.4178 7.34756 15.2974 6.86575 15.2974H2.78377C1.24467 15.2974 0 16.5487 0 18.0812V28.9553C0 30.4944 1.25136 31.739 2.78377 31.739H6.86575C7.46132 31.739 8.01674 31.5517 8.47178 31.2305L10.0443 31.4178C10.2852 31.4513 14.568 31.9933 18.9645 31.9063C19.7608 31.9666 20.5103 32 21.2062 32C22.404 32 23.4479 31.9063 24.3179 31.719C26.3656 31.284 27.7641 30.4141 28.4735 29.1359C29.0155 28.1589 29.0155 27.1886 28.9285 26.573C30.2602 25.3685 30.4944 24.0368 30.4475 23.1C30.4208 22.5579 30.3003 22.0962 30.1732 21.7549ZM2.78377 29.9323C2.24174 29.9323 1.80678 29.4906 1.80678 28.9553V18.0745C1.80678 17.5324 2.24843 17.0975 2.78377 17.0975H6.86575C7.40778 17.0975 7.84275 17.5391 7.84275 18.0745V28.9486C7.84275 29.4906 7.40109 29.9256 6.86575 29.9256H2.78377V29.9323ZM28.4601 20.972C28.179 21.2664 28.1255 21.7148 28.3396 22.0627C28.3396 22.0694 28.614 22.5379 28.6474 23.1803C28.6943 24.0569 28.2727 24.8331 27.3894 25.4956C27.0749 25.7365 26.9477 26.1514 27.0816 26.5262C27.0816 26.5328 27.3693 27.4162 26.9009 28.2526C26.4526 29.0556 25.4555 29.6311 23.9431 29.9523C22.7319 30.2133 21.0858 30.2602 19.0648 30.0996C19.0381 30.0996 19.0046 30.0996 18.9712 30.0996C14.6684 30.1932 10.3187 29.6311 10.2719 29.6244H10.2652L9.5893 29.5441C9.62945 29.3568 9.64953 29.156 9.64953 28.9553V18.0745C9.64953 17.7867 9.60268 17.5057 9.52238 17.2447C9.64283 16.7963 9.97742 15.7993 10.7671 14.9494C13.7717 12.5671 16.7093 4.53032 16.8365 4.18235C16.89 4.04183 16.9034 3.88792 16.8766 3.734C16.7629 2.98453 16.803 2.06776 16.9636 1.79339C17.3183 1.80008 18.2752 1.90046 18.8507 2.69678C19.5333 3.64032 19.5065 5.32664 18.7704 7.56169C17.6462 10.9678 17.5525 12.7612 18.4425 13.5508C18.8842 13.9456 19.473 13.9657 19.9013 13.8118C20.3095 13.7181 20.6976 13.6378 21.0657 13.5776C21.0924 13.5709 21.1259 13.5642 21.1527 13.5575C23.207 13.1092 26.8875 12.8348 28.1656 13.9992C29.2497 14.9896 28.4802 16.3011 28.3932 16.4417C28.1456 16.8164 28.2192 17.3049 28.5538 17.606C28.5605 17.6127 29.2631 18.2752 29.2966 19.1652C29.3233 19.7608 29.0423 20.3697 28.4601 20.972Z" fill="#555555"/>
</svg>
