<svg width="64" height="72" viewBox="0 0 64 72" fill="none" xmlns="http://www.w3.org/2000/svg">
<path d="M27.4296 36.4939C37.568 36.4933 41.2159 26.342 42.1709 18.0034C43.3472 7.73118 38.4896 0 27.4296 0C16.371 0 11.5108 7.73059 12.6881 18.0034C13.644 26.342 17.2909 36.4946 27.4296 36.4939Z" fill="#DC4200"/>
<path d="M49.5983 40.7194C49.9245 40.7194 50.2487 40.7291 50.5705 40.747C50.0881 40.0588 49.5296 39.4517 48.8761 38.9637C46.9279 37.5097 44.4049 37.0327 42.1744 36.1562C41.0887 35.7297 40.1164 35.3061 39.2037 34.8237C36.1232 38.202 32.1062 39.9691 27.4283 39.9696C22.7519 39.9696 18.7352 38.2024 15.6551 34.8237C14.7424 35.3062 13.7699 35.7297 12.6844 36.1562C10.4539 37.0328 7.93101 37.5097 5.98277 38.9637C2.6136 41.4784 1.74289 47.1355 1.05877 50.9943C0.494185 54.1797 0.114891 57.4304 0.0041852 60.666C-0.0815795 63.1722 1.15583 63.5236 3.25254 64.2802C5.87783 65.227 8.58854 65.93 11.3175 66.5062C16.5877 67.6191 22.0202 68.4743 27.4292 68.5126C30.0502 68.4938 32.6764 68.2824 35.2871 67.944C33.3541 65.1431 32.2203 61.7504 32.2203 58.0975C32.2204 48.515 40.0161 40.7194 49.5983 40.7194Z" fill="#DC4200"/>
<path d="M49.5983 44.1951C41.9204 44.1951 35.6958 50.4197 35.6958 58.0976C35.6958 65.7754 41.9203 72 49.5983 72C57.2763 72 63.5009 65.7754 63.5009 58.0976C63.5007 50.4195 57.2761 44.1951 49.5983 44.1951ZM55.6806 60.4827H51.9836V64.1797C51.9836 65.4971 50.9157 66.5651 49.5984 66.5651C48.281 66.5651 47.213 65.4971 47.213 64.1797V60.4827H43.516C42.1986 60.4827 41.1306 59.4148 41.1306 58.0973C41.1306 56.7799 42.1985 55.7119 43.516 55.7119H47.213V52.015C47.213 50.6975 48.281 49.6295 49.5984 49.6295C50.9158 49.6295 51.9836 50.6975 51.9836 52.015V55.7119H55.6806C56.998 55.7119 58.066 56.7799 58.066 58.0973C58.0659 59.415 56.9982 60.4827 55.6806 60.4827Z" fill="#DC4200"/>
</svg>
