<svg width="15" height="17" viewBox="0 0 15 17" fill="none" xmlns="http://www.w3.org/2000/svg">
<path d="M5.52495 0H4.5687L3.9312 2.44375L3.2937 0H2.2312C2.4437 0.6375 2.6562 1.16875 2.8687 1.80625C3.18745 2.65625 3.39995 3.4 3.39995 3.825V6.375H4.3562V3.825L5.52495 0ZM8.07495 4.78125V3.1875C8.07495 2.65625 7.9687 2.3375 7.7562 2.01875C7.5437 1.7 7.22495 1.59375 6.79995 1.59375C6.37495 1.59375 6.0562 1.80625 5.8437 2.125C5.6312 2.3375 5.52495 2.65625 5.52495 3.1875V4.8875C5.52495 5.41875 5.6312 5.7375 5.8437 5.95C6.0562 6.26875 6.37495 6.375 6.79995 6.375C7.22495 6.375 7.5437 6.1625 7.7562 5.84375C7.9687 5.7375 8.07495 5.3125 8.07495 4.78125ZM7.22495 4.99375C7.22495 5.41875 7.1187 5.63125 6.79995 5.63125C6.4812 5.63125 6.37495 5.41875 6.37495 4.99375V2.975C6.37495 2.55 6.4812 2.3375 6.79995 2.3375C7.1187 2.3375 7.22495 2.55 7.22495 2.975V4.99375ZM11.2625 6.375V1.59375H10.4125V5.20625C10.2 5.525 10.0937 5.63125 9.8812 5.63125C9.77495 5.63125 9.6687 5.525 9.6687 5.41875C9.6687 5.41875 9.6687 5.3125 9.6687 5.1V1.59375H8.8187V5.3125C8.8187 5.63125 8.8187 5.84375 8.92495 6.05625C8.92495 6.26875 9.13745 6.375 9.4562 6.375C9.77495 6.375 10.0937 6.1625 10.4125 5.84375V6.375H11.2625Z" fill="white"/>
<path d="M11.6875 11.1562C11.3687 11.1562 11.2625 11.3688 11.2625 11.7938V12.2188H12.1125V11.7938C12.1125 11.3688 12.0062 11.1562 11.6875 11.1562Z" fill="white"/>
<path d="M8.60615 11.1562C8.4999 11.1562 8.2874 11.2625 8.18115 11.3687V14.2375C8.2874 14.3438 8.4999 14.45 8.60615 14.45C8.81865 14.45 8.9249 14.2375 8.9249 13.8125V11.7938C8.9249 11.3688 8.81865 11.1562 8.60615 11.1562Z" fill="white"/>
<path d="M13.8125 8.81885C13.6 8.0751 12.9625 7.4376 12.325 7.4376C10.625 7.2251 8.81875 7.2251 7.0125 7.2251C5.20625 7.2251 3.50625 7.2251 1.7 7.4376C1.0625 7.4376 0.425 8.0751 0.2125 8.81885C4.74975e-08 9.88135 0 11.0501 0 12.1126C0 13.1751 4.74975e-08 14.3438 0.2125 15.4063C0.425 16.1501 0.95625 16.6813 1.7 16.7876C3.50625 17.0001 5.20625 17.0001 7.0125 17.0001C8.81875 17.0001 10.5188 17.0001 12.325 16.7876C13.0688 16.6813 13.7063 16.1501 13.8125 15.4063C14.025 14.3438 14.025 13.1751 14.025 12.1126C14.025 11.0501 14.025 9.88135 13.8125 8.81885ZM4.0375 9.7751H2.975V15.1938H2.01875V9.7751H1.0625V8.81885H4.0375V9.7751ZM6.5875 15.1938H5.7375V14.6626C5.41875 15.0876 5.1 15.1938 4.78125 15.1938C4.4625 15.1938 4.35625 15.0876 4.25 14.8751C4.25 14.7688 4.14375 14.5563 4.14375 14.1313V10.4126H4.99375V13.8126C4.99375 14.0251 4.99375 14.1313 4.99375 14.1313C4.99375 14.2376 5.1 14.3438 5.20625 14.3438C5.41875 14.3438 5.525 14.2376 5.7375 13.9188V10.4126H6.5875V15.1938ZM9.775 13.7063C9.775 14.1313 9.775 14.4501 9.66875 14.6626C9.5625 14.9813 9.35 15.1938 9.03125 15.1938C8.7125 15.1938 8.39375 14.9813 8.18125 14.6626V15.0876H7.33125V8.81885H8.18125V10.8376C8.5 10.5188 8.7125 10.3063 9.03125 10.3063C9.35 10.3063 9.5625 10.5188 9.66875 10.8376C9.775 11.0501 9.775 11.3688 9.775 11.7938V13.7063ZM12.9625 12.9626H11.2625V13.8126C11.2625 14.2376 11.3687 14.4501 11.6875 14.4501C11.9 14.4501 12.0063 14.3438 12.1125 14.1313C12.1125 14.1313 12.1125 13.9188 12.1125 13.6001H12.9625V13.7063C12.9625 14.0251 12.9625 14.1313 12.9625 14.2376C12.9625 14.4501 12.8562 14.5563 12.75 14.7688C12.5375 15.0876 12.2188 15.3001 11.6875 15.3001C11.2625 15.3001 10.9438 15.0876 10.625 14.7688C10.4125 14.5563 10.3063 14.1313 10.3063 13.7063V12.1126C10.3063 11.5813 10.4125 11.2626 10.5188 11.0501C10.7313 10.7313 11.05 10.5188 11.5813 10.5188C12.0063 10.5188 12.325 10.7313 12.5375 11.0501C12.75 11.2626 12.75 11.6876 12.75 12.1126V12.9626H12.9625Z" fill="white"/>
</svg>
