<?xml version="1.0" standalone="no"?>
<!DOCTYPE svg PUBLIC "-//W3C//DTD SVG 1.1//EN" "http://www.w3.org/Graphics/SVG/1.1/DTD/svg11.dtd" >
<svg xmlns="http://www.w3.org/2000/svg" xmlns:xlink="http://www.w3.org/1999/xlink" version="1.1">
<metadata>
Created by FontForge 20160405 at Tue May 23 11:12:23 2017
 By www-data
</metadata>
<defs>
<font id="OfficinaSerif" horiz-adv-x="1024" >
  <font-face 
    font-family="OfficinaSerif"
    font-weight="400"
    font-stretch="normal"
    units-per-em="2048"
    panose-1="2 11 5 0 0 0 0 0 0 0"
    ascent="1638"
    descent="-410"
    x-height="983"
    cap-height="1403"
    bbox="-907 -512 2132 2116"
    underline-thickness="50"
    underline-position="-175"
    unicode-range="U+0020-F02A"
  />
<missing-glyph horiz-adv-x="1536" 
d="M256 0v1280h1024v-1280h-1024zM1247 33v1214h-958v-1214h958z" />
    <glyph glyph-name=".notdef" horiz-adv-x="1536" 
d="M256 0v1280h1024v-1280h-1024zM1247 33v1214h-958v-1214h958z" />
    <glyph glyph-name=".null" horiz-adv-x="0" 
 />
    <glyph glyph-name="nonmarkingreturn" horiz-adv-x="0" 
 />
    <glyph glyph-name="space" unicode=" " horiz-adv-x="606" 
 />
    <glyph glyph-name="space" unicode="&#x2031;" horiz-adv-x="606" 
 />
    <glyph glyph-name="space" unicode="&#x2025;" horiz-adv-x="606" 
 />
    <glyph glyph-name="space" unicode="&#x2024;" horiz-adv-x="606" 
 />
    <glyph glyph-name="space" unicode="&#x2023;" horiz-adv-x="606" 
 />
    <glyph glyph-name="space" unicode="&#x201f;" horiz-adv-x="606" 
 />
    <glyph glyph-name="space" unicode="&#x201b;" horiz-adv-x="606" 
 />
    <glyph glyph-name="space" unicode="&#x2017;" horiz-adv-x="606" 
 />
    <glyph glyph-name="space" unicode="&#x2016;" horiz-adv-x="606" 
 />
    <glyph glyph-name="space" unicode="&#x2015;" horiz-adv-x="606" 
 />
    <glyph glyph-name="exclam" unicode="!" horiz-adv-x="682" 
d="M485 115q0 -60 -42 -102t-101 -42t-101 42t-42 102q0 61 42 102t101 41q38 0 71 -19t52.5 -51.5t19.5 -72.5zM440 1346l-43 -777q0 -16 -6.5 -21t-21.5 -5h-58q-13 0 -20 5.5t-8 20.5l-45 779q0 15 -0.5 22.5t-1.5 15.5q0 17 26 17h154q26 0 26 -17q0 -30 -2 -40z" />
    <glyph glyph-name="quotedbl" unicode="&#x22;" horiz-adv-x="797" 
d="M328 1417l-29 -463q-1 -17 -8 -21.5t-21 -4.5h-45q-16 0 -23 6t-7 20l-31 463q-2 13 -2 33q0 18 26 18h115q27 0 27 -18q0 -11 -0.5 -18t-1.5 -15zM631 1417l-29 -463q-1 -17 -8 -21.5t-21 -4.5h-45q-16 0 -23 6t-7 20l-31 463q-2 13 -2 33q0 18 27 18h114q27 0 27 -18
q0 -11 -0.5 -18t-1.5 -15z" />
    <glyph glyph-name="numbersign" unicode="#" 
d="M625 362l41 410h-258l-43 -410h260zM352 229l-37 -368q-2 -17 -6 -21t-22 -4h-74q-19 0 -23 4.5t-4 24.5l37 364h-112q-18 0 -22.5 5.5t-4.5 21.5v80q0 26 29 26h125l41 410h-134q-16 0 -16 16v101q0 16 16 16h148l43 412q3 19 8 24t23 5h73q18 0 21.5 -5t3.5 -24
l-43 -412h258l43 412q3 19 8 24t23 5h73q18 0 22.5 -5t4.5 -24l-43 -412h113q18 0 22 -5t4 -21v-80q0 -15 -5.5 -21t-22.5 -6h-125l-43 -410h135q16 0 16 -16v-100q0 -17 -16 -17h-148l-36 -362q-3 -21 -8 -26t-23 -5h-74q-18 0 -22.5 5.5t-4.5 23.5l37 364h-258z" />
    <glyph glyph-name="dollar" unicode="$" 
d="M584 1210v-467q109 -62 161 -97.5t103 -111.5t51 -186q0 -177 -102 -263.5t-213 -104.5v-134q0 -16 -5.5 -21t-23.5 -5h-53q-19 0 -24 5t-5 21v125q-56 0 -141 19.5t-146 45t-61 46.5q0 7 6 27l31 79q8 17 16 17q4 0 57.5 -26t108.5 -44q81 -24 129 -26v514
q-45 26 -99 57t-102 73.5t-81 105.5t-33 145q0 110 55 186t130.5 113.5t129.5 37.5v117q0 18 5 23.5t24 5.5h53q19 0 24 -5.5t5 -23.5v-112q37 0 106 -16t122.5 -39.5t53.5 -45.5q0 -4 -3 -9.5t-5 -10.5l-33 -82q-3 -10 -14 -10q-10 0 -41 16.5t-68 30.5q-57 21 -118 30z
M473 786v418q-59 -10 -103 -52t-44 -134q0 -50 15 -89t38.5 -66t49 -45.5t44.5 -31.5zM584 580v-463q60 14 103.5 66t43.5 149q0 100 -43 153t-104 95z" />
    <glyph glyph-name="percent" unicode="%" horiz-adv-x="1518" 
d="M326 758q74 0 108.5 66.5t34.5 176.5q0 234 -131 234q-74 0 -108.5 -68t-34.5 -178q0 -231 131 -231zM1016 1311l-410 -1319q-7 -21 -37 -21h-77q-27 0 -27 15q0 3 2 9t2 9l408 1321q1 9 9.5 15t20.5 6h86q27 0 27 -17q0 -3 -2 -9t-2 -9zM1178 82q74 0 108.5 66.5
t34.5 177.5q0 233 -131 233q-74 0 -108.5 -67.5t-34.5 -178.5q0 -231 131 -231zM604 1014q0 -118 -35 -201.5t-98 -124.5t-145 -41q-129 0 -198 89t-69 247q0 174 76.5 268.5t204.5 94.5q126 0 195 -87.5t69 -244.5zM1456 338q0 -118 -35 -201.5t-98 -124.5t-145 -41
q-129 0 -198 89t-69 247q0 174 76.5 268.5t204.5 94.5q126 0 195 -87.5t69 -244.5z" />
    <glyph glyph-name="percent" unicode="&#x202f;" horiz-adv-x="1518" 
d="M326 758q74 0 108.5 66.5t34.5 176.5q0 234 -131 234q-74 0 -108.5 -68t-34.5 -178q0 -231 131 -231zM1016 1311l-410 -1319q-7 -21 -37 -21h-77q-27 0 -27 15q0 3 2 9t2 9l408 1321q1 9 9.5 15t20.5 6h86q27 0 27 -17q0 -3 -2 -9t-2 -9zM1178 82q74 0 108.5 66.5
t34.5 177.5q0 233 -131 233q-74 0 -108.5 -67.5t-34.5 -178.5q0 -231 131 -231zM604 1014q0 -118 -35 -201.5t-98 -124.5t-145 -41q-129 0 -198 89t-69 247q0 174 76.5 268.5t204.5 94.5q126 0 195 -87.5t69 -244.5zM1456 338q0 -118 -35 -201.5t-98 -124.5t-145 -41
q-129 0 -198 89t-69 247q0 174 76.5 268.5t204.5 94.5q126 0 195 -87.5t69 -244.5z" />
    <glyph glyph-name="percent" unicode="&#x202e;" horiz-adv-x="1518" 
d="M326 758q74 0 108.5 66.5t34.5 176.5q0 234 -131 234q-74 0 -108.5 -68t-34.5 -178q0 -231 131 -231zM1016 1311l-410 -1319q-7 -21 -37 -21h-77q-27 0 -27 15q0 3 2 9t2 9l408 1321q1 9 9.5 15t20.5 6h86q27 0 27 -17q0 -3 -2 -9t-2 -9zM1178 82q74 0 108.5 66.5
t34.5 177.5q0 233 -131 233q-74 0 -108.5 -67.5t-34.5 -178.5q0 -231 131 -231zM604 1014q0 -118 -35 -201.5t-98 -124.5t-145 -41q-129 0 -198 89t-69 247q0 174 76.5 268.5t204.5 94.5q126 0 195 -87.5t69 -244.5zM1456 338q0 -118 -35 -201.5t-98 -124.5t-145 -41
q-129 0 -198 89t-69 247q0 174 76.5 268.5t204.5 94.5q126 0 195 -87.5t69 -244.5z" />
    <glyph glyph-name="percent" unicode="&#x202d;" horiz-adv-x="1518" 
d="M326 758q74 0 108.5 66.5t34.5 176.5q0 234 -131 234q-74 0 -108.5 -68t-34.5 -178q0 -231 131 -231zM1016 1311l-410 -1319q-7 -21 -37 -21h-77q-27 0 -27 15q0 3 2 9t2 9l408 1321q1 9 9.5 15t20.5 6h86q27 0 27 -17q0 -3 -2 -9t-2 -9zM1178 82q74 0 108.5 66.5
t34.5 177.5q0 233 -131 233q-74 0 -108.5 -67.5t-34.5 -178.5q0 -231 131 -231zM604 1014q0 -118 -35 -201.5t-98 -124.5t-145 -41q-129 0 -198 89t-69 247q0 174 76.5 268.5t204.5 94.5q126 0 195 -87.5t69 -244.5zM1456 338q0 -118 -35 -201.5t-98 -124.5t-145 -41
q-129 0 -198 89t-69 247q0 174 76.5 268.5t204.5 94.5q126 0 195 -87.5t69 -244.5z" />
    <glyph glyph-name="percent" unicode="&#x202c;" horiz-adv-x="1518" 
d="M326 758q74 0 108.5 66.5t34.5 176.5q0 234 -131 234q-74 0 -108.5 -68t-34.5 -178q0 -231 131 -231zM1016 1311l-410 -1319q-7 -21 -37 -21h-77q-27 0 -27 15q0 3 2 9t2 9l408 1321q1 9 9.5 15t20.5 6h86q27 0 27 -17q0 -3 -2 -9t-2 -9zM1178 82q74 0 108.5 66.5
t34.5 177.5q0 233 -131 233q-74 0 -108.5 -67.5t-34.5 -178.5q0 -231 131 -231zM604 1014q0 -118 -35 -201.5t-98 -124.5t-145 -41q-129 0 -198 89t-69 247q0 174 76.5 268.5t204.5 94.5q126 0 195 -87.5t69 -244.5zM1456 338q0 -118 -35 -201.5t-98 -124.5t-145 -41
q-129 0 -198 89t-69 247q0 174 76.5 268.5t204.5 94.5q126 0 195 -87.5t69 -244.5z" />
    <glyph glyph-name="percent" unicode="&#x202b;" horiz-adv-x="1518" 
d="M326 758q74 0 108.5 66.5t34.5 176.5q0 234 -131 234q-74 0 -108.5 -68t-34.5 -178q0 -231 131 -231zM1016 1311l-410 -1319q-7 -21 -37 -21h-77q-27 0 -27 15q0 3 2 9t2 9l408 1321q1 9 9.5 15t20.5 6h86q27 0 27 -17q0 -3 -2 -9t-2 -9zM1178 82q74 0 108.5 66.5
t34.5 177.5q0 233 -131 233q-74 0 -108.5 -67.5t-34.5 -178.5q0 -231 131 -231zM604 1014q0 -118 -35 -201.5t-98 -124.5t-145 -41q-129 0 -198 89t-69 247q0 174 76.5 268.5t204.5 94.5q126 0 195 -87.5t69 -244.5zM1456 338q0 -118 -35 -201.5t-98 -124.5t-145 -41
q-129 0 -198 89t-69 247q0 174 76.5 268.5t204.5 94.5q126 0 195 -87.5t69 -244.5z" />
    <glyph glyph-name="percent" unicode="&#x202a;" horiz-adv-x="1518" 
d="M326 758q74 0 108.5 66.5t34.5 176.5q0 234 -131 234q-74 0 -108.5 -68t-34.5 -178q0 -231 131 -231zM1016 1311l-410 -1319q-7 -21 -37 -21h-77q-27 0 -27 15q0 3 2 9t2 9l408 1321q1 9 9.5 15t20.5 6h86q27 0 27 -17q0 -3 -2 -9t-2 -9zM1178 82q74 0 108.5 66.5
t34.5 177.5q0 233 -131 233q-74 0 -108.5 -67.5t-34.5 -178.5q0 -231 131 -231zM604 1014q0 -118 -35 -201.5t-98 -124.5t-145 -41q-129 0 -198 89t-69 247q0 174 76.5 268.5t204.5 94.5q126 0 195 -87.5t69 -244.5zM1456 338q0 -118 -35 -201.5t-98 -124.5t-145 -41
q-129 0 -198 89t-69 247q0 174 76.5 268.5t204.5 94.5q126 0 195 -87.5t69 -244.5z" />
    <glyph glyph-name="percent" unicode="&#x2029;" horiz-adv-x="1518" 
d="M326 758q74 0 108.5 66.5t34.5 176.5q0 234 -131 234q-74 0 -108.5 -68t-34.5 -178q0 -231 131 -231zM1016 1311l-410 -1319q-7 -21 -37 -21h-77q-27 0 -27 15q0 3 2 9t2 9l408 1321q1 9 9.5 15t20.5 6h86q27 0 27 -17q0 -3 -2 -9t-2 -9zM1178 82q74 0 108.5 66.5
t34.5 177.5q0 233 -131 233q-74 0 -108.5 -67.5t-34.5 -178.5q0 -231 131 -231zM604 1014q0 -118 -35 -201.5t-98 -124.5t-145 -41q-129 0 -198 89t-69 247q0 174 76.5 268.5t204.5 94.5q126 0 195 -87.5t69 -244.5zM1456 338q0 -118 -35 -201.5t-98 -124.5t-145 -41
q-129 0 -198 89t-69 247q0 174 76.5 268.5t204.5 94.5q126 0 195 -87.5t69 -244.5z" />
    <glyph glyph-name="percent" unicode="&#x2028;" horiz-adv-x="1518" 
d="M326 758q74 0 108.5 66.5t34.5 176.5q0 234 -131 234q-74 0 -108.5 -68t-34.5 -178q0 -231 131 -231zM1016 1311l-410 -1319q-7 -21 -37 -21h-77q-27 0 -27 15q0 3 2 9t2 9l408 1321q1 9 9.5 15t20.5 6h86q27 0 27 -17q0 -3 -2 -9t-2 -9zM1178 82q74 0 108.5 66.5
t34.5 177.5q0 233 -131 233q-74 0 -108.5 -67.5t-34.5 -178.5q0 -231 131 -231zM604 1014q0 -118 -35 -201.5t-98 -124.5t-145 -41q-129 0 -198 89t-69 247q0 174 76.5 268.5t204.5 94.5q126 0 195 -87.5t69 -244.5zM1456 338q0 -118 -35 -201.5t-98 -124.5t-145 -41
q-129 0 -198 89t-69 247q0 174 76.5 268.5t204.5 94.5q126 0 195 -87.5t69 -244.5z" />
    <glyph glyph-name="percent" unicode="&#x2027;" horiz-adv-x="1518" 
d="M326 758q74 0 108.5 66.5t34.5 176.5q0 234 -131 234q-74 0 -108.5 -68t-34.5 -178q0 -231 131 -231zM1016 1311l-410 -1319q-7 -21 -37 -21h-77q-27 0 -27 15q0 3 2 9t2 9l408 1321q1 9 9.5 15t20.5 6h86q27 0 27 -17q0 -3 -2 -9t-2 -9zM1178 82q74 0 108.5 66.5
t34.5 177.5q0 233 -131 233q-74 0 -108.5 -67.5t-34.5 -178.5q0 -231 131 -231zM604 1014q0 -118 -35 -201.5t-98 -124.5t-145 -41q-129 0 -198 89t-69 247q0 174 76.5 268.5t204.5 94.5q126 0 195 -87.5t69 -244.5zM1456 338q0 -118 -35 -201.5t-98 -124.5t-145 -41
q-129 0 -198 89t-69 247q0 174 76.5 268.5t204.5 94.5q126 0 195 -87.5t69 -244.5z" />
    <glyph glyph-name="ampersand" unicode="&#x26;" horiz-adv-x="1251" 
d="M1032 -14l-112 133q-40 -34 -88.5 -66.5t-122.5 -57t-170 -24.5q-129 0 -225.5 48.5t-146.5 132t-50 188.5q0 87 31.5 155.5t74.5 113.5t92.5 79t71.5 49q-40 48 -74 94.5t-68 121t-34 149.5q0 158 111 244t251 86q83 0 153.5 -33.5t113.5 -101.5t43 -167
q0 -104 -48.5 -182.5t-100.5 -121t-130 -95.5l338 -391q23 34 42.5 97t19.5 141v26q0 25 24 25h100q25 0 25 -33q0 -196 -119 -363l133 -155q11 -11 11 -15q0 -10 -11 -16l-82 -67q-11 -9 -24 -9q-14 0 -29 15zM367 1118q0 -45 18 -90t45 -87.5t51.5 -72.5t40.5 -49
q51 35 93 72.5t77 96t35 130.5q0 88 -50.5 137.5t-123.5 49.5q-74 0 -130 -51t-56 -136zM836 219l-367 432q-77 -59 -130.5 -124t-53.5 -175q0 -112 73.5 -177.5t196.5 -65.5q95 0 162 33t119 77z" />
    <glyph glyph-name="quotesingle" unicode="'" horiz-adv-x="342" 
d="M252 1417l-29 -463q-1 -17 -7 -21.5t-21 -4.5h-45q-17 0 -24 6t-7 20l-31 463q-2 13 -2 33q0 18 27 18h114q27 0 27 -18q0 -11 -0.5 -18t-1.5 -15z" />
    <glyph glyph-name="parenleft" unicode="(" horiz-adv-x="758" 
d="M586 1475l51 -31q14 -9 14 -19t-5 -17.5t-21.5 -27t-41 -57.5t-48.5 -82q-52 -96 -90.5 -181.5t-62 -171t-34 -180t-10.5 -206.5q0 -209 43.5 -376t98 -267t113 -182t58.5 -97q0 -14 -36.5 -35.5t-51.5 -21.5q-29 0 -129 142.5t-182 366t-82 470.5q0 200 50.5 377.5
t122 312t136 213t84.5 78.5q7 0 23 -8z" />
    <glyph glyph-name="parenright" unicode=")" horiz-adv-x="758" 
d="M172 -469l-51 31q-15 10 -15 18q0 11 4 17t23.5 29.5t40 54.5t49.5 83q77 142 118 246t60 220.5t19 273.5q0 216 -43.5 380t-101.5 271t-113.5 182.5t-55.5 87.5q0 15 37 36.5t52 21.5q20 0 85.5 -81t136.5 -215t121 -312.5t50 -370.5q0 -197 -50.5 -377.5t-121 -313
t-136.5 -211.5t-85 -79q-7 0 -23 8z" />
    <glyph glyph-name="asterisk" unicode="*" 
d="M741 819l-65 -47q-12 -8 -21 -8q-8 0 -18 16l-125 205l-125 -205q-10 -16 -18 -16q-9 0 -21 8l-65 47q-17 11 -17 21q0 4 4 9t6 9l156 184l-233 56q-23 7 -23 18q2 12 6 23l23 71q7 23 18 23q1 0 19 -6l221 -92l-17 206q0 13 -0.5 21.5t-1.5 17.5q0 14 4.5 18.5t16.5 4.5
h94q12 0 16.5 -4.5t4.5 -18.5q0 -12 -0.5 -20.5t-1.5 -18.5l-17 -206l221 92q18 6 19 6q11 0 18 -23l23 -71q3 -10 6 -23q0 -11 -23 -18l-233 -56l156 -184q1 -1 4 -5.5t4.5 -7.5t1.5 -5q0 -10 -17 -21z" />
    <glyph glyph-name="plus" unicode="+" 
d="M584 594h364q19 0 24 -5t5 -24v-90q0 -18 -5 -23.5t-24 -5.5h-364v-364q0 -29 -27 -29h-94q-27 0 -27 29v364h-364q-18 0 -22.5 6t-4.5 23v90q0 19 4.5 24t22.5 5h364v360q0 29 27 29h94q27 0 27 -29v-360z" />
    <glyph glyph-name="comma" unicode="," horiz-adv-x="606" 
d="M469 199l-236 -432q-10 -19 -18 -19q-3 0 -9 2t-9 2l-45 15q-23 9 -23 18q0 6 4 18l121 408q5 22 31 22h164q28 0 28 -14q0 -5 -3.5 -11t-4.5 -9z" />
    <glyph glyph-name="hyphen" unicode="-" horiz-adv-x="721" 
d="M616 571v-104q0 -21 -28 -21h-455q-29 0 -29 27v94q0 19 5 26t22 7h457q28 0 28 -29z" />
    <glyph glyph-name="period" unicode="." horiz-adv-x="606" 
d="M446 115q0 -60 -41 -102t-102 -42q-59 0 -101 42t-42 102q0 61 42 102t101 41q39 0 72 -19t52 -52t19 -72z" />
    <glyph glyph-name="slash" unicode="/" 
d="M0 -379l786 1839q9 23 35 23h82q25 0 25 -13q0 -8 -8 -24l-787 -1839q-8 -21 -33 -21h-80q-26 0 -26 17q0 3 2 7.5t4 10.5z" />
    <glyph glyph-name="zero" unicode="0" 
d="M92 649q0 151 27.5 278.5t82 221.5t136 145.5t186.5 51.5q146 0 238 -90t131 -241t39 -341q0 -319 -101.5 -511t-322.5 -192q-205 0 -310.5 186t-105.5 492zM520 1202q-89 0 -147.5 -71.5t-85.5 -195t-27 -273.5q0 -547 252 -547q96 0 152 71.5t78 195.5t22 292
q0 148 -22 265t-76.5 190t-145.5 73z" />
    <glyph glyph-name="one" unicode="1" 
d="M870 109v-84q0 -25 -24 -25h-549q-25 0 -25 25v84q0 24 25 24h209v1002l-283 -164q-11 -8 -20 -8q-11 0 -19 18l-22 43q-8 12 -8 20q0 6 16 19l362 254h103q17 0 22 -5t5 -24v-1155h184q24 0 24 -24z" />
    <glyph glyph-name="two" unicode="2" 
d="M881 115v-86q0 -19 -5 -24t-22 -5h-686q-16 0 -21.5 5.5t-5.5 21.5q0 230 78 367t211 241q12 10 112 79.5t136.5 124.5t36.5 144q0 95 -51.5 157t-147.5 62q-91 0 -137 -46t-73 -110.5t-38 -64.5q-12 0 -16 2l-90 27q-17 4 -17 18q0 29 22.5 82.5t68.5 107t119 91
t171 37.5q84 0 150 -26.5t111.5 -74t70.5 -116t25 -154.5q0 -97 -31 -162.5t-77.5 -109.5t-130 -103t-126.5 -96q-73 -63 -113.5 -124.5t-57 -116t-25.5 -120.5h532q17 0 22 -5.5t5 -22.5z" />
    <glyph glyph-name="three" unicode="3" 
d="M215 1083l-68 58q-12 9 -12 18q0 17 47.5 64t126 85t174.5 38q97 0 176.5 -40t125.5 -116t46 -176q0 -131 -59 -196t-151 -107q99 -31 177.5 -104.5t78.5 -239.5q0 -87 -30 -159.5t-89 -126t-139 -82t-181 -28.5q-59 0 -139.5 13.5t-136.5 34t-56 42.5q0 2 5 17l41 92
q4 12 16 12q5 0 48.5 -19.5t98 -33.5t125.5 -14q128 0 198.5 69.5t70.5 188.5q0 101 -46 157t-111 75.5t-140 19.5h-70q-19 0 -24 5t-5 21v82q0 17 5.5 23t23.5 6h70q63 0 123 23.5t100.5 79.5t40.5 145q0 88 -55.5 140t-145.5 52q-63 0 -110 -25.5t-87.5 -62.5t-48.5 -37
t-14 6z" />
    <glyph glyph-name="four" unicode="4" 
d="M768 291v-291q0 -18 -5.5 -23.5t-21.5 -5.5h-100q-17 0 -23 6t-6 23v291h-520q-18 0 -23.5 5t-5.5 21v117l537 893q11 19 23 19q-4 0 26 -5l86 -14q27 -4 27 -18q0 -9 -10 -19l-527 -866h387l27 330q0 16 4.5 21t24.5 5h73q17 0 22 -5.5t5 -22.5v-328h164q17 0 23 -5.5
t6 -23.5v-78q0 -16 -6.5 -21t-22.5 -5h-164z" />
    <glyph glyph-name="five" unicode="5" 
d="M346 1174l-45 -416q56 41 109.5 64.5t136.5 23.5q101 0 181 -50t123.5 -142t43.5 -208q0 -133 -54 -242t-161 -171t-258 -62q-98 0 -187.5 18.5t-89.5 41.5q0 10 2 16l23 92q3 15 16 15q6 0 40 -10.5t79.5 -19.5t102.5 -9q319 0 319 327q0 81 -24.5 139t-71.5 89.5
t-115 31.5q-75 0 -124.5 -26.5t-87 -63.5t-46.5 -37q-12 0 -18 3l-72 24q-21 7 -21 19q0 3 2.5 14t2.5 18l61 637q1 16 6.5 21.5t22.5 5.5h532q19 0 24 -5t5 -24v-88q0 -16 -5.5 -21t-23.5 -5h-428z" />
    <glyph glyph-name="six" unicode="6" 
d="M858 1280l-31 -78q-5 -16 -20 -16q-9 0 -31.5 6.5t-44.5 11t-61 4.5q-144 0 -223 -80.5t-108 -173t-48 -206.5l4 -5q88 158 264 158q100 0 178.5 -55.5t122 -159t43.5 -240.5q0 -136 -49.5 -244.5t-139 -169.5t-208.5 -61q-379 0 -379 564q0 138 26 275t88.5 262
t167 199.5t253.5 74.5q56 0 111.5 -12t72.5 -21q12 -8 12 -33zM508 115q99 0 163 82t64 241q0 88 -23.5 162t-73 116t-118.5 42q-116 0 -170.5 -89.5t-54.5 -240.5q0 -99 25 -170t73 -107t115 -36z" />
    <glyph glyph-name="seven" unicode="7" 
d="M889 1241l-473 -1239q-8 -20 -19 -20q-12 0 -28 4l-97 14q-24 4 -24 16q0 4 2 8.5t4 10.5l442 1139h-528q-19 0 -24 5t-5 23v86q0 19 5 24t24 5h692q18 0 23.5 -5t5.5 -24v-47z" />
    <glyph glyph-name="eight" unicode="8" 
d="M381 696q-103 48 -172.5 118.5t-69.5 201.5q0 89 45.5 165.5t131 120.5t196.5 44q118 0 202.5 -43.5t126.5 -115.5t42 -153q0 -96 -37.5 -162.5t-86.5 -104t-108 -67.5q113 -45 202 -129.5t89 -228.5q0 -93 -49 -178.5t-146 -139t-233 -53.5q-200 0 -316 102t-116 267
q0 151 90 235t209 121zM299 1022q0 -55 24.5 -98.5t60.5 -74.5t73.5 -52t60.5 -33q55 26 95.5 52t75 77t34.5 125q0 87 -58.5 138.5t-154.5 51.5q-89 0 -150 -50t-61 -136zM774 332q0 180 -266 286q-62 -27 -87.5 -39t-69 -45.5t-72.5 -84.5t-29 -117q0 -108 77.5 -165.5
t188.5 -57.5q69 0 129 27t94.5 77t34.5 119z" />
    <glyph glyph-name="nine" unicode="9" 
d="M178 33l8 82q0 16 21 16q5 0 49 -11t88 -11q110 0 182.5 50t111.5 123t56 142t29 145l-4 4q-34 -59 -94.5 -108t-169.5 -49q-100 0 -178.5 55.5t-122 159t-43.5 239.5q0 101 28.5 189t81 152.5t126.5 99.5t161 35q379 0 379 -564q0 -140 -24.5 -279t-82 -259.5
t-159 -196.5t-248.5 -76q-53 0 -107 10.5t-76 18.5q-12 4 -12 33zM506 1202q-100 0 -163.5 -83t-63.5 -240q0 -142 54.5 -231t160.5 -89q116 0 170.5 89.5t54.5 240.5q0 153 -55 233t-158 80z" />
    <glyph glyph-name="colon" unicode=":" horiz-adv-x="606" 
d="M446 115q0 -60 -41 -102t-102 -42q-59 0 -101 42t-42 102q0 61 42 102t101 41q39 0 72 -19t52 -52t19 -72zM446 840q0 -60 -41 -102t-102 -42q-60 0 -101.5 42.5t-41.5 101.5q0 61 42 102t101 41q40 0 72.5 -19.5t51.5 -52.5t19 -71z" />
    <glyph glyph-name="semicolon" unicode=";" horiz-adv-x="606" 
d="M446 199l-235 -432q-10 -19 -18 -19q-4 0 -10 2t-9 2l-45 15q-15 6 -19 8.5t-4 9.5q0 3 5 18l120 408q7 22 31 22h164q29 0 29 -14q0 -2 -9 -20zM477 840q0 -60 -41 -102t-102 -42q-60 0 -102 42t-42 102q0 59 42 101t102 42q40 0 72.5 -19.5t51.5 -52.5t19 -71z" />
    <glyph glyph-name="less" unicode="&#x3c;" 
d="M975 248l-33 -94q-6 -21 -20 -21q-8 0 -23 6l-827 299q-13 3 -18 9t-5 24v98q0 16 3.5 20.5t19.5 10.5l827 299q6 2 10 3t6 2t7 1q14 0 20 -20l33 -94q4 -6 4 -15q0 -12 -18 -20l-660 -234v-4l660 -235q18 -9 18 -21q0 -10 -4 -14z" />
    <glyph glyph-name="equal" unicode="=" 
d="M977 424v-90q0 -19 -5 -24t-24 -5h-876q-18 0 -22.5 5t-4.5 24v90q0 19 4.5 24t22.5 5h876q19 0 24 -5t5 -24zM977 705v-91q0 -18 -5 -23t-24 -5h-876q-18 0 -22.5 5t-4.5 23v91q0 18 4.5 23t22.5 5h876q19 0 24 -5t5 -23z" />
    <glyph glyph-name="greater" unicode="&#x3e;" 
d="M979 567v-98q0 -18 -5 -22.5t-18 -8.5l-827 -299q-8 -2 -13.5 -4t-9.5 -2q-14 0 -20 21l-33 94q-4 4 -4 14q0 12 19 21l659 233v4l-659 236q-19 8 -19 20q0 9 4 15l33 94q6 20 20 20q8 0 23 -6l827 -299q14 -3 18.5 -8t4.5 -25z" />
    <glyph glyph-name="question" unicode="?" horiz-adv-x="872" 
d="M457 756v-187q0 -16 -5 -21t-24 -5h-82q-18 0 -23.5 5t-5.5 21v228q0 30 3.5 43t15.5 18q27 8 95 30t119.5 72t51.5 138q0 64 -24 108t-69.5 66t-113.5 22q-51 0 -100 -13.5t-91 -30.5t-48 -17q-16 0 -23 20l-29 72q-2 4 -2 14q0 20 53.5 42.5t130 36.5t126.5 14
q71 0 137 -18t113.5 -54t77.5 -101.5t30 -156.5q0 -166 -96 -240.5t-217 -105.5zM535 115q0 -61 -42.5 -102.5t-101.5 -41.5t-101 42t-42 102q0 61 42 102t101 41t101.5 -41t42.5 -102z" />
    <glyph glyph-name="at" unicode="@" horiz-adv-x="1933" 
d="M1577 -98l25 -60q4 0 4 -16q0 -34 -117.5 -78t-286.5 -76t-309 -32q-176 0 -316.5 51t-240 149t-149.5 232.5t-50 296.5q0 204 75.5 383.5t210 315t310.5 209t373 73.5q157 0 283.5 -41.5t217 -120t138 -190.5t47.5 -253q0 -149 -46.5 -268t-124 -205t-166.5 -129
t-169 -43q-95 0 -132.5 56.5t-39.5 128.5h-4q-49 -73 -116 -128t-165 -55q-83 0 -129.5 63.5t-46.5 170.5q0 106 41 234.5t123.5 219.5t202.5 91q66 0 100 -21.5t66 -60.5l20 49q6 12 21 12h92q12 0 12 -10q0 -2 -2 -10t-2 -13l-98 -458q-6 -28 -6 -54q0 -102 84 -102
q79 0 161.5 65.5t136.5 186t54 276.5q0 112 -35.5 202t-105 154t-173 99t-237.5 35q-170 0 -321.5 -63.5t-266 -181.5t-178 -273.5t-63.5 -337.5q0 -189 70.5 -328.5t212.5 -214t356 -74.5q165 0 303 35.5t235.5 80t99.5 44.5q10 0 13.5 -2t7.5 -14zM1122 524l35 168
q-75 70 -145 70q-52 0 -93 -46t-65.5 -110.5t-38.5 -139t-14 -124.5q0 -113 73 -113q86 0 181 121q21 30 42 88t25 86z" />
    <glyph glyph-name="A" unicode="A" horiz-adv-x="1251" 
d="M793 561l-123 453q-31 103 -47 194h-5q-6 -38 -21 -104t-22 -90l-124 -453h342zM1223 109v-84q0 -25 -25 -25h-414q-24 0 -24 25v84q0 24 24 24h127l-80 285h-419l-78 -285h131q24 0 24 -24v-84q0 -25 -24 -25h-412q-24 0 -24 25v84q0 24 24 24h101l381 1247q4 15 8.5 19
t21.5 4h121q14 0 20 -4t11 -19l379 -1247h102q25 0 25 -24z" />
    <glyph glyph-name="B" unicode="B" horiz-adv-x="1139" 
d="M403 784h129q117 0 194 53.5t77 213.5q0 124 -60 166.5t-168 42.5h-172v-476zM403 143h183q117 0 191.5 55t74.5 195q0 137 -78 195.5t-199 58.5h-172v-504zM106 1403h474q104 0 190.5 -20t151.5 -95t65 -219q0 -97 -33.5 -166t-77 -105.5t-92.5 -62.5q108 -31 180 -106
t72 -242q0 -191 -135 -309q-39 -33 -89.5 -50t-113.5 -22.5t-155 -5.5h-437q-24 0 -24 25v84q0 24 24 24h130v1137h-130q-24 0 -24 24v84q0 25 24 25z" />
    <glyph glyph-name="C" unicode="C" horiz-adv-x="985" 
d="M903 342v-213q0 -39 -18 -53q-50 -43 -141 -74t-166 -31q-247 0 -359.5 201t-112.5 543q0 207 42.5 367.5t144.5 255t268 94.5q171 0 311 -103q21 -15 21 -39v-227q0 -25 -23 -25h-94q-22 0 -22 25v174q-34 20 -79 38.5t-110 18.5q-106 0 -166 -65.5t-84 -187.5t-24 -306
q0 -195 29.5 -334t94.5 -215.5t167 -76.5q57 0 98 16.5t84 40.5v176q0 25 22 25h95q22 0 22 -25z" />
    <glyph glyph-name="D" unicode="D" horiz-adv-x="1176" 
d="M403 143h127q141 0 218.5 69t107 195.5t29.5 315.5q0 218 -41 334.5t-120.5 159.5t-207.5 43h-113v-1117zM106 1403h412q126 0 218.5 -23t169 -92.5t120 -208t43.5 -364.5q0 -248 -56.5 -404.5t-183.5 -233.5t-333 -77h-390q-24 0 -24 25v84q0 24 24 24h130v1137h-130
q-24 0 -24 24v84q0 25 24 25z" />
    <glyph glyph-name="E" unicode="E" horiz-adv-x="985" 
d="M920 328v-299q0 -18 -6 -23.5t-23 -5.5h-785q-24 0 -24 25v84q0 24 24 24h130v1137h-130q-24 0 -24 24v84q0 25 24 25h773q17 0 21.5 -5.5t4.5 -23.5v-278q0 -25 -22 -25h-95q-22 0 -22 25v164h-363v-455h402q17 0 21.5 -5t4.5 -22v-90q0 -16 -4.5 -21t-21.5 -5h-402
v-519h377v185q0 22 23 22h92q25 0 25 -22z" />
    <glyph glyph-name="F" unicode="F" horiz-adv-x="948" 
d="M403 133h152q25 0 25 -24v-84q0 -25 -25 -25h-449q-24 0 -24 25v84q0 24 24 24h130v1137h-130q-24 0 -24 24v84q0 25 24 25h773q17 0 21.5 -5.5t4.5 -23.5v-278q0 -25 -22 -25h-95q-22 0 -22 25v164h-363v-469h402q17 0 21.5 -5t4.5 -22v-90q0 -17 -4.5 -22t-21.5 -5
h-402v-514z" />
    <glyph glyph-name="G" unicode="G" horiz-adv-x="1139" 
d="M958 578v-445q0 -44 -4 -59.5t-24 -26.5q-55 -33 -148 -54.5t-184 -21.5q-257 0 -374.5 201.5t-117.5 542.5q0 206 48.5 366t155 255.5t272.5 95.5q96 0 172 -25t153 -78q21 -15 21 -39v-227q0 -25 -23 -25h-94q-23 0 -23 25v174q-105 57 -202 57q-153 0 -224 -144.5
t-71 -414.5q0 -193 31.5 -333.5t101.5 -216.5t178 -76q64 0 110.5 11.5t78.5 26.5v431h-164q-25 0 -25 24v84q0 25 25 25h446q25 0 25 -25v-84q0 -24 -25 -24h-115z" />
    <glyph glyph-name="H" unicode="H" horiz-adv-x="1327" 
d="M1247 109v-84q0 -25 -24 -25h-426q-25 0 -25 25v84q0 24 25 24h129v524h-525v-524h129q25 0 25 -24v-84q0 -25 -25 -25h-426q-24 0 -24 25v84q0 24 24 24h129v1137h-129q-24 0 -24 24v84q0 25 24 25h426q25 0 25 -25v-84q0 -24 -25 -24h-129v-469h525v469h-129
q-25 0 -25 24v84q0 25 25 25h426q24 0 24 -25v-84q0 -24 -24 -24h-129v-1137h129q24 0 24 -24z" />
    <glyph glyph-name="I" unicode="I" horiz-adv-x="682" 
d="M637 109v-84q0 -25 -25 -25h-540q-25 0 -25 25v84q0 24 25 24h186v1137h-186q-25 0 -25 24v84q0 25 25 25h540q25 0 25 -25v-84q0 -24 -25 -24h-186v-1137h186q25 0 25 -24z" />
    <glyph glyph-name="J" unicode="J" horiz-adv-x="909" 
d="M750 1376v-1030q0 -119 -45.5 -204t-130.5 -128t-201 -43q-133 0 -214 55.5t-114 145.5t-33 193q0 21 3 28.5t16 7.5h121q16 0 16 -20v-16q0 -256 207 -256t207 237v914h-359q-24 0 -24 24v94q0 25 24 25h498q18 0 23.5 -5t5.5 -22z" />
    <glyph glyph-name="K" unicode="K" horiz-adv-x="1176" 
d="M1147 109v-84q0 -25 -25 -25h-391q-24 0 -24 25v84q0 24 24 24h98l-423 541h-5v-541h129q25 0 25 -24v-84q0 -25 -25 -25h-426q-24 0 -24 25v84q0 24 24 24h129v1137h-129q-24 0 -24 24v84q0 25 24 25h426q25 0 25 -25v-84q0 -24 -25 -24h-129v-572h5l430 572h-101
q-24 0 -24 24v84q0 25 24 25h375q25 0 25 -25v-84q0 -24 -25 -24h-92l-447 -574l451 -563h100q25 0 25 -24z" />
    <glyph glyph-name="L" unicode="L" horiz-adv-x="985" 
d="M981 283l-94 -260q-8 -23 -31 -23h-750q-24 0 -24 25v84q0 24 24 24h130v1137h-130q-24 0 -24 24v84q0 25 24 25h426q25 0 25 -25v-84q0 -24 -25 -24h-129v-1127h369l72 201q5 16 18 16q5 0 8 -1t7 -2t10 -3l84 -30q16 -8 16 -21q0 -2 -6 -20z" />
    <glyph glyph-name="M" unicode="M" horiz-adv-x="1442" 
d="M1391 109v-84q0 -25 -25 -25h-420q-24 0 -24 25v84q0 24 24 24h144l-27 881v194h-4q-4 -84 -25 -145l-246 -713q-4 -12 -10.5 -17t-19.5 -5h-62q-14 0 -20 4.5t-10 17.5l-238 713q-19 59 -25 145h-4v-194l-26 -881h143q25 0 25 -24v-84q0 -25 -25 -25h-420q-24 0 -24 25
v84q0 24 24 24h115l63 1137h-143q-25 0 -25 24v84q0 25 25 25h303q21 0 27 -21l241 -706q16 -45 27 -127h4q10 77 27 127l241 706q8 21 27 21h303q25 0 25 -25v-84q0 -24 -25 -24h-143l63 -1137h115q25 0 25 -24z" />
    <glyph glyph-name="N" unicode="N" horiz-adv-x="1176" 
d="M1010 1270v-1225q0 -30 -4 -37.5t-21 -7.5h-113q-21 0 -32 20l-471 1012q-37 78 -56 178l-4 -4q21 -96 21 -182v-891h133q24 0 24 -24v-84q0 -25 -24 -25h-412q-24 0 -24 25v84q0 24 24 24h129v1137h-129q-24 0 -24 24v84q0 25 24 25h287q21 0 31 -19l452 -954
q14 -30 20.5 -52t12 -45.5t16.5 -60.5l4 4q-4 33 -9 59t-5 42v893h-133q-25 0 -25 24v84q0 25 25 25h414q24 0 24 -25v-84q0 -24 -24 -24h-131z" />
    <glyph glyph-name="O" unicode="O" horiz-adv-x="1139" 
d="M1032 702q0 -223 -48.5 -387.5t-152 -254t-262.5 -89.5t-263 90t-152 254t-48 387q0 164 26.5 298.5t84 232.5t145 148.5t207.5 50.5q121 0 209.5 -52t144 -147t82.5 -228t27 -303zM569 109q84 0 139.5 41t85.5 117t42 183.5t12 251.5q0 197 -22.5 323t-84 197.5
t-172.5 71.5q-109 0 -170.5 -71.5t-84.5 -201.5t-23 -319q0 -144 12 -250.5t42.5 -184t85.5 -118t138 -40.5z" />
    <glyph glyph-name="P" unicode="P" 
d="M403 735h134q88 0 149.5 21.5t100 86t38.5 183.5q0 150 -71 192t-193 42h-158v-525zM580 109v-84q0 -25 -25 -25h-449q-24 0 -24 25v84q0 24 24 24h130v1137h-130q-24 0 -24 24v84q0 25 24 25h472q111 0 198 -21t152 -103t65 -249q0 -236 -126.5 -337t-315.5 -101h-148
v-459h152q25 0 25 -24z" />
    <glyph glyph-name="Q" unicode="Q" horiz-adv-x="1139" 
d="M1112 -63l-108 -74q-10 -6 -19 -6q-30 0 -101.5 62.5t-111.5 105.5q-106 -54 -215 -54q-153 0 -254 87t-149 248.5t-48 391.5q0 227 49 390t156 253.5t269 90.5q230 0 340 -189.5t110 -540.5q0 -138 -15 -234.5t-36 -159.5t-42 -102t-46 -75q24 -24 72.5 -61t95.5 -68
q39 -24 50 -31t11 -16q0 -10 -8 -18zM567 109q109 0 171 73.5t85 203t23 310.5q0 140 -13.5 249.5t-44.5 187.5t-84.5 119.5t-132.5 41.5q-160 0 -220 -151.5t-60 -435.5q0 -290 61.5 -444t214.5 -154z" />
    <glyph glyph-name="R" unicode="R" horiz-adv-x="1139" 
d="M403 772h134q135 0 211.5 52t76.5 202t-71 192t-193 42h-158v-488zM1137 109v-84q0 -25 -25 -25h-201q-25 0 -37 23l-323 616h-148v-506h132q24 0 24 -24v-84q0 -25 -24 -25h-429q-24 0 -24 25v84q0 24 24 24h130v1137h-130q-24 0 -24 24v84q0 25 24 25h472
q111 0 198 -21t152 -103t65 -249q0 -136 -71.5 -239.5t-198.5 -137.5l289 -520h100q25 0 25 -24z" />
    <glyph glyph-name="S" unicode="S" horiz-adv-x="985" 
d="M723 1075v166q-111 43 -203 43q-97 0 -157 -51.5t-60 -149.5q0 -73 40 -125.5t85.5 -80.5t150.5 -84t156 -99q85 -68 125.5 -145.5t40.5 -175.5q0 -94 -32.5 -168.5t-90.5 -126.5t-138.5 -79.5t-172.5 -27.5q-82 0 -182 23t-179 67q-20 13 -20 48v237q0 25 25 25h92
q22 0 22 -25v-168q12 -5 55.5 -21t95 -27t97.5 -11q74 0 129.5 29t85 82.5t29.5 121.5q0 79 -40 134.5t-89 88t-170 101.5q-91 51 -154 99t-104 119t-41 171q0 114 56 197t150 126.5t201 43.5q111 0 205 -31t119 -58q12 -12 12 -43v-225q0 -24 -24 -24h-93q-22 0 -22 24z
" />
    <glyph glyph-name="T" unicode="T" horiz-adv-x="985" 
d="M750 109v-84q0 -25 -25 -25h-459q-24 0 -24 25v84q0 24 24 24h146v1127h-217v-232q0 -24 -25 -24h-90q-25 0 -25 24v348q0 27 29 27h825q16 0 21.5 -5.5t5.5 -23.5v-346q0 -24 -23 -24h-94q-22 0 -22 24v232h-217v-1127h145q25 0 25 -24z" />
    <glyph glyph-name="U" unicode="U" horiz-adv-x="1251" 
d="M1069 1270v-893q0 -191 -111 -298.5t-340 -107.5q-152 0 -245.5 49t-135.5 139.5t-42 217.5v893h-132q-24 0 -24 24v84q0 25 24 25h431q24 0 24 -25v-84q0 -24 -24 -24h-132v-889q0 -138 57.5 -205t201.5 -67q140 0 210 66.5t70 205.5v889h-131q-25 0 -25 24v84
q0 25 25 25h430q25 0 25 -25v-84q0 -24 -25 -24h-131z" />
    <glyph glyph-name="V" unicode="V" horiz-adv-x="1100" 
d="M987 1270l-338 -1247q-5 -16 -10 -19.5t-21 -3.5h-143q-15 0 -20.5 4t-10.5 19l-333 1247h-84q-25 0 -25 24v86q0 23 25 23h385q22 0 22 -23v-86q0 -24 -22 -24h-123l227 -955q24 -115 29 -163h4q11 92 31 159l235 959h-110q-25 0 -25 24v86q0 23 25 23h358q24 0 24 -23
v-86q0 -24 -24 -24h-76z" />
    <glyph glyph-name="W" unicode="W" horiz-adv-x="1554" 
d="M1411 1270l-262 -1245q-5 -25 -21 -25h-153q-18 0 -21 25l-172 1118h-4l-213 -1118q-5 -25 -18 -25h-148q-20 0 -20 25l-238 1245h-88q-22 0 -22 30v82q0 21 22 21h387q23 0 23 -29v-71q0 -33 -23 -33h-133l156 -887q3 -16 5 -48t6.5 -100t4.5 -71h4q3 40 5.5 77t7 76.5
t12.5 77.5l197 983q0 25 18 25h129q12 0 20 -25l170 -1011q21 -126 21 -211h4q2 35 5 109.5t9 103.5l166 901h-129q-22 0 -22 22v86q0 25 22 25h381q25 0 25 -23v-86q0 -24 -25 -24h-88z" />
    <glyph glyph-name="X" unicode="X" horiz-adv-x="1139" 
d="M1112 109v-84q0 -25 -25 -25h-395q-22 0 -22 25v84q0 24 22 24h113l-195 367q-13 24 -43 96q-21 -53 -41 -94l-194 -369h110q23 0 23 -24v-84q0 -25 -23 -25h-391q-24 0 -24 25v84q0 24 24 24h96l324 598l-295 539h-94q-25 0 -25 24v86q0 23 25 23h395q23 0 23 -23v-86
q0 -24 -23 -24h-117l160 -293q17 -32 51 -107q34 80 54 115l151 285h-98q-23 0 -23 24v86q0 23 23 23h375q22 0 22 -23v-86q0 -24 -22 -24h-95l-299 -533l334 -604h94q25 0 25 -24z" />
    <glyph glyph-name="Y" unicode="Y" horiz-adv-x="1100" 
d="M807 109v-84q0 -25 -25 -25h-454q-25 0 -25 25v84q0 24 25 24h143v459l-360 678h-76q-25 0 -25 24v86q0 23 25 23h395q23 0 23 -23v-86q0 -24 -23 -24h-123l203 -414q23 -42 53 -106q21 51 58 127l184 393h-127q-23 0 -23 24v86q0 23 23 23h397q23 0 23 -23v-86
q0 -24 -23 -24h-88l-348 -674v-463h143q25 0 25 -24z" />
    <glyph glyph-name="Z" unicode="Z" horiz-adv-x="985" 
d="M967 250l-82 -225q-11 -25 -33 -25h-737q-18 0 -23.5 5.5t-5.5 23.5v106l602 1125h-412v-154q0 -25 -26 -25h-88q-25 0 -25 25v268q0 29 31 29h690q17 0 22 -5t5 -22v-100l-606 -1133h491l59 168q7 17 21 17q8 0 20 -6l86 -31q17 -6 17 -19q0 -2 -2 -9t-4 -13z" />
    <glyph glyph-name="bracketleft" unicode="[" horiz-adv-x="758" 
d="M647 -311v-78q0 -25 -24 -25h-357q-18 0 -23 5t-5 24v1825q0 18 5 23t23 5h357q24 0 24 -24v-78q0 -25 -24 -25h-230v-1628h230q24 0 24 -24z" />
    <glyph glyph-name="backslash" unicode="\" 
d="M262 1460l787 -1839l6 -18q0 -17 -27 -17h-80q-23 0 -33 21l-786 1839q-8 16 -8 24q0 13 24 13h82q27 0 35 -23z" />
    <glyph glyph-name="bracketright" unicode="]" horiz-adv-x="758" 
d="M522 1440v-1825q0 -19 -5 -24t-23 -5h-357q-24 0 -24 25v78q0 24 24 24h230v1628h-230q-24 0 -24 25v78q0 24 24 24h357q18 0 23 -5t5 -23z" />
    <glyph glyph-name="asciicircum" unicode="^" 
d="M596 1386l293 -653q6 -10 10 -26q0 -14 -20 -17l-91 -26q-15 -5 -18 -5q-12 0 -20 15l-238 528l-236 -528q-7 -15 -20 -15q-3 0 -18 5l-91 26q-20 3 -20 17q4 16 10 26l293 653q9 17 33 17h100q24 0 33 -17z" />
    <glyph glyph-name="underscore" unicode="_" 
d="M0 -256v102h1024v-102h-1024z" />
    <glyph glyph-name="grave" unicode="`" horiz-adv-x="631" 
d="M213 1440l297 -230q16 -16 16 -18q0 -3 -10 -21l-18 -28q-10 -17 -19 -17q-12 0 -20 7l-336 174q-19 8 -19 18q0 5 9 21l59 88q16 16 21 16q2 0 5.5 -1.5t8.5 -4.5t6 -4z" />
    <glyph glyph-name="a" unicode="a" horiz-adv-x="948" 
d="M172 819l-27 72q-6 15 -6 27q0 16 53.5 39t130.5 39t136 16q167 0 241 -74.5t74 -212.5v-393q0 -82 4 -116t21 -89h96q25 0 25 -25v-77q0 -25 -25 -25h-174q-32 0 -47 28.5t-31 80.5q-25 -25 -61 -55t-98 -56.5t-136 -26.5q-59 0 -108 19.5t-85 57t-54.5 92.5t-18.5 120
q0 120 61.5 195t148 107.5t162 41.5t164.5 12v74q0 96 -38.5 140t-143.5 44q-61 0 -111.5 -14t-91.5 -32.5t-47 -18.5q-11 0 -14 10zM618 225v264q-44 0 -107.5 -5.5t-125 -25.5t-104.5 -65.5t-43 -120.5q0 -68 38 -121t109 -53q39 0 75.5 15t67 35.5t54.5 43.5t36 33z" />
    <glyph glyph-name="b" unicode="b" 
d="M328 772v-586q113 -77 213 -77q88 0 135 62.5t61.5 158.5t14.5 227q0 148 -35.5 232.5t-147.5 84.5q-139 0 -241 -102zM328 1444v-537q43 44 117.5 74.5t142.5 30.5q119 0 193 -59.5t106.5 -162.5t32.5 -237q0 -255 -81.5 -418.5t-269.5 -163.5q-90 0 -158.5 22.5
t-125.5 78.5q-12 -33 -31.5 -67t-36.5 -34q-10 0 -27 13l-51 32q-5 4 -13.5 10t-12.5 11t-4 8q0 5 11.5 23t18.5 36q33 57 33 146v1091h-133q-25 0 -25 25v78q0 24 25 24h264q25 0 25 -24z" />
    <glyph glyph-name="c" unicode="c" horiz-adv-x="872" 
d="M764 180l35 -86l4 -8t2 -8q0 -12 -51.5 -38.5t-127 -47.5t-145.5 -21q-119 0 -206.5 60t-133 171.5t-45.5 258.5q0 167 51.5 293t145.5 192t219 66q43 0 97.5 -12t103.5 -32.5t78 -43.5q6 -6 6 -31v-176q0 -25 -23 -25h-88q-22 0 -22 25v119q-29 18 -67.5 28t-72.5 10
q-97 0 -154.5 -45.5t-81.5 -131t-24 -205.5q0 -107 18.5 -191t72 -138t145.5 -54q60 0 114.5 19.5t94 42t43.5 22.5q3 0 12 -13z" />
    <glyph glyph-name="d" unicode="d" horiz-adv-x="1063" 
d="M1016 102v-77q0 -25 -25 -25h-184q-23 0 -36.5 15.5t-21 36.5t-14.5 40q-141 -121 -311 -121q-106 0 -178.5 69.5t-107 184.5t-34.5 246q0 239 85 390t257 151q157 0 261 -70v399h-132q-24 0 -24 25v78q0 24 24 24h263q24 0 24 -24v-1188q0 -61 12 -129h117q25 0 25 -25z
M707 229v578q-91 67 -242 67q-81 0 -123 -54.5t-56 -139.5t-14 -205q0 -105 12.5 -184t52.5 -130.5t116 -51.5q123 0 254 120z" />
    <glyph glyph-name="e" unicode="e" horiz-adv-x="948" 
d="M254 586h442q0 64 -18 132.5t-65 117.5t-130 49q-124 0 -176.5 -95.5t-52.5 -203.5zM801 180l35 -86l4 -8t2 -8q0 -12 -51.5 -38.5t-127 -47.5t-145.5 -21q-202 1 -317 142.5t-115 378.5q0 149 49 268t141 185.5t216 66.5q372 0 372 -508q0 -26 -3 -35.5t-19 -9.5h-588
q0 -129 63.5 -239.5t219.5 -110.5q60 0 114.5 19.5t94.5 42t42 22.5q4 0 13 -13z" />
    <glyph glyph-name="f" unicode="f" horiz-adv-x="682" 
d="M385 127h143q25 0 25 -25v-77q0 -25 -25 -25h-413q-25 0 -25 25v77q0 25 25 25h114v729h-143q-14 0 -14 25v77q0 9 1 14.5t3.5 8t9.5 2.5h143v160q0 149 57.5 244.5t227.5 95.5q43 0 97.5 -11.5t91 -28t36.5 -32.5q0 -3 -1 -5.5l-2 -5t-3.5 -8.5t-3.5 -10l-29 -67
q-8 -12 -14 -12q-7 0 -67.5 21.5t-110.5 21.5q-56 0 -82 -25.5t-33.5 -68t-7.5 -111.5v-158h295q22 0 22 -14q0 -4 -0.5 -7t-1.5 -8l-26 -80q-7 -18 -27 -18h-262v-729z" />
    <glyph glyph-name="g" unicode="g" 
d="M846 711v-316q0 -25 3 -103.5t5.5 -148.5t4 -129t1.5 -84q0 -157 -84.5 -258.5t-275.5 -101.5q-108 0 -226 39t-118 69q0 11 8 27l33 70q4 12 14 12q2 0 54 -23.5t108.5 -40t118.5 -16.5q128 0 170.5 60t42.5 161q0 37 -2 89.5t-3.5 85t-1.5 36.5q-135 -112 -278 -112
q-142 0 -229 119.5t-87 332.5q0 119 24 219t71.5 169t120.5 107t169 38q128 0 242 -88q33 88 60 88q10 0 18 -4l92 -58q8 -6 8 -12q0 -9 -12.5 -27.5t-24.5 -48.5q-13 -36 -19.5 -68t-6.5 -83zM690 266v553q-36 19 -85 37t-103 18q-114 0 -172 -93.5t-58 -262.5
q0 -174 39.5 -264t139.5 -90q69 0 118.5 26.5t120.5 75.5z" />
    <glyph glyph-name="h" unicode="h" horiz-adv-x="1139" 
d="M1077 102v-77q0 -25 -24 -25h-246q-25 0 -25 25v684q0 77 -28 121t-105 44q-85 0 -149 -35t-125 -89v-623h114q25 0 25 -25v-77q0 -25 -25 -25h-387q-24 0 -24 25v77q0 25 24 25h117v1214h-123q-24 0 -24 25v78q0 24 24 24h250q29 0 29 -30v-559q71 58 145.5 95.5
t173.5 37.5q106 0 160 -43t69 -108.5t15 -155.5v-578h115q24 0 24 -25z" />
    <glyph glyph-name="i" unicode="i" horiz-adv-x="569" 
d="M543 102v-77q0 -25 -25 -25h-448q-25 0 -25 25v77q0 25 25 25h147v729h-162q-24 0 -24 25v77q0 25 24 25h291q16 0 21.5 -7.5t5.5 -23.5v-825h145q25 0 25 -25zM401 1255v5q0 -44 -29.5 -74.5t-72.5 -30.5q-44 0 -73 29t-29 73q0 45 29 74t73 29q43 0 72.5 -30.5
t29.5 -74.5z" />
    <glyph glyph-name="j" unicode="j" horiz-adv-x="569" 
d="M395 952v-1061q0 -321 -299 -321q-81 0 -166.5 30t-85.5 50q0 8 4 16l37 82q9 14 17 14q4 0 42 -17t75.5 -27.5t82.5 -10.5q92 0 115 54t23 167v928h-162q-25 0 -25 25v77q0 25 25 25h291q26 0 26 -31zM420 1255v5q0 -44 -29.5 -74.5t-73.5 -30.5t-73 29t-29 73
q0 45 29 74t73 29t73.5 -30.5t29.5 -74.5z" />
    <glyph glyph-name="k" unicode="k" horiz-adv-x="1063" 
d="M1024 102v-77q0 -25 -23 -25h-190q-22 0 -35 16l-414 488v-377h115q25 0 25 -25v-77q0 -25 -25 -25h-387q-24 0 -24 25v77q0 25 24 25h117v1214h-123q-25 0 -25 25v78q0 24 25 24h250q28 0 28 -30v-906l324 332h-100q-25 0 -25 23v71q0 25 25 25h389q24 0 24 -25v-77
q0 -25 -24 -25h-105l-331 -324l356 -405h106q23 0 23 -25z" />
    <glyph glyph-name="l" unicode="l" horiz-adv-x="569" 
d="M532 113l27 -76q4 -8 4 -14q0 -16 -58 -34t-116 -18q-74 0 -123.5 26.5t-68.5 72.5q-29 63 -29 297v974h-123q-25 0 -25 25v78q0 24 25 24h250q29 0 29 -30v-1076q0 -154 6 -192q4 -24 23.5 -48t58.5 -24q29 0 66.5 13.5t39.5 13.5q10 0 14 -12z" />
    <glyph glyph-name="m" unicode="m" horiz-adv-x="1554" 
d="M1495 102v-77q0 -25 -25 -25h-245q-25 0 -25 25v684q0 77 -28 121t-105 44q-36 0 -66.5 -9t-49.5 -19t-41.5 -25.5t-41.5 -29.5v-664h115q25 0 25 -25v-77q0 -25 -25 -25h-246q-24 0 -24 25v684q0 76 -28.5 120.5t-106.5 44.5q-93 0 -197 -86v-661h117q24 0 24 -25v-77
q0 -25 -24 -25h-389q-25 0 -25 25v77q0 25 25 25h116v600q0 61 -12 129h-117q-24 0 -24 25v77q0 25 24 25h197q30 0 41 -21.5t22 -70.5q45 42 126.5 81.5t140.5 39.5q96 0 145 -33t72 -90q65 48 134.5 85.5t137.5 37.5q153 0 198.5 -82t45.5 -225v-578h114q25 0 25 -25z" />
    <glyph glyph-name="n" unicode="n" horiz-adv-x="1139" 
d="M1077 102v-77q0 -25 -24 -25h-246q-25 0 -25 25v684q0 77 -28 121t-105 44q-86 0 -144.5 -33.5t-123.5 -90.5v-623h117q24 0 24 -25v-77q0 -25 -24 -25h-389q-25 0 -25 25v77q0 25 25 25h116v600q0 61 -12 129h-117q-24 0 -24 25v77q0 25 24 25h205q17 0 28 -12.5
t17.5 -30t11.5 -37.5t7 -31q80 64 152.5 102t176.5 38q106 0 160 -43t69 -108.5t15 -155.5v-578h115q24 0 24 -25z" />
    <glyph glyph-name="o" unicode="o" 
d="M920 498q0 -150 -44 -268.5t-138 -188.5t-238 -70q-198 0 -297 142t-99 374q0 105 24 201t75.5 170t130 114t186.5 40q135 0 225 -66.5t132.5 -182.5t42.5 -265zM514 98q88 0 140.5 49.5t75 138.5t22.5 214q0 169 -56 277t-184 108t-184 -104.5t-56 -274.5
q0 -125 22.5 -215.5t76 -141.5t143.5 -51z" />
    <glyph glyph-name="p" unicode="p" horiz-adv-x="1063" 
d="M532 -311v-78q0 -25 -24 -25h-404q-24 0 -24 25v78q0 24 24 24h117v1014q0 73 -12 129h-117q-24 0 -24 25v77q0 25 24 25h184q24 0 37.5 -15.5t21.5 -40.5t13 -36q66 52 131.5 86.5t161.5 34.5q320 0 320 -500q0 -150 -37 -273.5t-114.5 -195.5t-191.5 -72q-36 0 -74 8.5
t-70.5 24.5t-54.5 30t-42 27v-348h131q24 0 24 -24zM377 774v-577q65 -44 113 -66t110 -22q82 0 124.5 55t55.5 140t13 204q0 166 -35 266t-146 100q-63 0 -117 -27.5t-118 -72.5z" />
    <glyph glyph-name="q" unicode="q" 
d="M999 -311v-78q0 -25 -24 -25h-404q-24 0 -24 25v78q0 24 24 24h131v379q-144 -121 -264 -121q-86 0 -151 42.5t-105 114.5t-60 171t-20 213q0 132 41.5 246.5t127 184t208.5 69.5q141 0 264 -99q4 6 27 52.5t35 46.5q4 0 20 -8l72 -41q16 -11 16 -19q0 -5 -14.5 -37
t-21.5 -55q-19 -60 -19 -125v-1014h117q24 0 24 -24zM702 227v568q-59 36 -108 57.5t-107 21.5q-121 0 -169 -105t-48 -261q0 -178 42 -288.5t155 -110.5q61 0 117.5 32.5t117.5 85.5z" />
    <glyph glyph-name="r" unicode="r" horiz-adv-x="721" 
d="M535 102v-77q0 -25 -25 -25h-401q-25 0 -25 25v77q0 25 25 25h116v600q0 61 -22 129h-111q-24 0 -24 25v77q0 25 24 25h184q38 0 54 -41.5t28 -101.5q34 39 68.5 77.5t79.5 66.5t98 28q38 0 69.5 -10.5t31.5 -24.5q0 -2 -2.5 -6.5t-4.5 -9.5l-45 -105q-7 -14 -12 -14
q2 0 -20.5 9t-47.5 9q-31 0 -65 -26t-69.5 -67.5t-57.5 -66.5v-573h129q25 0 25 -25z" />
    <glyph glyph-name="s" unicode="s" horiz-adv-x="797" 
d="M555 739v113q-54 27 -133 27q-66 0 -109 -34.5t-43 -101.5q0 -73 50.5 -109.5t167.5 -90.5t177 -113.5t60 -167.5q0 -70 -25 -124t-71 -91.5t-105 -56.5t-127 -19q-57 0 -132 16.5t-127 41.5t-52 45v190q0 23 23 23h88q22 0 22 -23v-121q9 -3 44 -14t69 -18t74 -7
q69 0 116 39t47 109q0 71 -50.5 106.5t-168.5 92t-176.5 115t-58.5 161.5q0 124 87.5 204.5t221.5 80.5q52 0 127.5 -20t114.5 -42q22 -12 22 -32v-179q0 -24 -24 -24h-84q-25 0 -25 24z" />
    <glyph glyph-name="t" unicode="t" horiz-adv-x="758" 
d="M696 152l23 -76q4 -16 4 -21q0 -21 -94.5 -52.5t-169.5 -31.5q-63 0 -115.5 21t-77.5 51q-38 42 -48.5 97t-10.5 134v582h-154q-14 0 -14 25v77q0 9 1 14.5t3.5 8t9.5 2.5h154v281q0 18 22 24l109 31q4 1 7 1.5t7 0.5q10 0 10 -23v-315h304q22 0 22 -14q0 -4 -0.5 -7
t-1.5 -8l-27 -80q-7 -18 -26 -18h-271v-582q0 -54 6.5 -87t32.5 -55.5t84 -22.5q43 0 78.5 10.5t74.5 27.5t44 17q14 0 14 -12z" />
    <glyph glyph-name="u" unicode="u" horiz-adv-x="1100" 
d="M1059 102v-77q0 -25 -25 -25h-172q-21 0 -35.5 10.5t-23.5 26t-16 33t-11 22.5q-60 -49 -134 -85t-150 -36q-129 0 -195 43t-85 107t-19 158v577h-115q-25 0 -25 25v77q0 25 25 25h246q24 0 24 -25v-684q0 -165 168 -165q53 0 118 31.5t116 72.5v643h-117q-25 0 -25 25
v77q0 25 25 25h248q24 0 24 -25v-702q0 -58 13 -129h116q25 0 25 -25z" />
    <glyph glyph-name="v" unicode="v" horiz-adv-x="985" 
d="M893 856l-338 -866q-5 -12 -9 -15.5t-18 -3.5h-79q-17 0 -25 19l-313 866h-68q-25 0 -25 25v77q0 25 25 25h348q23 0 23 -25v-71q0 -23 -23 -23h-115l181 -549q11 -33 23 -77t14 -52h4q13 65 37 127l198 551h-123q-22 0 -22 23v71q0 25 22 25h342q25 0 25 -25v-77
q0 -25 -25 -25h-59z" />
    <glyph glyph-name="w" unicode="w" horiz-adv-x="1366" 
d="M281 864l116 -559q14 -53 21 -112h4q15 90 22 112l195 660q5 18 29 18h77q17 0 25 -20l168 -684q5 -25 14 -80h4q3 30 13 80l145 585h-110q-23 0 -23 23v71q0 25 23 25h335q23 0 23 -25v-77q0 -25 -23 -25h-82l-243 -864q-5 -21 -25 -21h-80q-21 0 -26 21l-162 635
q-14 59 -23 161h-4q-8 -79 -30 -159l-193 -639q-5 -19 -22 -19h-82q-18 0 -23 21l-211 864h-78q-22 0 -22 25v77q0 25 22 25h359q24 0 24 -25v-71q0 -23 -24 -23h-133z" />
    <glyph glyph-name="x" unicode="x" 
d="M975 102v-77q0 -25 -25 -25h-329q-23 0 -23 25v71q0 23 23 23h75l-125 190q-50 81 -53 86q-9 -15 -55 -84l-135 -192h94q24 0 24 -23v-71q0 -25 -24 -25h-348q-23 0 -23 25v77q0 25 23 25h78l286 375l-250 354h-94q-22 0 -22 25v77q0 25 22 25h344q25 0 25 -25v-71
q0 -23 -25 -23h-78l97 -147q41 -65 61 -99q18 28 36.5 56t29.5 43l102 147h-78q-24 0 -24 23v71q0 25 24 25h320q22 0 22 -25v-77q0 -25 -22 -25h-74l-254 -338l274 -391h76q25 0 25 -25z" />
    <glyph glyph-name="y" unicode="y" 
d="M913 856l-211 -729q-76 -268 -141 -408q-30 -65 -95 -107t-147 -42q-81 0 -169.5 39t-88.5 63q0 6 5 13l40 82q5 10 15 10q6 0 42.5 -23.5t72.5 -40t81 -16.5q101 0 156 174l43 129h-74q-13 0 -17 3.5t-9 14.5l-295 838h-82q-25 0 -25 25v77q0 25 25 25h375q24 0 24 -25
v-71q0 -23 -24 -23h-131l223 -657q22 -65 41 -148h4q14 90 31 144l172 661h-123q-23 0 -23 23v71q0 25 23 25h358q25 0 25 -25v-77q0 -25 -25 -25h-76z" />
    <glyph glyph-name="z" unicode="z" horiz-adv-x="909" 
d="M866 223l-82 -205q-7 -18 -26 -18h-639q-15 0 -19 4t-4 21v81l514 744h-338v-139q0 -25 -24 -25h-86q-25 0 -25 25v247q0 16 4.5 20.5t20.5 4.5h618q16 0 20.5 -4.5t4.5 -20.5v-84l-510 -741h383l63 158q5 16 19 16q6 0 18 -4l82 -33q17 -7 17 -20q0 -3 -5.5 -15z" />
    <glyph glyph-name="braceleft" unicode="{" horiz-adv-x="872" 
d="M766 -315v-70q0 -19 -5.5 -24t-23.5 -5h-41q-167 0 -253.5 71t-86.5 241v399q0 64 -17 103.5t-57 59t-106 19.5h-41q-16 0 -22.5 5.5t-6.5 23.5v70q0 17 5.5 22.5t23.5 5.5h39q98 0 140 43t42 139v365q0 117 41.5 187t116.5 99t182 29h41q18 0 23.5 -5t5.5 -23v-70
q0 -18 -5.5 -23.5t-23.5 -5.5h-35q-106 0 -148 -41.5t-42 -144.5v-364q0 -107 -33.5 -157t-107.5 -89q74 -40 107.5 -90.5t33.5 -159.5v-399q0 -95 41 -139t137 -44h47q18 0 23.5 -5t5.5 -23z" />
    <glyph glyph-name="bar" unicode="|" horiz-adv-x="623" 
d="M385 1507v-1990q0 -20 -4.5 -24.5t-22.5 -4.5h-94q-17 0 -21.5 5t-4.5 24v1990q0 17 5.5 23t20.5 6h94q17 0 22 -6t5 -23z" />
    <glyph glyph-name="braceright" unicode="}" horiz-adv-x="872" 
d="M106 1370v70q0 17 6 22.5t23 5.5h41q168 0 254 -70.5t86 -240.5v-399q0 -95 41 -139t139 -44h41q19 0 24 -5.5t5 -22.5v-70q0 -17 -5.5 -22.5t-23.5 -5.5h-39q-98 0 -140 -43t-42 -140v-364q0 -90 -24 -151.5t-67.5 -97t-106.5 -51.5t-142 -16h-41q-17 0 -23 5.5t-6 23.5
v70q0 17 6 22.5t23 5.5h35q72 0 112.5 18t59 57.5t18.5 111.5v364q0 73 16.5 119.5t45.5 73t80 53.5q-51 28 -80 55t-45.5 74t-16.5 121v399q0 95 -40.5 138.5t-137.5 43.5h-47q-17 0 -23 6t-6 23z" />
    <glyph glyph-name="asciitilde" unicode="~" 
d="M936 672h94q0 -78 -28.5 -155t-88.5 -128t-147 -51q-37 0 -81.5 12t-84.5 31.5t-76 42.5l-116 70q-48 27 -98.5 46t-84.5 19q-140 0 -153 -184h-95q0 62 24.5 140.5t84.5 137t156 58.5q57 0 117 -24.5t124 -63.5l117 -70q40 -22 97 -43t85 -21q135 0 154 183z" />
    <glyph glyph-name="Zcaron" horiz-adv-x="985" 
d="M967 250l-82 -225q-11 -25 -33 -25h-737q-18 0 -23.5 5.5t-5.5 23.5v106l602 1125h-412v-154q0 -25 -26 -25h-88q-25 0 -25 25v268q0 29 31 29h690q17 0 22 -5t5 -22v-100l-606 -1133h491l59 168q7 17 21 17q8 0 20 -6l86 -31q17 -6 17 -19q0 -2 -2 -9t-4 -13zM750 1690
l-41 32q-3 7 -9 7q-10 0 -14 -3l-168 -110l-166 110q-1 0 -4.5 2.5t-7.5 2.5q-5 0 -14 -13l-21 -28q-6 -12 -6 -13q0 -3 4 -6.5t8 -7.5l203 -162q4 -2 7 -4t5 -2q3 0 15 6l202 162q2 1 5.5 3.5t4.5 4t1 4.5q0 7 -4 15z" />
    <glyph glyph-name="ogonek" horiz-adv-x="631" 
d="M256 31l174 43q-34 -40 -73 -86.5t-67 -92.5t-28 -85q0 -70 70 -70q27 0 51.5 9.5t47.5 22.5t26 13q2 0 10 -12l20 -58q0 -1 2.5 -5.5t2.5 -8.5q-2 -21 -56.5 -43.5t-111.5 -22.5q-83 0 -133 44t-50 122q0 43 18.5 83t53 86.5t43.5 60.5z" />
    <glyph glyph-name="caron" horiz-adv-x="631" 
d="M565 1389l-41 32q-3 6 -8 6q-10 0 -14 -2l-168 -110l-166 110q-1 0 -4.5 2.5t-7.5 2.5q-6 0 -15 -13l-20 -28q-3 -6 -4.5 -8.5t-1.5 -4.5q0 -3 4 -6.5t8 -7.5l203 -162q4 -2 7 -4t5 -2t14 6l203 162q10 10 10 12q0 5 -4 15z" />
    <glyph glyph-name="Lslash" horiz-adv-x="985" 
d="M981 283l-94 -260q-8 -23 -31 -23h-750q-24 0 -24 25v84q0 24 24 24h130v440l-136 -88q-8 -4 -12 -4q-8 0 -8 13v98q0 13 4.5 20.5t13.5 12.5l138 90v555h-130q-24 0 -24 24v84q0 25 24 25h426q25 0 25 -25v-84q0 -24 -25 -24h-129v-471l291 190q12 6 13 6q8 0 8 -16v-94
q0 -24 -17 -37l-295 -193v-512h369l72 201q5 16 18 16q5 0 8 -1t7 -2t10 -3l84 -30q16 -8 16 -21q0 -2 -6 -20z" />
    <glyph glyph-name="ordmasculine" horiz-adv-x="834" 
d="M692 1001q0 -98 -29 -177t-93.5 -126t-159.5 -47q-134 0 -201.5 95.5t-67.5 246.5q0 99 29 178.5t93 127t159 47.5q91 0 152 -45t89.5 -122t28.5 -178zM418 758q75 0 106 65t31 181q0 102 -31.5 168.5t-105.5 66.5q-139 0 -139 -231q0 -74 12.5 -130t43 -88t83.5 -32z
" />
    <glyph glyph-name="fraction" horiz-adv-x="471" 
d="M510 1311l-410 -1319q-5 -21 -37 -21h-77q-27 0 -27 15q0 6 4 18l408 1321q7 21 30 21h86q27 0 27 -17q0 -10 -4 -18z" />
    <glyph glyph-name="breve" horiz-adv-x="631" 
d="M479 1395l80 -13q23 -4 23 -26q0 -15 -8.5 -43t-27.5 -61.5t-44 -57.5q-71 -68 -185 -68q-111 0 -186 68q-38 38 -59 87.5t-21 74.5q0 22 23 26l80 13q3 1 5.5 1.5t6.5 0.5q12 0 14 -11q15 -71 42 -111t95 -40t92.5 38.5t43.5 112.5q2 11 14 11q4 0 6.5 -0.5t5.5 -1.5z
" />
    <glyph glyph-name="dotlessi" horiz-adv-x="569" 
d="M543 102v-77q0 -25 -25 -25h-448q-25 0 -25 25v77q0 25 25 25h147v729h-162q-24 0 -24 25v77q0 25 24 25h291q16 0 21.5 -7.5t5.5 -23.5v-825h145q25 0 25 -25z" />
    <glyph glyph-name="dotlessi" unicode="&#x131;" horiz-adv-x="569" 
d="M543 102v-77q0 -25 -25 -25h-448q-25 0 -25 25v77q0 25 25 25h147v729h-162q-24 0 -24 25v77q0 25 24 25h291q16 0 21.5 -7.5t5.5 -23.5v-825h145q25 0 25 -25z" />
    <glyph glyph-name="zcaron" horiz-adv-x="909" 
d="M866 223l-82 -205q-7 -18 -26 -18h-639q-15 0 -19 4t-4 21v81l514 744h-338v-139q0 -25 -24 -25h-86q-25 0 -25 25v247q0 16 4.5 20.5t20.5 4.5h618q16 0 20.5 -4.5t4.5 -20.5v-84l-510 -741h383l63 158q5 16 19 16q6 0 18 -4l82 -33q17 -7 17 -20q0 -3 -5.5 -15z
M692 1278l-41 33q-3 6 -8 6q-10 0 -14 -2l-168 -111l-166 111q-1 0 -5 2t-7 2q-7 0 -15 -12l-20 -29q-2 -4 -4 -7t-2 -5q0 -3 12 -15l203 -161q9 -7 12 -7q5 0 14 7l203 161q10 10 10 13q0 6 -4 14z" />
    <glyph glyph-name="Ydieresis" horiz-adv-x="1100" 
d="M807 109v-84q0 -25 -25 -25h-454q-25 0 -25 25v84q0 24 25 24h143v459l-360 678h-76q-25 0 -25 24v86q0 23 25 23h395q23 0 23 -23v-86q0 -24 -23 -24h-123l203 -414q23 -42 53 -106q21 51 58 127l184 393h-127q-23 0 -23 24v86q0 23 23 23h397q23 0 23 -23v-86
q0 -24 -23 -24h-88l-348 -674v-463h143q25 0 25 -24zM479 1612q0 -44 -30.5 -76.5t-77.5 -32.5q-45 0 -77 32t-32 77q0 46 32 77t77 31q47 0 77.5 -31.5t30.5 -76.5zM612 1612q0 44 32 76t77 32q46 0 77 -31t31 -77q0 -45 -31 -77t-77 -32q-45 0 -77 33t-32 76z" />
    <glyph glyph-name="Ydieresis" unicode="&#x178;" horiz-adv-x="1100" 
d="M807 109v-84q0 -25 -25 -25h-454q-25 0 -25 25v84q0 24 25 24h143v459l-360 678h-76q-25 0 -25 24v86q0 23 25 23h395q23 0 23 -23v-86q0 -24 -23 -24h-123l203 -414q23 -42 53 -106q21 51 58 127l184 393h-127q-23 0 -23 24v86q0 23 23 23h397q23 0 23 -23v-86
q0 -24 -23 -24h-88l-348 -674v-463h143q25 0 25 -24zM479 1612q0 -44 -30.5 -76.5t-77.5 -32.5q-45 0 -77 32t-32 77q0 46 32 77t77 31q47 0 77.5 -31.5t30.5 -76.5zM612 1612q0 44 32 76t77 32q46 0 77 -31t31 -77q0 -45 -31 -77t-77 -32q-45 0 -77 33t-32 76z" />
    <glyph glyph-name="fl" unicode="&#xa0;" horiz-adv-x="1251" 
d="M1204 113l27 -76q4 -8 4 -14q0 -16 -58 -34t-116 -18q-74 0 -123 26.5t-70 72.5q-28 63 -28 297v933q-54 17 -121.5 36.5t-161.5 19.5q-73 0 -108 -25.5t-45.5 -69t-10.5 -120.5v-158h269q22 0 22 -14q0 -4 -0.5 -7t-1.5 -8l-27 -80q-7 -18 -26 -18h-236v-729h144
q24 0 24 -25v-77q0 -25 -24 -25h-414q-25 0 -25 25v77q0 25 25 25h115v729h-144q-14 0 -14 25v77q0 9 1 14.5t3.5 8t9.5 2.5h144v160q0 149 65 244.5t260 95.5q53 0 95.5 -7.5t107.5 -23.5t78 -18l108 39q2 0 14 5t17 5q12 0 12 -25v-1096q0 -154 6 -192q16 -72 82 -72
q29 0 67.5 13.5t39.5 13.5q10 0 14 -12z" />
    <glyph glyph-name="exclamdown" unicode="&#xa1;" horiz-adv-x="682" 
d="M485 868q0 -60 -42.5 -101.5t-100.5 -41.5t-100.5 41.5t-42.5 101.5t42 102t101 42q38 0 70.5 -19t52.5 -52.5t20 -72.5zM397 414l43 -770q1 -10 1.5 -19t0.5 -22q0 -17 -26 -17h-154q-26 0 -26 17q1 9 1.5 16t0.5 23l45 772q0 26 28 26h58q17 0 22.5 -4t5.5 -22z" />
    <glyph glyph-name="cent" unicode="&#xa2;" 
d="M662 137v-121q0 -15 -6 -20.5t-23 -5.5h-53q-18 0 -23.5 5.5t-5.5 20.5v113q-67 6 -129 33t-115 84.5t-83.5 152.5t-30.5 228q0 138 32 239.5t83.5 163t114 93t128.5 40.5v109q0 17 5.5 22.5t23.5 5.5h53q17 0 23 -6t6 -22v-109q44 0 101.5 -17.5t98.5 -41t41 -39.5
q0 -4 -6 -16l-45 -78q-9 -13 -14 -13t-19.5 6.5t-29.5 14.5t-41 22q-41 22 -86 25v-750q61 7 100 29q72 43 84 43q10 0 14 -12l35 -86q0 -1 2 -6t2 -8q0 -21 -93 -58.5t-144 -40.5zM551 272v750q-46 -12 -81.5 -34t-62.5 -63.5t-43 -109.5t-16 -164q0 -174 47.5 -264.5
t155.5 -114.5z" />
    <glyph glyph-name="sterling" unicode="&#xa3;" 
d="M1038 90l-30 -70q-5 -11 -11.5 -15.5t-19.5 -4.5h-844q-17 0 -22 5t-5 24v77q0 17 5 22t22 5h176q31 136 31 246q0 85 -9.5 139t-25.5 111h-184q-19 0 -24 5t-5 23v78q0 16 5 21.5t24 5.5h155q-34 117 -34 209q0 114 54.5 199.5t153 130.5t222.5 45q60 0 131.5 -15
t119.5 -36.5t48 -41.5q0 -3 -2 -8l-4 -10l-39 -78q-8 -12 -17 -12q-5 0 -46.5 18t-91 31.5t-109.5 13.5q-77 0 -137.5 -28t-94 -81t-33.5 -122q0 -33 4.5 -66t11 -71t13.5 -78h276q19 0 24 -5.5t5 -21.5v-78q0 -18 -5.5 -23t-23.5 -5h-243q37 -157 37 -254q0 -55 -5.5 -99.5
t-12.5 -79.5t-13 -63h553q26 0 26 -16q0 -12 -6 -27z" />
    <glyph glyph-name="currency" unicode="&#xa4;" 
d="M90 242l-61 61l137 137q-49 53 -72.5 126.5t-23.5 152.5q0 73 26.5 150.5t71.5 131.5l-143 144l65 63l141 -139q37 28 84 49.5t96.5 33t100.5 11.5q50 0 98.5 -11.5t95 -32.5t85.5 -50l141 139l65 -63l-143 -144q49 -52 73.5 -125.5t24.5 -156.5q0 -171 -96 -279
l137 -137l-61 -61l-135 135q-127 -96 -285 -96q-78 0 -153.5 25t-133.5 71zM512 1079q-97 0 -179.5 -48.5t-130.5 -132.5t-48 -179t48 -177t130 -129.5t180 -47.5t179.5 47.5t129 130t47.5 176.5q0 98 -47 181t-129.5 131t-179.5 48z" />
    <glyph glyph-name="yen" unicode="&#xa5;" horiz-adv-x="1100" 
d="M807 109v-84q0 -25 -25 -25h-454q-25 0 -25 25v84q0 24 25 24h143v373h-373q-14 0 -19 5t-5 17v33q0 21 4.5 28t25.5 7h367l-68 135h-305q-14 0 -19 5t-5 18v32q0 21 4.5 28t25.5 7h256l-219 449h-75q-25 0 -25 24v86q0 23 25 23h380q23 0 23 -23v-86q0 -24 -23 -24h-127
l191 -414q10 -22 53 -108q21 53 58 129l172 393h-131q-23 0 -23 24v86q0 23 23 23h382q23 0 23 -23v-86q0 -24 -23 -24h-86l-213 -449h252q22 0 26.5 -7t4.5 -28v-32q0 -13 -5.5 -18t-18.5 -5h-302l-63 -135h358q22 0 26.5 -7t4.5 -28v-33q0 -12 -5.5 -17t-18.5 -5h-365
v-373h143q25 0 25 -24z" />
    <glyph glyph-name="brokenbar" unicode="&#xa6;" horiz-adv-x="623" 
d="M385 1354v-688h-147v688q0 16 5.5 22t20.5 6h94q17 0 22 -6t5 -22zM385 358v-688q0 -19 -4.5 -23.5t-22.5 -4.5h-94q-17 0 -21.5 5t-4.5 23v688h147z" />
    <glyph glyph-name="section" unicode="&#xa7;" 
d="M795 1313l-39 -78q-8 -16 -17 -16t-41.5 21t-75 37.5t-98.5 16.5q-65 0 -112 -33t-47 -94q0 -42 28.5 -73t84.5 -62t118 -61.5t104 -59.5q80 -50 122 -108t42 -141q0 -63 -26 -115.5t-62.5 -88.5t-69 -58.5t-85.5 -53.5q87 -46 144.5 -102.5t57.5 -157.5
q0 -83 -46 -150.5t-124.5 -106t-169.5 -38.5q-62 0 -140 23t-130.5 53.5t-52.5 48.5q0 3 8 25l37 71q8 17 18 17q7 0 54.5 -29t101 -50.5t115.5 -21.5q69 0 115 40t46 104q0 52 -28 90t-68.5 63t-108 58t-106.5 55q-62 36 -99.5 69t-61 79.5t-23.5 113.5q0 88 41 152.5
t94 102t106 63.5q-78 35 -135 88t-57 153q0 75 41.5 137.5t115.5 99t171 36.5q60 0 121 -17t102 -40.5t41 -41.5q0 -11 -6 -20zM512 414q197 100 197 229q0 78 -64 127.5t-145 87.5q-38 -22 -61 -37t-53 -43t-50.5 -68.5t-20.5 -88.5q0 -45 19.5 -79t51 -58t63.5 -39.5
t63 -30.5z" />
    <glyph glyph-name="dieresis" unicode="&#xa8;" horiz-adv-x="631" 
d="M213 1288q0 -43 -31.5 -75.5t-77.5 -32.5q-44 0 -76 32t-32 76q0 45 32 77t76 32q46 0 77.5 -32.5t31.5 -76.5zM399 1288q0 43 32 76t77 33q46 0 77 -32t31 -77q0 -44 -31 -76t-77 -32q-45 0 -77 33t-32 75z" />
    <glyph glyph-name="copyright" unicode="&#xa9;" horiz-adv-x="1139" 
d="M748 889l43 2q-10 -82 -48.5 -140.5t-158.5 -58.5q-115 0 -190 77.5t-75 197.5q0 80 37.5 148.5t97 107.5t117.5 39q49 0 92 -16.5t54 -16.5q7 0 12.5 4t12 13.5t10.5 13.5h30v-209l-30 -7q-32 82 -62.5 128.5t-91.5 46.5q-70 0 -107.5 -64.5t-37.5 -185.5
q0 -105 38.5 -167.5t112.5 -62.5q73 0 103 46.5t41 103.5zM569 510q-128 0 -238 61.5t-175.5 167.5t-65.5 232t65.5 232t175.5 167.5t238 61.5q95 0 183 -35.5t155 -98.5t104.5 -147.5t37.5 -179.5q0 -94 -37 -177.5t-106 -148.5t-155.5 -100t-181.5 -35zM162 971
q0 -104 55 -194.5t149.5 -142.5t202.5 -52t203 52t150 142.5t55 194.5q0 105 -55 195.5t-150 142t-203 51.5t-202.5 -51.5t-149.5 -142t-55 -195.5z" />
    <glyph glyph-name="ordfeminine" unicode="&#xaa;" horiz-adv-x="909" 
d="M760 666h-150q-16 0 -29.5 27.5t-15.5 45.5q-6 -6 -24 -21.5t-43 -30t-61 -25.5t-77 -11q-84 0 -134 52t-50 139q0 154 119 199.5t254 48.5v36q0 56 -28 79.5t-99 23.5q-58 0 -118.5 -21.5t-57.5 -21.5q-6 0 -13 14l-16 60q-4 16 -4 20q0 21 79 43.5t159 22.5
q127 0 177 -48.5t50 -146.5v-242q0 -82 16 -137h66q16 0 16 -16v-74q0 -16 -16 -16zM549 825v164q-236 0 -236 -141q0 -36 20.5 -63t55.5 -27q44 0 88.5 22.5t71.5 44.5z" />
    <glyph glyph-name="guillemotleft" unicode="&#xab;" horiz-adv-x="985" 
d="M240 489l264 -389q10 -15 10 -18q0 -8 -20 -21l-56 -30q-9 -6 -18 -6q-11 0 -21 14l-344 432q-10 10 -10 18q0 11 10 21l344 432q9 14 21 14l18 -6l56 -30q18 -13 18 -21q0 -4 -2 -8t-3.5 -6t-2.5 -4zM618 489l265 -389q10 -15 10 -18q0 -9 -21 -21l-55 -30q-9 -6 -18 -6
q-13 0 -21 14l-344 432q-10 10 -10 18q0 11 10 21l344 432q9 14 21 14l18 -6l55 -30q19 -12 19 -21q0 -4 -2 -8t-3.5 -6t-2.5 -4z" />
    <glyph glyph-name="logicalnot" unicode="&#xac;" 
d="M977 705v-371q0 -16 -5 -22.5t-22 -6.5h-94q-27 0 -27 29v252h-757q-18 0 -22.5 5t-4.5 23v91q0 18 4.5 23t22.5 5h876q19 0 24 -5t5 -23z" />
    <glyph glyph-name="minus" unicode="&#xad;" 
d="M977 565v-90q0 -18 -5 -23.5t-24 -5.5h-876q-18 0 -22.5 6t-4.5 23v90q0 19 4.5 24t22.5 5h876q19 0 24 -5t5 -24z" />
    <glyph glyph-name="registered" unicode="&#xae;" horiz-adv-x="1139" 
d="M332 717v39q33 3 48 8.5t21.5 22t6.5 51.5v292q0 33 -6.5 47t-17.5 17.5t-52 9.5v41h250q108 0 165.5 -27t57.5 -106q0 -66 -40 -91.5t-110 -41.5q54 -32 70 -62t32.5 -78t37.5 -48q32 0 32 67h41q0 -51 -24.5 -96t-83.5 -45q-58 0 -81.5 32.5t-36 94t-30 92.5t-69.5 31
h-23v-123q0 -41 5 -56.5t18.5 -21t54.5 -10.5v-39h-266zM520 1126v-116h43q52 0 84.5 19t32.5 73q0 51 -19 76.5t-69 25.5q-33 0 -48.5 -8t-19.5 -23t-4 -47zM569 510q-128 0 -238 61.5t-175.5 167.5t-65.5 232t65.5 232t175.5 167.5t238 61.5q95 0 183 -35.5t155 -98.5
t104.5 -147.5t37.5 -179.5q0 -94 -37 -177.5t-106 -148.5t-155.5 -100t-181.5 -35zM162 971q0 -104 55 -194.5t149.5 -142.5t202.5 -52t203 52t150 142.5t55 194.5t-55 194.5t-150 142.5t-203 52t-202.5 -52t-149.5 -142.5t-55 -194.5z" />
    <glyph glyph-name="macron" unicode="&#xaf;" horiz-adv-x="631" 
d="M565 1323v-72q0 -16 -4 -21t-22 -5h-447q-16 0 -22.5 5.5t-6.5 20.5v72q0 29 29 29h447q26 0 26 -29z" />
    <glyph glyph-name="ring" unicode="&#xb0;" horiz-adv-x="631" 
d="M498 1288q0 -50 -25 -91.5t-67 -66t-91 -24.5q-75 0 -127.5 53.5t-52.5 128.5q0 48 24 90t65.5 67t90.5 25q51 0 93 -24.5t66 -66.5t24 -91zM315 1200q36 0 60 26.5t24 61.5t-24.5 61.5t-59.5 26.5q-34 0 -58 -26t-24 -62t24 -62t58 -26z" />
    <glyph glyph-name="plusminus" unicode="&#xb1;" 
d="M584 446v-294q0 -20 -4.5 -24.5t-22.5 -4.5h-94q-18 0 -22.5 5t-4.5 24v294h-364q-18 0 -22.5 6t-4.5 23v90q0 19 4.5 24t22.5 5h364v360q0 20 4.5 24.5t22.5 4.5h94q19 0 23 -4t4 -25v-360h364q19 0 24 -5t5 -24v-90q0 -18 -5 -23.5t-24 -5.5h-364zM977 16v-90
q0 -18 -5 -23t-24 -5h-876q-18 0 -22.5 5t-4.5 23v90q0 19 4.5 24t22.5 5h876q19 0 24 -5t5 -24z" />
    <glyph glyph-name="twosuperior" unicode="&#xb2;" horiz-adv-x="721" 
d="M610 612v-53q0 -21 -9 -29t-30 -8h-424q-36 0 -36 33v10q0 103 29 174t72.5 116.5t111 90.5t84.5 58q32 24 47.5 49t15.5 61q0 33 -12 57.5t-36.5 38t-57.5 13.5q-93 0 -125 -117q-9 -23 -25 -23q-8 0 -20 4l-56 15q-26 5 -26 28q0 24 23.5 69t51.5 69q36 32 75 48.5
t108 16.5q105 0 172 -56t67 -157q0 -62 -24 -107t-61.5 -77.5t-91 -66.5t-71.5 -48q-53 -41 -75 -80.5t-31 -91.5h315q21 0 30 -7.5t9 -29.5z" />
    <glyph glyph-name="threesuperior" unicode="&#xb3;" horiz-adv-x="721" 
d="M150 1157l-50 37q-8 8 -8 16q0 17 34.5 47.5t90 53t117.5 22.5q66 0 121.5 -24t89 -72t33.5 -111q0 -71 -32 -106t-79 -66q139 -65 139 -204q0 -111 -83.5 -177.5t-217.5 -66.5q-68 0 -150.5 19.5t-82.5 41.5q0 9 6 21l26 53q10 16 19 16q-1 0 59.5 -20.5t126.5 -20.5
q75 0 116.5 36.5t41.5 101.5q0 133 -180 133h-45q-14 0 -22.5 4t-8.5 18v56q0 18 6 24t25 6h45q60 0 111 30.5t51 98.5q0 47 -35 73t-86 26q-41 0 -69.5 -15t-56.5 -37t-36 -22t-16 8z" />
    <glyph glyph-name="acute" unicode="&#xb4;" horiz-adv-x="631" 
d="M508 1307l-336 -174q-8 -7 -20 -7q-9 0 -19 17l-18 28q-11 19 -11 21q0 1 17 18l297 230q15 10 20 10q10 0 21 -16l59 -88q8 -14 8 -21q0 -11 -18 -18z" />
    <glyph glyph-name="mu" unicode="&#xb5;" horiz-adv-x="1139" 
d="M1079 102v-77q0 -25 -24 -25h-172q-28 0 -44 15.5t-24 35.5t-18 41q-149 -121 -285 -121q-83 0 -143 52v-310h129q24 0 24 -22v-82q0 -23 -24 -23h-392q-22 0 -22 23v82q0 22 22 22h107v1143h-115q-24 0 -24 25v77q0 25 24 25h246q25 0 25 -25v-684q0 -165 168 -165
q43 0 123 38t110 66v643h-117q-24 0 -24 25v77q0 25 24 25h248q25 0 25 -25v-702q0 -61 12 -129h117q24 0 24 -25z" />
    <glyph glyph-name="paragraph" unicode="&#xb6;" horiz-adv-x="1251" 
d="M1026 1270v-1624q0 -17 -5 -22t-24 -5h-84q-17 0 -22.5 5.5t-5.5 21.5v1624h-131v-1624q0 -17 -5 -22t-24 -5h-84q-19 0 -24 5t-5 22v710q-119 -14 -151 -14q-92 0 -162 32.5t-119 99.5t-74.5 171t-25.5 236q0 159 36 252.5t99 160.5q66 70 163 88.5t234 20.5h551
q19 0 24 -5t5 -22v-80q0 -16 -5.5 -21t-23.5 -5h-137zM612 487v783q-107 0 -171 -11t-104.5 -49.5t-59.5 -117t-19 -213.5q0 -134 23.5 -222.5t81 -135t155.5 -46.5q49 0 94 12z" />
    <glyph glyph-name="periodcentered" unicode="&#xb7;" 
d="M639 520q0 -35 -17 -64t-46 -46t-64 -17q-53 0 -90 38t-37 89q0 52 36.5 89.5t90.5 37.5q35 0 64 -17t46 -46t17 -64z" />
    <glyph glyph-name="periodcentered" unicode="&#x2219;" 
d="M639 520q0 -35 -17 -64t-46 -46t-64 -17q-53 0 -90 38t-37 89q0 52 36.5 89.5t90.5 37.5q35 0 64 -17t46 -46t17 -64z" />
    <glyph glyph-name="cedilla" unicode="&#xb8;" horiz-adv-x="631" 
d="M319 2l-10 -113q71 -9 114.5 -33.5t43.5 -99.5q0 -76 -64.5 -119t-146.5 -43q-39 0 -81 11t-42 28q1 5 1.5 9t0.5 8l8 61q0 10 11 10q-3 0 31 -8t75 -8q82 0 82 47q0 26 -21 34.5t-65.5 12t-58 7.5t-13.5 22t2 37l15 137h118z" />
    <glyph glyph-name="onesuperior" unicode="&#xb9;" horiz-adv-x="721" 
d="M602 602v-49q0 -19 -6.5 -25t-24.5 -6h-358q-17 0 -24 6.5t-7 24.5v49q0 17 6 24t25 7h125v543l-170 -86q-8 -7 -18 -7q-12 0 -23 19l-16 24q-7 10 -7 19q0 11 17 22l244 150h69q20 0 26.5 -6.5t6.5 -24.5v-653h104q18 0 24.5 -6.5t6.5 -24.5z" />
    <glyph glyph-name="degree" unicode="&#xba;" 
d="M827 1087q0 -85 -42.5 -157.5t-116 -115t-156.5 -42.5q-84 0 -158 42.5t-116.5 115t-42.5 157.5q0 66 24 122.5t69 101.5t102.5 68.5t121.5 23.5q63 0 121 -24t101.5 -67t68 -101t24.5 -124zM510 901q77 0 132.5 54.5t55.5 131.5q0 78 -55.5 132.5t-132.5 54.5
q-76 0 -131 -55t-55 -132q0 -75 55.5 -130.5t130.5 -55.5z" />
    <glyph glyph-name="guillemotright" unicode="&#xbb;" horiz-adv-x="985" 
d="M930 471l-344 -432q-9 -14 -21 -14q-3 0 -7.5 2t-10.5 4l-55 30q-19 12 -19 21q0 4 2 8t3.5 6t2.5 4l264 392l-264 389q-10 15 -10 18q0 9 21 21l55 30q9 6 18 6q13 0 21 -14l344 -432q10 -10 10 -18q0 -11 -10 -21zM551 471l-344 -432q-9 -14 -21 -14q-3 0 -7.5 2
t-10.5 4l-55 30q-19 12 -19 21q0 4 2 8t3.5 6t2.5 4l265 392l-265 389q-10 15 -10 18q0 9 21 21l55 30q9 6 18 6q13 0 21 -14l344 -432q10 -10 10 -18q0 -11 -10 -21z" />
    <glyph glyph-name="onequarter" unicode="&#xbc;" horiz-adv-x="1706" 
d="M1448 156v-154q0 -19 -6.5 -25t-24.5 -6h-63q-20 0 -27.5 6.5t-7.5 24.5v154h-330q-17 0 -24 6.5t-7 23.5v72l353 512q14 18 20 18q17 0 25 -2l57 -10q19 -3 24 -6.5t5 -13.5t-10 -23l-328 -471h215l14 178q3 29 35 29h49q19 0 25 -6t6 -25v-176h96q19 0 25 -6t6 -25v-45
q0 -18 -6.5 -24t-24.5 -6h-96zM1116 1311l-409 -1319q-6 -21 -37 -21h-78q-27 0 -27 15q0 6 4 18l408 1321q7 21 31 21h86q26 0 26 -17q0 -10 -4 -18zM612 602v-49q0 -19 -6 -25t-24 -6h-359q-16 0 -23 6.5t-7 24.5v49q0 17 6 24t24 7h125v543l-170 -86q-8 -7 -18 -7
q-12 0 -23 19l-16 24q-6 10 -6 19q0 11 16 22l244 150h69q20 0 26.5 -6.5t6.5 -24.5v-653h105q18 0 24 -6.5t6 -24.5z" />
    <glyph glyph-name="onehalf" unicode="&#xbd;" horiz-adv-x="1706" 
d="M1124 1311l-409 -1319q-5 -21 -37 -21h-78q-27 0 -27 15q0 8 5 18l407 1321q7 21 31 21h86q26 0 26 -17q0 -10 -4 -18zM621 602v-49q0 -18 -6.5 -24.5t-24.5 -6.5h-359q-16 0 -23 6.5t-7 24.5v49q0 17 6 24t24 7h125v543l-170 -86q-8 -7 -18 -7t-23 19l-16 24
q-6 10 -6 19q0 11 16 22l244 150h70q19 0 25.5 -6.5t6.5 -24.5v-653h105q18 0 24.5 -6.5t6.5 -24.5zM1559 90v-53q0 -37 -39 -37h-424q-37 0 -37 33v10q0 103 29 174t73 116t111 90t84 58q33 26 48 50.5t15 60.5q0 33 -11.5 57t-36.5 37.5t-58 13.5q-92 0 -125 -116
q-8 -23 -25 -23q-8 0 -20 4l-56 15q-26 5 -26 28q0 25 23.5 68.5t52.5 68.5q36 32 75.5 49t106.5 17q107 0 173.5 -56.5t66.5 -156.5q0 -62 -24 -107t-61.5 -77.5t-91 -66.5t-71.5 -48q-54 -41 -76 -80.5t-31 -91.5h316q39 0 39 -37z" />
    <glyph glyph-name="threequarters" unicode="&#xbe;" horiz-adv-x="1706" 
d="M1481 156v-154q0 -19 -6.5 -25t-24.5 -6h-64q-19 0 -26.5 6.5t-7.5 24.5v154h-330q-17 0 -24 6.5t-7 23.5v72l352 512q16 18 21 18q16 0 25 -2l57 -10q29 -6 29 -20q0 -8 -11 -23l-327 -471h215l14 178q3 29 35 29h49q19 0 25 -6t6 -25v-176h96q19 0 25 -6t6 -25v-45
q0 -18 -6.5 -24t-24.5 -6h-96zM1149 1311l-410 -1319q-5 -21 -37 -21h-77q-27 0 -27 15q0 6 4 18l408 1321q7 21 30 21h86q27 0 27 -17q0 -10 -4 -18zM184 1157l-49 37q-8 8 -8 16q0 17 35 48t90.5 53t116.5 22q102 0 172.5 -55t70.5 -152q0 -71 -31.5 -106.5t-78.5 -65.5
q139 -65 139 -204q0 -111 -83.5 -177.5t-217.5 -66.5q-68 0 -151 19.5t-83 41.5q0 7 7 21l26 53q8 16 19 16l59.5 -20.5t126.5 -20.5q75 0 116.5 36.5t41.5 101.5q0 133 -180 133h-46q-13 0 -21.5 4t-8.5 18v56q0 18 6 24t24 6h46q60 0 110.5 30t50.5 99q0 47 -35 73t-86 26
q-41 0 -69.5 -15t-56 -37t-35.5 -22q-9 0 -17 8z" />
    <glyph glyph-name="questiondown" unicode="&#xbf;" horiz-adv-x="872" 
d="M416 246v186q0 17 5 22t23 5h82q19 0 24 -5t5 -22v-227q0 -53 -18 -62q-30 -9 -69 -19.5t-85 -35t-79.5 -70t-33.5 -114.5q0 -96 53.5 -146.5t153.5 -50.5q51 0 96.5 12.5t91 31t52.5 18.5q15 0 22 -21l29 -72q2 -4 2 -14q0 -30 -109 -61t-200 -31q-154 0 -256.5 79
t-102.5 251q0 167 96.5 241t217.5 105zM338 868q0 60 42 102t101 42t101.5 -41.5t42.5 -102.5t-43 -102t-101 -41t-100.5 41.5t-42.5 101.5z" />
    <glyph glyph-name="Agrave" unicode="&#xc0;" horiz-adv-x="1251" 
d="M793 561l-123 453q-31 103 -47 194h-5q-6 -38 -21 -104t-22 -90l-124 -453h342zM1223 109v-84q0 -25 -25 -25h-414q-24 0 -24 25v84q0 24 24 24h127l-80 285h-419l-78 -285h131q24 0 24 -24v-84q0 -25 -24 -25h-412q-24 0 -24 25v84q0 24 24 24h101l381 1247q4 15 8.5 19
t21.5 4h121q14 0 20 -4t11 -19l379 -1247h102q25 0 25 -24zM532 1778l267 -205l12 -12q0 -3 -6 -15l-17 -24q-6 -13 -12 -13q-10 0 -14 2l-301 156q-15 4 -15 12q0 5 5 15l53 78l7 7t7 5q4 0 9.5 -3t4.5 -3z" />
    <glyph glyph-name="Aacute" unicode="&#xc1;" horiz-adv-x="1251" 
d="M793 561l-123 453q-31 103 -47 194h-5q-6 -38 -21 -104t-22 -90l-124 -453h342zM1223 109v-84q0 -25 -25 -25h-414q-24 0 -24 25v84q0 24 24 24h127l-80 285h-419l-78 -285h131q24 0 24 -24v-84q0 -25 -24 -25h-412q-24 0 -24 25v84q0 24 24 24h101l381 1247q4 15 8.5 19
t21.5 4h121q14 0 20 -4t11 -19l379 -1247h102q25 0 25 -24zM840 1675l-301 -155q-4 -2 -15 -2q-6 0 -12 12l-16 24q-2 4 -4.5 8t-2.5 7q0 -1 13 12l266 205q12 6 14 6q9 0 15 -12l53 -78q4 -8 4 -14q0 -9 -14 -13z" />
    <glyph glyph-name="Acircumflex" unicode="&#xc2;" horiz-adv-x="1251" 
d="M793 561l-123 453q-31 103 -47 194h-5q-6 -38 -21 -104t-22 -90l-124 -453h342zM1223 109v-84q0 -25 -25 -25h-414q-24 0 -24 25v84q0 24 24 24h127l-80 285h-419l-78 -285h131q24 0 24 -24v-84q0 -25 -24 -25h-412q-24 0 -24 25v84q0 24 24 24h101l381 1247q4 15 8.5 19
t21.5 4h121q14 0 20 -4t11 -19l379 -1247h102q25 0 25 -24zM844 1540l-41 -33q-3 -6 -8 -6q-11 0 -15 2l-168 111l-166 -111q-1 0 -5 -2t-7 -2q-6 0 -14 12l-21 29q-2 4 -4 7t-2 5q0 4 13 15l202 162q12 6 13 6q2 0 14 -6l203 -162q10 -10 10 -13q0 -6 -4 -14z" />
    <glyph glyph-name="Atilde" unicode="&#xc3;" horiz-adv-x="1251" 
d="M793 561l-123 453q-31 103 -47 194h-5q-6 -38 -21 -104t-22 -90l-124 -453h342zM1223 109v-84q0 -25 -25 -25h-414q-24 0 -24 25v84q0 24 24 24h127l-80 285h-419l-78 -285h131q24 0 24 -24v-84q0 -25 -24 -25h-412q-24 0 -24 25v84q0 24 24 24h101l381 1247q4 15 8.5 19
t21.5 4h121q14 0 20 -4t11 -19l379 -1247h102q25 0 25 -24zM827 1688l50 -21q10 -5 10 -10q0 -10 -20 -47t-59 -67t-89 -30q-41 0 -109 37q-58 37 -94 37q-24 0 -38 -12.5t-31 -35.5t-23 -23h-6l-49 18q-13 4 -13 12t20 45t56.5 68t89.5 31q43 0 111 -37q64 -37 90 -37
q32 0 49.5 15t29 36t17.5 21h8z" />
    <glyph glyph-name="Adieresis" unicode="&#xc4;" horiz-adv-x="1251" 
d="M793 561l-123 453q-31 103 -47 194h-5q-6 -38 -21 -104t-22 -90l-124 -453h342zM1223 109v-84q0 -25 -25 -25h-414q-24 0 -24 25v84q0 24 24 24h127l-80 285h-419l-78 -285h131q24 0 24 -24v-84q0 -25 -24 -25h-412q-24 0 -24 25v84q0 24 24 24h101l381 1247q4 15 8.5 19
t21.5 4h121q14 0 20 -4t11 -19l379 -1247h102q25 0 25 -24zM537 1602q0 -45 -31 -77t-78 -32q-45 0 -77 33t-32 76q0 44 32 76t77 32q47 0 78 -31t31 -77zM670 1602q0 46 32 77t76 31q45 0 77 -31t32 -77q0 -45 -32 -77t-77 -32q-44 0 -76 32t-32 77z" />
    <glyph glyph-name="Aring" unicode="&#xc5;" horiz-adv-x="1251" 
d="M793 561l-123 453q-31 103 -47 194h-5q-6 -38 -21 -104t-22 -90l-124 -453h342zM1223 109v-84q0 -25 -25 -25h-414q-24 0 -24 25v84q0 24 24 24h127l-80 285h-419l-78 -285h131q24 0 24 -24v-84q0 -25 -24 -25h-412q-24 0 -24 25v84q0 24 24 24h101l381 1247q4 15 8.5 19
t21.5 4h121q14 0 20 -4t11 -19l379 -1247h102q25 0 25 -24zM793 1642v3q0 -41 -21 -77t-55.5 -56.5t-77.5 -20.5q-63 0 -107.5 45.5t-44.5 108.5q0 42 20.5 75.5t56 54.5t75.5 21q41 0 77 -21t56.5 -55.5t20.5 -77.5zM639 1571v2q28 0 49 22.5t21 51.5q0 27 -21 49t-49 22
q-26 0 -47 -22.5t-21 -50.5q0 -30 20 -52t48 -22z" />
    <glyph glyph-name="AE" unicode="&#xc6;" horiz-adv-x="1630" 
d="M842 561v748h-4q-44 -105 -68 -162.5t-47 -104.5l-217 -481h336zM772 1403h715q17 0 21.5 -5.5t4.5 -23.5v-278q0 -25 -22 -25h-94q-23 0 -23 25v164h-362v-455h401q17 0 22 -5t5 -22v-90q0 -16 -5 -21t-22 -5h-401v-519h377v185q0 22 22 22h92q25 0 25 -22v-299
q0 -19 -5.5 -24t-23.5 -5h-788q-25 0 -25 25v84q0 24 25 24h131v291h-396l-129 -291h109q23 0 23 -24v-84q0 -25 -23 -25h-373q-24 0 -24 25v84q0 24 24 24h84l584 1225q10 22 19.5 33.5t31.5 11.5z" />
    <glyph glyph-name="Ccedilla" unicode="&#xc7;" horiz-adv-x="985" 
d="M903 342v-213q0 -39 -18 -53q-50 -43 -141 -74t-166 -31q-247 0 -359.5 201t-112.5 543q0 207 42.5 367.5t144.5 255t268 94.5q171 0 311 -103q21 -15 21 -39v-227q0 -25 -23 -25h-94q-22 0 -22 25v174q-34 20 -79 38.5t-110 18.5q-106 0 -166 -65.5t-84 -187.5t-24 -306
q0 -195 29.5 -334t94.5 -215.5t167 -76.5q57 0 98 16.5t84 40.5v176q0 25 22 25h95q22 0 22 -25zM596 -14l2 -92q60 -6 100.5 -28t40.5 -89q0 -69 -57 -106.5t-131 -37.5q-39 0 -74 9.5t-35 23.5v10l7 56q0 6 6 6l30.5 -7t61.5 -7q71 0 71 40q0 24 -17.5 31t-58.5 10.5
t-53 6.5t-12 20v31l12 123h107z" />
    <glyph glyph-name="Egrave" unicode="&#xc8;" horiz-adv-x="985" 
d="M920 328v-299q0 -18 -6 -23.5t-23 -5.5h-785q-24 0 -24 25v84q0 24 24 24h130v1137h-130q-24 0 -24 24v84q0 25 24 25h773q17 0 21.5 -5.5t4.5 -23.5v-278q0 -25 -22 -25h-95q-22 0 -22 25v164h-363v-455h402q17 0 21.5 -5t4.5 -22v-90q0 -16 -4.5 -21t-21.5 -5h-402
v-519h377v185q0 22 23 22h92q25 0 25 -22zM449 1788l266 -205l12 -12l-6 -15l-16 -24q-7 -12 -13 -12q-10 0 -14 2l-301 155q-15 4 -15 13q0 4 5 14l53 78l7 7t7 5q4 0 9.5 -3z" />
    <glyph glyph-name="Eacute" unicode="&#xc9;" horiz-adv-x="985" 
d="M920 328v-299q0 -18 -6 -23.5t-23 -5.5h-785q-24 0 -24 25v84q0 24 24 24h130v1137h-130q-24 0 -24 24v84q0 25 24 25h773q17 0 21.5 -5.5t4.5 -23.5v-278q0 -25 -22 -25h-95q-22 0 -22 25v164h-363v-455h402q17 0 21.5 -5t4.5 -22v-90q0 -16 -4.5 -21t-21.5 -5h-402
v-519h377v185q0 22 23 22h92q25 0 25 -22zM786 1675l-301 -155q-4 -2 -14 -2q-6 0 -12 12l-17 24l-6 15q0 1 13 12l266 205q12 6 14 6q8 0 14 -12l54 -78q4 -8 4 -14q0 -10 -15 -13z" />
    <glyph glyph-name="Ecircumflex" unicode="&#xca;" horiz-adv-x="985" 
d="M920 328v-299q0 -18 -6 -23.5t-23 -5.5h-785q-24 0 -24 25v84q0 24 24 24h130v1137h-130q-24 0 -24 24v84q0 25 24 25h773q17 0 21.5 -5.5t4.5 -23.5v-278q0 -25 -22 -25h-95q-22 0 -22 25v164h-363v-455h402q17 0 21.5 -5t4.5 -22v-90q0 -16 -4.5 -21t-21.5 -5h-402
v-519h377v185q0 22 23 22h92q25 0 25 -22zM725 1524l-41 -33q-3 -6 -8 -6q-10 0 -14 2l-168 110l-166 -110l-5 -2t-8 -2q-6 0 -14 12l-20 29q-2 3 -4.5 6t-2.5 6q0 1 13 14l202 162l5 2.5t4 2.5t4 1q2 0 14 -6l203 -162q10 -10 10 -12q0 -6 -4 -14z" />
    <glyph glyph-name="Edieresis" unicode="&#xcb;" horiz-adv-x="985" 
d="M920 328v-299q0 -18 -6 -23.5t-23 -5.5h-785q-24 0 -24 25v84q0 24 24 24h130v1137h-130q-24 0 -24 24v84q0 25 24 25h773q17 0 21.5 -5.5t4.5 -23.5v-278q0 -25 -22 -25h-95q-22 0 -22 25v164h-363v-455h402q17 0 21.5 -5t4.5 -22v-90q0 -16 -4.5 -21t-21.5 -5h-402
v-519h377v185q0 22 23 22h92q25 0 25 -22zM459 1616q0 -44 -31.5 -76.5t-77.5 -32.5q-44 0 -76 32t-32 77q0 46 32 77t76 31q46 0 77.5 -31.5t31.5 -76.5zM592 1616q0 46 32 77t76 31q45 0 77 -31t32 -77q0 -45 -32 -77t-77 -32q-44 0 -76 32t-32 77z" />
    <glyph glyph-name="Igrave" unicode="&#xcc;" horiz-adv-x="682" 
d="M637 109v-84q0 -25 -25 -25h-540q-25 0 -25 25v84q0 24 25 24h186v1137h-186q-25 0 -25 24v84q0 25 25 25h540q25 0 25 -25v-84q0 -24 -25 -24h-186v-1137h186q25 0 25 -24zM240 1798l266 -205l12 -12q0 -2 -6 -14l-16 -25q-6 -12 -13 -12q-10 0 -14 2l-301 156
q-14 3 -14 12q0 6 4 14l53 78l7 7t7 5q4 0 11 -3t4 -3z" />
    <glyph glyph-name="Iacute" unicode="&#xcd;" horiz-adv-x="682" 
d="M637 109v-84q0 -25 -25 -25h-540q-25 0 -25 25v84q0 24 25 24h186v1137h-186q-25 0 -25 24v84q0 25 25 25h540q25 0 25 -25v-84q0 -24 -25 -24h-186v-1137h186q25 0 25 -24zM557 1686l-301 -156q-4 -2 -14 -2q-7 0 -13 12l-16 25q-6 12 -6 14l12 12l266 205q12 6 15 6
q8 0 14 -12l53 -78q4 -8 4 -14q0 -8 -14 -12z" />
    <glyph glyph-name="Icircumflex" unicode="&#xce;" horiz-adv-x="682" 
d="M637 109v-84q0 -25 -25 -25h-540q-25 0 -25 25v84q0 24 25 24h186v1137h-186q-25 0 -25 24v84q0 25 25 25h540q25 0 25 -25v-84q0 -24 -25 -24h-186v-1137h186q25 0 25 -24zM565 1540l-41 -33q-3 -6 -8 -6q-10 0 -14 2l-168 111l-166 -111q-1 0 -5 -2t-7 -2q-7 0 -15 12
l-20 29q-2 4 -4 7t-2 5q0 3 12 15l203 162l12 6q2 0 14 -6l203 -162q10 -10 10 -13q0 -6 -4 -14z" />
    <glyph glyph-name="Idieresis" unicode="&#xcf;" horiz-adv-x="682" 
d="M637 109v-84q0 -25 -25 -25h-540q-25 0 -25 25v84q0 24 25 24h186v1137h-186q-25 0 -25 24v84q0 25 25 25h540q25 0 25 -25v-84q0 -24 -25 -24h-186v-1137h186q25 0 25 -24zM279 1632q0 -44 -31 -76t-78 -32q-45 0 -77 33t-32 75q0 43 32 76t77 33q47 0 78 -32t31 -77z
M412 1632q0 45 32 77t76 32q45 0 77 -32t32 -77q0 -44 -32 -76t-77 -32q-44 0 -76 32t-32 76z" />
    <glyph glyph-name="Eth" unicode="&#xd0;" horiz-adv-x="1176" 
d="M106 1403h412q126 0 218.5 -23t169 -92.5t120 -208t43.5 -364.5q0 -248 -56.5 -404.5t-183.5 -233.5t-333 -77h-390q-24 0 -24 25v84q0 24 24 24h130v531h-127q-16 0 -21.5 5.5t-5.5 22.5v78q0 16 4.5 21.5t22.5 5.5h127v473h-130q-24 0 -24 24v84q0 25 24 25zM403 143
h127q141 0 218.5 69t107 195.5t29.5 315.5q0 218 -41 334.5t-120.5 159.5t-207.5 43h-113v-463h246q20 0 24.5 -4.5t4.5 -22.5v-78q0 -18 -5 -23t-24 -5h-246v-521z" />
    <glyph glyph-name="Ntilde" unicode="&#xd1;" horiz-adv-x="1176" 
d="M1010 1270v-1225q0 -30 -4 -37.5t-21 -7.5h-113q-21 0 -32 20l-471 1012q-37 78 -56 178l-4 -4q21 -96 21 -182v-891h133q24 0 24 -24v-84q0 -25 -24 -25h-412q-24 0 -24 25v84q0 24 24 24h129v1137h-129q-24 0 -24 24v84q0 25 24 25h287q21 0 31 -19l452 -954
q14 -30 20.5 -52t12 -45.5t16.5 -60.5l4 4q-4 33 -9 59t-5 42v893h-133q-25 0 -25 24v84q0 25 25 25h414q24 0 24 -25v-84q0 -24 -24 -24h-131zM784 1663l50 -21q10 -5 10 -10q0 -10 -19.5 -46t-57.5 -66.5t-91 -30.5q-45 0 -109 37q-62 37 -94 37q-25 0 -39.5 -14
t-30.5 -36t-22 -22h-6l-49 18q-13 4 -13 13t19.5 44.5t57 67t89.5 31.5q47 0 111 -37q11 -6 27.5 -15.5t32.5 -15.5t30 -6q32 0 49.5 15t29 36t17.5 21h8z" />
    <glyph glyph-name="Ograve" unicode="&#xd2;" horiz-adv-x="1139" 
d="M1032 702q0 -223 -48.5 -387.5t-152 -254t-262.5 -89.5t-263 90t-152 254t-48 387q0 164 26.5 298.5t84 232.5t145 148.5t207.5 50.5q121 0 209.5 -52t144 -147t82.5 -228t27 -303zM569 109q84 0 139.5 41t85.5 117t42 183.5t12 251.5q0 197 -22.5 323t-84 197.5
t-172.5 71.5q-109 0 -170.5 -71.5t-84.5 -201.5t-23 -319q0 -144 12 -250.5t42.5 -184t85.5 -118t138 -40.5zM477 1796l266 -205q13 -11 13 -12q0 -2 -6 -14l-17 -25q-6 -12 -12 -12q-10 0 -14 2l-301 156q-15 3 -15 12q0 6 4 14l54 78l7 7t7 5q4 0 9.5 -3t4.5 -3z" />
    <glyph glyph-name="Oacute" unicode="&#xd3;" horiz-adv-x="1139" 
d="M1032 702q0 -223 -48.5 -387.5t-152 -254t-262.5 -89.5t-263 90t-152 254t-48 387q0 164 26.5 298.5t84 232.5t145 148.5t207.5 50.5q121 0 209.5 -52t144 -147t82.5 -228t27 -303zM569 109q84 0 139.5 41t85.5 117t42 183.5t12 251.5q0 197 -22.5 323t-84 197.5
t-172.5 71.5q-109 0 -170.5 -71.5t-84.5 -201.5t-23 -319q0 -144 12 -250.5t42.5 -184t85.5 -118t138 -40.5zM795 1694l-301 -156q-5 -2 -15 -2q-6 0 -12 12l-16 25q-2 4 -4.5 7.5t-2.5 6.5q0 -1 13 12l266 205q12 6 14 6q9 0 15 -12l53 -78q4 -8 4 -14q0 -8 -14 -12z" />
    <glyph glyph-name="Ocircumflex" unicode="&#xd4;" horiz-adv-x="1139" 
d="M1032 702q0 -223 -48.5 -387.5t-152 -254t-262.5 -89.5t-263 90t-152 254t-48 387q0 164 26.5 298.5t84 232.5t145 148.5t207.5 50.5q121 0 209.5 -52t144 -147t82.5 -228t27 -303zM569 109q84 0 139.5 41t85.5 117t42 183.5t12 251.5q0 197 -22.5 323t-84 197.5
t-172.5 71.5q-109 0 -170.5 -71.5t-84.5 -201.5t-23 -319q0 -144 12 -250.5t42.5 -184t85.5 -118t138 -40.5zM795 1542l-41 -33q-3 -6 -9 -6q-10 0 -14 2l-168 111l-166 -111q-1 0 -5 -2t-7 -2q-6 0 -14 12l-21 29q-2 4 -4 7t-2 5q0 3 12 15l203 162l12 6q3 0 15 -6
l202 -162q11 -9 11 -13q0 -6 -4 -14z" />
    <glyph glyph-name="Otilde" unicode="&#xd5;" horiz-adv-x="1139" 
d="M1032 702q0 -223 -48.5 -387.5t-152 -254t-262.5 -89.5t-263 90t-152 254t-48 387q0 164 26.5 298.5t84 232.5t145 148.5t207.5 50.5q121 0 209.5 -52t144 -147t82.5 -228t27 -303zM569 109q84 0 139.5 41t85.5 117t42 183.5t12 251.5q0 197 -22.5 323t-84 197.5
t-172.5 71.5q-109 0 -170.5 -71.5t-84.5 -201.5t-23 -319q0 -144 12 -250.5t42.5 -184t85.5 -118t138 -40.5zM772 1706l49 -20q10 -8 10 -11q0 -10 -20 -46.5t-57 -66.5t-90 -30q-45 0 -109 37t-94 37q-25 0 -39.5 -14t-30.5 -36t-22 -22h-7l-49 18q-12 4 -12 13t19.5 44.5
t57 67t89.5 31.5q47 0 111 -37q66 -37 90 -37q32 0 49 15t28.5 36t18.5 21h8z" />
    <glyph glyph-name="Odieresis" unicode="&#xd6;" horiz-adv-x="1139" 
d="M1032 702q0 -223 -48.5 -387.5t-152 -254t-262.5 -89.5t-263 90t-152 254t-48 387q0 164 26.5 298.5t84 232.5t145 148.5t207.5 50.5q121 0 209.5 -52t144 -147t82.5 -228t27 -303zM569 109q84 0 139.5 41t85.5 117t42 183.5t12 251.5q0 197 -22.5 323t-84 197.5
t-172.5 71.5q-109 0 -170.5 -71.5t-84.5 -201.5t-23 -319q0 -144 12 -250.5t42.5 -184t85.5 -118t138 -40.5zM487 1645q0 -44 -30.5 -76.5t-77.5 -32.5q-45 0 -77 32t-32 77q0 46 32 77t77 31q47 0 77.5 -31.5t30.5 -76.5zM621 1645q0 46 32 77t76 31q45 0 77 -31t32 -77
q0 -45 -32 -77t-77 -32q-44 0 -76 32t-32 77z" />
    <glyph glyph-name="multiply" unicode="&#xd7;" 
d="M870 223l-65 -65q-15 -15 -21 -15q-9 0 -20 15l-254 260l-256 -260q-11 -15 -21 -15q-5 0 -20 15l-66 65q-12 12 -12 19q0 8 12 20l261 258l-261 256q-12 9 -12 21q0 11 12 20l66 64q14 14 20 14q7 0 21 -14l256 -258l254 258q14 14 20 14q7 0 21 -14l65 -64
q13 -9 13 -20q0 -12 -13 -21l-245 -256l245 -258q13 -11 13 -20q0 -6 -13 -19z" />
    <glyph glyph-name="Oslash" unicode="&#xd8;" horiz-adv-x="1139" 
d="M1001 1436l-92 -179q121 -191 121 -550q0 -227 -49.5 -391.5t-155 -254.5t-266.5 -90q-162 0 -264 95l-68 -132q-11 -18 -18 -18q-10 0 -21 6l-59 29q-18 9 -18 18q0 3 6 21l92 182q-49 98 -76 217t-27 307q0 227 49 391t156 254.5t269 90.5q95 0 140 -19t99 -57l72 135
q9 18 18 18q3 0 21 -6l59 -28q21 -12 21 -19q0 -2 -9 -20zM829 1104l-464 -903q68 -92 200 -92q118 0 184 72.5t89.5 200t23.5 323.5q0 295 -33 399zM303 356l451 871q-26 26 -65 46.5t-116 20.5q-117 0 -183 -72t-91 -203t-25 -325q0 -119 4.5 -194t24.5 -144z" />
    <glyph glyph-name="Ugrave" unicode="&#xd9;" horiz-adv-x="1251" 
d="M1069 1270v-893q0 -191 -111 -298.5t-340 -107.5q-152 0 -245.5 49t-135.5 139.5t-42 217.5v893h-132q-24 0 -24 24v84q0 25 24 25h431q24 0 24 -25v-84q0 -24 -24 -24h-132v-889q0 -138 57.5 -205t201.5 -67q140 0 210 66.5t70 205.5v889h-131q-25 0 -25 24v84
q0 25 25 25h430q25 0 25 -25v-84q0 -24 -25 -24h-131zM549 1788l266 -205l12 -12l-6 -15l-16 -24q-6 -12 -12 -12q-11 0 -15 2l-301 155q-14 3 -14 13q0 6 4 14l53 78l7 7t8 5q4 0 9.5 -3t4.5 -3z" />
    <glyph glyph-name="Uacute" unicode="&#xda;" horiz-adv-x="1251" 
d="M1069 1270v-893q0 -191 -111 -298.5t-340 -107.5q-152 0 -245.5 49t-135.5 139.5t-42 217.5v893h-132q-24 0 -24 24v84q0 25 24 25h431q24 0 24 -25v-84q0 -24 -24 -24h-132v-889q0 -138 57.5 -205t201.5 -67q140 0 210 66.5t70 205.5v889h-131q-25 0 -25 24v84
q0 25 25 25h430q25 0 25 -25v-84q0 -24 -25 -24h-131zM897 1686l-301 -156q-4 -2 -14 -2q-7 0 -13 12l-16 25q-6 12 -6 14l12 12l266 205q12 6 15 6q8 0 14 -12l53 -78q4 -8 4 -14q0 -8 -14 -12z" />
    <glyph glyph-name="Ucircumflex" unicode="&#xdb;" horiz-adv-x="1251" 
d="M1069 1270v-893q0 -191 -111 -298.5t-340 -107.5q-152 0 -245.5 49t-135.5 139.5t-42 217.5v893h-132q-24 0 -24 24v84q0 25 24 25h431q24 0 24 -25v-84q0 -24 -24 -24h-132v-889q0 -138 57.5 -205t201.5 -67q140 0 210 66.5t70 205.5v889h-131q-25 0 -25 24v84
q0 25 25 25h430q25 0 25 -25v-84q0 -24 -25 -24h-131zM854 1534l-41 -33q-3 -6 -8 -6q-10 0 -14 2l-168 111l-166 -111q-1 0 -6 -2t-7 -2q-6 0 -14 12l-20 29q-2 3 -4.5 6t-2.5 6t3.5 6t9.5 9l202 161q3 2 5 3t4 2.5t4 1.5q5 0 8 -2.5t6 -4.5l203 -161q4 -3 7 -6t3 -7
q0 -6 -4 -14z" />
    <glyph glyph-name="Udieresis" unicode="&#xdc;" horiz-adv-x="1251" 
d="M1069 1270v-893q0 -191 -111 -298.5t-340 -107.5q-152 0 -245.5 49t-135.5 139.5t-42 217.5v893h-132q-24 0 -24 24v84q0 25 24 25h431q24 0 24 -25v-84q0 -24 -24 -24h-132v-889q0 -138 57.5 -205t201.5 -67q140 0 210 66.5t70 205.5v889h-131q-25 0 -25 24v84
q0 25 25 25h430q25 0 25 -25v-84q0 -24 -25 -24h-131zM567 1606q0 -44 -30.5 -76.5t-77.5 -32.5q-45 0 -77 32t-32 77q0 46 32 77t77 31q47 0 77.5 -31.5t30.5 -76.5zM700 1606q0 44 32 76t77 32t77 -31t32 -77q0 -45 -32 -77t-77 -32t-77 33t-32 76z" />
    <glyph glyph-name="Yacute" unicode="&#xdd;" horiz-adv-x="1100" 
d="M807 109v-84q0 -25 -25 -25h-454q-25 0 -25 25v84q0 24 25 24h143v459l-360 678h-76q-25 0 -25 24v86q0 23 25 23h395q23 0 23 -23v-86q0 -24 -23 -24h-123l203 -414q23 -42 53 -106q21 51 58 127l184 393h-127q-23 0 -23 24v86q0 23 23 23h397q23 0 23 -23v-86
q0 -24 -23 -24h-88l-348 -674v-463h143q25 0 25 -24zM850 1675l-301 -155q-4 -2 -14 -2q-7 0 -13 12l-16 24l-6 15l12 12l266 205q12 6 15 6q8 0 14 -12l53 -78q4 -8 4 -14q0 -9 -14 -13z" />
    <glyph glyph-name="Thorn" unicode="&#xde;" 
d="M578 109v-84q0 -25 -25 -25h-449q-24 0 -24 25v84q0 24 24 24h132v1137h-132q-24 0 -24 24v86q0 23 24 23h428q25 0 25 -23v-86q0 -24 -25 -24h-129v-150h172q108 0 196.5 -22t154 -102.5t65.5 -241.5q0 -233 -126.5 -332.5t-315.5 -99.5h-146v-189h150q25 0 25 -24z
M403 465h132q88 0 149.5 21.5t100 84t38.5 179.5q0 102 -38 151.5t-93.5 62.5t-132.5 13h-156v-512z" />
    <glyph glyph-name="germandbls" unicode="&#xdf;" horiz-adv-x="1176" 
d="M195 127v983q0 117 37 199t123 128t229 46q155 0 247.5 -68t92.5 -196q0 -77 -30.5 -133t-71 -95t-82.5 -83.5t-42 -82.5q0 -40 41 -78.5t123 -96t113 -87.5q45 -43 73 -79.5t42 -78.5t14 -100q0 -107 -39 -182t-114 -113.5t-179 -38.5q-74 0 -159 20t-85 40q0 14 9 32
l20 74q3 15 14 15q6 0 44.5 -16t80 -27t88.5 -11q170 0 170 183q0 80 -51 133t-153 120t-154.5 125t-52.5 142q0 72 28.5 117t85.5 94t84 85t27 95q0 78 -53 121t-144 43q-82 0 -129.5 -26t-69.5 -81.5t-22 -142.5v-1081q0 -16 -4.5 -20.5t-21.5 -4.5h-246q-25 0 -25 25v77
q0 25 25 25h117z" />
    <glyph glyph-name="agrave" unicode="&#xe0;" horiz-adv-x="948" 
d="M172 819l-27 72q-6 15 -6 27q0 16 53.5 39t130.5 39t136 16q167 0 241 -74.5t74 -212.5v-393q0 -82 4 -116t21 -89h96q25 0 25 -25v-77q0 -25 -25 -25h-174q-32 0 -47 28.5t-31 80.5q-25 -25 -61 -55t-98 -56.5t-136 -26.5q-59 0 -108 19.5t-85 57t-54.5 92.5t-18.5 120
q0 120 61.5 195t148 107.5t162 41.5t164.5 12v74q0 96 -38.5 140t-143.5 44q-61 0 -111.5 -14t-91.5 -32.5t-47 -18.5q-11 0 -14 10zM618 225v264q-44 0 -107.5 -5.5t-125 -25.5t-104.5 -65.5t-43 -120.5q0 -68 38 -121t109 -53q39 0 75.5 15t67 35.5t54.5 43.5t36 33z
M387 1366l266 -205q13 -13 13 -12q0 -5 -7 -14l-16 -25q-6 -12 -12 -12q-10 0 -15 2l-301 155q-14 3 -14 13q0 6 4 14l53 78q12 12 15 12q4 0 9.5 -3t4.5 -3z" />
    <glyph glyph-name="aacute" unicode="&#xe1;" horiz-adv-x="948" 
d="M172 819l-27 72q-6 15 -6 27q0 16 53.5 39t130.5 39t136 16q167 0 241 -74.5t74 -212.5v-393q0 -82 4 -116t21 -89h96q25 0 25 -25v-77q0 -25 -25 -25h-174q-32 0 -47 28.5t-31 80.5q-25 -25 -61 -55t-98 -56.5t-136 -26.5q-59 0 -108 19.5t-85 57t-54.5 92.5t-18.5 120
q0 120 61.5 195t148 107.5t162 41.5t164.5 12v74q0 96 -38.5 140t-143.5 44q-61 0 -111.5 -14t-91.5 -32.5t-47 -18.5q-11 0 -14 10zM618 225v264q-44 0 -107.5 -5.5t-125 -25.5t-104.5 -65.5t-43 -120.5q0 -68 38 -121t109 -53q39 0 75.5 15t67 35.5t54.5 43.5t36 33z
M694 1264l-301 -156q-4 -2 -14 -2q-6 0 -12 12l-17 25q-6 12 -6 14l12 12l267 205q12 6 14 6q8 0 14 -12l54 -78q4 -8 4 -14q0 -8 -15 -12z" />
    <glyph glyph-name="acircumflex" unicode="&#xe2;" horiz-adv-x="948" 
d="M172 819l-27 72q-6 15 -6 27q0 16 53.5 39t130.5 39t136 16q167 0 241 -74.5t74 -212.5v-393q0 -82 4 -116t21 -89h96q25 0 25 -25v-77q0 -25 -25 -25h-174q-32 0 -47 28.5t-31 80.5q-25 -25 -61 -55t-98 -56.5t-136 -26.5q-59 0 -108 19.5t-85 57t-54.5 92.5t-18.5 120
q0 120 61.5 195t148 107.5t162 41.5t164.5 12v74q0 96 -38.5 140t-143.5 44q-61 0 -111.5 -14t-91.5 -32.5t-47 -18.5q-11 0 -14 10zM618 225v264q-44 0 -107.5 -5.5t-125 -25.5t-104.5 -65.5t-43 -120.5q0 -68 38 -121t109 -53q39 0 75.5 15t67 35.5t54.5 43.5t36 33z
M670 1124l-41 -32q-3 -7 -8 -7q-11 0 -15 2l-168 111l-166 -111q-1 0 -5 -2t-7 -2q-5 0 -14 13l-21 28q-6 12 -6 13q0 2 12 14l203 162l12 6q3 0 15 -6l203 -162q10 -10 10 -12q0 -7 -4 -15z" />
    <glyph glyph-name="atilde" unicode="&#xe3;" horiz-adv-x="948" 
d="M172 819l-27 72q-6 15 -6 27q0 16 53.5 39t130.5 39t136 16q167 0 241 -74.5t74 -212.5v-393q0 -82 4 -116t21 -89h96q25 0 25 -25v-77q0 -25 -25 -25h-174q-32 0 -47 28.5t-31 80.5q-25 -25 -61 -55t-98 -56.5t-136 -26.5q-59 0 -108 19.5t-85 57t-54.5 92.5t-18.5 120
q0 120 61.5 195t148 107.5t162 41.5t164.5 12v74q0 96 -38.5 140t-143.5 44q-61 0 -111.5 -14t-91.5 -32.5t-47 -18.5q-11 0 -14 10zM618 225v264q-44 0 -107.5 -5.5t-125 -25.5t-104.5 -65.5t-43 -120.5q0 -68 38 -121t109 -53q39 0 75.5 15t67 35.5t54.5 43.5t36 33z
M672 1286l49 -20q10 -5 10 -11q0 -10 -19.5 -46t-57.5 -66.5t-91 -30.5q-46 0 -108 37q-64 37 -95 37q-23 0 -39 -14.5t-30.5 -36t-22.5 -21.5h-6l-49 19q-12 4 -12 12q0 9 19.5 44.5t57 67t89.5 31.5q46 0 110 -37q68 -37 90 -37q32 0 49.5 15t29 36t18.5 21h8z" />
    <glyph glyph-name="adieresis" unicode="&#xe4;" horiz-adv-x="948" 
d="M172 819l-27 72q-6 15 -6 27q0 16 53.5 39t130.5 39t136 16q167 0 241 -74.5t74 -212.5v-393q0 -82 4 -116t21 -89h96q25 0 25 -25v-77q0 -25 -25 -25h-174q-32 0 -47 28.5t-31 80.5q-25 -25 -61 -55t-98 -56.5t-136 -26.5q-59 0 -108 19.5t-85 57t-54.5 92.5t-18.5 120
q0 120 61.5 195t148 107.5t162 41.5t164.5 12v74q0 96 -38.5 140t-143.5 44q-61 0 -111.5 -14t-91.5 -32.5t-47 -18.5q-11 0 -14 10zM618 225v264q-44 0 -107.5 -5.5t-125 -25.5t-104.5 -65.5t-43 -120.5q0 -68 38 -121t109 -53q39 0 75.5 15t67 35.5t54.5 43.5t36 33z
M383 1227q0 -44 -31.5 -76.5t-77.5 -32.5q-44 0 -76 32t-32 77q0 46 32 77t76 31q46 0 77.5 -31.5t31.5 -76.5zM516 1227q0 46 32 77t77 31q46 0 77 -31t31 -77q0 -45 -31 -77t-77 -32q-45 0 -77 32t-32 77z" />
    <glyph glyph-name="aring" unicode="&#xe5;" horiz-adv-x="948" 
d="M172 819l-27 72q-6 15 -6 27q0 16 53.5 39t130.5 39t136 16q167 0 241 -74.5t74 -212.5v-393q0 -82 4 -116t21 -89h96q25 0 25 -25v-77q0 -25 -25 -25h-174q-32 0 -47 28.5t-31 80.5q-25 -25 -61 -55t-98 -56.5t-136 -26.5q-59 0 -108 19.5t-85 57t-54.5 92.5t-18.5 120
q0 120 61.5 195t148 107.5t162 41.5t164.5 12v74q0 96 -38.5 140t-143.5 44q-61 0 -111.5 -14t-91.5 -32.5t-47 -18.5q-11 0 -14 10zM618 225v264q-44 0 -107.5 -5.5t-125 -25.5t-104.5 -65.5t-43 -120.5q0 -68 38 -121t109 -53q39 0 75.5 15t67 35.5t54.5 43.5t36 33z
M618 1257v3q0 -41 -20 -76.5t-55 -56.5t-78 -21q-63 0 -107.5 45.5t-44.5 108.5q0 42 20.5 75.5t56 54.5t75.5 21q41 0 76.5 -20.5t56 -56t20.5 -77.5zM465 1186v2q28 0 49 22.5t21 51.5q0 27 -21 49t-49 22q-26 0 -47 -22.5t-21 -50.5q0 -30 20 -52t48 -22z" />
    <glyph glyph-name="ae" unicode="&#xe6;" horiz-adv-x="1442" 
d="M1307 180l34 -86q2 -4 4.5 -7.5t2.5 -8.5q0 -12 -51.5 -38.5t-127 -47.5t-145.5 -21q-108 0 -201 44t-141 98q-15 -13 -45.5 -38t-66.5 -46t-95 -39.5t-121 -18.5q-82 0 -145.5 34.5t-98 99t-34.5 155.5q0 148 99 223t216 94.5t234 22.5v90q0 96 -39 140t-144 44
q-62 0 -113.5 -13.5t-96.5 -32.5t-52 -19q-11 0 -14 10l-27 72q-6 15 -6 27q0 16 54.5 39t134 39t143.5 16q76 0 152 -33t102 -92q47 64 122.5 94.5t155.5 30.5q114 0 189 -49t114.5 -125t54.5 -158.5t15 -163.5q0 -26 -3 -35.5t-19 -9.5h-588q0 -78 24.5 -160t87.5 -142
t170 -60q61 0 115.5 19.5t94.5 42t42 22.5q4 0 13 -13zM760 598h442q-5 72 -28.5 137t-70 107.5t-114.5 42.5q-87 0 -138 -47t-71 -113.5t-20 -126.5zM625 225v248q-154 -3 -274 -38.5t-120 -162.5q0 -68 42 -121t118 -53q39 0 75.5 15t65 34.5t55 43.5t38.5 34z" />
    <glyph glyph-name="ccedilla" unicode="&#xe7;" horiz-adv-x="872" 
d="M764 180l35 -86l4 -8t2 -8q0 -12 -51.5 -38.5t-127 -47.5t-145.5 -21q-119 0 -206.5 60t-133 171.5t-45.5 258.5q0 167 51.5 293t145.5 192t219 66q43 0 97.5 -12t103.5 -32.5t78 -43.5q6 -6 6 -31v-176q0 -25 -23 -25h-88q-22 0 -22 25v119q-29 18 -67.5 28t-72.5 10
q-97 0 -154.5 -45.5t-81.5 -131t-24 -205.5q0 -107 18.5 -191t72 -138t145.5 -54q60 0 114.5 19.5t94 42t43.5 22.5q3 0 12 -13zM522 -29l2 -92q64 -7 103 -29t39 -88q0 -68 -58 -105.5t-131 -37.5q-38 0 -73 9t-35 24v10l6 55q0 7 6 7q-4 0 28.5 -7.5t63.5 -7.5q72 0 72 41
q0 24 -17.5 31t-59.5 11t-53.5 6.5t-11.5 19.5v30l13 123h106z" />
    <glyph glyph-name="egrave" unicode="&#xe8;" horiz-adv-x="948" 
d="M254 586h442q0 64 -18 132.5t-65 117.5t-130 49q-124 0 -176.5 -95.5t-52.5 -203.5zM801 180l35 -86l4 -8t2 -8q0 -12 -51.5 -38.5t-127 -47.5t-145.5 -21q-202 1 -317 142.5t-115 378.5q0 149 49 268t141 185.5t216 66.5q372 0 372 -508q0 -26 -3 -35.5t-19 -9.5h-588
q0 -129 63.5 -239.5t219.5 -110.5q60 0 114.5 19.5t94.5 42t42 22.5q4 0 13 -13zM424 1366l266 -205l12 -12q0 -2 -6 -14l-16 -25q-6 -12 -12 -12q-11 0 -15 2l-301 155q-14 3 -14 13q0 6 4 14l53 78l7 7t8 5q4 0 9.5 -3t4.5 -3z" />
    <glyph glyph-name="eacute" unicode="&#xe9;" horiz-adv-x="948" 
d="M254 586h442q0 64 -18 132.5t-65 117.5t-130 49q-124 0 -176.5 -95.5t-52.5 -203.5zM801 180l35 -86l4 -8t2 -8q0 -12 -51.5 -38.5t-127 -47.5t-145.5 -21q-202 1 -317 142.5t-115 378.5q0 149 49 268t141 185.5t216 66.5q372 0 372 -508q0 -26 -3 -35.5t-19 -9.5h-588
q0 -129 63.5 -239.5t219.5 -110.5q60 0 114.5 19.5t94.5 42t42 22.5q4 0 13 -13zM721 1274l-301 -156q-4 -2 -14 -2q-7 0 -13 12l-16 25q-6 12 -6 14q0 1 12 13l266 204q3 2 6.5 4.5t8.5 2.5q7 0 14 -13l53 -78q4 -8 4 -14q0 -8 -14 -12z" />
    <glyph glyph-name="ecircumflex" unicode="&#xea;" horiz-adv-x="948" 
d="M254 586h442q0 64 -18 132.5t-65 117.5t-130 49q-124 0 -176.5 -95.5t-52.5 -203.5zM801 180l35 -86l4 -8t2 -8q0 -12 -51.5 -38.5t-127 -47.5t-145.5 -21q-202 1 -317 142.5t-115 378.5q0 149 49 268t141 185.5t216 66.5q372 0 372 -508q0 -26 -3 -35.5t-19 -9.5h-588
q0 -129 63.5 -239.5t219.5 -110.5q60 0 114.5 19.5t94.5 42t42 22.5q4 0 13 -13zM692 1128l-41 -32q-3 -6 -8 -6q-10 0 -14 2l-168 110l-166 -110q-2 0 -5.5 -2.5t-6.5 -2.5q-6 0 -15 13l-20 28q-1 4 -3.5 7.5t-2.5 5.5t12 14l203 162l12 6q2 0 14 -6l203 -162
q10 -10 10 -12q0 -5 -4 -15z" />
    <glyph glyph-name="edieresis" unicode="&#xeb;" horiz-adv-x="948" 
d="M254 586h442q0 64 -18 132.5t-65 117.5t-130 49q-124 0 -176.5 -95.5t-52.5 -203.5zM801 180l35 -86l4 -8t2 -8q0 -12 -51.5 -38.5t-127 -47.5t-145.5 -21q-202 1 -317 142.5t-115 378.5q0 149 49 268t141 185.5t216 66.5q372 0 372 -508q0 -26 -3 -35.5t-19 -9.5h-588
q0 -129 63.5 -239.5t219.5 -110.5q60 0 114.5 19.5t94.5 42t42 22.5q4 0 13 -13zM395 1231q0 -44 -30.5 -76.5t-77.5 -32.5q-45 0 -77 32t-32 77q0 46 32 77t77 31q47 0 77.5 -31.5t30.5 -76.5zM528 1231q0 44 32 76t77 32q46 0 77 -31t31 -77q0 -45 -31 -77t-77 -32
q-45 0 -77 33t-32 76z" />
    <glyph glyph-name="igrave" unicode="&#xec;" horiz-adv-x="569" 
d="M543 102v-77q0 -25 -25 -25h-448q-25 0 -25 25v77q0 25 25 25h147v729h-162q-24 0 -24 25v77q0 25 24 25h291q16 0 21.5 -7.5t5.5 -23.5v-825h145q25 0 25 -25zM156 1364l266 -205l12 -12q0 -2 -6 -14l-16 -25q-6 -12 -13 -12q-10 0 -14 2l-301 155q-14 3 -14 13
q0 6 4 14l53 78l7 7t7 5q4 0 11 -3t4 -3z" />
    <glyph glyph-name="iacute" unicode="&#xed;" horiz-adv-x="569" 
d="M543 102v-77q0 -25 -25 -25h-448q-25 0 -25 25v77q0 25 25 25h147v729h-162q-24 0 -24 25v77q0 25 24 25h291q16 0 21.5 -7.5t5.5 -23.5v-825h145q25 0 25 -25zM504 1272l-301 -156q-4 -2 -15 -2q-6 0 -12 12l-16 25q-6 12 -6 14q0 -1 12 13l266 204q3 2 6.5 4.5t7.5 2.5
q8 0 15 -13l53 -78q4 -8 4 -14q0 -8 -14 -12z" />
    <glyph glyph-name="icircumflex" unicode="&#xee;" horiz-adv-x="569" 
d="M543 102v-77q0 -25 -25 -25h-448q-25 0 -25 25v77q0 25 25 25h147v729h-162q-24 0 -24 25v77q0 25 24 25h291q16 0 21.5 -7.5t5.5 -23.5v-825h145q25 0 25 -25zM492 1141l-41 -33q-3 -6 -9 -6q-10 0 -14 2l-168 110l-166 -110q-1 0 -5 -2t-7 -2q-6 0 -14 12l-21 29
q-2 4 -4 7t-2 5t12 14l203 162l12 6q3 0 15 -6l202 -162q11 -11 11 -12q0 -6 -4 -14z" />
    <glyph glyph-name="idieresis" unicode="&#xef;" horiz-adv-x="569" 
d="M543 102v-77q0 -25 -25 -25h-448q-25 0 -25 25v77q0 25 25 25h147v729h-162q-24 0 -24 25v77q0 25 24 25h291q16 0 21.5 -7.5t5.5 -23.5v-825h145q25 0 25 -25zM174 1212q0 -43 -30.5 -75.5t-77.5 -32.5q-45 0 -77 32t-32 76q0 45 32 77t77 32q47 0 77.5 -32.5
t30.5 -76.5zM307 1212q0 45 32 77t77 32q46 0 77 -32t31 -77q0 -44 -31 -76t-77 -32q-45 0 -77 32t-32 76z" />
    <glyph glyph-name="eth" unicode="&#xf0;" 
d="M563 1231l-176 -86q-12 -6 -14 -6q-10 0 -17 14l-24 47q0 2 -2 7t-2 7q0 7 16 17l172 84q-15 29 -47.5 80t-32.5 57q0 12 25 16l59 11q16 4 27 4q12 0 24 -13q43 -44 68 -90l162 78q12 6 16 6q7 0 14 -14l23 -45q4 -8 4 -16q0 -12 -14 -19l-154 -74q22 -35 60 -107.5
t77 -172.5t66 -221t27 -246q0 -159 -42.5 -288.5t-137.5 -209.5t-242 -80q-131 0 -220 66.5t-131.5 183t-42.5 266.5q0 146 44.5 265.5t134 189.5t219.5 70q52 0 105 -20.5t89 -55.5l4 4q-66 168 -137 291zM514 98q88 0 140.5 49.5t75 138.5t22.5 214q0 169 -56 277
t-184 108t-184 -104.5t-56 -274.5q0 -125 22.5 -215.5t76 -141.5t143.5 -51z" />
    <glyph glyph-name="ntilde" unicode="&#xf1;" horiz-adv-x="1139" 
d="M1077 102v-77q0 -25 -24 -25h-246q-25 0 -25 25v684q0 77 -28 121t-105 44q-86 0 -144.5 -33.5t-123.5 -90.5v-623h117q24 0 24 -25v-77q0 -25 -24 -25h-389q-25 0 -25 25v77q0 25 25 25h116v600q0 61 -12 129h-117q-24 0 -24 25v77q0 25 24 25h205q17 0 28 -12.5
t17.5 -30t11.5 -37.5t7 -31q80 64 152.5 102t176.5 38q106 0 160 -43t69 -108.5t15 -155.5v-578h115q24 0 24 -25zM739 1284l49 -20q11 -4 11 -11q0 -10 -19.5 -46t-57.5 -66.5t-91 -30.5q-45 0 -109 37q-62 37 -94 37q-25 0 -39.5 -14t-30.5 -36t-22 -22h-6l-49 18
q-13 6 -13 13q0 9 19.5 44.5t57 67t89.5 31.5q47 0 111 -37q11 -6 27.5 -15.5t32.5 -15.5t30 -6q32 0 49.5 15t29 36t17.5 21h8z" />
    <glyph glyph-name="ograve" unicode="&#xf2;" 
d="M920 498q0 -150 -44 -268.5t-138 -188.5t-238 -70q-198 0 -297 142t-99 374q0 105 24 201t75.5 170t130 114t186.5 40q135 0 225 -66.5t132.5 -182.5t42.5 -265zM514 98q88 0 140.5 49.5t75 138.5t22.5 214q0 169 -56 277t-184 108t-184 -104.5t-56 -274.5
q0 -125 22.5 -215.5t76 -141.5t143.5 -51zM410 1366l266 -205l12 -12q0 -2 -6 -14l-16 -25q-6 -12 -13 -12q-10 0 -14 2l-301 155q-14 3 -14 13q0 6 4 14l53 78l7 7t7 5q4 0 11 -3t4 -3z" />
    <glyph glyph-name="oacute" unicode="&#xf3;" 
d="M920 498q0 -150 -44 -268.5t-138 -188.5t-238 -70q-198 0 -297 142t-99 374q0 105 24 201t75.5 170t130 114t186.5 40q135 0 225 -66.5t132.5 -182.5t42.5 -265zM514 98q88 0 140.5 49.5t75 138.5t22.5 214q0 169 -56 277t-184 108t-184 -104.5t-56 -274.5
q0 -125 22.5 -215.5t76 -141.5t143.5 -51zM717 1274l-301 -156q-4 -2 -15 -2q-6 0 -12 12l-16 25q-6 12 -6 14q0 1 12 13l266 204q3 2 6.5 4.5t7.5 2.5q8 0 15 -13l53 -78q4 -8 4 -14q0 -8 -14 -12z" />
    <glyph glyph-name="ocircumflex" unicode="&#xf4;" 
d="M920 498q0 -150 -44 -268.5t-138 -188.5t-238 -70q-198 0 -297 142t-99 374q0 105 24 201t75.5 170t130 114t186.5 40q135 0 225 -66.5t132.5 -182.5t42.5 -265zM514 98q88 0 140.5 49.5t75 138.5t22.5 214q0 169 -56 277t-184 108t-184 -104.5t-56 -274.5
q0 -125 22.5 -215.5t76 -141.5t143.5 -51zM729 1122l-41 -32q-3 -7 -8 -7q-10 0 -14 2l-168 111l-166 -111q-1 0 -6 -2t-7 -2q-7 0 -14 13l-20 28q-6 12 -6 13q0 2 12 14l203 162l12 6q2 0 14 -6l203 -162q10 -10 10 -12q0 -7 -4 -15z" />
    <glyph glyph-name="otilde" unicode="&#xf5;" 
d="M920 498q0 -150 -44 -268.5t-138 -188.5t-238 -70q-198 0 -297 142t-99 374q0 105 24 201t75.5 170t130 114t186.5 40q135 0 225 -66.5t132.5 -182.5t42.5 -265zM514 98q88 0 140.5 49.5t75 138.5t22.5 214q0 169 -56 277t-184 108t-184 -104.5t-56 -274.5
q0 -125 22.5 -215.5t76 -141.5t143.5 -51zM735 1286l49 -20q11 -6 11 -11q0 -10 -20.5 -47t-57.5 -66.5t-90 -29.5q-45 0 -109 37t-94 37q-25 0 -39.5 -14t-30.5 -36t-22 -22h-6l-50 19q-12 4 -12 12q0 9 19.5 44.5t57 67t89.5 31.5q47 0 111 -37q66 -37 90 -37
q32 0 49.5 15t29 36t17.5 21h8z" />
    <glyph glyph-name="odieresis" unicode="&#xf6;" 
d="M920 498q0 -150 -44 -268.5t-138 -188.5t-238 -70q-198 0 -297 142t-99 374q0 105 24 201t75.5 170t130 114t186.5 40q135 0 225 -66.5t132.5 -182.5t42.5 -265zM514 98q88 0 140.5 49.5t75 138.5t22.5 214q0 169 -56 277t-184 108t-184 -104.5t-56 -274.5
q0 -125 22.5 -215.5t76 -141.5t143.5 -51zM453 1214q0 -43 -31.5 -75.5t-77.5 -32.5q-44 0 -76 32t-32 76q0 45 32 77t76 32q46 0 77.5 -32.5t31.5 -76.5zM586 1214q0 45 32 77t76 32q45 0 77 -32t32 -77q0 -44 -32 -76t-77 -32q-44 0 -76 32t-32 76z" />
    <glyph glyph-name="divide" unicode="&#xf7;" 
d="M625 874q0 -48 -35 -81t-80 -33q-47 0 -81 34t-34 80q0 48 33.5 81.5t81.5 33.5q30 0 56.5 -15t42.5 -42t16 -58zM975 565v-90q0 -18 -5 -23.5t-24 -5.5h-874q-18 0 -22.5 6t-4.5 23v90q0 19 4.5 24t22.5 5h874q19 0 24 -5t5 -24zM625 166q0 -49 -35 -82t-80 -33
q-47 0 -81 34t-34 81q0 46 33.5 80.5t81.5 34.5q31 0 57.5 -15.5t42 -42t15.5 -57.5z" />
    <glyph glyph-name="oslash" unicode="&#xf8;" 
d="M868 1018l-69 -125q42 -45 81.5 -142.5t39.5 -252.5q0 -150 -44 -268.5t-138 -188.5t-238 -70q-48 0 -90 9.5t-66.5 21t-32.5 14.5l-63 -114q-10 -15 -15 -15q-10 0 -16 7l-65 32q-15 9 -15 17q0 4 6 16l74 135q-44 60 -78.5 148.5t-34.5 242.5q0 106 24 202t74.5 169.5
t130.5 114.5t187 41q72 0 112 -13t73 -30l59 104q7 14 16 14q5 0 17 -4l63 -34q17 -11 17 -17q0 -2 -4 -7t-5 -7zM729 770l-352 -635q74 -37 139 -37q90 0 145 50t79 142t24 222q0 179 -35 258zM293 227l346 623q-47 35 -127 35q-256 0 -256 -387q0 -210 37 -271z" />
    <glyph glyph-name="ugrave" unicode="&#xf9;" horiz-adv-x="1100" 
d="M1059 102v-77q0 -25 -25 -25h-172q-21 0 -35.5 10.5t-23.5 26t-16 33t-11 22.5q-60 -49 -134 -85t-150 -36q-129 0 -195 43t-85 107t-19 158v577h-115q-25 0 -25 25v77q0 25 25 25h246q24 0 24 -25v-684q0 -165 168 -165q53 0 118 31.5t116 72.5v643h-117q-25 0 -25 25
v77q0 25 25 25h248q24 0 24 -25v-702q0 -58 13 -129h116q25 0 25 -25zM453 1368l266 -205l12 -12q0 -2 -6 -14l-16 -25q-6 -12 -13 -12q-10 0 -14 2l-301 155q-14 5 -14 13q0 6 4 14l53 78l7 7t7 5q4 0 11 -3t4 -3z" />
    <glyph glyph-name="uacute" unicode="&#xfa;" horiz-adv-x="1100" 
d="M1059 102v-77q0 -25 -25 -25h-172q-21 0 -35.5 10.5t-23.5 26t-16 33t-11 22.5q-60 -49 -134 -85t-150 -36q-129 0 -195 43t-85 107t-19 158v577h-115q-25 0 -25 25v77q0 25 25 25h246q24 0 24 -25v-684q0 -165 168 -165q53 0 118 31.5t116 72.5v643h-117q-25 0 -25 25
v77q0 25 25 25h248q24 0 24 -25v-702q0 -58 13 -129h116q25 0 25 -25zM791 1266l-302 -156q-4 -2 -14 -2q-6 0 -12 12l-17 25q-6 12 -6 14q0 1 13 12l266 205q12 6 14 6q6 0 15 -12l53 -78q4 -8 4 -14q0 -8 -14 -12z" />
    <glyph glyph-name="ucircumflex" unicode="&#xfb;" horiz-adv-x="1100" 
d="M1059 102v-77q0 -25 -25 -25h-172q-21 0 -35.5 10.5t-23.5 26t-16 33t-11 22.5q-60 -49 -134 -85t-150 -36q-129 0 -195 43t-85 107t-19 158v577h-115q-25 0 -25 25v77q0 25 25 25h246q24 0 24 -25v-684q0 -165 168 -165q53 0 118 31.5t116 72.5v643h-117q-25 0 -25 25
v77q0 25 25 25h248q24 0 24 -25v-702q0 -58 13 -129h116q25 0 25 -25zM752 1120l-41 -33q-3 -6 -9 -6q-10 0 -14 2l-168 111l-166 -111q-1 0 -5 -2t-7 -2q-7 0 -14 13l-21 28q-6 12 -6 13q0 2 12 14l203 162l12 6q3 0 15 -6l202 -162q11 -9 11 -12q0 -7 -4 -15z" />
    <glyph glyph-name="udieresis" unicode="&#xfc;" horiz-adv-x="1100" 
d="M1059 102v-77q0 -25 -25 -25h-172q-21 0 -35.5 10.5t-23.5 26t-16 33t-11 22.5q-60 -49 -134 -85t-150 -36q-129 0 -195 43t-85 107t-19 158v577h-115q-25 0 -25 25v77q0 25 25 25h246q24 0 24 -25v-684q0 -165 168 -165q53 0 118 31.5t116 72.5v643h-117q-25 0 -25 25
v77q0 25 25 25h248q24 0 24 -25v-702q0 -58 13 -129h116q25 0 25 -25zM434 1202q0 -43 -30.5 -75.5t-77.5 -32.5q-45 0 -77 32t-32 76q0 45 32 77t77 32q47 0 77.5 -32.5t30.5 -76.5zM567 1202q0 45 32 77t77 32q46 0 77 -32t31 -77q0 -44 -31 -76t-77 -32q-45 0 -77 32
t-32 76z" />
    <glyph glyph-name="yacute" unicode="&#xfd;" 
d="M913 856l-211 -729q-76 -268 -141 -408q-30 -65 -95 -107t-147 -42q-81 0 -169.5 39t-88.5 63q0 6 5 13l40 82q5 10 15 10q6 0 42.5 -23.5t72.5 -40t81 -16.5q101 0 156 174l43 129h-74q-13 0 -17 3.5t-9 14.5l-295 838h-82q-25 0 -25 25v77q0 25 25 25h375q24 0 24 -25
v-71q0 -23 -24 -23h-131l223 -657q22 -65 41 -148h4q14 90 31 144l172 661h-123q-23 0 -23 23v71q0 25 23 25h358q25 0 25 -25v-77q0 -25 -25 -25h-76zM791 1255l-302 -155q-4 -2 -14 -2q-6 0 -12 12l-17 25q-6 12 -6 14q0 1 13 12l266 205q12 6 14 6q6 0 15 -12l53 -78
q4 -8 4 -14q0 -9 -14 -13z" />
    <glyph glyph-name="thorn" unicode="&#xfe;" 
d="M494 -311v-78q0 -25 -25 -25h-403q-25 0 -25 25v78q0 24 25 24h114v1628h-114q-25 0 -25 25v78q0 24 25 24h229q28 0 34.5 -8t6.5 -30v-512q27 16 64.5 38.5t89 39t112.5 16.5q320 0 320 -500q0 -150 -37 -273.5t-114 -195.5t-191 -72q-54 0 -99 14t-70 29t-75 47v-348
h133q25 0 25 -24zM336 774v-577q65 -43 114.5 -65.5t110.5 -22.5q82 0 124.5 55t55.5 140t13 204q0 166 -35 266t-146 100q-64 0 -118.5 -28t-118.5 -72z" />
    <glyph glyph-name="ydieresis" unicode="&#xff;" 
d="M913 856l-211 -729q-76 -268 -141 -408q-30 -65 -95 -107t-147 -42q-81 0 -169.5 39t-88.5 63q0 6 5 13l40 82q5 10 15 10q6 0 42.5 -23.5t72.5 -40t81 -16.5q101 0 156 174l43 129h-74q-13 0 -17 3.5t-9 14.5l-295 838h-82q-25 0 -25 25v77q0 25 25 25h375q24 0 24 -25
v-71q0 -23 -24 -23h-131l223 -657q22 -65 41 -148h4q14 90 31 144l172 661h-123q-23 0 -23 23v71q0 25 23 25h358q25 0 25 -25v-77q0 -25 -25 -25h-76zM477 1202q0 -43 -30.5 -75.5t-77.5 -32.5q-45 0 -77 32t-32 76q0 45 32 77t77 32q47 0 77.5 -32.5t30.5 -76.5zM610 1202
q0 45 32 77t77 32q46 0 77 -32t31 -77q0 -44 -31 -76t-77 -32q-45 0 -77 32t-32 76z" />
    <glyph glyph-name="aahoa" unicode="&#x102;" horiz-adv-x="1251" 
d="M793 561l-123 453q-31 103 -47 194h-5q-6 -38 -21 -104t-22 -90l-124 -453h342zM1223 109v-84q0 -25 -25 -25h-414q-24 0 -24 25v84q0 24 24 24h127l-80 285h-419l-78 -285h131q24 0 24 -24v-84q0 -25 -24 -25h-412q-24 0 -24 25v84q0 24 24 24h101l381 1247q4 15 8.5 19
t21.5 4h121q14 0 20 -4t11 -19l379 -1247h102q25 0 25 -24zM762 1714l82 -8q18 0 18 -20q0 -24 -18.5 -67.5t-52.5 -76.5q-56 -56 -158 -61q-100 0 -166 59q-34 34 -53 78.5t-19 64.5q0 21 19 21l71 10h7q8 0 8 -6q11 -60 35.5 -96.5t85.5 -36.5q56 0 84 38.5t43 94.5
q0 6 8 6h6z" />
    <glyph glyph-name="aath" unicode="&#x103;" horiz-adv-x="948" 
d="M172 819l-27 72q-6 15 -6 27q0 16 53.5 39t130.5 39t136 16q167 0 241 -74.5t74 -212.5v-393q0 -82 4 -116t21 -89h96q25 0 25 -25v-77q0 -25 -25 -25h-174q-32 0 -47 28.5t-31 80.5q-25 -25 -61 -55t-98 -56.5t-136 -26.5q-59 0 -108 19.5t-85 57t-54.5 92.5t-18.5 120
q0 120 61.5 195t148 107.5t162 41.5t164.5 12v74q0 96 -38.5 140t-143.5 44q-61 0 -111.5 -14t-91.5 -32.5t-47 -18.5q-11 0 -14 10zM618 225v264q-44 0 -107.5 -5.5t-125 -25.5t-104.5 -65.5t-43 -120.5q0 -68 38 -121t109 -53q39 0 75.5 15t67 35.5t54.5 43.5t36 33z
M598 1329l82 -8q18 0 18 -21q0 -23 -18.5 -66.5t-52.5 -76.5q-56 -56 -158 -61q-100 0 -166 59q-34 34 -53 78.5t-19 64.5q0 21 19 21l72 10h6q8 0 8 -6q11 -60 35 -96.5t86 -36.5q56 0 84 38.5t43 94.5q0 6 8 6h6z" />
    <glyph glyph-name="dhoa" unicode="&#x110;" horiz-adv-x="1176" 
d="M106 1403h412q126 0 218.5 -23t169 -92.5t120 -208t43.5 -364.5q0 -248 -56.5 -404.5t-183.5 -233.5t-333 -77h-390q-24 0 -24 25v84q0 24 24 24h130v531h-127q-16 0 -21.5 5.5t-5.5 22.5v78q0 16 4.5 21.5t22.5 5.5h127v473h-130q-24 0 -24 24v84q0 25 24 25zM403 143
h127q141 0 218.5 69t107 195.5t29.5 315.5q0 218 -41 334.5t-120.5 159.5t-207.5 43h-113v-463h246q20 0 24.5 -4.5t4.5 -22.5v-78q0 -18 -5 -23t-24 -5h-246v-521z" />
    <glyph glyph-name="dth" unicode="&#x111;" horiz-adv-x="1063" 
d="M1016 102v-77q0 -25 -25 -25h-184q-23 0 -36.5 15.5t-21 36.5t-14.5 40q-141 -121 -311 -121q-106 0 -178.5 69.5t-107 184.5t-34.5 246q0 239 85 390t257 151q157 0 261 -70v182h-332v101h332v116h-132q-24 0 -24 25v78q0 24 24 24h263q24 0 24 -24v-219h164v-101h-164
v-868q0 -61 12 -129h117q25 0 25 -25zM707 229v578q-91 67 -242 67q-81 0 -123 -54.5t-56 -139.5t-14 -205q0 -105 12.5 -184t52.5 -130.5t116 -51.5q123 0 254 120z" />
    <glyph glyph-name="dth" unicode="&#x20ab;" horiz-adv-x="1063" 
d="M1016 102v-77q0 -25 -25 -25h-184q-23 0 -36.5 15.5t-21 36.5t-14.5 40q-141 -121 -311 -121q-106 0 -178.5 69.5t-107 184.5t-34.5 246q0 239 85 390t257 151q157 0 261 -70v182h-332v101h332v116h-132q-24 0 -24 25v78q0 24 24 24h263q24 0 24 -24v-219h164v-101h-164
v-868q0 -61 12 -129h117q25 0 25 -25zM707 229v578q-91 67 -242 67q-81 0 -123 -54.5t-56 -139.5t-14 -205q0 -105 12.5 -184t52.5 -130.5t116 -51.5q123 0 254 120z" />
    <glyph glyph-name="ihoanga" unicode="&#x128;" horiz-adv-x="682" 
d="M637 109v-84q0 -25 -25 -25h-540q-25 0 -25 25v84q0 24 25 24h186v1137h-186q-25 0 -25 24v84q0 25 25 25h540q25 0 25 -25v-84q0 -24 -25 -24h-186v-1137h186q25 0 25 -24zM545 1698l49 -21q10 -5 10 -10q0 -10 -19.5 -46t-57.5 -66.5t-91 -30.5q-46 0 -108 36.5
t-95 36.5q-22 0 -37.5 -13t-31.5 -35.5t-23 -22.5h-6l-49 18q-12 4 -12 12q0 10 19.5 45.5t57 67t89.5 31.5q42 0 110 -37t90 -37q32 0 49.5 15t29 36t18.5 21h8z" />
    <glyph glyph-name="ithnga" unicode="&#x129;" horiz-adv-x="569" 
d="M543 102v-77q0 -25 -25 -25h-448q-25 0 -25 25v77q0 25 25 25h147v729h-162q-24 0 -24 25v77q0 25 24 25h291q16 0 21.5 -7.5t5.5 -23.5v-825h145q25 0 25 -25zM461 1284l49 -20q10 -5 10 -11q0 -10 -19.5 -46t-57.5 -66.5t-91 -30.5q-46 0 -108 37q-64 37 -94 37
q-24 0 -40 -14.5t-30.5 -36t-22.5 -21.5h-6l-49 18q-12 6 -12 13q0 9 19.5 44.5t57 67t89.5 31.5q46 0 110 -37q68 -37 90 -37q32 0 49.5 15t29 36t18.5 21h8z" />
    <glyph glyph-name="OE" unicode="&#x152;" horiz-adv-x="1593" 
d="M805 233v932q-41 49 -97 89t-143 40q-146 0 -210 -154.5t-64 -437.5q0 -175 25.5 -307t85 -209t157.5 -77q126 0 246 124zM1489 328v-299q0 -19 -5.5 -24t-23.5 -5h-626q-19 0 -24 5t-5 24v57q-53 -49 -108 -82t-152 -33q-107 0 -189.5 51t-138.5 147.5t-83.5 227
t-27.5 293.5q0 185 30.5 326t89 233.5t142.5 137.5t191 45q97 0 152.5 -29.5t93.5 -67.5v41q0 17 5 22t24 5h614q17 0 22 -5.5t5 -23.5v-278q0 -25 -23 -25h-94q-23 0 -23 25v164h-362v-455h401q17 0 22 -5t5 -22v-90q0 -16 -5 -21t-22 -5h-401v-519h377v185q0 22 22 22h92
q25 0 25 -22z" />
    <glyph glyph-name="oe" unicode="&#x153;" horiz-adv-x="1593" 
d="M1456 180l35 -86l4 -8t2 -8q0 -12 -51.5 -38.5t-126.5 -47.5t-145 -21q-146 0 -218.5 51t-126.5 136q-107 -187 -333 -187q-134 0 -224 66t-133 183t-43 267q0 108 24.5 203.5t76 168.5t129.5 113t184 40q129 0 199 -53t122 -130q36 64 88.5 104.5t110.5 59.5t117 19
q114 0 189 -49t114.5 -125t54.5 -158.5t15 -163.5q0 -26 -3.5 -35.5t-19.5 -9.5h-588q0 -78 24.5 -160t87.5 -142t171 -60q60 0 114 19t95 42t43 23q3 0 12 -13zM508 98q89 0 143 49t76.5 138t22.5 217q0 84 -12 149.5t-40 118.5t-76 84t-118 31q-128 0 -184 -104t-56 -273
q0 -128 22 -217.5t76.5 -141t145.5 -51.5zM909 598h443q-5 74 -29 138t-69.5 106.5t-114.5 42.5q-87 0 -138 -46.5t-71.5 -113.5t-20.5 -127z" />
    <glyph glyph-name="Scaron" unicode="&#x160;" horiz-adv-x="985" 
d="M723 1075v166q-111 43 -203 43q-97 0 -157 -51.5t-60 -149.5q0 -73 40 -125.5t85.5 -80.5t150.5 -84t156 -99q85 -68 125.5 -145.5t40.5 -175.5q0 -94 -32.5 -168.5t-90.5 -126.5t-138.5 -79.5t-172.5 -27.5q-82 0 -182 23t-179 67q-20 13 -20 48v237q0 25 25 25h92
q22 0 22 -25v-168q12 -5 55.5 -21t95 -27t97.5 -11q74 0 129.5 29t85 82.5t29.5 121.5q0 79 -40 134.5t-89 88t-170 101.5q-91 51 -154 99t-104 119t-41 171q0 114 56 197t150 126.5t201 43.5q111 0 205 -31t119 -58q12 -12 12 -43v-225q0 -24 -24 -24h-93q-22 0 -22 24z
M743 1712l-41 33q-3 6 -8 6q-10 0 -14 -2l-168 -111l-166 111q-1 0 -5 2t-7 2q-5 0 -15 -12l-20 -29q-2 -4 -4 -7t-2 -5q0 -3 4 -6.5t8 -7.5l203 -162q4 -2 7 -4t5 -2q4 0 6.5 1.5t8.5 4.5l202 162q3 3 7 6t4 6q0 4 -5 14z" />
    <glyph glyph-name="scaron" unicode="&#x161;" horiz-adv-x="797" 
d="M555 739v113q-54 27 -133 27q-66 0 -109 -34.5t-43 -101.5q0 -73 50.5 -109.5t167.5 -90.5t177 -113.5t60 -167.5q0 -70 -25 -124t-71 -91.5t-105 -56.5t-127 -19q-57 0 -132 16.5t-127 41.5t-52 45v190q0 23 23 23h88q22 0 22 -23v-121q9 -3 44 -14t69 -18t74 -7
q69 0 116 39t47 109q0 71 -50.5 106.5t-168.5 92t-176.5 115t-58.5 161.5q0 124 87.5 204.5t221.5 80.5q52 0 127.5 -20t114.5 -42q22 -12 22 -32v-179q0 -24 -24 -24h-84q-25 0 -25 24zM647 1282l-41 33q-3 6 -8 6q-10 0 -14 -2l-168 -111l-166 111q-1 0 -5 2t-7 2
q-7 0 -15 -12l-20 -29q-2 -4 -4 -7t-2 -5q0 -3 1 -4l4.5 -4.5l6.5 -6.5l203 -161q3 -2 6 -4.5t6 -2.5q5 0 8 2.5t6 4.5l203 161l5 5l3.5 3.5t1.5 4.5q0 6 -4 14z" />
    <glyph glyph-name="uhoanga" unicode="&#x168;" horiz-adv-x="1251" 
d="M1069 1270v-893q0 -191 -111 -298.5t-340 -107.5q-152 0 -245.5 49t-135.5 139.5t-42 217.5v893h-132q-24 0 -24 24v84q0 25 24 25h431q24 0 24 -25v-84q0 -24 -24 -24h-132v-889q0 -138 57.5 -205t201.5 -67q140 0 210 66.5t70 205.5v889h-131q-25 0 -25 24v84
q0 25 25 25h430q25 0 25 -25v-84q0 -24 -25 -24h-131zM885 1698l49 -21q10 -5 10 -10q0 -10 -19.5 -46t-57.5 -66.5t-91 -30.5q-46 0 -108 36.5t-95 36.5q-22 0 -37.5 -13t-31.5 -35.5t-23 -22.5h-6l-49 18q-12 4 -12 12q0 10 19.5 45.5t57 67t89.5 31.5q42 0 110 -37
t90 -37q32 0 49.5 15t29 36t18.5 21h8z" />
    <glyph glyph-name="uthnga" unicode="&#x169;" horiz-adv-x="1100" 
d="M1059 102v-77q0 -25 -25 -25h-172q-21 0 -35.5 10.5t-23.5 26t-16 33t-11 22.5q-60 -49 -134 -85t-150 -36q-129 0 -195 43t-85 107t-19 158v577h-115q-25 0 -25 25v77q0 25 25 25h246q24 0 24 -25v-684q0 -165 168 -165q53 0 118 31.5t116 72.5v643h-117q-25 0 -25 25
v77q0 25 25 25h248q24 0 24 -25v-702q0 -58 13 -129h116q25 0 25 -25zM737 1278l49 -21q11 -4 11 -10q0 -10 -20.5 -47t-57.5 -66.5t-90 -29.5q-45 0 -109 37t-94 37q-25 0 -39.5 -14t-30.5 -36t-22 -22h-6l-49 18q-13 4 -13 13t19.5 44.5t57 67t89.5 31.5q47 0 111 -37
q66 -37 90 -37q32 0 49.5 15t29 36t17.5 21h8z" />
    <glyph glyph-name="florin" unicode="&#x192;" 
d="M578 864l-203 -921q-22 -98 -52 -170.5t-109.5 -131.5t-219.5 -59q-53 0 -104.5 11t-51.5 28q0 10 2 14l29 84q4 13 14 13q3 0 47.5 -8.5t79.5 -8.5q110 0 152 69t63 167l203 913h-141q-17 0 -17 13q0 4 6 32l11 49q5 25 26 25h144l41 197q15 82 41 145t95 110.5
t193 47.5q75 0 147.5 -21.5t72.5 -42.5q0 -1 -1 -2.5t-2 -3.5l-36 -88q-5 -10 -15 -10l-63 24.5t-119 24.5q-65 0 -99 -31.5t-46 -69t-25 -102.5l-37 -178h289q16 0 16 -12q0 -10 -10 -33l-18 -49q-9 -25 -27 -25h-276z" />
    <glyph glyph-name="ochoa" unicode="&#x1a0;" horiz-adv-x="1139" 
d="M1032 702q0 -223 -48.5 -387.5t-152 -254t-262.5 -89.5t-263 90t-152 254t-48 387q0 164 26.5 298.5t84 232.5t145 148.5t207.5 50.5q98 0 174.5 -34.5t131 -98t88.5 -154.5q47 7 78.5 44.5t31.5 82.5h-6h-35v162h131v-201q0 -68 -52.5 -109t-123.5 -41q45 -168 45 -381z
M569 109q84 0 139.5 41t85.5 117t42 183.5t12 251.5q0 197 -22.5 323t-84 197.5t-172.5 71.5q-109 0 -170.5 -71.5t-84.5 -201.5t-23 -319q0 -144 12 -250.5t42.5 -184t85.5 -118t138 -40.5z" />
    <glyph glyph-name="octh" unicode="&#x1a1;" 
d="M920 498q0 -150 -44 -268.5t-138 -188.5t-238 -70q-198 0 -297 142t-99 374q0 105 24 201t75.5 170t130 114t186.5 40q157 0 245 -81t124 -204q29 3 51.5 20.5t36.5 45t14 57.5h-6h-35v162h131v-201q0 -68 -52 -108.5t-124 -40.5q15 -66 15 -164zM514 98q88 0 140.5 49.5
t75 138.5t22.5 214q0 169 -56 277t-184 108t-184 -104.5t-56 -274.5q0 -125 22.5 -215.5t76 -141.5t143.5 -51z" />
    <glyph glyph-name="uchoa" unicode="&#x1af;" horiz-adv-x="1251" 
d="M1069 1270v-148q49 1 83 36.5t34 82.5h-6h-35v162h131v-201q0 -44 -32 -78t-79.5 -52.5t-95.5 -18.5v-676q0 -191 -111 -298.5t-340 -107.5q-152 0 -245.5 49t-135.5 139.5t-42 217.5v893h-132q-24 0 -24 24v84q0 25 24 25h431q24 0 24 -25v-84q0 -24 -24 -24h-132v-889
q0 -138 57.5 -205t201.5 -67q140 0 210 66.5t70 205.5v889h-131q-25 0 -25 24v84q0 25 25 25h299v-133z" />
    <glyph glyph-name="ucth" unicode="&#x1b0;" horiz-adv-x="1100" 
d="M1059 102v-77q0 -25 -25 -25h-172q-21 0 -35.5 10.5t-23.5 26t-16 33t-11 22.5q-60 -49 -134 -85t-150 -36q-129 0 -195 43t-85 107t-19 158v577h-115q-25 0 -25 25v77q0 25 25 25h246q24 0 24 -25v-684q0 -165 168 -165q53 0 118 31.5t116 72.5v643h-117q-25 0 -25 25
v77q0 25 25 25h248q24 0 24 -25v-256q52 3 84.5 38t32.5 81h-6h-35v162h131v-201q0 -44 -32 -78t-79.5 -52.5t-95.5 -18.5v-377q0 -58 13 -129h116q25 0 25 -25z" />
    <glyph glyph-name="circumflex" unicode="&#x2c6;" horiz-adv-x="631" 
d="M567 1198l-28 -37q-7 -10 -15 -10q-11 0 -20 6l-189 123l-186 -123q-16 -8 -18 -8q-9 0 -21 16l-24 33q-11 13 -11 19q0 5 17 20l225 180q15 10 18 10q6 0 21 -10l225 -180q14 -14 14 -18q0 -9 -8 -21z" />
    <glyph glyph-name="tilde" unicode="&#x2dc;" horiz-adv-x="631" 
d="M549 1386l55 -24q14 -9 14 -16q0 -14 -23 -55t-64.5 -74t-100.5 -33q-54 0 -123 43q-72 41 -106 41q-28 0 -46 -16t-36 -40t-25 -24q-4 0 -12 4l-55 22q-17 9 -17 19t22 51t64 76t101 35q49 0 125 -41q67 -43 102 -43t54.5 16t34.5 40t22 24q4 0 14 -5z" />
    <glyph glyph-name="abhuyenth" unicode="&#x300;" horiz-adv-x="0" 
d="M-551 1571l266 -205q13 -13 13 -12q0 -6 -7 -15l-16 -24q-6 -12 -12 -12q-10 0 -15 2l-301 155q-14 3 -14 13q0 6 4 14l53 78q3 2 8 7t7 5q4 0 9.5 -3t4.5 -3z" />
    <glyph glyph-name="absacth" unicode="&#x301;" horiz-adv-x="0" 
d="M-29 1427l-301 -155q-4 -2 -14 -2q-6 0 -12 12l-17 25q-6 12 -6 14l12 12l267 205q12 6 14 6q8 0 14 -12l54 -78q4 -8 4 -14q0 -8 -15 -13z" />
    <glyph glyph-name="absacth" unicode="&#x302;" horiz-adv-x="0" 
d="M-29 1427l-301 -155q-4 -2 -14 -2q-6 0 -12 12l-17 25q-6 12 -6 14l12 12l267 205q12 6 14 6q8 0 14 -12l54 -78q4 -8 4 -14q0 -8 -15 -13z" />
    <glyph glyph-name="abngath" unicode="&#x303;" horiz-adv-x="0" 
d="M-297 1563l49 -21q10 -5 10 -10q0 -10 -19.5 -46t-57.5 -66.5t-91 -30.5q-42 0 -108 36q-60 37 -94 37q-23 0 -38.5 -13t-31.5 -35.5t-22 -22.5h-7l-49 18q-12 4 -12 12q0 10 20 46t57 67t89 31q44 0 110 -37q64 -37 91 -37q32 0 49 15t28.5 36t18.5 21h8z" />
    <glyph glyph-name="abhoith" unicode="&#x309;" horiz-adv-x="0" 
d="M-303 1389l-10 -62q0 -6 -1.5 -7t-9.5 -1h-43q-7 0 -8.5 1t-1.5 7v100q0 23 8 25q16 4 44 11.5t48.5 26t20.5 58.5q-3 80 -94 80q-25 0 -58 -12t-32 -12q-6 0 -6 6l-15 35v2q0 13 47.5 26t89.5 13q68 0 114 -34.5t46 -111.5q0 -53 -24 -84.5t-53.5 -45.5t-61.5 -21z" />
    <glyph glyph-name="ananghoa" unicode="&#x323;" horiz-adv-x="0" 
d="M-500 -223v4q0 -44 -29.5 -74.5t-72.5 -30.5t-73 30t-30 73q0 42 30 72t73 30t72.5 -29.5t29.5 -74.5z" />
    <glyph glyph-name="ananghoa" unicode="&#xf02b;" horiz-adv-x="0" 
d="M-500 -223v4q0 -44 -29.5 -74.5t-72.5 -30.5t-73 30t-30 73q0 42 30 72t73 30t72.5 -29.5t29.5 -74.5z" />
    <glyph glyph-name="ananghoa" unicode="&#xf029;" horiz-adv-x="0" 
d="M-500 -223v4q0 -44 -29.5 -74.5t-72.5 -30.5t-73 30t-30 73q0 42 30 72t73 30t72.5 -29.5t29.5 -74.5z" />
    <glyph glyph-name="ananghoa" unicode="&#xf022;" horiz-adv-x="0" 
d="M-500 -223v4q0 -44 -29.5 -74.5t-72.5 -30.5t-73 30t-30 73q0 42 30 72t73 30t72.5 -29.5t29.5 -74.5z" />
    <glyph glyph-name="ananghoa" unicode="&#xf021;" horiz-adv-x="0" 
d="M-500 -223v4q0 -44 -29.5 -74.5t-72.5 -30.5t-73 30t-30 73q0 42 30 72t73 30t72.5 -29.5t29.5 -74.5z" />
    <glyph glyph-name="ananghoa" unicode="&#xf020;" horiz-adv-x="0" 
d="M-500 -223v4q0 -44 -29.5 -74.5t-72.5 -30.5t-73 30t-30 73q0 42 30 72t73 30t72.5 -29.5t29.5 -74.5z" />
    <glyph glyph-name="ananghoa" unicode="&#xf01f;" horiz-adv-x="0" 
d="M-500 -223v4q0 -44 -29.5 -74.5t-72.5 -30.5t-73 30t-30 73q0 42 30 72t73 30t72.5 -29.5t29.5 -74.5z" />
    <glyph glyph-name="ananghoa" unicode="&#xf01e;" horiz-adv-x="0" 
d="M-500 -223v4q0 -44 -29.5 -74.5t-72.5 -30.5t-73 30t-30 73q0 42 30 72t73 30t72.5 -29.5t29.5 -74.5z" />
    <glyph glyph-name="ahuyenhoa" unicode="&#x340;" horiz-adv-x="0" 
d="M-614 1786l266 -205l12 -12l-6 -15l-16 -24q-6 -12 -13 -12q-10 0 -14 2l-301 155q-14 3 -14 13q0 6 4 14l53 78l7 7t7 5q4 0 11 -3t4 -3z" />
    <glyph glyph-name="ahuyenhoa" unicode="&#xf00c;" horiz-adv-x="0" 
d="M-614 1786l266 -205l12 -12l-6 -15l-16 -24q-6 -12 -13 -12q-10 0 -14 2l-301 155q-14 3 -14 13q0 6 4 14l53 78l7 7t7 5q4 0 11 -3t4 -3z" />
    <glyph glyph-name="asachoa" unicode="&#x341;" horiz-adv-x="0" 
d="M-338 1653l-301 -156q-4 -2 -14 -2q-7 0 -13 12l-16 25q-6 12 -6 14q0 -1 12 13l266 204q12 6 15 6q8 0 14 -12l53 -78q4 -8 4 -14q0 -8 -14 -12z" />
    <glyph glyph-name="asachoa" unicode="&#xf007;" horiz-adv-x="0" 
d="M-338 1653l-301 -156q-4 -2 -14 -2q-7 0 -13 12l-16 25q-6 12 -6 14q0 -1 12 13l266 204q12 6 15 6q8 0 14 -12l53 -78q4 -8 4 -14q0 -8 -14 -12z" />
    <glyph glyph-name="angahoa" unicode="&#x342;" horiz-adv-x="0" 
d="M-340 1696l49 -21q10 -5 10 -10q0 -10 -19.5 -46t-57.5 -66.5t-91 -30.5q-44 0 -108 37q-62 36 -94 36q-23 0 -38.5 -13t-31.5 -35.5t-22 -22.5h-7l-49 18q-12 4 -12 12q0 10 19.5 45.5t57 67t89.5 31.5q44 0 110 -37q64 -37 91 -37q32 0 49 15t28.5 36t18.5 21h8z" />
    <glyph glyph-name="angahoa" unicode="&#xf030;" horiz-adv-x="0" 
d="M-340 1696l49 -21q10 -5 10 -10q0 -10 -19.5 -46t-57.5 -66.5t-91 -30.5q-44 0 -108 37q-62 36 -94 36q-23 0 -38.5 -13t-31.5 -35.5t-22 -22.5h-7l-49 18q-12 4 -12 12q0 10 19.5 45.5t57 67t89.5 31.5q44 0 110 -37q64 -37 91 -37q32 0 49 15t28.5 36t18.5 21h8z" />
    <glyph glyph-name="angahoa" unicode="&#xf02e;" horiz-adv-x="0" 
d="M-340 1696l49 -21q10 -5 10 -10q0 -10 -19.5 -46t-57.5 -66.5t-91 -30.5q-44 0 -108 37q-62 36 -94 36q-23 0 -38.5 -13t-31.5 -35.5t-22 -22.5h-7l-49 18q-12 4 -12 12q0 10 19.5 45.5t57 67t89.5 31.5q44 0 110 -37q64 -37 91 -37q32 0 49 15t28.5 36t18.5 21h8z" />
    <glyph glyph-name="angahoa" unicode="&#xf01c;" horiz-adv-x="0" 
d="M-340 1696l49 -21q10 -5 10 -10q0 -10 -19.5 -46t-57.5 -66.5t-91 -30.5q-44 0 -108 37q-62 36 -94 36q-23 0 -38.5 -13t-31.5 -35.5t-22 -22.5h-7l-49 18q-12 4 -12 12q0 10 19.5 45.5t57 67t89.5 31.5q44 0 110 -37q64 -37 91 -37q32 0 49 15t28.5 36t18.5 21h8z" />
    <glyph glyph-name="angahoa" unicode="&#xf017;" horiz-adv-x="0" 
d="M-340 1696l49 -21q10 -5 10 -10q0 -10 -19.5 -46t-57.5 -66.5t-91 -30.5q-44 0 -108 37q-62 36 -94 36q-23 0 -38.5 -13t-31.5 -35.5t-22 -22.5h-7l-49 18q-12 4 -12 12q0 10 19.5 45.5t57 67t89.5 31.5q44 0 110 -37q64 -37 91 -37q32 0 49 15t28.5 36t18.5 21h8z" />
    <glyph glyph-name="angahoa" unicode="&#xf016;" horiz-adv-x="0" 
d="M-340 1696l49 -21q10 -5 10 -10q0 -10 -19.5 -46t-57.5 -66.5t-91 -30.5q-44 0 -108 37q-62 36 -94 36q-23 0 -38.5 -13t-31.5 -35.5t-22 -22.5h-7l-49 18q-12 4 -12 12q0 10 19.5 45.5t57 67t89.5 31.5q44 0 110 -37q64 -37 91 -37q32 0 49 15t28.5 36t18.5 21h8z" />
    <glyph glyph-name="ahoanang" unicode="&#x1ea0;" horiz-adv-x="1251" 
d="M793 561l-123 453q-31 103 -47 194h-5q-6 -38 -21 -104t-22 -90l-124 -453h342zM1223 109v-84q0 -25 -25 -25h-414q-24 0 -24 25v84q0 24 24 24h127l-80 285h-419l-78 -285h131q24 0 24 -24v-84q0 -25 -24 -25h-412q-24 0 -24 25v84q0 24 24 24h101l381 1247q4 15 8.5 19
t21.5 4h121q14 0 20 -4t11 -19l379 -1247h102q25 0 25 -24zM729 -205v4q0 -43 -29.5 -73.5t-72.5 -30.5q-45 0 -74 29t-29 73q0 45 29 74t74 29q43 0 72.5 -30.5t29.5 -74.5z" />
    <glyph glyph-name="athnang" unicode="&#x1ea1;" horiz-adv-x="948" 
d="M172 819l-27 72q-6 15 -6 27q0 16 53.5 39t130.5 39t136 16q167 0 241 -74.5t74 -212.5v-393q0 -82 4 -116t21 -89h96q25 0 25 -25v-77q0 -25 -25 -25h-174q-32 0 -47 28.5t-31 80.5q-25 -25 -61 -55t-98 -56.5t-136 -26.5q-59 0 -108 19.5t-85 57t-54.5 92.5t-18.5 120
q0 120 61.5 195t148 107.5t162 41.5t164.5 12v74q0 96 -38.5 140t-143.5 44q-61 0 -111.5 -14t-91.5 -32.5t-47 -18.5q-11 0 -14 10zM618 225v264q-44 0 -107.5 -5.5t-125 -25.5t-104.5 -65.5t-43 -120.5q0 -68 38 -121t109 -53q39 0 75.5 15t67 35.5t54.5 43.5t36 33z
M573 -233v4q0 -44 -29.5 -74.5t-72.5 -30.5q-44 0 -73 29t-29 74q0 44 29 73t73 29q43 0 72.5 -29.5t29.5 -74.5z" />
    <glyph glyph-name="ahoahoi" unicode="&#x1ea2;" horiz-adv-x="1251" 
d="M793 561l-123 453q-31 103 -47 194h-5q-6 -38 -21 -104t-22 -90l-124 -453h342zM1223 109v-84q0 -25 -25 -25h-414q-24 0 -24 25v84q0 24 24 24h127l-80 285h-419l-78 -285h131q24 0 24 -24v-84q0 -25 -24 -25h-412q-24 0 -24 25v84q0 24 24 24h101l381 1247q4 15 8.5 19
t21.5 4h121q14 0 20 -4t11 -19l379 -1247h102q25 0 25 -24zM668 1585l-11 -61q0 -8 -10 -8h-43q-7 0 -8.5 1t-1.5 7v100q0 23 8 25q16 4 44 11.5t48.5 26t20.5 58.5q-3 80 -94 80q-27 0 -59 -12.5l-32 -12.5q-6 0 -6 6l-14 35v2q0 13 49 26t88 13q68 0 114 -34.5t46 -110.5
q0 -118 -139 -152z" />
    <glyph glyph-name="athhoi" unicode="&#x1ea3;" horiz-adv-x="948" 
d="M172 819l-27 72q-6 15 -6 27q0 16 53.5 39t130.5 39t136 16q167 0 241 -74.5t74 -212.5v-393q0 -82 4 -116t21 -89h96q25 0 25 -25v-77q0 -25 -25 -25h-174q-32 0 -47 28.5t-31 80.5q-25 -25 -61 -55t-98 -56.5t-136 -26.5q-59 0 -108 19.5t-85 57t-54.5 92.5t-18.5 120
q0 120 61.5 195t148 107.5t162 41.5t164.5 12v74q0 96 -38.5 140t-143.5 44q-61 0 -111.5 -14t-91.5 -32.5t-47 -18.5q-11 0 -14 10zM618 225v264q-44 0 -107.5 -5.5t-125 -25.5t-104.5 -65.5t-43 -120.5q0 -68 38 -121t109 -53q39 0 75.5 15t67 35.5t54.5 43.5t36 33z
M502 1184l-10 -62q0 -6 -1.5 -7t-9.5 -1h-43q-7 0 -8.5 1t-1.5 7v101q0 22 8 24q16 4 44 11.5t48.5 26t20.5 58.5q-3 80 -94 80q-25 0 -58 -12t-32 -12q-7 0 -7 6l-14 35v2q0 13 47.5 26t89.5 13q68 0 114 -34.5t46 -111.5q0 -52 -24 -83.5t-56 -46.5t-59 -21z" />
    <glyph glyph-name="abhoasac" unicode="&#x1ea4;" horiz-adv-x="1251" 
d="M793 561l-123 453q-31 103 -47 194h-5q-6 -38 -21 -104t-22 -90l-124 -453h342zM1223 109v-84q0 -25 -25 -25h-414q-24 0 -24 25v84q0 24 24 24h127l-80 285h-419l-78 -285h131q24 0 24 -24v-84q0 -25 -24 -25h-412q-24 0 -24 25v84q0 24 24 24h101l381 1247q4 15 8.5 19
t21.5 4h121q14 0 20 -4t11 -19l379 -1247h102q25 0 25 -24zM844 1540l-41 -33q-3 -6 -8 -6q-11 0 -15 2l-168 111l-166 -111q-1 0 -5 -2t-7 -2q-6 0 -14 12l-21 29q-2 4 -4 7t-2 5q0 4 13 15l202 162q12 6 13 6q2 0 14 -6l203 -162q10 -10 10 -13q0 -6 -4 -14zM1114 1843
l-301 -155q-4 -2 -14 -2q-5 0 -13 12l-16 24q-6 12 -6 15l12 12l266 205l15 6q8 0 14 -12l53 -78q4 -8 4 -15q0 -8 -14 -12z" />
    <glyph glyph-name="abthsac" unicode="&#x1ea5;" horiz-adv-x="948" 
d="M172 819l-27 72q-6 15 -6 27q0 16 53.5 39t130.5 39t136 16q167 0 241 -74.5t74 -212.5v-393q0 -82 4 -116t21 -89h96q25 0 25 -25v-77q0 -25 -25 -25h-174q-32 0 -47 28.5t-31 80.5q-25 -25 -61 -55t-98 -56.5t-136 -26.5q-59 0 -108 19.5t-85 57t-54.5 92.5t-18.5 120
q0 120 61.5 195t148 107.5t162 41.5t164.5 12v74q0 96 -38.5 140t-143.5 44q-61 0 -111.5 -14t-91.5 -32.5t-47 -18.5q-11 0 -14 10zM618 225v264q-44 0 -107.5 -5.5t-125 -25.5t-104.5 -65.5t-43 -120.5q0 -68 38 -121t109 -53q39 0 75.5 15t67 35.5t54.5 43.5t36 33z
M670 1124l-41 -32q-3 -7 -8 -7q-11 0 -15 2l-168 111l-166 -111q-1 0 -5 -2t-7 -2q-5 0 -14 13l-21 28q-6 12 -6 13q0 2 12 14l203 162l12 6q3 0 15 -6l203 -162q10 -10 10 -12q0 -7 -4 -15zM940 1427l-301 -155q-4 -2 -14 -2q-7 0 -13 12l-16 25q-6 12 -6 14l12 12l266 205
q12 6 15 6q8 0 14 -12l53 -78q4 -8 4 -14q0 -8 -14 -13z" />
    <glyph glyph-name="abhoahuyen" unicode="&#x1ea6;" horiz-adv-x="1251" 
d="M793 561l-123 453q-31 103 -47 194h-5q-6 -38 -21 -104t-22 -90l-124 -453h342zM1223 109v-84q0 -25 -25 -25h-414q-24 0 -24 25v84q0 24 24 24h127l-80 285h-419l-78 -285h131q24 0 24 -24v-84q0 -25 -24 -25h-412q-24 0 -24 25v84q0 24 24 24h101l381 1247q4 15 8.5 19
t21.5 4h121q14 0 20 -4t11 -19l379 -1247h102q25 0 25 -24zM844 1540l-41 -33q-3 -6 -8 -6q-11 0 -15 2l-168 111l-166 -111q-1 0 -5 -2t-7 -2q-6 0 -14 12l-21 29q-2 4 -4 7t-2 5q0 4 13 15l202 162q12 6 13 6q2 0 14 -6l203 -162q10 -10 10 -13q0 -6 -4 -14zM623 2007
l266 -205l12 -12q0 -2 -6 -14l-16 -25q-7 -12 -13 -12q-10 0 -14 2l-301 155q-14 3 -14 13q0 6 4 14l53 78l7 7t7 5q4 0 11 -3t4 -3z" />
    <glyph glyph-name="abthhuyen" unicode="&#x1ea7;" horiz-adv-x="948" 
d="M172 819l-27 72q-6 15 -6 27q0 16 53.5 39t130.5 39t136 16q167 0 241 -74.5t74 -212.5v-393q0 -82 4 -116t21 -89h96q25 0 25 -25v-77q0 -25 -25 -25h-174q-32 0 -47 28.5t-31 80.5q-25 -25 -61 -55t-98 -56.5t-136 -26.5q-59 0 -108 19.5t-85 57t-54.5 92.5t-18.5 120
q0 120 61.5 195t148 107.5t162 41.5t164.5 12v74q0 96 -38.5 140t-143.5 44q-61 0 -111.5 -14t-91.5 -32.5t-47 -18.5q-11 0 -14 10zM618 225v264q-44 0 -107.5 -5.5t-125 -25.5t-104.5 -65.5t-43 -120.5q0 -68 38 -121t109 -53q39 0 75.5 15t67 35.5t54.5 43.5t36 33z
M670 1124l-41 -32q-3 -7 -8 -7q-11 0 -15 2l-168 111l-166 -111q-1 0 -5 -2t-7 -2q-5 0 -14 13l-21 28q-6 12 -6 13q0 2 12 14l203 162l12 6q3 0 15 -6l203 -162q10 -10 10 -12q0 -7 -4 -15zM449 1591l266 -205l12 -12q0 -2 -6 -14l-16 -25q-7 -12 -13 -12q-10 0 -14 2
l-301 156q-15 4 -15 12q0 4 5 14l53 78l7 7t7 5q4 0 9.5 -3z" />
    <glyph glyph-name="abhoahoi" unicode="&#x1ea8;" horiz-adv-x="1251" 
d="M793 561l-123 453q-31 103 -47 194h-5q-6 -38 -21 -104t-22 -90l-124 -453h342zM1223 109v-84q0 -25 -25 -25h-414q-24 0 -24 25v84q0 24 24 24h127l-80 285h-419l-78 -285h131q24 0 24 -24v-84q0 -25 -24 -25h-412q-24 0 -24 25v84q0 24 24 24h101l381 1247q4 15 8.5 19
t21.5 4h121q14 0 20 -4t11 -19l379 -1247h102q25 0 25 -24zM844 1540l-41 -33q-3 -6 -8 -6q-11 0 -15 2l-168 111l-166 -111q-1 0 -5 -2t-7 -2q-6 0 -14 12l-21 29q-2 4 -4 7t-2 5q0 4 13 15l202 162q12 6 13 6q2 0 14 -6l203 -162q10 -10 10 -13q0 -6 -4 -14zM860 1774
l-10 -62q0 -8 -10 -8h-43q-8 0 -9.5 1t-1.5 7v100q0 23 9 25q15 4 33.5 9t36 12.5t30 26.5t12.5 48q-3 80 -94 80q-25 0 -58 -12t-32 -12q-6 0 -6 6l-15 35v2q0 8 22.5 17t55.5 15.5t60 6.5q68 0 113.5 -34.5t45.5 -111.5q0 -53 -24 -84.5t-53.5 -45.5t-61.5 -21z" />
    <glyph glyph-name="abthhoi" unicode="&#x1ea9;" horiz-adv-x="948" 
d="M172 819l-27 72q-6 15 -6 27q0 16 53.5 39t130.5 39t136 16q167 0 241 -74.5t74 -212.5v-393q0 -82 4 -116t21 -89h96q25 0 25 -25v-77q0 -25 -25 -25h-174q-32 0 -47 28.5t-31 80.5q-25 -25 -61 -55t-98 -56.5t-136 -26.5q-59 0 -108 19.5t-85 57t-54.5 92.5t-18.5 120
q0 120 61.5 195t148 107.5t162 41.5t164.5 12v74q0 96 -38.5 140t-143.5 44q-61 0 -111.5 -14t-91.5 -32.5t-47 -18.5q-11 0 -14 10zM618 225v264q-44 0 -107.5 -5.5t-125 -25.5t-104.5 -65.5t-43 -120.5q0 -68 38 -121t109 -53q39 0 75.5 15t67 35.5t54.5 43.5t36 33z
M670 1124l-41 -32q-3 -7 -8 -7q-11 0 -15 2l-168 111l-166 -111q-1 0 -5 -2t-7 -2q-5 0 -14 13l-21 28q-6 12 -6 13q0 2 12 14l203 162l12 6q3 0 15 -6l203 -162q10 -10 10 -12q0 -7 -4 -15zM686 1358l-10 -62q0 -8 -10 -8h-43q-8 0 -9.5 1t-1.5 7v101q0 22 9 24
q3 2 27.5 8.5t42 14t30 26.5t12.5 48q-3 79 -94 79q-25 0 -58 -12t-32 -12q-6 0 -6 6l-15 35v2q0 13 48.5 26t89.5 13q67 0 113 -34.5t46 -111.5q0 -52 -24 -83.5t-56 -46.5t-59 -21z" />
    <glyph glyph-name="abhoanga" unicode="&#x1eaa;" horiz-adv-x="1251" 
d="M793 561l-123 453q-31 103 -47 194h-5q-6 -38 -21 -104t-22 -90l-124 -453h342zM1223 109v-84q0 -25 -25 -25h-414q-24 0 -24 25v84q0 24 24 24h127l-80 285h-419l-78 -285h131q24 0 24 -24v-84q0 -25 -24 -25h-412q-24 0 -24 25v84q0 24 24 24h101l381 1247q4 15 8.5 19
t21.5 4h121q14 0 20 -4t11 -19l379 -1247h102q25 0 25 -24zM844 1540l-41 -33q-3 -6 -8 -6q-11 0 -15 2l-168 111l-166 -111q-1 0 -5 -2t-7 -2q-6 0 -14 12l-21 29q-2 4 -4 7t-2 5q0 4 13 15l202 162q12 6 13 6q2 0 14 -6l203 -162q10 -10 10 -13q0 -6 -4 -14zM846 1978
l49 -20q10 -5 10 -10q0 -7 -10 -29t-31 -49.5t-53 -46.5t-74 -19q-40 0 -108 37q-60 37 -94 37q-24 0 -40 -14.5t-30.5 -36t-22.5 -21.5h-6l-49 19q-12 4 -12 12q0 9 19.5 44.5t57 67t89.5 31.5q44 0 110 -36q64 -37 90 -37q31 0 48.5 14t30 35.5t18.5 21.5h8z" />
    <glyph glyph-name="abthnga" unicode="&#x1eab;" horiz-adv-x="948" 
d="M172 819l-27 72q-6 15 -6 27q0 16 53.5 39t130.5 39t136 16q167 0 241 -74.5t74 -212.5v-393q0 -82 4 -116t21 -89h96q25 0 25 -25v-77q0 -25 -25 -25h-174q-32 0 -47 28.5t-31 80.5q-25 -25 -61 -55t-98 -56.5t-136 -26.5q-59 0 -108 19.5t-85 57t-54.5 92.5t-18.5 120
q0 120 61.5 195t148 107.5t162 41.5t164.5 12v74q0 96 -38.5 140t-143.5 44q-61 0 -111.5 -14t-91.5 -32.5t-47 -18.5q-11 0 -14 10zM618 225v264q-44 0 -107.5 -5.5t-125 -25.5t-104.5 -65.5t-43 -120.5q0 -68 38 -121t109 -53q39 0 75.5 15t67 35.5t54.5 43.5t36 33z
M670 1124l-41 -32q-3 -7 -8 -7q-11 0 -15 2l-168 111l-166 -111q-1 0 -5 -2t-7 -2q-5 0 -14 13l-21 28q-6 12 -6 13q0 2 12 14l203 162l12 6q3 0 15 -6l203 -162q10 -10 10 -12q0 -7 -4 -15zM672 1563l49 -21q10 -5 10 -10q0 -10 -19.5 -46t-57.5 -66.5t-91 -30.5
q-44 0 -108 36q-60 37 -95 37q-22 0 -37.5 -13t-31.5 -35.5t-23 -22.5h-6l-49 18q-12 4 -12 12q0 10 20 46t57 67t89 31q42 0 110 -37q64 -37 90 -37q32 0 49.5 15t29 36t18.5 21h8z" />
    <glyph glyph-name="abhoanang" unicode="&#x1eac;" horiz-adv-x="1251" 
d="M793 561l-123 453q-31 103 -47 194h-5q-6 -38 -21 -104t-22 -90l-124 -453h342zM1223 109v-84q0 -25 -25 -25h-414q-24 0 -24 25v84q0 24 24 24h127l-80 285h-419l-78 -285h131q24 0 24 -24v-84q0 -25 -24 -25h-412q-24 0 -24 25v84q0 24 24 24h101l381 1247q4 15 8.5 19
t21.5 4h121q14 0 20 -4t11 -19l379 -1247h102q25 0 25 -24zM844 1540l-41 -33q-3 -6 -8 -6q-11 0 -15 2l-168 111l-166 -111q-1 0 -5 -2t-7 -2q-6 0 -14 12l-21 29q-2 4 -4 7t-2 5q0 4 13 15l202 162q12 6 13 6q2 0 14 -6l203 -162q10 -10 10 -13q0 -6 -4 -14zM737 -207v4
q0 -43 -29.5 -73.5t-72.5 -30.5t-73 30t-30 72q0 43 30 73t73 30t72.5 -30.5t29.5 -74.5z" />
    <glyph glyph-name="abthnang" unicode="&#x1ead;" horiz-adv-x="948" 
d="M172 819l-27 72q-6 15 -6 27q0 16 53.5 39t130.5 39t136 16q167 0 241 -74.5t74 -212.5v-393q0 -82 4 -116t21 -89h96q25 0 25 -25v-77q0 -25 -25 -25h-174q-32 0 -47 28.5t-31 80.5q-25 -25 -61 -55t-98 -56.5t-136 -26.5q-59 0 -108 19.5t-85 57t-54.5 92.5t-18.5 120
q0 120 61.5 195t148 107.5t162 41.5t164.5 12v74q0 96 -38.5 140t-143.5 44q-61 0 -111.5 -14t-91.5 -32.5t-47 -18.5q-11 0 -14 10zM618 225v264q-44 0 -107.5 -5.5t-125 -25.5t-104.5 -65.5t-43 -120.5q0 -68 38 -121t109 -53q39 0 75.5 15t67 35.5t54.5 43.5t36 33z
M670 1124l-41 -32q-3 -7 -8 -7q-11 0 -15 2l-168 111l-166 -111q-1 0 -5 -2t-7 -2q-5 0 -14 13l-21 28q-6 12 -6 13q0 2 12 14l203 162l12 6q3 0 15 -6l203 -162q10 -10 10 -12q0 -7 -4 -15zM573 -233v4q0 -44 -29.5 -74.5t-72.5 -30.5q-44 0 -73 29t-29 74q0 44 29 73
t73 29q43 0 72.5 -29.5t29.5 -74.5z" />
    <glyph glyph-name="aahoasac" unicode="&#x1eae;" horiz-adv-x="1251" 
d="M793 561l-123 453q-31 103 -47 194h-5q-6 -38 -21 -104t-22 -90l-124 -453h342zM1223 109v-84q0 -25 -25 -25h-414q-24 0 -24 25v84q0 24 24 24h127l-80 285h-419l-78 -285h131q24 0 24 -24v-84q0 -25 -24 -25h-412q-24 0 -24 25v84q0 24 24 24h101l381 1247q4 15 8.5 19
t21.5 4h121q14 0 20 -4t11 -19l379 -1247h102q25 0 25 -24zM762 1714l82 -8q18 0 18 -20q0 -24 -18.5 -67.5t-52.5 -76.5q-56 -56 -158 -61q-100 0 -166 59q-34 34 -53 78.5t-19 64.5q0 21 19 21l71 10h7q8 0 8 -6q11 -60 35.5 -96.5t85.5 -36.5q56 0 84 38.5t43 94.5
q0 6 8 6h6zM930 1905l-301 -156q-4 -2 -15 -2q-6 0 -12 12l-16 25q-6 12 -6 14l12 12l266 205q12 6 14 6q9 0 15 -12l53 -78q4 -8 4 -14q0 -8 -14 -12z" />
    <glyph glyph-name="aathsac" unicode="&#x1eaf;" horiz-adv-x="948" 
d="M172 819l-27 72q-6 15 -6 27q0 16 53.5 39t130.5 39t136 16q167 0 241 -74.5t74 -212.5v-393q0 -82 4 -116t21 -89h96q25 0 25 -25v-77q0 -25 -25 -25h-174q-32 0 -47 28.5t-31 80.5q-25 -25 -61 -55t-98 -56.5t-136 -26.5q-59 0 -108 19.5t-85 57t-54.5 92.5t-18.5 120
q0 120 61.5 195t148 107.5t162 41.5t164.5 12v74q0 96 -38.5 140t-143.5 44q-61 0 -111.5 -14t-91.5 -32.5t-47 -18.5q-11 0 -14 10zM618 225v264q-44 0 -107.5 -5.5t-125 -25.5t-104.5 -65.5t-43 -120.5q0 -68 38 -121t109 -53q39 0 75.5 15t67 35.5t54.5 43.5t36 33z
M598 1329l82 -8q18 0 18 -21q0 -23 -18.5 -66.5t-52.5 -76.5q-56 -56 -158 -61q-100 0 -166 59q-34 34 -53 78.5t-19 64.5q0 21 19 21l72 10h6q8 0 8 -6q11 -60 35 -96.5t86 -36.5q56 0 84 38.5t43 94.5q0 6 8 6h6zM766 1520l-301 -156q-4 -2 -14 -2q-7 0 -13 12l-16 25
q-6 12 -6 14l12 12l266 205q12 6 15 6q8 0 14 -12l53 -78q4 -8 4 -14q0 -8 -14 -12z" />
    <glyph glyph-name="aahoahuyen" unicode="&#x1eb0;" horiz-adv-x="1251" 
d="M793 561l-123 453q-31 103 -47 194h-5q-6 -38 -21 -104t-22 -90l-124 -453h342zM1223 109v-84q0 -25 -25 -25h-414q-24 0 -24 25v84q0 24 24 24h127l-80 285h-419l-78 -285h131q24 0 24 -24v-84q0 -25 -24 -25h-412q-24 0 -24 25v84q0 24 24 24h101l381 1247q4 15 8.5 19
t21.5 4h121q14 0 20 -4t11 -19l379 -1247h102q25 0 25 -24zM762 1714l82 -8q18 0 18 -20q0 -24 -18.5 -67.5t-52.5 -76.5q-56 -56 -158 -61q-100 0 -166 59q-34 34 -53 78.5t-19 64.5q0 21 19 21l71 10h7q8 0 8 -6q11 -60 35.5 -96.5t85.5 -36.5q56 0 84 38.5t43 94.5
q0 6 8 6h6zM438 2028l267 -205q12 -12 12 -13q0 -2 -6 -14l-17 -24q-6 -13 -12 -13q-10 0 -14 2l-301 156q-15 3 -15 12q0 5 4 15l54 77q13 13 14 13q4 0 9.5 -3t4.5 -3z" />
    <glyph glyph-name="aathhuyen" unicode="&#x1eb1;" horiz-adv-x="948" 
d="M172 819l-27 72q-6 15 -6 27q0 16 53.5 39t130.5 39t136 16q167 0 241 -74.5t74 -212.5v-393q0 -82 4 -116t21 -89h96q25 0 25 -25v-77q0 -25 -25 -25h-174q-32 0 -47 28.5t-31 80.5q-25 -25 -61 -55t-98 -56.5t-136 -26.5q-59 0 -108 19.5t-85 57t-54.5 92.5t-18.5 120
q0 120 61.5 195t148 107.5t162 41.5t164.5 12v74q0 96 -38.5 140t-143.5 44q-61 0 -111.5 -14t-91.5 -32.5t-47 -18.5q-11 0 -14 10zM618 225v264q-44 0 -107.5 -5.5t-125 -25.5t-104.5 -65.5t-43 -120.5q0 -68 38 -121t109 -53q39 0 75.5 15t67 35.5t54.5 43.5t36 33z
M598 1329l82 -8q18 0 18 -21q0 -23 -18.5 -66.5t-52.5 -76.5q-56 -56 -158 -61q-100 0 -166 59q-34 34 -53 78.5t-19 64.5q0 21 19 21l72 10h6q8 0 8 -6q11 -60 35 -96.5t86 -36.5q56 0 84 38.5t43 94.5q0 6 8 6h6zM274 1642l267 -204q12 -12 12 -13q0 -2 -6 -14l-17 -25
q-6 -12 -12 -12q-10 0 -14 2l-301 156q-15 4 -15 12q0 7 5 15l53 77q13 13 14 13q3 0 9 -3.5t5 -3.5z" />
    <glyph glyph-name="aahoahoi" unicode="&#x1eb2;" horiz-adv-x="1251" 
d="M793 561l-123 453q-31 103 -47 194h-5q-6 -38 -21 -104t-22 -90l-124 -453h342zM1223 109v-84q0 -25 -25 -25h-414q-24 0 -24 25v84q0 24 24 24h127l-80 285h-419l-78 -285h131q24 0 24 -24v-84q0 -25 -24 -25h-412q-24 0 -24 25v84q0 24 24 24h101l381 1247q4 15 8.5 19
t21.5 4h121q14 0 20 -4t11 -19l379 -1247h102q25 0 25 -24zM762 1714l82 -8q18 0 18 -20q0 -24 -18.5 -67.5t-52.5 -76.5q-56 -56 -158 -61q-100 0 -166 59q-34 34 -53 78.5t-19 64.5q0 21 19 21l71 10h7q8 0 8 -6q11 -60 35.5 -96.5t85.5 -36.5q56 0 84 38.5t43 94.5
q0 6 8 6h6zM666 1815l-11 -62q0 -8 -10 -8h-43q-7 0 -8.5 1t-1.5 7v100q0 23 8 25q16 4 44 11.5t48.5 26t20.5 58.5q-2 39 -26 59.5t-69 20.5q-23 0 -56 -12t-34 -12q-6 0 -6 6l-14 35v2q0 13 49 25.5t88 12.5q70 0 115 -34t45 -111q0 -53 -24 -84.5t-53.5 -45.5t-61.5 -21z
" />
    <glyph glyph-name="aathhoi" unicode="&#x1eb3;" horiz-adv-x="948" 
d="M172 819l-27 72q-6 15 -6 27q0 16 53.5 39t130.5 39t136 16q167 0 241 -74.5t74 -212.5v-393q0 -82 4 -116t21 -89h96q25 0 25 -25v-77q0 -25 -25 -25h-174q-32 0 -47 28.5t-31 80.5q-25 -25 -61 -55t-98 -56.5t-136 -26.5q-59 0 -108 19.5t-85 57t-54.5 92.5t-18.5 120
q0 120 61.5 195t148 107.5t162 41.5t164.5 12v74q0 96 -38.5 140t-143.5 44q-61 0 -111.5 -14t-91.5 -32.5t-47 -18.5q-11 0 -14 10zM618 225v264q-44 0 -107.5 -5.5t-125 -25.5t-104.5 -65.5t-43 -120.5q0 -68 38 -121t109 -53q39 0 75.5 15t67 35.5t54.5 43.5t36 33z
M598 1329l82 -8q18 0 18 -21q0 -23 -18.5 -66.5t-52.5 -76.5q-56 -56 -158 -61q-100 0 -166 59q-34 34 -53 78.5t-19 64.5q0 21 19 21l72 10h6q8 0 8 -6q11 -60 35 -96.5t86 -36.5q56 0 84 38.5t43 94.5q0 6 8 6h6zM512 1450l-10 -61q0 -9 -10 -9h-43q-11 0 -11 9v100
q0 22 8 24q5 2 30.5 9t40.5 14t28.5 26t13.5 48q-3 80 -94 80q-27 0 -59 -12.5t-31 -12.5q-6 0 -6 6l-15 35v2q0 13 48.5 26t89.5 13q67 0 113 -34.5t46 -110.5q0 -118 -139 -152z" />
    <glyph glyph-name="aahoanga" unicode="&#x1eb4;" horiz-adv-x="1251" 
d="M793 561l-123 453q-31 103 -47 194h-5q-6 -38 -21 -104t-22 -90l-124 -453h342zM1223 109v-84q0 -25 -25 -25h-414q-24 0 -24 25v84q0 24 24 24h127l-80 285h-419l-78 -285h131q24 0 24 -24v-84q0 -25 -24 -25h-412q-24 0 -24 25v84q0 24 24 24h101l381 1247q4 15 8.5 19
t21.5 4h121q14 0 20 -4t11 -19l379 -1247h102q25 0 25 -24zM762 1714l82 -8q18 0 18 -20q0 -24 -18.5 -67.5t-52.5 -76.5q-56 -56 -158 -61q-100 0 -166 59q-34 34 -53 78.5t-19 64.5q0 21 19 21l71 10h7q8 0 8 -6q11 -60 35.5 -96.5t85.5 -36.5q56 0 84 38.5t43 94.5
q0 6 8 6h6zM856 1968l49 -20q10 -5 10 -11q0 -10 -20 -46.5t-57 -66.5t-90 -30q-45 0 -109 37t-94 37q-24 0 -40 -14.5t-30.5 -36t-21.5 -21.5h-7l-49 19q-12 4 -12 12q0 9 19.5 44.5t57 67t89.5 31.5q47 0 111 -37q66 -37 90 -37q32 0 49 15t28.5 36t18.5 21h8z" />
    <glyph glyph-name="aathnga" unicode="&#x1eb5;" horiz-adv-x="948" 
d="M172 819l-27 72q-6 15 -6 27q0 16 53.5 39t130.5 39t136 16q167 0 241 -74.5t74 -212.5v-393q0 -82 4 -116t21 -89h96q25 0 25 -25v-77q0 -25 -25 -25h-174q-32 0 -47 28.5t-31 80.5q-25 -25 -61 -55t-98 -56.5t-136 -26.5q-59 0 -108 19.5t-85 57t-54.5 92.5t-18.5 120
q0 120 61.5 195t148 107.5t162 41.5t164.5 12v74q0 96 -38.5 140t-143.5 44q-61 0 -111.5 -14t-91.5 -32.5t-47 -18.5q-11 0 -14 10zM618 225v264q-44 0 -107.5 -5.5t-125 -25.5t-104.5 -65.5t-43 -120.5q0 -68 38 -121t109 -53q39 0 75.5 15t67 35.5t54.5 43.5t36 33z
M598 1329l82 -8q18 0 18 -21q0 -23 -18.5 -66.5t-52.5 -76.5q-56 -56 -158 -61q-100 0 -166 59q-34 34 -53 78.5t-19 64.5q0 21 19 21l72 10h6q8 0 8 -6q11 -60 35 -96.5t86 -36.5q56 0 84 38.5t43 94.5q0 6 8 6h6zM692 1583l49 -20q11 -6 11 -11q0 -10 -20.5 -47
t-57.5 -66.5t-90 -29.5q-45 0 -109 37t-94 37q-25 0 -39.5 -14t-30.5 -36t-22 -22h-6l-50 19q-12 4 -12 12q0 9 19.5 44.5t57 67t89.5 31.5q47 0 111 -37q66 -37 90 -37q32 0 49.5 15t29 36t17.5 21h8z" />
    <glyph glyph-name="aahoanang" unicode="&#x1eb6;" horiz-adv-x="1251" 
d="M793 561l-123 453q-31 103 -47 194h-5q-6 -38 -21 -104t-22 -90l-124 -453h342zM1223 109v-84q0 -25 -25 -25h-414q-24 0 -24 25v84q0 24 24 24h127l-80 285h-419l-78 -285h131q24 0 24 -24v-84q0 -25 -24 -25h-412q-24 0 -24 25v84q0 24 24 24h101l381 1247q4 15 8.5 19
t21.5 4h121q14 0 20 -4t11 -19l379 -1247h102q25 0 25 -24zM762 1714l82 -8q18 0 18 -20q0 -24 -18.5 -67.5t-52.5 -76.5q-56 -56 -158 -61q-100 0 -166 59q-34 34 -53 78.5t-19 64.5q0 21 19 21l71 10h7q8 0 8 -6q11 -60 35.5 -96.5t85.5 -36.5q56 0 84 38.5t43 94.5
q0 6 8 6h6zM717 -197v4q0 -43 -29.5 -73.5t-73.5 -30.5t-73 29t-29 73q0 45 29 74t73 29t73.5 -30.5t29.5 -74.5z" />
    <glyph glyph-name="aathnang" unicode="&#x1eb7;" horiz-adv-x="948" 
d="M172 819l-27 72q-6 15 -6 27q0 16 53.5 39t130.5 39t136 16q167 0 241 -74.5t74 -212.5v-393q0 -82 4 -116t21 -89h96q25 0 25 -25v-77q0 -25 -25 -25h-174q-32 0 -47 28.5t-31 80.5q-25 -25 -61 -55t-98 -56.5t-136 -26.5q-59 0 -108 19.5t-85 57t-54.5 92.5t-18.5 120
q0 120 61.5 195t148 107.5t162 41.5t164.5 12v74q0 96 -38.5 140t-143.5 44q-61 0 -111.5 -14t-91.5 -32.5t-47 -18.5q-11 0 -14 10zM618 225v264q-44 0 -107.5 -5.5t-125 -25.5t-104.5 -65.5t-43 -120.5q0 -68 38 -121t109 -53q39 0 75.5 15t67 35.5t54.5 43.5t36 33z
M598 1329l82 -8q18 0 18 -21q0 -23 -18.5 -66.5t-52.5 -76.5q-56 -56 -158 -61q-100 0 -166 59q-34 34 -53 78.5t-19 64.5q0 21 19 21l72 10h6q8 0 8 -6q11 -60 35 -96.5t86 -36.5q56 0 84 38.5t43 94.5q0 6 8 6h6zM543 -223v4q0 -44 -29.5 -74.5t-73.5 -30.5t-73 29t-29 74
q0 44 29 73t73 29t73.5 -29.5t29.5 -74.5z" />
    <glyph glyph-name="ehoanang" unicode="&#x1eb8;" horiz-adv-x="985" 
d="M920 328v-299q0 -18 -6 -23.5t-23 -5.5h-785q-24 0 -24 25v84q0 24 24 24h130v1137h-130q-24 0 -24 24v84q0 25 24 25h773q17 0 21.5 -5.5t4.5 -23.5v-278q0 -25 -22 -25h-95q-22 0 -22 25v164h-363v-455h402q17 0 21.5 -5t4.5 -22v-90q0 -16 -4.5 -21t-21.5 -5h-402
v-519h377v185q0 22 23 22h92q25 0 25 -22zM614 -215v4q0 -43 -29.5 -73.5t-72.5 -30.5q-44 0 -73 29t-29 73t29 73t73 29q43 0 72.5 -29.5t29.5 -74.5z" />
    <glyph glyph-name="ethnang" unicode="&#x1eb9;" horiz-adv-x="948" 
d="M254 586h442q0 64 -18 132.5t-65 117.5t-130 49q-124 0 -176.5 -95.5t-52.5 -203.5zM801 180l35 -86l4 -8t2 -8q0 -12 -51.5 -38.5t-127 -47.5t-145.5 -21q-202 1 -317 142.5t-115 378.5q0 149 49 268t141 185.5t216 66.5q372 0 372 -508q0 -26 -3 -35.5t-19 -9.5h-588
q0 -129 63.5 -239.5t219.5 -110.5q60 0 114.5 19.5t94.5 42t42 22.5q4 0 13 -13zM580 -233v4q0 -44 -29.5 -74.5t-73.5 -30.5t-73 29t-29 74q0 44 29 73t73 29t73.5 -29.5t29.5 -74.5z" />
    <glyph glyph-name="ehoahoi" unicode="&#x1eba;" horiz-adv-x="985" 
d="M920 328v-299q0 -18 -6 -23.5t-23 -5.5h-785q-24 0 -24 25v84q0 24 24 24h130v1137h-130q-24 0 -24 24v84q0 25 24 25h773q17 0 21.5 -5.5t4.5 -23.5v-278q0 -25 -22 -25h-95q-22 0 -22 25v164h-363v-455h402q17 0 21.5 -5t4.5 -22v-90q0 -16 -4.5 -21t-21.5 -5h-402
v-519h377v185q0 22 23 22h92q25 0 25 -22zM543 1585l-11 -61q0 -8 -10 -8h-43q-7 0 -8.5 1t-1.5 7v100q0 23 8 25q16 4 44 11.5t48.5 26t20.5 58.5q-3 80 -94 80q-27 0 -59 -12.5t-31 -12.5q-7 0 -7 6l-14 35v2q0 13 49 26t88 13q68 0 114 -34.5t46 -110.5q0 -118 -139 -152
z" />
    <glyph glyph-name="ethhoi" unicode="&#x1ebb;" horiz-adv-x="948" 
d="M254 586h442q0 64 -18 132.5t-65 117.5t-130 49q-124 0 -176.5 -95.5t-52.5 -203.5zM801 180l35 -86l4 -8t2 -8q0 -12 -51.5 -38.5t-127 -47.5t-145.5 -21q-202 1 -317 142.5t-115 378.5q0 149 49 268t141 185.5t216 66.5q372 0 372 -508q0 -26 -3 -35.5t-19 -9.5h-588
q0 -129 63.5 -239.5t219.5 -110.5q60 0 114.5 19.5t94.5 42t42 22.5q4 0 13 -13zM549 1194l-10 -61q0 -9 -11 -9h-43q-7 0 -8.5 1t-1.5 8v100q0 22 8 24q5 2 30.5 9t40.5 14t28.5 26t13.5 48q-3 80 -94 80q-27 0 -59 -12.5t-31 -12.5q-6 0 -6 6l-15 35v2q0 13 47.5 26
t89.5 13q68 0 114 -34.5t46 -110.5q0 -118 -139 -152z" />
    <glyph glyph-name="ehoanga" unicode="&#x1ebc;" horiz-adv-x="985" 
d="M920 328v-299q0 -18 -6 -23.5t-23 -5.5h-785q-24 0 -24 25v84q0 24 24 24h130v1137h-130q-24 0 -24 24v84q0 25 24 25h773q17 0 21.5 -5.5t4.5 -23.5v-278q0 -25 -22 -25h-95q-22 0 -22 25v164h-363v-455h402q17 0 21.5 -5t4.5 -22v-90q0 -16 -4.5 -21t-21.5 -5h-402
v-519h377v185q0 22 23 22h92q25 0 25 -22zM733 1688l49 -21q11 -6 11 -10q0 -10 -21 -47.5t-59 -67t-88 -29.5q-41 0 -109 37q-60 37 -94 37q-24 0 -38 -12.5t-31 -35.5t-23 -23h-6l-50 18q-12 4 -12 12q0 10 20 46t57 67t89 31q43 0 111 -37q62 -37 90 -37q32 0 49 15
t28.5 36t18.5 21h8z" />
    <glyph glyph-name="ethnga" unicode="&#x1ebd;" horiz-adv-x="948" 
d="M254 586h442q0 64 -18 132.5t-65 117.5t-130 49q-124 0 -176.5 -95.5t-52.5 -203.5zM801 180l35 -86l4 -8t2 -8q0 -12 -51.5 -38.5t-127 -47.5t-145.5 -21q-202 1 -317 142.5t-115 378.5q0 149 49 268t141 185.5t216 66.5q372 0 372 -508q0 -26 -3 -35.5t-19 -9.5h-588
q0 -129 63.5 -239.5t219.5 -110.5q60 0 114.5 19.5t94.5 42t42 22.5q4 0 13 -13zM688 1276l49 -21q11 -6 11 -10q0 -10 -20.5 -47t-57.5 -66.5t-90 -29.5q-45 0 -109 37t-94 37q-25 0 -39.5 -14t-30.5 -36t-22 -22h-6l-50 18q-12 4 -12 13t19.5 44.5t57 67t89.5 31.5
q47 0 111 -37q66 -37 90 -37q32 0 49 15t28.5 36t18.5 21h8z" />
    <glyph glyph-name="ebhoasac" unicode="&#x1ebe;" horiz-adv-x="985" 
d="M920 328v-299q0 -18 -6 -23.5t-23 -5.5h-785q-24 0 -24 25v84q0 24 24 24h130v1137h-130q-24 0 -24 24v84q0 25 24 25h773q17 0 21.5 -5.5t4.5 -23.5v-278q0 -25 -22 -25h-95q-22 0 -22 25v164h-363v-455h402q17 0 21.5 -5t4.5 -22v-90q0 -16 -4.5 -21t-21.5 -5h-402
v-519h377v185q0 22 23 22h92q25 0 25 -22zM725 1524l-41 -33q-3 -6 -8 -6q-10 0 -14 2l-168 110l-166 -110l-5 -2t-8 -2q-6 0 -14 12l-20 29q-2 3 -4.5 6t-2.5 6q0 1 13 14l202 162l5 2.5t4 2.5t4 1q2 0 14 -6l203 -162q10 -10 10 -12q0 -6 -4 -14zM995 1827l-301 -156
q-4 -2 -14 -2q-6 0 -12 12l-17 25q-6 12 -6 14q0 -1 12 13l267 204q3 2 6.5 4.5t7.5 2.5q7 0 14 -13l54 -78q4 -8 4 -14q0 -9 -15 -12z" />
    <glyph glyph-name="ebthsac" unicode="&#x1ebf;" horiz-adv-x="948" 
d="M254 586h442q0 64 -18 132.5t-65 117.5t-130 49q-124 0 -176.5 -95.5t-52.5 -203.5zM801 180l35 -86l4 -8t2 -8q0 -12 -51.5 -38.5t-127 -47.5t-145.5 -21q-202 1 -317 142.5t-115 378.5q0 149 49 268t141 185.5t216 66.5q372 0 372 -508q0 -26 -3 -35.5t-19 -9.5h-588
q0 -129 63.5 -239.5t219.5 -110.5q60 0 114.5 19.5t94.5 42t42 22.5q4 0 13 -13zM692 1128l-41 -32q-3 -6 -8 -6q-10 0 -14 2l-168 110l-166 -110q-2 0 -5.5 -2.5t-6.5 -2.5q-6 0 -15 13l-20 28q-1 4 -3.5 7.5t-2.5 5.5t12 14l203 162l12 6q2 0 14 -6l203 -162
q10 -10 10 -12q0 -5 -4 -15zM963 1432l-301 -156q-5 -2 -15 -2q-6 0 -12 12l-17 25q-6 12 -6 14q0 1 13 12l266 205q12 6 14 6q9 0 15 -12l53 -78q4 -8 4 -14q0 -8 -14 -12z" />
    <glyph glyph-name="ebhoahuyen" unicode="&#x1ec0;" horiz-adv-x="985" 
d="M920 328v-299q0 -18 -6 -23.5t-23 -5.5h-785q-24 0 -24 25v84q0 24 24 24h130v1137h-130q-24 0 -24 24v84q0 25 24 25h773q17 0 21.5 -5.5t4.5 -23.5v-278q0 -25 -22 -25h-95q-22 0 -22 25v164h-363v-455h402q17 0 21.5 -5t4.5 -22v-90q0 -16 -4.5 -21t-21.5 -5h-402
v-519h377v185q0 22 23 22h92q25 0 25 -22zM725 1524l-41 -33q-3 -6 -8 -6q-10 0 -14 2l-168 110l-166 -110l-5 -2t-8 -2q-6 0 -14 12l-20 29q-2 3 -4.5 6t-2.5 6q0 1 13 14l202 162l5 2.5t4 2.5t4 1q2 0 14 -6l203 -162q10 -10 10 -12q0 -6 -4 -14zM504 1991l266 -205
l12 -12q0 -3 -6 -15l-16 -24q-6 -13 -12 -13q-11 0 -15 2l-301 156q-14 3 -14 12q0 7 4 15l53 78l7 7t7 5q6 0 12 -3t3 -3z" />
    <glyph glyph-name="ebthhuyen" unicode="&#x1ec1;" horiz-adv-x="948" 
d="M254 586h442q0 64 -18 132.5t-65 117.5t-130 49q-124 0 -176.5 -95.5t-52.5 -203.5zM801 180l35 -86l4 -8t2 -8q0 -12 -51.5 -38.5t-127 -47.5t-145.5 -21q-202 1 -317 142.5t-115 378.5q0 149 49 268t141 185.5t216 66.5q372 0 372 -508q0 -26 -3 -35.5t-19 -9.5h-588
q0 -129 63.5 -239.5t219.5 -110.5q60 0 114.5 19.5t94.5 42t42 22.5q4 0 13 -13zM692 1128l-41 -32q-3 -6 -8 -6q-10 0 -14 2l-168 110l-166 -110q-2 0 -5.5 -2.5t-6.5 -2.5q-6 0 -15 13l-20 28q-1 4 -3.5 7.5t-2.5 5.5t12 14l203 162l12 6q2 0 14 -6l203 -162
q10 -10 10 -12q0 -5 -4 -15zM471 1595l266 -204q6 -6 9.5 -8t3.5 -5q0 -2 -2.5 -6t-4.5 -8l-16 -25q-6 -12 -12 -12q-10 0 -15 2l-301 156q-14 3 -14 12q0 6 4 14l53 78q13 13 15 13q3 0 9 -3.5t5 -3.5z" />
    <glyph glyph-name="ebhoahoi" unicode="&#x1ec2;" horiz-adv-x="985" 
d="M920 328v-299q0 -18 -6 -23.5t-23 -5.5h-785q-24 0 -24 25v84q0 24 24 24h130v1137h-130q-24 0 -24 24v84q0 25 24 25h773q17 0 21.5 -5.5t4.5 -23.5v-278q0 -25 -22 -25h-95q-22 0 -22 25v164h-363v-455h402q17 0 21.5 -5t4.5 -22v-90q0 -16 -4.5 -21t-21.5 -5h-402
v-519h377v185q0 22 23 22h92q25 0 25 -22zM725 1524l-41 -33q-3 -6 -8 -6q-10 0 -14 2l-168 110l-166 -110l-5 -2t-8 -2q-6 0 -14 12l-20 29q-2 3 -4.5 6t-2.5 6q0 1 13 14l202 162l5 2.5t4 2.5t4 1q2 0 14 -6l203 -162q10 -10 10 -12q0 -6 -4 -14zM741 1757l-10 -61
q0 -8 -10 -8h-43q-7 0 -8.5 1t-1.5 7v100q0 23 8 25q15 4 33.5 9t36 12.5t30 26.5t12.5 48q-3 80 -94 80q-27 0 -59 -12.5t-31 -12.5q-6 0 -6 6l-14 35v2q0 13 49 26t88 13q68 0 114 -34.5t46 -110.5q0 -118 -140 -152z" />
    <glyph glyph-name="ebthhoi" unicode="&#x1ec3;" horiz-adv-x="948" 
d="M254 586h442q0 64 -18 132.5t-65 117.5t-130 49q-124 0 -176.5 -95.5t-52.5 -203.5zM801 180l35 -86l4 -8t2 -8q0 -12 -51.5 -38.5t-127 -47.5t-145.5 -21q-202 1 -317 142.5t-115 378.5q0 149 49 268t141 185.5t216 66.5q372 0 372 -508q0 -26 -3 -35.5t-19 -9.5h-588
q0 -129 63.5 -239.5t219.5 -110.5q60 0 114.5 19.5t94.5 42t42 22.5q4 0 13 -13zM692 1128l-41 -32q-3 -6 -8 -6q-10 0 -14 2l-168 110l-166 -110q-2 0 -5.5 -2.5t-6.5 -2.5q-6 0 -15 13l-20 28q-1 4 -3.5 7.5t-2.5 5.5t12 14l203 162l12 6q2 0 14 -6l203 -162
q10 -10 10 -12q0 -5 -4 -15zM709 1362l-11 -62q0 -8 -10 -8h-43q-7 0 -8.5 1t-1.5 7v101q0 22 8 24q5 2 30.5 9t40.5 14t28.5 26t13.5 48q-3 80 -94 80q-27 0 -59 -12.5l-32 -12.5q-6 0 -6 6l-14 35v2q0 13 47.5 26t89.5 13q68 0 114 -34.5t46 -111.5q0 -52 -24 -83.5
t-56 -46.5t-59 -21z" />
    <glyph glyph-name="ebhoanga" unicode="&#x1ec4;" horiz-adv-x="985" 
d="M920 328v-299q0 -18 -6 -23.5t-23 -5.5h-785q-24 0 -24 25v84q0 24 24 24h130v1137h-130q-24 0 -24 24v84q0 25 24 25h773q17 0 21.5 -5.5t4.5 -23.5v-278q0 -25 -22 -25h-95q-22 0 -22 25v164h-363v-455h402q17 0 21.5 -5t4.5 -22v-90q0 -16 -4.5 -21t-21.5 -5h-402
v-519h377v185q0 22 23 22h92q25 0 25 -22zM725 1524l-41 -33q-3 -6 -8 -6q-10 0 -14 2l-168 110l-166 -110l-5 -2t-8 -2q-6 0 -14 12l-20 29q-2 3 -4.5 6t-2.5 6q0 1 13 14l202 162l5 2.5t4 2.5t4 1q2 0 14 -6l203 -162q10 -10 10 -12q0 -6 -4 -14zM727 1962l49 -20
q10 -8 10 -11q0 -10 -19.5 -46t-57.5 -66.5t-91 -30.5q-44 0 -108 37t-94 37q-24 0 -40 -14.5t-30.5 -36t-21.5 -21.5h-7l-49 18q-12 4 -12 13t19.5 44.5t57 67t89.5 31.5q48 0 110 -37q68 -37 91 -37q32 0 49 15t28.5 36t18.5 21h8z" />
    <glyph glyph-name="ebthnga" unicode="&#x1ec5;" horiz-adv-x="948" 
d="M254 586h442q0 64 -18 132.5t-65 117.5t-130 49q-124 0 -176.5 -95.5t-52.5 -203.5zM801 180l35 -86l4 -8t2 -8q0 -12 -51.5 -38.5t-127 -47.5t-145.5 -21q-202 1 -317 142.5t-115 378.5q0 149 49 268t141 185.5t216 66.5q372 0 372 -508q0 -26 -3 -35.5t-19 -9.5h-588
q0 -129 63.5 -239.5t219.5 -110.5q60 0 114.5 19.5t94.5 42t42 22.5q4 0 13 -13zM692 1128l-41 -32q-3 -6 -8 -6q-10 0 -14 2l-168 110l-166 -110q-2 0 -5.5 -2.5t-6.5 -2.5q-6 0 -15 13l-20 28q-1 4 -3.5 7.5t-2.5 5.5t12 14l203 162l12 6q2 0 14 -6l203 -162
q10 -10 10 -12q0 -5 -4 -15zM694 1567l49 -21q11 -4 11 -10q0 -10 -20.5 -47t-57.5 -66.5t-90 -29.5q-45 0 -109 37q-62 36 -94 36q-24 0 -38 -12.5t-31 -35.5t-23 -23h-6l-49 18q-13 4 -13 12q0 10 19.5 45.5t57 67t89.5 31.5q43 0 111 -37q62 -37 90 -37q32 0 49.5 15
t29 36t17.5 21h8z" />
    <glyph glyph-name="ebhoanang" unicode="&#x1ec6;" horiz-adv-x="985" 
d="M920 328v-299q0 -18 -6 -23.5t-23 -5.5h-785q-24 0 -24 25v84q0 24 24 24h130v1137h-130q-24 0 -24 24v84q0 25 24 25h773q17 0 21.5 -5.5t4.5 -23.5v-278q0 -25 -22 -25h-95q-22 0 -22 25v164h-363v-455h402q17 0 21.5 -5t4.5 -22v-90q0 -16 -4.5 -21t-21.5 -5h-402
v-519h377v185q0 22 23 22h92q25 0 25 -22zM725 1524l-41 -33q-3 -6 -8 -6q-10 0 -14 2l-168 110l-166 -110l-5 -2t-8 -2q-6 0 -14 12l-20 29q-2 3 -4.5 6t-2.5 6q0 1 13 14l202 162l5 2.5t4 2.5t4 1q2 0 14 -6l203 -162q10 -10 10 -12q0 -6 -4 -14zM598 -213v4
q0 -43 -29.5 -73.5t-72.5 -30.5q-45 0 -74 29t-29 73t29 73t74 29q43 0 72.5 -29.5t29.5 -74.5z" />
    <glyph glyph-name="ebthnang" unicode="&#x1ec7;" horiz-adv-x="948" 
d="M254 586h442q0 64 -18 132.5t-65 117.5t-130 49q-124 0 -176.5 -95.5t-52.5 -203.5zM801 180l35 -86l4 -8t2 -8q0 -12 -51.5 -38.5t-127 -47.5t-145.5 -21q-202 1 -317 142.5t-115 378.5q0 149 49 268t141 185.5t216 66.5q372 0 372 -508q0 -26 -3 -35.5t-19 -9.5h-588
q0 -129 63.5 -239.5t219.5 -110.5q60 0 114.5 19.5t94.5 42t42 22.5q4 0 13 -13zM692 1128l-41 -32q-3 -6 -8 -6q-10 0 -14 2l-168 110l-166 -110q-2 0 -5.5 -2.5t-6.5 -2.5q-6 0 -15 13l-20 28q-1 4 -3.5 7.5t-2.5 5.5t12 14l203 162l12 6q2 0 14 -6l203 -162
q10 -10 10 -12q0 -5 -4 -15zM575 -219v4q0 -43 -29.5 -73.5t-72.5 -30.5q-44 0 -73 29t-29 73t29 73t73 29q43 0 72.5 -29.5t29.5 -74.5z" />
    <glyph glyph-name="ihoahoi" unicode="&#x1ec8;" horiz-adv-x="682" 
d="M637 109v-84q0 -25 -25 -25h-540q-25 0 -25 25v84q0 24 25 24h186v1137h-186q-25 0 -25 24v84q0 25 25 25h540q25 0 25 -25v-84q0 -24 -25 -24h-186v-1137h186q25 0 25 -24zM375 1595l-10 -61q0 -6 -1.5 -7t-9.5 -1h-43q-7 0 -8.5 1t-1.5 7v100q0 23 8 25q16 4 44 11.5
t48.5 26t20.5 58.5q-3 80 -94 80q-27 0 -59 -12.5t-31 -12.5q-7 0 -7 7l-14 34v2q0 13 49 26t88 13q70 0 115 -34t45 -111q0 -75 -41 -105.5t-98 -46.5z" />
    <glyph glyph-name="ithhoi" unicode="&#x1ec9;" horiz-adv-x="569" 
d="M543 102v-77q0 -25 -25 -25h-448q-25 0 -25 25v77q0 25 25 25h147v729h-162q-24 0 -24 25v77q0 25 24 25h291q16 0 21.5 -7.5t5.5 -23.5v-825h145q25 0 25 -25zM291 1182l-10 -62q0 -6 -1.5 -7t-9.5 -1h-43q-7 0 -8.5 1t-1.5 7v101q0 22 8 24q16 4 44 11.5t48.5 26
t20.5 58.5q-3 80 -94 80q-25 0 -58 -12t-32 -12q-7 0 -7 6l-14 35v2q0 13 47.5 26t89.5 13q68 0 114 -34.5t46 -111.5q0 -52 -24 -83.5t-56 -46.5t-59 -21z" />
    <glyph glyph-name="ihoanang" unicode="&#x1eca;" horiz-adv-x="682" 
d="M637 109v-84q0 -25 -25 -25h-540q-25 0 -25 25v84q0 24 25 24h186v1137h-186q-25 0 -25 24v84q0 25 25 25h540q25 0 25 -25v-84q0 -24 -25 -24h-186v-1137h186q25 0 25 -24zM446 -236v5q0 -44 -29.5 -74.5t-72.5 -30.5q-44 0 -73 29t-29 74q0 44 29 73t73 29
q43 0 72.5 -30.5t29.5 -74.5z" />
    <glyph glyph-name="ithnang" unicode="&#x1ecb;" horiz-adv-x="569" 
d="M543 102v-77q0 -25 -25 -25h-448q-25 0 -25 25v77q0 25 25 25h147v729h-162q-24 0 -24 25v77q0 25 24 25h291q16 0 21.5 -7.5t5.5 -23.5v-825h145q25 0 25 -25zM401 1255v5q0 -44 -29.5 -74.5t-72.5 -30.5q-44 0 -73 29t-29 73q0 45 29 74t73 29q43 0 72.5 -30.5
t29.5 -74.5zM395 -238v5q0 -44 -29.5 -74.5t-72.5 -30.5t-73 30t-30 72q0 43 30 73t73 30t72.5 -30.5t29.5 -74.5z" />
    <glyph glyph-name="ohoanang" unicode="&#x1ecc;" horiz-adv-x="1139" 
d="M1032 702q0 -223 -48.5 -387.5t-152 -254t-262.5 -89.5t-263 90t-152 254t-48 387q0 164 26.5 298.5t84 232.5t145 148.5t207.5 50.5q121 0 209.5 -52t144 -147t82.5 -228t27 -303zM569 109q84 0 139.5 41t85.5 117t42 183.5t12 251.5q0 197 -22.5 323t-84 197.5
t-172.5 71.5q-109 0 -170.5 -71.5t-84.5 -201.5t-23 -319q0 -144 12 -250.5t42.5 -184t85.5 -118t138 -40.5zM664 -233v4q0 -44 -30.5 -74.5t-72.5 -30.5q-44 0 -73 29t-29 74q0 44 29 73t73 29q42 0 72.5 -29.5t30.5 -74.5z" />
    <glyph glyph-name="othnang" unicode="&#x1ecd;" 
d="M920 498q0 -150 -44 -268.5t-138 -188.5t-238 -70q-198 0 -297 142t-99 374q0 105 24 201t75.5 170t130 114t186.5 40q135 0 225 -66.5t132.5 -182.5t42.5 -265zM514 98q88 0 140.5 49.5t75 138.5t22.5 214q0 169 -56 277t-184 108t-184 -104.5t-56 -274.5
q0 -125 22.5 -215.5t76 -141.5t143.5 -51zM616 -233v4q0 -44 -29.5 -74.5t-72.5 -30.5q-44 0 -73 29t-29 74q0 44 29 73t73 29q43 0 72.5 -29.5t29.5 -74.5z" />
    <glyph glyph-name="ohoahoi" unicode="&#x1ece;" horiz-adv-x="1139" 
d="M1032 702q0 -223 -48.5 -387.5t-152 -254t-262.5 -89.5t-263 90t-152 254t-48 387q0 164 26.5 298.5t84 232.5t145 148.5t207.5 50.5q121 0 209.5 -52t144 -147t82.5 -228t27 -303zM569 109q84 0 139.5 41t85.5 117t42 183.5t12 251.5q0 197 -22.5 323t-84 197.5
t-172.5 71.5q-109 0 -170.5 -71.5t-84.5 -201.5t-23 -319q0 -144 12 -250.5t42.5 -184t85.5 -118t138 -40.5zM602 1624l-10 -61q0 -9 -10 -9h-43q-11 0 -11 9v100q0 23 9 25q15 4 33.5 9t36 12.5t30 26.5t12.5 48q-3 80 -94 80q-27 0 -59 -12.5t-31 -12.5q-6 0 -6 6l-15 35
v2q0 13 50 26t88 13q68 0 113.5 -34.5t45.5 -110.5q0 -118 -139 -152z" />
    <glyph glyph-name="othhoi" unicode="&#x1ecf;" 
d="M920 498q0 -150 -44 -268.5t-138 -188.5t-238 -70q-198 0 -297 142t-99 374q0 105 24 201t75.5 170t130 114t186.5 40q135 0 225 -66.5t132.5 -182.5t42.5 -265zM514 98q88 0 140.5 49.5t75 138.5t22.5 214q0 169 -56 277t-184 108t-184 -104.5t-56 -274.5
q0 -125 22.5 -215.5t76 -141.5t143.5 -51zM545 1204l-10 -61q0 -6 -1.5 -7t-9.5 -1h-43q-7 0 -8.5 1t-1.5 7v100q0 23 8 25q16 4 44 11.5t48.5 26t20.5 58.5q-3 80 -94 80q-27 0 -59 -12.5t-31 -12.5q-7 0 -7 6l-14 35v2q0 13 49 26t88 13q68 0 114 -34.5t46 -110.5
q0 -118 -139 -152z" />
    <glyph glyph-name="obhoasac" unicode="&#x1ed0;" horiz-adv-x="1139" 
d="M1032 702q0 -223 -48.5 -387.5t-152 -254t-262.5 -89.5t-263 90t-152 254t-48 387q0 164 26.5 298.5t84 232.5t145 148.5t207.5 50.5q121 0 209.5 -52t144 -147t82.5 -228t27 -303zM569 109q84 0 139.5 41t85.5 117t42 183.5t12 251.5q0 197 -22.5 323t-84 197.5
t-172.5 71.5q-109 0 -170.5 -71.5t-84.5 -201.5t-23 -319q0 -144 12 -250.5t42.5 -184t85.5 -118t138 -40.5zM795 1542l-41 -33q-3 -6 -9 -6q-10 0 -14 2l-168 111l-166 -111q-1 0 -5 -2t-7 -2q-6 0 -14 12l-21 29q-2 4 -4 7t-2 5q0 3 12 15l203 162l12 6q3 0 15 -6
l202 -162q11 -9 11 -13q0 -6 -4 -14zM1065 1845l-301 -155q-4 -2 -14 -2q-7 0 -13 12l-16 24l-6 15l12 12l266 205q12 6 15 6q8 0 14 -12l53 -78q4 -8 4 -14q0 -9 -14 -13z" />
    <glyph glyph-name="obthsac" unicode="&#x1ed1;" 
d="M920 498q0 -150 -44 -268.5t-138 -188.5t-238 -70q-198 0 -297 142t-99 374q0 105 24 201t75.5 170t130 114t186.5 40q135 0 225 -66.5t132.5 -182.5t42.5 -265zM514 98q88 0 140.5 49.5t75 138.5t22.5 214q0 169 -56 277t-184 108t-184 -104.5t-56 -274.5
q0 -125 22.5 -215.5t76 -141.5t143.5 -51zM729 1122l-41 -32q-3 -7 -8 -7q-10 0 -14 2l-168 111l-166 -111q-1 0 -6 -2t-7 -2q-7 0 -14 13l-20 28q-6 12 -6 13q0 2 12 14l203 162l12 6q2 0 14 -6l203 -162q10 -10 10 -12q0 -7 -4 -15zM999 1425l-301 -155q-4 -2 -14 -2
q-6 0 -12 12l-17 25q-6 12 -6 14q0 1 13 12l266 205q12 6 14 6q8 0 14 -12l54 -78q4 -8 4 -14q0 -10 -15 -13z" />
    <glyph glyph-name="obhoahuyen" unicode="&#x1ed2;" horiz-adv-x="1139" 
d="M1032 702q0 -223 -48.5 -387.5t-152 -254t-262.5 -89.5t-263 90t-152 254t-48 387q0 164 26.5 298.5t84 232.5t145 148.5t207.5 50.5q121 0 209.5 -52t144 -147t82.5 -228t27 -303zM569 109q84 0 139.5 41t85.5 117t42 183.5t12 251.5q0 197 -22.5 323t-84 197.5
t-172.5 71.5q-109 0 -170.5 -71.5t-84.5 -201.5t-23 -319q0 -144 12 -250.5t42.5 -184t85.5 -118t138 -40.5zM795 1542l-41 -33q-3 -6 -9 -6q-10 0 -14 2l-168 111l-166 -111q-1 0 -5 -2t-7 -2q-6 0 -14 12l-21 29q-2 4 -4 7t-2 5q0 3 12 15l203 162l12 6q3 0 15 -6
l202 -162q11 -9 11 -13q0 -6 -4 -14zM573 2009l267 -205l12 -12q0 -2 -6 -14l-17 -25q-6 -12 -12 -12q-10 0 -14 2l-301 155q-15 6 -15 13t5 14l53 78l7 7t7 5q4 0 9.5 -3t4.5 -3z" />
    <glyph glyph-name="obthhuyen" unicode="&#x1ed3;" 
d="M920 498q0 -150 -44 -268.5t-138 -188.5t-238 -70q-198 0 -297 142t-99 374q0 105 24 201t75.5 170t130 114t186.5 40q135 0 225 -66.5t132.5 -182.5t42.5 -265zM514 98q88 0 140.5 49.5t75 138.5t22.5 214q0 169 -56 277t-184 108t-184 -104.5t-56 -274.5
q0 -125 22.5 -215.5t76 -141.5t143.5 -51zM729 1122l-41 -32q-3 -7 -8 -7q-10 0 -14 2l-168 111l-166 -111q-1 0 -6 -2t-7 -2q-7 0 -14 13l-20 28q-6 12 -6 13q0 2 12 14l203 162l12 6q2 0 14 -6l203 -162q10 -10 10 -12q0 -7 -4 -15zM508 1589l266 -205l12 -12q0 -2 -6 -14
l-16 -25q-6 -12 -12 -12q-11 0 -15 2l-301 156q-14 3 -14 12q0 6 4 14l53 78l7 7t8 5q4 0 9.5 -3t4.5 -3z" />
    <glyph glyph-name="obhoahoi" unicode="&#x1ed4;" horiz-adv-x="1139" 
d="M1032 702q0 -223 -48.5 -387.5t-152 -254t-262.5 -89.5t-263 90t-152 254t-48 387q0 164 26.5 298.5t84 232.5t145 148.5t207.5 50.5q121 0 209.5 -52t144 -147t82.5 -228t27 -303zM569 109q84 0 139.5 41t85.5 117t42 183.5t12 251.5q0 197 -22.5 323t-84 197.5
t-172.5 71.5q-109 0 -170.5 -71.5t-84.5 -201.5t-23 -319q0 -144 12 -250.5t42.5 -184t85.5 -118t138 -40.5zM795 1542l-41 -33q-3 -6 -9 -6q-10 0 -14 2l-168 111l-166 -111q-1 0 -5 -2t-7 -2q-6 0 -14 12l-21 29q-2 4 -4 7t-2 5q0 3 12 15l203 162l12 6q3 0 15 -6
l202 -162q11 -9 11 -13q0 -6 -4 -14zM811 1776l-10 -62q0 -8 -10 -8h-43q-8 0 -9.5 1t-1.5 7v101q0 22 8 24q16 4 44 11.5t48.5 26t20.5 58.5q-3 80 -94 80q-25 0 -58 -12t-32 -12q-6 0 -6 6l-15 35v2q0 13 48.5 26t89.5 13q67 0 113 -34.5t46 -111.5q0 -53 -24 -84.5
t-53.5 -45.5t-61.5 -21z" />
    <glyph glyph-name="obthhoi" unicode="&#x1ed5;" 
d="M920 498q0 -150 -44 -268.5t-138 -188.5t-238 -70q-198 0 -297 142t-99 374q0 105 24 201t75.5 170t130 114t186.5 40q135 0 225 -66.5t132.5 -182.5t42.5 -265zM514 98q88 0 140.5 49.5t75 138.5t22.5 214q0 169 -56 277t-184 108t-184 -104.5t-56 -274.5
q0 -125 22.5 -215.5t76 -141.5t143.5 -51zM729 1122l-41 -32q-3 -7 -8 -7q-10 0 -14 2l-168 111l-166 -111q-1 0 -6 -2t-7 -2q-7 0 -14 13l-20 28q-6 12 -6 13q0 2 12 14l203 162l12 6q2 0 14 -6l203 -162q10 -10 10 -12q0 -7 -4 -15zM745 1356l-10 -62q0 -8 -10 -8h-43
q-7 0 -8.5 1t-1.5 7v101q0 22 8 24q3 2 36.5 10.5t55 27.5t21.5 59q-3 79 -95 79q-25 0 -58 -12t-32 -12q-6 0 -6 6l-14 35v2q0 13 47.5 26t89.5 13q68 0 114 -34.5t46 -111.5q0 -117 -140 -151z" />
    <glyph glyph-name="obhoanga" unicode="&#x1ed6;" horiz-adv-x="1139" 
d="M1032 702q0 -223 -48.5 -387.5t-152 -254t-262.5 -89.5t-263 90t-152 254t-48 387q0 164 26.5 298.5t84 232.5t145 148.5t207.5 50.5q121 0 209.5 -52t144 -147t82.5 -228t27 -303zM569 109q84 0 139.5 41t85.5 117t42 183.5t12 251.5q0 197 -22.5 323t-84 197.5
t-172.5 71.5q-109 0 -170.5 -71.5t-84.5 -201.5t-23 -319q0 -144 12 -250.5t42.5 -184t85.5 -118t138 -40.5zM795 1542l-41 -33q-3 -6 -9 -6q-10 0 -14 2l-168 111l-166 -111q-1 0 -5 -2t-7 -2q-6 0 -14 12l-21 29q-2 4 -4 7t-2 5q0 3 12 15l203 162l12 6q3 0 15 -6
l202 -162q11 -9 11 -13q0 -6 -4 -14zM797 1980l49 -20q10 -5 10 -10q0 -7 -10 -29t-31 -49.5t-53 -46.5t-74 -19t-108 37q-60 37 -95 37q-23 0 -39 -14.5t-30.5 -36t-22.5 -21.5h-6l-49 19q-12 4 -12 12q0 9 19.5 44.5t57 67t89.5 31.5q44 0 110 -36q64 -37 90 -37
q31 0 48.5 14t30 35.5t17.5 21.5h9z" />
    <glyph glyph-name="obthnga" unicode="&#x1ed7;" 
d="M920 498q0 -150 -44 -268.5t-138 -188.5t-238 -70q-198 0 -297 142t-99 374q0 105 24 201t75.5 170t130 114t186.5 40q135 0 225 -66.5t132.5 -182.5t42.5 -265zM514 98q88 0 140.5 49.5t75 138.5t22.5 214q0 169 -56 277t-184 108t-184 -104.5t-56 -274.5
q0 -125 22.5 -215.5t76 -141.5t143.5 -51zM729 1122l-41 -32q-3 -7 -8 -7q-10 0 -14 2l-168 111l-166 -111q-1 0 -6 -2t-7 -2q-7 0 -14 13l-20 28q-6 12 -6 13q0 2 12 14l203 162l12 6q2 0 14 -6l203 -162q10 -10 10 -12q0 -7 -4 -15zM731 1561l49 -21q11 -6 11 -10
q0 -10 -21 -47.5t-59 -67t-88 -29.5q-41 0 -109 37q-60 37 -94 37q-24 0 -38 -12.5t-31 -35.5t-23 -23h-6l-50 18q-12 4 -12 12q0 10 20 46t57 67t89 31q43 0 111 -37q62 -37 90 -37q32 0 49 15t28.5 36t18.5 21h8z" />
    <glyph glyph-name="obhoanang" unicode="&#x1ed8;" horiz-adv-x="1139" 
d="M1032 702q0 -223 -48.5 -387.5t-152 -254t-262.5 -89.5t-263 90t-152 254t-48 387q0 164 26.5 298.5t84 232.5t145 148.5t207.5 50.5q121 0 209.5 -52t144 -147t82.5 -228t27 -303zM569 109q84 0 139.5 41t85.5 117t42 183.5t12 251.5q0 197 -22.5 323t-84 197.5
t-172.5 71.5q-109 0 -170.5 -71.5t-84.5 -201.5t-23 -319q0 -144 12 -250.5t42.5 -184t85.5 -118t138 -40.5zM795 1542l-41 -33q-3 -6 -9 -6q-10 0 -14 2l-168 111l-166 -111q-1 0 -5 -2t-7 -2q-6 0 -14 12l-21 29q-2 4 -4 7t-2 5q0 3 12 15l203 162l12 6q3 0 15 -6
l202 -162q11 -9 11 -13q0 -6 -4 -14zM637 -236v5q0 -44 -29.5 -74.5t-72.5 -30.5q-45 0 -74 29t-29 74q0 44 29 73t74 29q43 0 72.5 -30.5t29.5 -74.5z" />
    <glyph glyph-name="obthnang" unicode="&#x1ed9;" 
d="M920 498q0 -150 -44 -268.5t-138 -188.5t-238 -70q-198 0 -297 142t-99 374q0 105 24 201t75.5 170t130 114t186.5 40q135 0 225 -66.5t132.5 -182.5t42.5 -265zM514 98q88 0 140.5 49.5t75 138.5t22.5 214q0 169 -56 277t-184 108t-184 -104.5t-56 -274.5
q0 -125 22.5 -215.5t76 -141.5t143.5 -51zM729 1122l-41 -32q-3 -7 -8 -7q-10 0 -14 2l-168 111l-166 -111q-1 0 -6 -2t-7 -2q-7 0 -14 13l-20 28q-6 12 -6 13q0 2 12 14l203 162l12 6q2 0 14 -6l203 -162q10 -10 10 -12q0 -7 -4 -15zM602 -236v5q0 -44 -29.5 -74.5
t-72.5 -30.5q-45 0 -74 29t-29 74q0 44 29 73t74 29q43 0 72.5 -30.5t29.5 -74.5z" />
    <glyph glyph-name="ochoasac" unicode="&#x1eda;" horiz-adv-x="1139" 
d="M1032 702q0 -223 -48.5 -387.5t-152 -254t-262.5 -89.5t-263 90t-152 254t-48 387q0 164 26.5 298.5t84 232.5t145 148.5t207.5 50.5q98 0 174.5 -34.5t131 -98t88.5 -154.5q47 7 78.5 44.5t31.5 82.5h-6h-35v162h131v-201q0 -68 -52.5 -109t-123.5 -41q45 -168 45 -381z
M569 109q84 0 139.5 41t85.5 117t42 183.5t12 251.5q0 197 -22.5 323t-84 197.5t-172.5 71.5q-109 0 -170.5 -71.5t-84.5 -201.5t-23 -319q0 -144 12 -250.5t42.5 -184t85.5 -118t138 -40.5zM795 1694l-301 -156q-5 -2 -15 -2q-6 0 -12 12l-16 25q-2 4 -4.5 7.5t-2.5 6.5
q0 -1 13 12l266 205q12 6 14 6q9 0 15 -12l53 -78q4 -8 4 -14q0 -8 -14 -12z" />
    <glyph glyph-name="octhsac" unicode="&#x1edb;" 
d="M920 498q0 -150 -44 -268.5t-138 -188.5t-238 -70q-198 0 -297 142t-99 374q0 105 24 201t75.5 170t130 114t186.5 40q157 0 245 -81t124 -204q29 3 51.5 20.5t36.5 45t14 57.5h-6h-35v162h131v-201q0 -68 -52 -108.5t-124 -40.5q15 -66 15 -164zM514 98q88 0 140.5 49.5
t75 138.5t22.5 214q0 169 -56 277t-184 108t-184 -104.5t-56 -274.5q0 -125 22.5 -215.5t76 -141.5t143.5 -51zM717 1274l-301 -156q-4 -2 -15 -2q-6 0 -12 12l-16 25q-6 12 -6 14q0 1 12 13l266 204q3 2 6.5 4.5t7.5 2.5q8 0 15 -13l53 -78q4 -8 4 -14q0 -8 -14 -12z" />
    <glyph glyph-name="ochoahuyen" unicode="&#x1edc;" horiz-adv-x="1139" 
d="M1032 702q0 -223 -48.5 -387.5t-152 -254t-262.5 -89.5t-263 90t-152 254t-48 387q0 164 26.5 298.5t84 232.5t145 148.5t207.5 50.5q98 0 174.5 -34.5t131 -98t88.5 -154.5q47 7 78.5 44.5t31.5 82.5h-6h-35v162h131v-201q0 -68 -52.5 -109t-123.5 -41q45 -168 45 -381z
M569 109q84 0 139.5 41t85.5 117t42 183.5t12 251.5q0 197 -22.5 323t-84 197.5t-172.5 71.5q-109 0 -170.5 -71.5t-84.5 -201.5t-23 -319q0 -144 12 -250.5t42.5 -184t85.5 -118t138 -40.5zM477 1796l266 -205q13 -11 13 -12q0 -2 -6 -14l-17 -25q-6 -12 -12 -12
q-10 0 -14 2l-301 156q-15 3 -15 12q0 6 4 14l54 78l7 7t7 5q4 0 9.5 -3t4.5 -3z" />
    <glyph glyph-name="octhhuyen" unicode="&#x1edd;" 
d="M920 498q0 -150 -44 -268.5t-138 -188.5t-238 -70q-198 0 -297 142t-99 374q0 105 24 201t75.5 170t130 114t186.5 40q157 0 245 -81t124 -204q29 3 51.5 20.5t36.5 45t14 57.5h-6h-35v162h131v-201q0 -68 -52 -108.5t-124 -40.5q15 -66 15 -164zM514 98q88 0 140.5 49.5
t75 138.5t22.5 214q0 169 -56 277t-184 108t-184 -104.5t-56 -274.5q0 -125 22.5 -215.5t76 -141.5t143.5 -51zM410 1366l266 -205l12 -12q0 -2 -6 -14l-16 -25q-6 -12 -13 -12q-10 0 -14 2l-301 155q-14 3 -14 13q0 6 4 14l53 78l7 7t7 5q4 0 11 -3t4 -3z" />
    <glyph glyph-name="ochoahoi" unicode="&#x1ede;" horiz-adv-x="1139" 
d="M1032 702q0 -223 -48.5 -387.5t-152 -254t-262.5 -89.5t-263 90t-152 254t-48 387q0 164 26.5 298.5t84 232.5t145 148.5t207.5 50.5q98 0 174.5 -34.5t131 -98t88.5 -154.5q47 7 78.5 44.5t31.5 82.5h-6h-35v162h131v-201q0 -68 -52.5 -109t-123.5 -41q45 -168 45 -381z
M569 109q84 0 139.5 41t85.5 117t42 183.5t12 251.5q0 197 -22.5 323t-84 197.5t-172.5 71.5q-109 0 -170.5 -71.5t-84.5 -201.5t-23 -319q0 -144 12 -250.5t42.5 -184t85.5 -118t138 -40.5zM602 1624l-10 -61q0 -9 -10 -9h-43q-11 0 -11 9v100q0 23 9 25q15 4 33.5 9
t36 12.5t30 26.5t12.5 48q-3 80 -94 80q-27 0 -59 -12.5t-31 -12.5q-6 0 -6 6l-15 35v2q0 13 50 26t88 13q68 0 113.5 -34.5t45.5 -110.5q0 -118 -139 -152z" />
    <glyph glyph-name="octhhoi" unicode="&#x1edf;" 
d="M920 498q0 -150 -44 -268.5t-138 -188.5t-238 -70q-198 0 -297 142t-99 374q0 105 24 201t75.5 170t130 114t186.5 40q157 0 245 -81t124 -204q29 3 51.5 20.5t36.5 45t14 57.5h-6h-35v162h131v-201q0 -68 -52 -108.5t-124 -40.5q15 -66 15 -164zM514 98q88 0 140.5 49.5
t75 138.5t22.5 214q0 169 -56 277t-184 108t-184 -104.5t-56 -274.5q0 -125 22.5 -215.5t76 -141.5t143.5 -51zM545 1204l-10 -61q0 -6 -1.5 -7t-9.5 -1h-43q-7 0 -8.5 1t-1.5 7v100q0 23 8 25q16 4 44 11.5t48.5 26t20.5 58.5q-3 80 -94 80q-27 0 -59 -12.5t-31 -12.5
q-7 0 -7 6l-14 35v2q0 13 49 26t88 13q68 0 114 -34.5t46 -110.5q0 -118 -139 -152z" />
    <glyph glyph-name="ochoanga" unicode="&#x1ee0;" horiz-adv-x="1139" 
d="M1032 702q0 -223 -48.5 -387.5t-152 -254t-262.5 -89.5t-263 90t-152 254t-48 387q0 164 26.5 298.5t84 232.5t145 148.5t207.5 50.5q98 0 174.5 -34.5t131 -98t88.5 -154.5q47 7 78.5 44.5t31.5 82.5h-6h-35v162h131v-201q0 -68 -52.5 -109t-123.5 -41q45 -168 45 -381z
M569 109q84 0 139.5 41t85.5 117t42 183.5t12 251.5q0 197 -22.5 323t-84 197.5t-172.5 71.5q-109 0 -170.5 -71.5t-84.5 -201.5t-23 -319q0 -144 12 -250.5t42.5 -184t85.5 -118t138 -40.5zM772 1706l49 -20q10 -8 10 -11q0 -10 -20 -46.5t-57 -66.5t-90 -30q-45 0 -109 37
t-94 37q-25 0 -39.5 -14t-30.5 -36t-22 -22h-7l-49 18q-12 4 -12 13t19.5 44.5t57 67t89.5 31.5q47 0 111 -37q66 -37 90 -37q32 0 49 15t28.5 36t18.5 21h8z" />
    <glyph glyph-name="octhnga" unicode="&#x1ee1;" 
d="M920 498q0 -150 -44 -268.5t-138 -188.5t-238 -70q-198 0 -297 142t-99 374q0 105 24 201t75.5 170t130 114t186.5 40q157 0 245 -81t124 -204q29 3 51.5 20.5t36.5 45t14 57.5h-6h-35v162h131v-201q0 -68 -52 -108.5t-124 -40.5q15 -66 15 -164zM514 98q88 0 140.5 49.5
t75 138.5t22.5 214q0 169 -56 277t-184 108t-184 -104.5t-56 -274.5q0 -125 22.5 -215.5t76 -141.5t143.5 -51zM735 1286l49 -20q11 -6 11 -11q0 -10 -20.5 -47t-57.5 -66.5t-90 -29.5q-45 0 -109 37t-94 37q-25 0 -39.5 -14t-30.5 -36t-22 -22h-6l-50 19q-12 4 -12 12
q0 9 19.5 44.5t57 67t89.5 31.5q47 0 111 -37q66 -37 90 -37q32 0 49.5 15t29 36t17.5 21h8z" />
    <glyph glyph-name="ochoanang" unicode="&#x1ee2;" horiz-adv-x="1139" 
d="M1032 702q0 -223 -48.5 -387.5t-152 -254t-262.5 -89.5t-263 90t-152 254t-48 387q0 164 26.5 298.5t84 232.5t145 148.5t207.5 50.5q98 0 174.5 -34.5t131 -98t88.5 -154.5q47 7 78.5 44.5t31.5 82.5h-6h-35v162h131v-201q0 -68 -52.5 -109t-123.5 -41q45 -168 45 -381z
M569 109q84 0 139.5 41t85.5 117t42 183.5t12 251.5q0 197 -22.5 323t-84 197.5t-172.5 71.5q-109 0 -170.5 -71.5t-84.5 -201.5t-23 -319q0 -144 12 -250.5t42.5 -184t85.5 -118t138 -40.5zM664 -233v4q0 -44 -30.5 -74.5t-72.5 -30.5q-44 0 -73 29t-29 74q0 44 29 73
t73 29q42 0 72.5 -29.5t30.5 -74.5z" />
    <glyph glyph-name="octhnang" unicode="&#x1ee3;" 
d="M920 498q0 -150 -44 -268.5t-138 -188.5t-238 -70q-198 0 -297 142t-99 374q0 105 24 201t75.5 170t130 114t186.5 40q157 0 245 -81t124 -204q29 3 51.5 20.5t36.5 45t14 57.5h-6h-35v162h131v-201q0 -68 -52 -108.5t-124 -40.5q15 -66 15 -164zM514 98q88 0 140.5 49.5
t75 138.5t22.5 214q0 169 -56 277t-184 108t-184 -104.5t-56 -274.5q0 -125 22.5 -215.5t76 -141.5t143.5 -51zM616 -233v4q0 -44 -29.5 -74.5t-72.5 -30.5q-44 0 -73 29t-29 74q0 44 29 73t73 29q43 0 72.5 -29.5t29.5 -74.5z" />
    <glyph glyph-name="uhoanang" unicode="&#x1ee4;" horiz-adv-x="1251" 
d="M1069 1270v-893q0 -191 -111 -298.5t-340 -107.5q-152 0 -245.5 49t-135.5 139.5t-42 217.5v893h-132q-24 0 -24 24v84q0 25 24 25h431q24 0 24 -25v-84q0 -24 -24 -24h-132v-889q0 -138 57.5 -205t201.5 -67q140 0 210 66.5t70 205.5v889h-131q-25 0 -25 24v84
q0 25 25 25h430q25 0 25 -25v-84q0 -24 -25 -24h-131zM735 -223v4q0 -44 -29.5 -74.5t-72.5 -30.5q-45 0 -74 29t-29 74q0 44 29 73t74 29q43 0 72.5 -29.5t29.5 -74.5z" />
    <glyph glyph-name="uthnang" unicode="&#x1ee5;" horiz-adv-x="1100" 
d="M1059 102v-77q0 -25 -25 -25h-172q-21 0 -35.5 10.5t-23.5 26t-16 33t-11 22.5q-60 -49 -134 -85t-150 -36q-129 0 -195 43t-85 107t-19 158v577h-115q-25 0 -25 25v77q0 25 25 25h246q24 0 24 -25v-684q0 -165 168 -165q53 0 118 31.5t116 72.5v643h-117q-25 0 -25 25
v77q0 25 25 25h248q24 0 24 -25v-702q0 -58 13 -129h116q25 0 25 -25zM690 -223v4q0 -44 -29.5 -74.5t-72.5 -30.5q-45 0 -74 29t-29 74q0 44 29 73t74 29q43 0 72.5 -29.5t29.5 -74.5z" />
    <glyph glyph-name="uhoahoi" unicode="&#x1ee6;" horiz-adv-x="1251" 
d="M1069 1270v-893q0 -191 -111 -298.5t-340 -107.5q-152 0 -245.5 49t-135.5 139.5t-42 217.5v893h-132q-24 0 -24 24v84q0 25 24 25h431q24 0 24 -25v-84q0 -24 -24 -24h-132v-889q0 -138 57.5 -205t201.5 -67q140 0 210 66.5t70 205.5v889h-131q-25 0 -25 24v84
q0 25 25 25h430q25 0 25 -25v-84q0 -24 -25 -24h-131zM684 1595l-10 -61q0 -8 -10 -8h-43q-8 0 -9.5 1t-1.5 7v100q0 23 8 25q16 4 44 11.5t48.5 26t20.5 58.5q-3 80 -94 80q-27 0 -59 -12.5t-31 -12.5q-6 0 -6 7l-15 34v2q0 13 50 26t88 13q69 0 114 -34t45 -111
q0 -75 -41 -105.5t-98 -46.5z" />
    <glyph glyph-name="uthhoi" unicode="&#x1ee7;" horiz-adv-x="1100" 
d="M1059 102v-77q0 -25 -25 -25h-172q-21 0 -35.5 10.5t-23.5 26t-16 33t-11 22.5q-60 -49 -134 -85t-150 -36q-129 0 -195 43t-85 107t-19 158v577h-115q-25 0 -25 25v77q0 25 25 25h246q24 0 24 -25v-684q0 -165 168 -165q53 0 118 31.5t116 72.5v643h-117q-25 0 -25 25
v77q0 25 25 25h248q24 0 24 -25v-702q0 -58 13 -129h116q25 0 25 -25zM588 1196l-10 -61q0 -9 -11 -9h-43q-7 0 -8.5 1t-1.5 8v100q0 22 8 25q16 4 44 11.5t48.5 26t20.5 58.5q-3 80 -94 80q-27 0 -59 -12.5t-31 -12.5q-7 0 -7 6l-14 35v2q0 13 49 26t88 13q68 0 114 -34.5
t46 -110.5q0 -118 -139 -152z" />
    <glyph glyph-name="uchoasac" unicode="&#x1ee8;" horiz-adv-x="1251" 
d="M1069 1270v-148q49 1 83 36.5t34 82.5h-6h-35v162h131v-201q0 -44 -32 -78t-79.5 -52.5t-95.5 -18.5v-676q0 -191 -111 -298.5t-340 -107.5q-152 0 -245.5 49t-135.5 139.5t-42 217.5v893h-132q-24 0 -24 24v84q0 25 24 25h431q24 0 24 -25v-84q0 -24 -24 -24h-132v-889
q0 -138 57.5 -205t201.5 -67q140 0 210 66.5t70 205.5v889h-131q-25 0 -25 24v84q0 25 25 25h299v-133zM958 1653l-301 -156q-4 -2 -14 -2q-6 0 -12 12l-17 25q-6 12 -6 14l13 13l266 204q12 6 14 6q8 0 14 -12l54 -78q4 -8 4 -14q0 -9 -15 -12z" />
    <glyph glyph-name="ucthsac" unicode="&#x1ee9;" horiz-adv-x="1100" 
d="M1059 102v-77q0 -25 -25 -25h-172q-21 0 -35.5 10.5t-23.5 26t-16 33t-11 22.5q-60 -49 -134 -85t-150 -36q-129 0 -195 43t-85 107t-19 158v577h-115q-25 0 -25 25v77q0 25 25 25h246q24 0 24 -25v-684q0 -165 168 -165q53 0 118 31.5t116 72.5v643h-117q-25 0 -25 25
v77q0 25 25 25h248q24 0 24 -25v-256q52 3 84.5 38t32.5 81h-6h-35v162h131v-201q0 -44 -32 -78t-79.5 -52.5t-95.5 -18.5v-377q0 -58 13 -129h116q25 0 25 -25zM791 1266l-302 -156q-4 -2 -14 -2q-6 0 -12 12l-17 25q-6 12 -6 14q0 1 13 12l266 205q12 6 14 6q6 0 15 -12
l53 -78q4 -8 4 -14q0 -8 -14 -12z" />
    <glyph glyph-name="uchoahuyen" unicode="&#x1eea;" horiz-adv-x="1251" 
d="M1069 1270v-148q49 1 83 36.5t34 82.5h-6h-35v162h131v-201q0 -44 -32 -78t-79.5 -52.5t-95.5 -18.5v-676q0 -191 -111 -298.5t-340 -107.5q-152 0 -245.5 49t-135.5 139.5t-42 217.5v893h-132q-24 0 -24 24v84q0 25 24 25h431q24 0 24 -25v-84q0 -24 -24 -24h-132v-889
q0 -138 57.5 -205t201.5 -67q140 0 210 66.5t70 205.5v889h-131q-25 0 -25 24v84q0 25 25 25h299v-133zM569 1786l267 -205l12 -12l-6 -15l-17 -24q-6 -12 -12 -12q-10 0 -14 2l-301 155q-15 3 -15 13q0 6 4 14l54 78l7 7t7 5q4 0 9.5 -3t4.5 -3z" />
    <glyph glyph-name="ucthhuyen" unicode="&#x1eeb;" horiz-adv-x="1100" 
d="M1059 102v-77q0 -25 -25 -25h-172q-21 0 -35.5 10.5t-23.5 26t-16 33t-11 22.5q-60 -49 -134 -85t-150 -36q-129 0 -195 43t-85 107t-19 158v577h-115q-25 0 -25 25v77q0 25 25 25h246q24 0 24 -25v-684q0 -165 168 -165q53 0 118 31.5t116 72.5v643h-117q-25 0 -25 25
v77q0 25 25 25h248q24 0 24 -25v-256q52 3 84.5 38t32.5 81h-6h-35v162h131v-201q0 -44 -32 -78t-79.5 -52.5t-95.5 -18.5v-377q0 -58 13 -129h116q25 0 25 -25zM453 1368l266 -205l12 -12q0 -2 -6 -14l-16 -25q-6 -12 -13 -12q-10 0 -14 2l-301 155q-14 5 -14 13q0 6 4 14
l53 78l7 7t7 5q4 0 11 -3t4 -3z" />
    <glyph glyph-name="uchoahoi" unicode="&#x1eec;" horiz-adv-x="1251" 
d="M1069 1270v-148q49 1 83 36.5t34 82.5h-6h-35v162h131v-201q0 -44 -32 -78t-79.5 -52.5t-95.5 -18.5v-676q0 -191 -111 -298.5t-340 -107.5q-152 0 -245.5 49t-135.5 139.5t-42 217.5v893h-132q-24 0 -24 24v84q0 25 24 25h431q24 0 24 -25v-84q0 -24 -24 -24h-132v-889
q0 -138 57.5 -205t201.5 -67q140 0 210 66.5t70 205.5v889h-131q-25 0 -25 24v84q0 25 25 25h299v-133zM694 1583l-10 -61q0 -9 -10 -9h-43q-7 0 -8.5 1t-1.5 8v100q0 23 8 25q15 4 33.5 9t36 12.5t30 26.5t12.5 48q-3 80 -94 80q-27 0 -59 -12.5t-31 -12.5q-6 0 -6 6
l-14 35v2q0 13 49 26t88 13q68 0 114 -34.5t46 -110.5q0 -118 -140 -152z" />
    <glyph glyph-name="ucthhoi" unicode="&#x1eed;" horiz-adv-x="1100" 
d="M1059 102v-77q0 -25 -25 -25h-172q-21 0 -35.5 10.5t-23.5 26t-16 33t-11 22.5q-60 -49 -134 -85t-150 -36q-129 0 -195 43t-85 107t-19 158v577h-115q-25 0 -25 25v77q0 25 25 25h246q24 0 24 -25v-684q0 -165 168 -165q53 0 118 31.5t116 72.5v643h-117q-25 0 -25 25
v77q0 25 25 25h248q24 0 24 -25v-256q52 3 84.5 38t32.5 81h-6h-35v162h131v-201q0 -44 -32 -78t-79.5 -52.5t-95.5 -18.5v-377q0 -58 13 -129h116q25 0 25 -25zM588 1196l-10 -61q0 -9 -11 -9h-43q-7 0 -8.5 1t-1.5 8v100q0 22 8 25q16 4 44 11.5t48.5 26t20.5 58.5
q-3 80 -94 80q-27 0 -59 -12.5t-31 -12.5q-7 0 -7 6l-14 35v2q0 13 49 26t88 13q68 0 114 -34.5t46 -110.5q0 -118 -139 -152z" />
    <glyph glyph-name="uchoanga" unicode="&#x1eee;" horiz-adv-x="1251" 
d="M1069 1270v-148q49 1 83 36.5t34 82.5h-6h-35v162h131v-201q0 -44 -32 -78t-79.5 -52.5t-95.5 -18.5v-676q0 -191 -111 -298.5t-340 -107.5q-152 0 -245.5 49t-135.5 139.5t-42 217.5v893h-132q-24 0 -24 24v84q0 25 24 25h431q24 0 24 -25v-84q0 -24 -24 -24h-132v-889
q0 -138 57.5 -205t201.5 -67q140 0 210 66.5t70 205.5v889h-131q-25 0 -25 24v84q0 25 25 25h299v-133zM874 1686l50 -21q10 -5 10 -10q0 -7 -10 -29t-31 -49.5t-53 -46.5t-74 -19q-41 0 -109 37q-58 37 -94 37q-25 0 -39.5 -14t-30.5 -36t-22 -22h-6l-49 19q-13 4 -13 12
t20 45t56.5 68t89.5 31q43 0 111 -37q64 -37 90 -37q32 0 49.5 15t29 36t17.5 21h8z" />
    <glyph glyph-name="ucthnga" unicode="&#x1eef;" horiz-adv-x="1100" 
d="M1059 102v-77q0 -25 -25 -25h-172q-21 0 -35.5 10.5t-23.5 26t-16 33t-11 22.5q-60 -49 -134 -85t-150 -36q-129 0 -195 43t-85 107t-19 158v577h-115q-25 0 -25 25v77q0 25 25 25h246q24 0 24 -25v-684q0 -165 168 -165q53 0 118 31.5t116 72.5v643h-117q-25 0 -25 25
v77q0 25 25 25h248q24 0 24 -25v-256q52 3 84.5 38t32.5 81h-6h-35v162h131v-201q0 -44 -32 -78t-79.5 -52.5t-95.5 -18.5v-377q0 -58 13 -129h116q25 0 25 -25zM737 1278l49 -21q11 -4 11 -10q0 -10 -20.5 -47t-57.5 -66.5t-90 -29.5q-45 0 -109 37t-94 37q-25 0 -39.5 -14
t-30.5 -36t-22 -22h-6l-49 18q-13 4 -13 13t19.5 44.5t57 67t89.5 31.5q47 0 111 -37q66 -37 90 -37q32 0 49.5 15t29 36t17.5 21h8z" />
    <glyph glyph-name="uchoanang" unicode="&#x1ef0;" horiz-adv-x="1251" 
d="M1069 1270v-148q49 1 83 36.5t34 82.5h-6h-35v162h131v-201q0 -44 -32 -78t-79.5 -52.5t-95.5 -18.5v-676q0 -191 -111 -298.5t-340 -107.5q-152 0 -245.5 49t-135.5 139.5t-42 217.5v893h-132q-24 0 -24 24v84q0 25 24 25h431q24 0 24 -25v-84q0 -24 -24 -24h-132v-889
q0 -138 57.5 -205t201.5 -67q140 0 210 66.5t70 205.5v889h-131q-25 0 -25 24v84q0 25 25 25h299v-133zM745 -236v5q0 -44 -29.5 -74.5t-72.5 -30.5q-44 0 -73 29t-29 74q0 44 29 73t73 29q43 0 72.5 -30.5t29.5 -74.5z" />
    <glyph glyph-name="ucthnang" unicode="&#x1ef1;" horiz-adv-x="1100" 
d="M1059 102v-77q0 -25 -25 -25h-172q-21 0 -35.5 10.5t-23.5 26t-16 33t-11 22.5q-60 -49 -134 -85t-150 -36q-129 0 -195 43t-85 107t-19 158v577h-115q-25 0 -25 25v77q0 25 25 25h246q24 0 24 -25v-684q0 -165 168 -165q53 0 118 31.5t116 72.5v643h-117q-25 0 -25 25
v77q0 25 25 25h248q24 0 24 -25v-256q52 3 84.5 38t32.5 81h-6h-35v162h131v-201q0 -44 -32 -78t-79.5 -52.5t-95.5 -18.5v-377q0 -58 13 -129h116q25 0 25 -25zM690 -223v4q0 -44 -29.5 -74.5t-72.5 -30.5q-45 0 -74 29t-29 74q0 44 29 73t74 29q43 0 72.5 -29.5
t29.5 -74.5z" />
    <glyph glyph-name="yhoahuyen" unicode="&#x1ef2;" horiz-adv-x="1100" 
d="M807 109v-84q0 -25 -25 -25h-454q-25 0 -25 25v84q0 24 25 24h143v459l-360 678h-76q-25 0 -25 24v86q0 23 25 23h395q23 0 23 -23v-86q0 -24 -23 -24h-123l203 -414q23 -42 53 -106q21 51 58 127l184 393h-127q-23 0 -23 24v86q0 23 23 23h397q23 0 23 -23v-86
q0 -24 -23 -24h-88l-348 -674v-463h143q25 0 25 -24zM430 1788l266 -205q13 -13 13 -12q0 -3 -7 -15l-16 -24q-6 -12 -12 -12q-10 0 -15 2l-301 155q-14 3 -14 13q0 6 4 14l53 78q3 2 8 7t7 5q4 0 9.5 -3t4.5 -3z" />
    <glyph glyph-name="ythhuyen" unicode="&#x1ef3;" 
d="M913 856l-211 -729q-76 -268 -141 -408q-30 -65 -95 -107t-147 -42q-81 0 -169.5 39t-88.5 63q0 6 5 13l40 82q5 10 15 10q6 0 42.5 -23.5t72.5 -40t81 -16.5q101 0 156 174l43 129h-74q-13 0 -17 3.5t-9 14.5l-295 838h-82q-25 0 -25 25v77q0 25 25 25h375q24 0 24 -25
v-71q0 -23 -24 -23h-131l223 -657q22 -65 41 -148h4q14 90 31 144l172 661h-123q-23 0 -23 23v71q0 25 23 25h358q25 0 25 -25v-77q0 -25 -25 -25h-76zM401 1368l267 -205l12 -12q0 -2 -6 -14l-17 -25q-6 -12 -12 -12q-10 0 -14 2l-301 155q-15 6 -15 13q0 6 4 14l54 78l7 7
t7 5q4 0 9.5 -3t4.5 -3z" />
    <glyph glyph-name="yhoanang" unicode="&#x1ef4;" horiz-adv-x="1100" 
d="M807 109v-84q0 -25 -25 -25h-454q-25 0 -25 25v84q0 24 25 24h143v459l-360 678h-76q-25 0 -25 24v86q0 23 25 23h395q23 0 23 -23v-86q0 -24 -23 -24h-123l203 -414q23 -42 53 -106q21 51 58 127l184 393h-127q-23 0 -23 24v86q0 23 23 23h397q23 0 23 -23v-86
q0 -24 -23 -24h-88l-348 -674v-463h143q25 0 25 -24zM657 -225v4q0 -44 -29.5 -74.5t-72.5 -30.5q-44 0 -73 29t-29 74q0 44 29 73t73 29q43 0 72.5 -29.5t29.5 -74.5z" />
    <glyph glyph-name="ythnang" unicode="&#x1ef5;" 
d="M913 856l-211 -729q-76 -268 -141 -408q-30 -65 -95 -107t-147 -42q-81 0 -169.5 39t-88.5 63q0 6 5 13l40 82q5 10 15 10q6 0 42.5 -23.5t72.5 -40t81 -16.5q101 0 156 174l43 129h-74q-13 0 -17 3.5t-9 14.5l-295 838h-82q-25 0 -25 25v77q0 25 25 25h375q24 0 24 -25
v-71q0 -23 -24 -23h-131l223 -657q22 -65 41 -148h4q14 90 31 144l172 661h-123q-23 0 -23 23v71q0 25 23 25h358q25 0 25 -25v-77q0 -25 -25 -25h-76zM926 -338v4q0 -43 -29.5 -73.5t-73.5 -30.5t-73 29t-29 73q0 43 29 73t73 30t73.5 -30.5t29.5 -74.5z" />
    <glyph glyph-name="yhoahoi" unicode="&#x1ef6;" horiz-adv-x="1100" 
d="M807 109v-84q0 -25 -25 -25h-454q-25 0 -25 25v84q0 24 25 24h143v459l-360 678h-76q-25 0 -25 24v86q0 23 25 23h395q23 0 23 -23v-86q0 -24 -23 -24h-123l203 -414q23 -42 53 -106q21 51 58 127l184 393h-127q-23 0 -23 24v86q0 23 23 23h397q23 0 23 -23v-86
q0 -24 -23 -24h-88l-348 -674v-463h143q25 0 25 -24zM596 1595l-10 -61q0 -6 -1.5 -7t-9.5 -1h-43q-7 0 -8.5 1t-1.5 7v100q0 23 8 25q16 4 44 11.5t48.5 26t20.5 58.5q-3 80 -94 80q-27 0 -59 -12.5t-31 -12.5q-6 0 -6 7l-15 34v2q0 13 49 26t88 13q70 0 115 -34t45 -111
q0 -75 -41 -105.5t-98 -46.5z" />
    <glyph glyph-name="ythhoi" unicode="&#x1ef7;" 
d="M913 856l-211 -729q-76 -268 -141 -408q-30 -65 -95 -107t-147 -42q-81 0 -169.5 39t-88.5 63q0 6 5 13l40 82q5 10 15 10q6 0 42.5 -23.5t72.5 -40t81 -16.5q101 0 156 174l43 129h-74q-13 0 -17 3.5t-9 14.5l-295 838h-82q-25 0 -25 25v77q0 25 25 25h375q24 0 24 -25
v-71q0 -23 -24 -23h-131l223 -657q22 -65 41 -148h4q14 90 31 144l172 661h-123q-23 0 -23 23v71q0 25 23 25h358q25 0 25 -25v-77q0 -25 -25 -25h-76zM588 1176l-10 -62q0 -6 -1.5 -7t-9.5 -1h-43q-7 0 -8.5 1t-1.5 7v100q0 23 8 25q16 4 44 11.5t48.5 26t20.5 58.5
q-3 80 -94 80q-25 0 -58 -12t-32 -12q-7 0 -7 6l-14 35v2q0 13 47.5 26t89.5 13q68 0 114 -34.5t46 -111.5q0 -53 -24 -84.5t-53.5 -45.5t-61.5 -21z" />
    <glyph glyph-name="yhoanga" unicode="&#x1ef8;" horiz-adv-x="1100" 
d="M807 109v-84q0 -25 -25 -25h-454q-25 0 -25 25v84q0 24 25 24h143v459l-360 678h-76q-25 0 -25 24v86q0 23 25 23h395q23 0 23 -23v-86q0 -24 -23 -24h-123l203 -414q23 -42 53 -106q21 51 58 127l184 393h-127q-23 0 -23 24v86q0 23 23 23h397q23 0 23 -23v-86
q0 -24 -23 -24h-88l-348 -674v-463h143q25 0 25 -24zM786 1688l50 -21q10 -5 10 -10q0 -10 -20 -47t-59 -67t-89 -30q-41 0 -109 37q-58 37 -94 37q-24 0 -38 -12.5t-31 -35.5t-23 -23h-6l-49 18q-13 4 -13 12t20 45t56.5 68t89.5 31q43 0 111 -37q64 -37 90 -37
q32 0 49.5 15t29 36t17.5 21h8z" />
    <glyph glyph-name="ythnga" unicode="&#x1ef9;" 
d="M913 856l-211 -729q-76 -268 -141 -408q-30 -65 -95 -107t-147 -42q-81 0 -169.5 39t-88.5 63q0 6 5 13l40 82q5 10 15 10q6 0 42.5 -23.5t72.5 -40t81 -16.5q101 0 156 174l43 129h-74q-13 0 -17 3.5t-9 14.5l-295 838h-82q-25 0 -25 25v77q0 25 25 25h375q24 0 24 -25
v-71q0 -23 -24 -23h-131l223 -657q22 -65 41 -148h4q14 90 31 144l172 661h-123q-23 0 -23 23v71q0 25 23 25h358q25 0 25 -25v-77q0 -25 -25 -25h-76zM758 1268l49 -21q10 -5 10 -10q0 -10 -19.5 -46t-57.5 -66.5t-91 -30.5q-44 0 -108 36q-60 37 -95 37q-22 0 -37.5 -13
t-31.5 -35.5t-23 -22.5h-6l-49 18q-12 4 -12 12q0 10 19.5 45.5t57 67t89.5 31.5q42 0 110 -37q64 -37 90 -37q32 0 49.5 15t29 36t18.5 21h8z" />
    <glyph glyph-name="emdash" unicode="&#x2013;" 
d="M932 563v-88q0 -20 -29 -20h-782q-29 0 -29 26v78q0 19 5 26t22 7h784q29 0 29 -29z" />
    <glyph glyph-name="endash" unicode="&#x2014;" horiz-adv-x="2048" 
d="M1944 563v-88q0 -20 -29 -20h-1784q-29 0 -29 26v78q0 19 5 26t22 7h1786q29 0 29 -29z" />
    <glyph glyph-name="quoteleft" unicode="&#x2018;" horiz-adv-x="379" 
d="M354 1413l-121 -407q-5 -23 -30 -23h-164q-29 0 -29 14l3.5 9t4.5 12l236 432q11 18 18 18q4 0 10 -2t9 -2l45 -14q22 -9 22 -18q0 -7 -4 -19z" />
    <glyph glyph-name="quoteright" unicode="&#x2019;" horiz-adv-x="379" 
d="M360 1434l-235 -433q-11 -18 -19 -18q-3 0 -9 2t-9 2l-45 14q-7 3 -12 5.5t-8 5.5t-3 8q0 3 5 18l120 408q7 22 31 22h164q29 0 29 -14q0 -3 -4 -10t-5 -10z" />
    <glyph glyph-name="quotesinglbase" unicode="&#x201a;" horiz-adv-x="379" 
d="M334 199l-236 -432q-10 -19 -18 -19q-3 0 -9 2t-10 2l-45 15q-22 9 -22 18q0 6 4 18l121 408q5 22 31 22h163q29 0 29 -14q0 -5 -3.5 -11t-4.5 -9z" />
    <glyph glyph-name="quotedblleft" unicode="&#x201c;" horiz-adv-x="872" 
d="M451 1018l235 432q11 18 19 18q3 0 9 -2t9 -2l45 -14q23 -10 23 -18q0 -4 -5 -19l-120 -407q-5 -23 -31 -23h-164q-29 0 -29 14q0 4 4 11t5 10zM90 1018l236 432q11 18 18 18q3 0 9 -2t9 -2l46 -14q22 -9 22 -18q0 -7 -4 -19l-121 -407q-5 -23 -31 -23h-163q-29 0 -29 14
l3.5 9t4.5 12z" />
    <glyph glyph-name="quotedblright" unicode="&#x201d;" horiz-adv-x="872" 
d="M422 1434l-236 -433q-11 -18 -18 -18q-3 0 -9 2t-9 2l-46 14q-7 3 -12 6t-7.5 5.5t-2.5 7.5q0 6 4 18l121 408q5 22 31 22h163q29 0 29 -14q0 -5 -3.5 -11t-4.5 -9zM782 1434l-235 -433q-11 -18 -19 -18q-3 0 -9 2t-9 2l-45 14q-7 3 -12 5.5t-8 5.5t-3 8q0 6 4 18
l121 408q5 22 31 22h164q29 0 29 -14q0 -3 -4 -10t-5 -10z" />
    <glyph glyph-name="quotedblbase" unicode="&#x201e;" horiz-adv-x="872" 
d="M432 199l-235 -432q-12 -19 -19 -19q-3 0 -9 2t-9 2l-45 15q-23 9 -23 18q0 6 4 18l121 408q5 22 31 22h164q28 0 28 -14q0 -5 -3.5 -11t-4.5 -9zM793 199l-236 -432q-10 -19 -18 -19q-4 0 -10 2t-9 2l-45 15q-22 9 -22 18q0 6 4 18l121 408q5 22 30 22h164q29 0 29 -14
q0 -5 -3.5 -11t-4.5 -9z" />
    <glyph glyph-name="dagger" unicode="&#x2020;" 
d="M590 793v-1199q0 -15 -5.5 -19.5t-21.5 -4.5h-102q-17 0 -22 4.5t-5 19.5v1199h-239q-18 0 -23.5 5.5t-5.5 22.5v90q0 19 5 24t24 5h239v436q0 16 5.5 21.5t21.5 5.5h102q17 0 22 -4.5t5 -22.5v-436h239q18 0 23.5 -5t5.5 -24v-90q0 -17 -5.5 -22.5t-23.5 -5.5h-239z" />
    <glyph glyph-name="daggerdbl" unicode="&#x2021;" 
d="M590 35v-441q0 -15 -5.5 -19.5t-21.5 -4.5h-102q-17 0 -22 4.5t-5 19.5v441h-239q-18 0 -23.5 5.5t-5.5 22.5v91q0 18 5 23t24 5h239v611h-239q-18 0 -23.5 5.5t-5.5 22.5v90q0 19 5 24t24 5h239v436q0 16 5.5 21.5t21.5 5.5h102q17 0 22 -4.5t5 -22.5v-436h239
q18 0 23.5 -5t5.5 -24v-90q0 -17 -5.5 -22.5t-23.5 -5.5h-239v-611h239q18 0 23.5 -5t5.5 -23v-91q0 -17 -5.5 -22.5t-23.5 -5.5h-239z" />
    <glyph glyph-name="bullet" unicode="&#x2022;" 
d="M512 369q-101 0 -186 49.5t-135 134.5t-50 184q0 101 50 186.5t136 136t185 50.5q98 0 184.5 -50.5t136.5 -137t50 -185.5q0 -76 -28.5 -142t-80.5 -117.5t-120.5 -80t-141.5 -28.5z" />
    <glyph glyph-name="ellipsis" unicode="&#x2026;" horiz-adv-x="2048" 
d="M479 137q0 -60 -38.5 -98.5t-98.5 -38.5q-58 0 -97.5 39.5t-39.5 97.5t39.5 97.5t97.5 39.5q59 0 98 -39t39 -98zM1161 137q0 -60 -38.5 -98.5t-98.5 -38.5q-58 0 -97.5 39.5t-39.5 97.5t39.5 97.5t97.5 39.5q59 0 98 -39t39 -98zM1843 137q0 -60 -38.5 -98.5
t-98.5 -38.5q-58 0 -97.5 39.5t-39.5 97.5t39.5 97.5t97.5 39.5q59 0 98 -39t39 -98z" />
    <glyph glyph-name="perthousand" unicode="&#x2030;" horiz-adv-x="2200" 
d="M332 758q74 0 108.5 66.5t34.5 176.5q0 234 -131 234q-74 0 -108.5 -68t-34.5 -178q0 -231 131 -231zM1022 1311l-410 -1319q-7 -21 -37 -21h-77q-27 0 -27 15q0 3 2 9t2 9l408 1321q1 9 9.5 15t20.5 6h86q27 0 27 -17q0 -3 -2 -9t-2 -9zM1184 82q74 0 108.5 66.5
t34.5 177.5q0 233 -131 233q-74 0 -108.5 -67.5t-34.5 -178.5q0 -231 131 -231zM610 1014q0 -117 -34.5 -200.5t-98 -125t-145.5 -41.5q-128 0 -197 89t-69 247q0 174 76 268.5t204 94.5q126 0 195 -87.5t69 -244.5zM1462 338q0 -117 -34.5 -200.5t-98 -125t-145.5 -41.5
q-128 0 -197 89t-69 247q0 174 76 268.5t204 94.5q126 0 195 -87.5t69 -244.5zM2132 338q0 -118 -35 -201.5t-98 -124.5t-146 -41q-128 0 -197 89t-69 247q0 174 76.5 268.5t204.5 94.5q126 0 195 -87.5t69 -244.5zM1853 82q75 0 109.5 66.5t34.5 177.5q0 233 -131 233
q-74 0 -109 -67t-35 -179q0 -231 131 -231z" />
    <glyph glyph-name="guilsinglleft" unicode="&#x2039;" horiz-adv-x="606" 
d="M240 489l264 -389q10 -15 10 -18q0 -8 -20 -21l-56 -30q-9 -6 -18 -6q-11 0 -21 14l-344 432q-10 10 -10 18q0 11 10 21l344 432q9 14 21 14l18 -6l56 -30q18 -13 18 -21q0 -4 -2 -8t-3.5 -6t-2.5 -4z" />
    <glyph glyph-name="guilsinglright" unicode="&#x203a;" horiz-adv-x="606" 
d="M551 471l-344 -432q-9 -14 -21 -14q-3 0 -7.5 2t-10.5 4l-55 30q-19 12 -19 21q0 4 2 8t3.5 6t2.5 4l265 392l-265 389q-10 15 -10 18q0 9 21 21l55 30q9 6 18 6q13 0 21 -14l344 -432q10 -10 10 -18q0 -11 -10 -21z" />
    <glyph glyph-name="trademark" unicode="&#x2122;" horiz-adv-x="1442" 
d="M197 842v37q64 6 86 19.5t22 74.5v393q-46 -8 -70.5 -20.5t-37 -29.5t-25 -48.5t-27.5 -73.5h-36l10 209h479l10 -209h-37q-13 39 -25 70t-26.5 50.5t-38 31.5t-69.5 20v-393q0 -60 18 -73.5t80 -20.5v-37h-313zM635 842v37q59 10 76.5 24.5t17.5 69.5v319q0 38 -5 52
t-19 17t-46 5v37h205l113 -371h4l129 371h221v-37q-45 -6 -58 -10t-20.5 -20t-7.5 -56v-307q0 -59 14 -73t62 -21v-37h-254v37q44 9 58 23.5t14 70.5v379h-4l-172 -510h-33l-150 489h-4v-358q0 -40 5.5 -58t17.5 -24.5t37 -11.5v-37h-201z" />
    <glyph glyph-name="absachoa" unicode="&#xf006;" horiz-adv-x="0" 
d="M-18 1827l-301 -156q-5 -2 -15 -2q-6 0 -12 12l-16 25q-7 9 -7 14q0 3 3.5 5t9.5 8l266 204q3 2 6.5 4.5t7.5 2.5q8 0 15 -13l53 -78q4 -8 4 -14q0 -8 -14 -12z" />
    <glyph glyph-name="sac" unicode="&#xf008;" horiz-adv-x="2" 
d="M-61 1270l-301 -156q-5 -2 -15 -2q-6 0 -12 12l-17 25q-6 12 -6 14l13 13l266 204q12 6 14 6q9 0 15 -12l53 -78q4 -8 4 -14q0 -8 -14 -12z" />
    <glyph glyph-name="aasacth" unicode="&#xf009;" horiz-adv-x="0" 
d="M-186 1520l-301 -156q-5 -2 -15 -2q-6 0 -12 12l-16 25q-2 4 -4.5 7.5t-2.5 6.5q0 -1 13 12l266 205q12 6 14 6q9 0 15 -12l53 -78q4 -8 4 -14q0 -8 -14 -12z" />
    <glyph glyph-name="asacth" unicode="&#xf00a;" horiz-adv-x="0" 
d="M-276 1253l-302 -155q-4 -2 -14 -2q-6 0 -12 12l-17 25q-6 12 -6 14q0 1 13 12l266 205q12 6 14 6q6 0 15 -12l53 -78q4 -8 4 -14q0 -9 -14 -13z" />
    <glyph glyph-name="abhuyenhoa" unicode="&#xf00b;" horiz-adv-x="0" 
d="M-530 1980l266 -204q12 -14 12 -13q0 -2 -6 -14l-16 -25q-7 -12 -13 -12q-10 0 -14 2l-301 156q-14 3 -14 12q0 6 4 14l53 78q13 13 14 13q3 0 10.5 -3.5t4.5 -3.5z" />
    <glyph glyph-name="huyen" unicode="&#xf00d;" horiz-adv-x="2" 
d="M-451 1362l267 -205l12 -12l-6 -15l-17 -24q-6 -12 -12 -12q-10 0 -14 2l-301 155q-15 4 -15 13q0 7 5 14l53 78l7 7t7 5q4 0 9.5 -3t4.5 -3z" />
    <glyph glyph-name="aahuyenth" unicode="&#xf00e;" horiz-adv-x="0" 
d="M-688 1642l266 -204q12 -12 12 -13q0 -2 -6 -14l-16 -25q-6 -12 -12 -12q-11 0 -15 2l-301 156q-14 3 -14 12q0 5 4 15l53 77q13 13 15 13q3 0 9 -3.5t5 -3.5z" />
    <glyph glyph-name="ahuyenth" unicode="&#xf00f;" horiz-adv-x="0" 
d="M-614 1356l266 -205l12 -12q0 -3 -6 -15l-16 -24q-6 -13 -13 -13q-10 0 -14 3l-301 155q-14 3 -14 12q0 7 4 15l53 78l7 7t7 5q4 0 11 -3t4 -3z" />
    <glyph glyph-name="abhoihoa" unicode="&#xf010;" horiz-adv-x="0" 
d="M-283 1747l-10 -61q0 -9 -10 -9h-43q-7 0 -8.5 1t-1.5 8v100q0 22 8 24q3 2 27.5 8.5t42 14t30 26.5t12.5 48q-3 80 -94 80q-27 0 -59 -12.5t-31 -12.5q-6 0 -6 6l-14 35v2q0 13 47.5 26t89.5 13q68 0 114 -34.5t46 -111.5q0 -117 -140 -151z" />
    <glyph glyph-name="ahoihoa" unicode="&#xf011;" horiz-adv-x="0" 
d="M-500 1614l-10 -62q0 -8 -10 -8h-43q-7 0 -8.5 1t-1.5 7v101q0 22 8 24q3 2 27.5 8.5t42 14t30 26.5t12.5 48q-3 79 -94 79q-25 0 -58 -12t-32 -12q-6 0 -6 6l-14 35v2q0 13 47.5 26t89.5 13q68 0 114 -34.5t46 -111.5q0 -117 -140 -151z" />
    <glyph glyph-name="hoi" unicode="&#xf012;" horiz-adv-x="2" 
d="M-297 1167l-10 -61q0 -8 -10 -8h-43q-8 0 -9.5 1t-1.5 7v100q0 23 9 25q15 4 33.5 9t36 12.5t30 26.5t12.5 48q-3 80 -94 80q-27 0 -59 -12.5t-31 -12.5q-6 0 -6 7l-15 34v2q0 13 50 26t88 13q69 0 114 -34t45 -111q0 -75 -41 -105.5t-98 -46.5z" />
    <glyph glyph-name="aahoith" unicode="&#xf013;" horiz-adv-x="0" 
d="M-440 1430l-11 -62q0 -8 -10 -8h-43q-7 0 -8.5 1t-1.5 7v100q0 23 8 25q16 4 44 11.5t48.5 26t20.5 58.5q-3 80 -94 80q-25 0 -58 -12l-33 -12q-6 0 -6 6l-14 35v2q0 13 49 25.5t88 12.5q70 0 115 -34t45 -111q0 -53 -24 -84.5t-53.5 -45.5t-61.5 -21z" />
    <glyph glyph-name="ahoith" unicode="&#xf014;" horiz-adv-x="0" 
d="M-479 1184l-10 -62q0 -6 -1.5 -7t-9.5 -1h-43q-7 0 -8.5 1t-1.5 7v101q0 22 8 24q16 4 44 11.5t48.5 26t20.5 58.5q-3 80 -94 80q-25 0 -58 -12t-32 -12q-7 0 -7 6l-14 35v2q0 13 47.5 26t89.5 13q68 0 114 -34.5t46 -111.5q0 -52 -24 -83.5t-56 -46.5t-59 -21z" />
    <glyph glyph-name="abngahoa" unicode="&#xf015;" horiz-adv-x="0" 
d="M-266 1952l49 -21q10 -5 10 -10q0 -10 -19.5 -46t-57.5 -66.5t-91 -30.5q-46 0 -108 36.5t-95 36.5q-22 0 -37.5 -13t-31.5 -35.5t-23 -22.5h-6l-49 18q-12 4 -12 12q0 10 19.5 45.5t57 67t89.5 31.5q42 0 110 -37q64 -37 90 -37q32 0 49.5 15t29 36t18.5 21h8z" />
    <glyph glyph-name="abngahoa" unicode="&#xf02f;" horiz-adv-x="0" 
d="M-266 1952l49 -21q10 -5 10 -10q0 -10 -19.5 -46t-57.5 -66.5t-91 -30.5q-46 0 -108 36.5t-95 36.5q-22 0 -37.5 -13t-31.5 -35.5t-23 -22.5h-6l-49 18q-12 4 -12 12q0 10 19.5 45.5t57 67t89.5 31.5q42 0 110 -37q64 -37 90 -37q32 0 49.5 15t29 36t18.5 21h8z" />
    <glyph glyph-name="abngahoa" unicode="&#xf02d;" horiz-adv-x="0" 
d="M-266 1952l49 -21q10 -5 10 -10q0 -10 -19.5 -46t-57.5 -66.5t-91 -30.5q-46 0 -108 36.5t-95 36.5q-22 0 -37.5 -13t-31.5 -35.5t-23 -22.5h-6l-49 18q-12 4 -12 12q0 10 19.5 45.5t57 67t89.5 31.5q42 0 110 -37q64 -37 90 -37q32 0 49.5 15t29 36t18.5 21h8z" />
    <glyph glyph-name="aangath" unicode="&#xf018;" horiz-adv-x="0" 
d="M-250 1563l49 -21q11 -6 11 -10q0 -10 -20.5 -47t-57.5 -66.5t-90 -29.5q-43 0 -109 36q-60 37 -94 37q-24 0 -38 -12.5t-31 -35.5t-23 -23h-6l-50 18q-12 4 -12 12q0 10 20 46t57 67t89 31q43 0 111 -37q62 -37 90 -37q32 0 49 15t28.5 36t18.5 21h8z" />
    <glyph glyph-name="angath" unicode="&#xf019;" horiz-adv-x="0" 
d="M-299 1276l49 -21q10 -5 10 -10q0 -10 -19.5 -46t-57.5 -66.5t-91 -30.5q-44 0 -108 37t-94 37q-24 0 -40 -14.5t-30.5 -36t-21.5 -21.5h-7l-49 18q-12 4 -12 13t19.5 44.5t57 67t89.5 31.5q48 0 110 -37q68 -37 91 -37q32 0 49 15t28.5 36t18.5 21h8z" />
    <glyph glyph-name="angath" unicode="&#xf01b;" horiz-adv-x="0" 
d="M-299 1276l49 -21q10 -5 10 -10q0 -10 -19.5 -46t-57.5 -66.5t-91 -30.5q-44 0 -108 37t-94 37q-24 0 -40 -14.5t-30.5 -36t-21.5 -21.5h-7l-49 18q-12 4 -12 13t19.5 44.5t57 67t89.5 31.5q48 0 110 -37q68 -37 91 -37q32 0 49 15t28.5 36t18.5 21h8z" />
    <glyph glyph-name="angath" unicode="&#xf01a;" horiz-adv-x="0" 
d="M-299 1276l49 -21q10 -5 10 -10q0 -10 -19.5 -46t-57.5 -66.5t-91 -30.5q-44 0 -108 37t-94 37q-24 0 -40 -14.5t-30.5 -36t-21.5 -21.5h-7l-49 18q-12 4 -12 13t19.5 44.5t57 67t89.5 31.5q48 0 110 -37q68 -37 91 -37q32 0 49 15t28.5 36t18.5 21h8z" />
    <glyph glyph-name="nga" unicode="&#xf01d;" horiz-adv-x="2" 
d="M-92 1270l49 -21q10 -5 10 -10q0 -10 -19.5 -46t-57.5 -66.5t-91 -30.5q-44 0 -108 37q-62 36 -94 36q-23 0 -38.5 -13t-31.5 -35.5t-23 -22.5h-6l-49 18q-12 4 -12 12q0 10 19.5 45.5t57 67t89.5 31.5q44 0 110 -37q68 -37 90 -37q32 0 49.5 15t29 36t18.5 21h8z" />
    <glyph glyph-name="anangth" unicode="&#xf023;" horiz-adv-x="0" 
d="M-418 -223v4q0 -44 -29.5 -74.5t-72.5 -30.5q-45 0 -74 29t-29 74q0 44 29 73t74 29q43 0 72.5 -29.5t29.5 -74.5z" />
    <glyph glyph-name="anangth" unicode="&#xf02c;" horiz-adv-x="0" 
d="M-418 -223v4q0 -44 -29.5 -74.5t-72.5 -30.5q-45 0 -74 29t-29 74q0 44 29 73t74 29q43 0 72.5 -29.5t29.5 -74.5z" />
    <glyph glyph-name="anangth" unicode="&#xf028;" horiz-adv-x="0" 
d="M-418 -223v4q0 -44 -29.5 -74.5t-72.5 -30.5q-45 0 -74 29t-29 74q0 44 29 73t74 29q43 0 72.5 -29.5t29.5 -74.5z" />
    <glyph glyph-name="anangth" unicode="&#xf027;" horiz-adv-x="0" 
d="M-418 -223v4q0 -44 -29.5 -74.5t-72.5 -30.5q-45 0 -74 29t-29 74q0 44 29 73t74 29q43 0 72.5 -29.5t29.5 -74.5z" />
    <glyph glyph-name="anangth" unicode="&#xf026;" horiz-adv-x="0" 
d="M-418 -223v4q0 -44 -29.5 -74.5t-72.5 -30.5q-45 0 -74 29t-29 74q0 44 29 73t74 29q43 0 72.5 -29.5t29.5 -74.5z" />
    <glyph glyph-name="anangth" unicode="&#xf025;" horiz-adv-x="0" 
d="M-418 -223v4q0 -44 -29.5 -74.5t-72.5 -30.5q-45 0 -74 29t-29 74q0 44 29 73t74 29q43 0 72.5 -29.5t29.5 -74.5z" />
    <glyph glyph-name="anangth" unicode="&#xf024;" horiz-adv-x="0" 
d="M-418 -223v4q0 -44 -29.5 -74.5t-72.5 -30.5q-45 0 -74 29t-29 74q0 44 29 73t74 29q43 0 72.5 -29.5t29.5 -74.5z" />
    <glyph glyph-name="nang" unicode="&#xf02a;" horiz-adv-x="2" 
d="M-174 -215v4q0 -43 -29.5 -73.5t-72.5 -30.5q-45 0 -74 29t-29 73t29 73t74 29q43 0 72.5 -29.5t29.5 -74.5z" />
    <glyph glyph-name="lslash" horiz-adv-x="606" 
d="M553 113l27 -76q4 -8 4 -14q0 -16 -58.5 -34t-115.5 -18q-74 0 -123 26.5t-70 72.5q-29 67 -29 297v147l-151 -137q-8 -8 -14 -8q-11 0 -11 14v111q0 9 11 18l165 152v677h-122q-25 0 -25 25v78q0 24 25 24h249q29 0 29 -30v-633l184 170q8 8 15 8q10 0 10 -14v-111
q0 -8 -10 -18l-199 -183v-295q0 -154 6 -192q4 -24 23.5 -48t58.5 -24q29 0 66.5 13.5t40.5 13.5q10 0 14 -12z" />
    <glyph glyph-name="dotaccent" horiz-adv-x="631" 
d="M436 1284q0 -50 -35.5 -85.5t-85.5 -35.5q-48 0 -84 35t-36 86t35 86t85 35q51 0 86 -35t35 -86z" />
    <glyph glyph-name="hungarumlaut" horiz-adv-x="631" 
d="M336 1358l-258 -230q-13 -10 -21 -10t-18 10l-23 21q-14 10 -14 20q0 9 10 19l215 268q11 17 21 17q4 0 9.5 -5.5t8.5 -7.5l70 -63l7 -7t7 -12q0 -6 -14 -20zM614 1358l-258 -230q-13 -10 -20 -10t-19 10l-22 21q-14 10 -14 20q0 9 10 19l215 268q11 17 20 17q2 0 5 -2
t7.5 -6t6.5 -5l69 -63l7.5 -7.5t7.5 -11.5q0 -6 -5 -11t-10 -9z" />
    <glyph glyph-name="fi" horiz-adv-x="1214" 
d="M1042 1343q0 -49 -35.5 -86.5t-88.5 -37.5q-51 0 -88 37t-37 87q0 51 37 88t88 37q53 0 88.5 -37.5t35.5 -87.5zM1178 102v-77q0 -25 -25 -25h-448q-25 0 -25 25v77q0 25 25 25h147v729h-457v-729h144q24 0 24 -25v-77q0 -25 -24 -25h-414q-25 0 -25 25v77q0 25 25 25
h115v729h-144q-14 0 -14 25v77q0 9 1 14.5t3.5 8t9.5 2.5h144v160q0 150 53 245t211 95q29 0 78 -11.5t87 -28t38 -32.5q0 -3 -1 -4.5t-2.5 -5t-4 -9.5t-3.5 -10l-28 -67q-8 -12 -15 -12q-6 0 -58.5 21.5t-96.5 21.5q-66 0 -84.5 -50t-18.5 -155v-158h586q16 0 21.5 -7.5
t5.5 -23.5v-825h145q25 0 25 -25z" />
    <glyph glyph-name="aa" horiz-adv-x="2" 
d="M0 0l82 -8q18 0 18 -21q0 -23 -18.5 -66.5t-52.5 -76.5q-56 -56 -158 -61q-100 0 -166 59q-34 34 -53 78.5t-19 64.5q0 21 19 21l72 10h6q8 0 8 -6q11 -60 35 -96.5t86 -36.5q56 0 84 38.5t43 94.5q0 6 8 6h6z" />
    <glyph glyph-name="ab" horiz-adv-x="2" 
d="M0 0l-41 -33q-3 -6 -8 -6q-10 0 -14 2l-168 111l-166 -111l-5 -2t-8 -2q-6 0 -14 12l-20 29q-2 3 -4.5 6t-2.5 6t3.5 6t9.5 9l202 161q3 2 5 3t4 2.5t4 1.5q5 0 8 -2.5t6 -4.5l203 -161q10 -10 10 -13q0 -6 -4 -14z" />
    <glyph glyph-name="abth" horiz-adv-x="948" 
d="M172 819l-27 72q-6 15 -6 27q0 16 53.5 39t130.5 39t136 16q167 0 241 -74.5t74 -212.5v-393q0 -82 4 -116t21 -89h96q25 0 25 -25v-77q0 -25 -25 -25h-174q-32 0 -47 28.5t-31 80.5q-25 -25 -61 -55t-98 -56.5t-136 -26.5q-59 0 -108 19.5t-85 57t-54.5 92.5t-18.5 120
q0 120 61.5 195t148 107.5t162 41.5t164.5 12v74q0 96 -38.5 140t-143.5 44q-61 0 -111.5 -14t-91.5 -32.5t-47 -18.5q-11 0 -14 10zM618 225v264q-44 0 -107.5 -5.5t-125 -25.5t-104.5 -65.5t-43 -120.5q0 -68 38 -121t109 -53q39 0 75.5 15t67 35.5t54.5 43.5t36 33z
M670 1124l-41 -32q-3 -7 -8 -7q-11 0 -15 2l-168 111l-166 -111q-1 0 -5 -2t-7 -2q-5 0 -14 13l-21 28q-6 12 -6 13q0 2 12 14l203 162l12 6q3 0 15 -6l203 -162q10 -10 10 -12q0 -7 -4 -15z" />
    <glyph glyph-name="abhoa" horiz-adv-x="1251" 
d="M793 561l-123 453q-31 103 -47 194h-5q-6 -38 -21 -104t-22 -90l-124 -453h342zM1223 109v-84q0 -25 -25 -25h-414q-24 0 -24 25v84q0 24 24 24h127l-80 285h-419l-78 -285h131q24 0 24 -24v-84q0 -25 -24 -25h-412q-24 0 -24 25v84q0 24 24 24h101l381 1247q4 15 8.5 19
t21.5 4h121q14 0 20 -4t11 -19l379 -1247h102q25 0 25 -24zM844 1540l-41 -33q-3 -6 -8 -6q-11 0 -15 2l-168 111l-166 -111q-1 0 -5 -2t-7 -2q-6 0 -14 12l-21 29q-2 4 -4 7t-2 5q0 4 13 15l202 162q12 6 13 6q2 0 14 -6l203 -162q10 -10 10 -13q0 -6 -4 -14z" />
    <glyph glyph-name="ebth" horiz-adv-x="948" 
d="M254 586h442q0 64 -18 132.5t-65 117.5t-130 49q-124 0 -176.5 -95.5t-52.5 -203.5zM801 180l35 -86l4 -8t2 -8q0 -12 -51.5 -38.5t-127 -47.5t-145.5 -21q-202 1 -317 142.5t-115 378.5q0 149 49 268t141 185.5t216 66.5q372 0 372 -508q0 -26 -3 -35.5t-19 -9.5h-588
q0 -129 63.5 -239.5t219.5 -110.5q60 0 114.5 19.5t94.5 42t42 22.5q4 0 13 -13zM692 1128l-41 -32q-3 -6 -8 -6q-10 0 -14 2l-168 110l-166 -110q-2 0 -5.5 -2.5t-6.5 -2.5q-6 0 -15 13l-20 28q-1 4 -3.5 7.5t-2.5 5.5t12 14l203 162l12 6q2 0 14 -6l203 -162
q10 -10 10 -12q0 -5 -4 -15z" />
    <glyph glyph-name="ebhoa" horiz-adv-x="985" 
d="M920 328v-299q0 -18 -6 -23.5t-23 -5.5h-785q-24 0 -24 25v84q0 24 24 24h130v1137h-130q-24 0 -24 24v84q0 25 24 25h773q17 0 21.5 -5.5t4.5 -23.5v-278q0 -25 -22 -25h-95q-22 0 -22 25v164h-363v-455h402q17 0 21.5 -5t4.5 -22v-90q0 -16 -4.5 -21t-21.5 -5h-402
v-519h377v185q0 22 23 22h92q25 0 25 -22zM725 1524l-41 -33q-3 -6 -8 -6q-10 0 -14 2l-168 110l-166 -110l-5 -2t-8 -2q-6 0 -14 12l-20 29q-2 3 -4.5 6t-2.5 6q0 1 13 14l202 162l5 2.5t4 2.5t4 1q2 0 14 -6l203 -162q10 -10 10 -12q0 -6 -4 -14z" />
    <glyph glyph-name="obth" 
d="M920 498q0 -150 -44 -268.5t-138 -188.5t-238 -70q-198 0 -297 142t-99 374q0 105 24 201t75.5 170t130 114t186.5 40q135 0 225 -66.5t132.5 -182.5t42.5 -265zM514 98q88 0 140.5 49.5t75 138.5t22.5 214q0 169 -56 277t-184 108t-184 -104.5t-56 -274.5
q0 -125 22.5 -215.5t76 -141.5t143.5 -51zM729 1122l-41 -32q-3 -7 -8 -7q-10 0 -14 2l-168 111l-166 -111q-1 0 -6 -2t-7 -2q-7 0 -14 13l-20 28q-6 12 -6 13q0 2 12 14l203 162l12 6q2 0 14 -6l203 -162q10 -10 10 -12q0 -7 -4 -15z" />
    <glyph glyph-name="obhoa" horiz-adv-x="1139" 
d="M1032 702q0 -223 -48.5 -387.5t-152 -254t-262.5 -89.5t-263 90t-152 254t-48 387q0 164 26.5 298.5t84 232.5t145 148.5t207.5 50.5q121 0 209.5 -52t144 -147t82.5 -228t27 -303zM569 109q84 0 139.5 41t85.5 117t42 183.5t12 251.5q0 197 -22.5 323t-84 197.5
t-172.5 71.5q-109 0 -170.5 -71.5t-84.5 -201.5t-23 -319q0 -144 12 -250.5t42.5 -184t85.5 -118t138 -40.5zM795 1542l-41 -33q-3 -6 -9 -6q-10 0 -14 2l-168 111l-166 -111q-1 0 -5 -2t-7 -2q-6 0 -14 12l-21 29q-2 4 -4 7t-2 5q0 3 12 15l203 162l12 6q3 0 15 -6
l202 -162q11 -9 11 -13q0 -6 -4 -14z" />
    <glyph glyph-name="athsac" horiz-adv-x="948" 
d="M172 819l-27 72q-6 15 -6 27q0 16 53.5 39t130.5 39t136 16q167 0 241 -74.5t74 -212.5v-393q0 -82 4 -116t21 -89h96q25 0 25 -25v-77q0 -25 -25 -25h-174q-32 0 -47 28.5t-31 80.5q-25 -25 -61 -55t-98 -56.5t-136 -26.5q-59 0 -108 19.5t-85 57t-54.5 92.5t-18.5 120
q0 120 61.5 195t148 107.5t162 41.5t164.5 12v74q0 96 -38.5 140t-143.5 44q-61 0 -111.5 -14t-91.5 -32.5t-47 -18.5q-11 0 -14 10zM618 225v264q-44 0 -107.5 -5.5t-125 -25.5t-104.5 -65.5t-43 -120.5q0 -68 38 -121t109 -53q39 0 75.5 15t67 35.5t54.5 43.5t36 33z
M694 1264l-301 -156q-4 -2 -14 -2q-6 0 -12 12l-17 25q-6 12 -6 14l12 12l267 205q12 6 14 6q8 0 14 -12l54 -78q4 -8 4 -14q0 -8 -15 -12z" />
    <glyph glyph-name="athhuyen" horiz-adv-x="948" 
d="M172 819l-27 72q-6 15 -6 27q0 16 53.5 39t130.5 39t136 16q167 0 241 -74.5t74 -212.5v-393q0 -82 4 -116t21 -89h96q25 0 25 -25v-77q0 -25 -25 -25h-174q-32 0 -47 28.5t-31 80.5q-25 -25 -61 -55t-98 -56.5t-136 -26.5q-59 0 -108 19.5t-85 57t-54.5 92.5t-18.5 120
q0 120 61.5 195t148 107.5t162 41.5t164.5 12v74q0 96 -38.5 140t-143.5 44q-61 0 -111.5 -14t-91.5 -32.5t-47 -18.5q-11 0 -14 10zM618 225v264q-44 0 -107.5 -5.5t-125 -25.5t-104.5 -65.5t-43 -120.5q0 -68 38 -121t109 -53q39 0 75.5 15t67 35.5t54.5 43.5t36 33z
M387 1366l266 -205q13 -13 13 -12q0 -5 -7 -14l-16 -25q-6 -12 -12 -12q-10 0 -15 2l-301 155q-14 3 -14 13q0 6 4 14l53 78q12 12 15 12q4 0 9.5 -3t4.5 -3z" />
    <glyph glyph-name="athnga" horiz-adv-x="948" 
d="M172 819l-27 72q-6 15 -6 27q0 16 53.5 39t130.5 39t136 16q167 0 241 -74.5t74 -212.5v-393q0 -82 4 -116t21 -89h96q25 0 25 -25v-77q0 -25 -25 -25h-174q-32 0 -47 28.5t-31 80.5q-25 -25 -61 -55t-98 -56.5t-136 -26.5q-59 0 -108 19.5t-85 57t-54.5 92.5t-18.5 120
q0 120 61.5 195t148 107.5t162 41.5t164.5 12v74q0 96 -38.5 140t-143.5 44q-61 0 -111.5 -14t-91.5 -32.5t-47 -18.5q-11 0 -14 10zM618 225v264q-44 0 -107.5 -5.5t-125 -25.5t-104.5 -65.5t-43 -120.5q0 -68 38 -121t109 -53q39 0 75.5 15t67 35.5t54.5 43.5t36 33z
M672 1286l49 -20q10 -5 10 -11q0 -10 -19.5 -46t-57.5 -66.5t-91 -30.5q-46 0 -108 37q-64 37 -95 37q-23 0 -39 -14.5t-30.5 -36t-22.5 -21.5h-6l-49 19q-12 4 -12 12q0 9 19.5 44.5t57 67t89.5 31.5q46 0 110 -37q68 -37 90 -37q32 0 49.5 15t29 36t18.5 21h8z" />
    <glyph glyph-name="ahoasac" horiz-adv-x="1251" 
d="M793 561l-123 453q-31 103 -47 194h-5q-6 -38 -21 -104t-22 -90l-124 -453h342zM1223 109v-84q0 -25 -25 -25h-414q-24 0 -24 25v84q0 24 24 24h127l-80 285h-419l-78 -285h131q24 0 24 -24v-84q0 -25 -24 -25h-412q-24 0 -24 25v84q0 24 24 24h101l381 1247q4 15 8.5 19
t21.5 4h121q14 0 20 -4t11 -19l379 -1247h102q25 0 25 -24zM840 1675l-301 -155q-4 -2 -15 -2q-6 0 -12 12l-16 24q-2 4 -4.5 8t-2.5 7q0 -1 13 12l266 205q12 6 14 6q9 0 15 -12l53 -78q4 -8 4 -14q0 -9 -14 -13z" />
    <glyph glyph-name="ahoahuyen" horiz-adv-x="1251" 
d="M793 561l-123 453q-31 103 -47 194h-5q-6 -38 -21 -104t-22 -90l-124 -453h342zM1223 109v-84q0 -25 -25 -25h-414q-24 0 -24 25v84q0 24 24 24h127l-80 285h-419l-78 -285h131q24 0 24 -24v-84q0 -25 -24 -25h-412q-24 0 -24 25v84q0 24 24 24h101l381 1247q4 15 8.5 19
t21.5 4h121q14 0 20 -4t11 -19l379 -1247h102q25 0 25 -24zM532 1778l267 -205l12 -12q0 -3 -6 -15l-17 -24q-6 -13 -12 -13q-10 0 -14 2l-301 156q-15 4 -15 12q0 5 5 15l53 78l7 7t7 5q4 0 9.5 -3t4.5 -3z" />
    <glyph glyph-name="ahoanga" horiz-adv-x="1251" 
d="M793 561l-123 453q-31 103 -47 194h-5q-6 -38 -21 -104t-22 -90l-124 -453h342zM1223 109v-84q0 -25 -25 -25h-414q-24 0 -24 25v84q0 24 24 24h127l-80 285h-419l-78 -285h131q24 0 24 -24v-84q0 -25 -24 -25h-412q-24 0 -24 25v84q0 24 24 24h101l381 1247q4 15 8.5 19
t21.5 4h121q14 0 20 -4t11 -19l379 -1247h102q25 0 25 -24zM827 1688l50 -21q10 -5 10 -10q0 -10 -20 -47t-59 -67t-89 -30q-41 0 -109 37q-58 37 -94 37q-24 0 -38 -12.5t-31 -35.5t-23 -23h-6l-49 18q-13 4 -13 12t20 45t56.5 68t89.5 31q43 0 111 -37q64 -37 90 -37
q32 0 49.5 15t29 36t17.5 21h8z" />
    <glyph glyph-name="ethsac" horiz-adv-x="948" 
d="M254 586h442q0 64 -18 132.5t-65 117.5t-130 49q-124 0 -176.5 -95.5t-52.5 -203.5zM801 180l35 -86l4 -8t2 -8q0 -12 -51.5 -38.5t-127 -47.5t-145.5 -21q-202 1 -317 142.5t-115 378.5q0 149 49 268t141 185.5t216 66.5q372 0 372 -508q0 -26 -3 -35.5t-19 -9.5h-588
q0 -129 63.5 -239.5t219.5 -110.5q60 0 114.5 19.5t94.5 42t42 22.5q4 0 13 -13zM721 1274l-301 -156q-4 -2 -14 -2q-7 0 -13 12l-16 25q-6 12 -6 14q0 1 12 13l266 204q3 2 6.5 4.5t8.5 2.5q7 0 14 -13l53 -78q4 -8 4 -14q0 -8 -14 -12z" />
    <glyph glyph-name="ethhuyen" horiz-adv-x="948" 
d="M254 586h442q0 64 -18 132.5t-65 117.5t-130 49q-124 0 -176.5 -95.5t-52.5 -203.5zM801 180l35 -86l4 -8t2 -8q0 -12 -51.5 -38.5t-127 -47.5t-145.5 -21q-202 1 -317 142.5t-115 378.5q0 149 49 268t141 185.5t216 66.5q372 0 372 -508q0 -26 -3 -35.5t-19 -9.5h-588
q0 -129 63.5 -239.5t219.5 -110.5q60 0 114.5 19.5t94.5 42t42 22.5q4 0 13 -13zM424 1366l266 -205l12 -12q0 -2 -6 -14l-16 -25q-6 -12 -12 -12q-11 0 -15 2l-301 155q-14 3 -14 13q0 6 4 14l53 78l7 7t8 5q4 0 9.5 -3t4.5 -3z" />
    <glyph glyph-name="ehoasac" horiz-adv-x="985" 
d="M920 328v-299q0 -18 -6 -23.5t-23 -5.5h-785q-24 0 -24 25v84q0 24 24 24h130v1137h-130q-24 0 -24 24v84q0 25 24 25h773q17 0 21.5 -5.5t4.5 -23.5v-278q0 -25 -22 -25h-95q-22 0 -22 25v164h-363v-455h402q17 0 21.5 -5t4.5 -22v-90q0 -16 -4.5 -21t-21.5 -5h-402
v-519h377v185q0 22 23 22h92q25 0 25 -22zM786 1675l-301 -155q-4 -2 -14 -2q-6 0 -12 12l-17 24l-6 15q0 1 13 12l266 205q12 6 14 6q8 0 14 -12l54 -78q4 -8 4 -14q0 -10 -15 -13z" />
    <glyph glyph-name="ehoahuyen" horiz-adv-x="985" 
d="M920 328v-299q0 -18 -6 -23.5t-23 -5.5h-785q-24 0 -24 25v84q0 24 24 24h130v1137h-130q-24 0 -24 24v84q0 25 24 25h773q17 0 21.5 -5.5t4.5 -23.5v-278q0 -25 -22 -25h-95q-22 0 -22 25v164h-363v-455h402q17 0 21.5 -5t4.5 -22v-90q0 -16 -4.5 -21t-21.5 -5h-402
v-519h377v185q0 22 23 22h92q25 0 25 -22zM449 1788l266 -205l12 -12l-6 -15l-16 -24q-7 -12 -13 -12q-10 0 -14 2l-301 155q-15 4 -15 13q0 4 5 14l53 78l7 7t7 5q4 0 9.5 -3z" />
    </font>
</defs>
</svg>
