<svg width="23" height="16" viewBox="0 0 23 16" fill="none" xmlns="http://www.w3.org/2000/svg">
<path d="M0.322569 5.6277L9.78731 0.0894978C9.98938 -0.0288121 10.2391 -0.0298239 10.4424 0.0864627C10.6456 0.202909 10.771 0.41903 10.7712 0.653201L10.7731 3.1539C10.7844 3.15666 10.7933 3.1589 10.7994 3.1606C11.036 3.22658 11.2873 3.2992 11.5903 3.38924C12.5731 3.68118 13.5826 4.05975 14.7674 4.58054C15.7955 5.03243 16.8014 5.61572 17.757 6.31414C18.44 6.8132 19.0825 7.38872 19.6668 8.02468C21.2566 9.75492 22.1276 12.0525 22.0565 14.3283C22.0441 14.727 21.9992 15.1096 21.957 15.4313C21.915 15.7512 21.646 15.9926 21.3235 15.9998C21.3185 16 21.3136 16 21.3087 16C20.9925 16 20.7205 15.773 20.6652 15.4602C20.4893 14.4656 20.2087 13.6487 19.8074 12.9624C19.3058 12.105 18.6241 11.3851 17.8362 10.8805C17.1591 10.4467 16.4437 10.114 15.6492 9.86279C14.7225 9.56979 13.7006 9.38615 12.5253 9.30133C12.051 9.26704 11.5401 9.24984 10.9173 9.24697C10.8984 9.24697 10.8581 9.24734 10.8056 9.24803L10.8039 11.6062C10.8037 11.839 10.6797 12.0542 10.4784 12.171C10.277 12.2879 10.0287 12.2889 9.82639 12.1736L0.329119 6.75979C0.126204 6.64415 0.000492096 6.42914 -0.000785828 6.19556C-0.00227737 5.96213 0.121038 5.74569 0.322569 5.6277Z" fill="white"/>
</svg>
