<svg width="18" height="16" viewBox="0 0 18 16" fill="none" xmlns="http://www.w3.org/2000/svg">
<path d="M17.2537 0.11566C16.4823 -0.299689 15.6219 0.501342 15.1176 0.976027C13.9606 2.1034 12.9816 3.40879 11.8838 4.5955C10.6674 5.90088 9.54004 7.20627 8.29399 8.48203C7.58196 9.19406 6.8106 9.96542 6.33591 10.8555C5.26787 9.81703 4.34817 8.68966 3.16146 7.77C2.30109 7.11731 0.877038 6.64263 0.906706 8.21502C0.966042 10.2621 2.77578 12.4576 4.11083 13.8519C4.67452 14.4453 5.41621 15.0683 6.27658 15.098C7.31495 15.1573 8.38299 13.9112 9.00602 13.2289C10.1038 12.0422 10.9938 10.7071 12.0025 9.49074C13.3078 7.88868 14.6429 6.31623 15.9186 4.6845C16.7196 3.6758 19.2414 1.18365 17.2537 0.11566ZM2.21204 8.09635C2.18237 8.09635 2.15271 8.09635 2.09337 8.12597C1.9747 8.09635 1.8857 8.06663 1.76702 8.0073C1.85603 7.94796 2.00437 7.97763 2.21204 8.09635Z" fill="white"/>
</svg>
