<svg width="15" height="15" viewBox="0 0 15 15" fill="none" xmlns="http://www.w3.org/2000/svg">
<path d="M9.3002 2.22755C8.80667 1.40491 8.20083 0.655276 7.50014 0C6.79946 0.655276 6.19362 1.40491 5.70009 2.22755H9.3002Z" fill="white"/>
<path d="M5.42148 2.72754C5.08676 3.36414 4.82077 4.03467 4.62778 4.72755H10.3722C10.1792 4.03467 9.9132 3.36414 9.57848 2.72754H5.42148Z" fill="white"/>
<path d="M10.892 4.72755H14.4771C14.1915 4.00391 13.7951 3.32923 13.302 2.72754H10.1403C10.4572 3.36731 10.709 4.03736 10.892 4.72755Z" fill="white"/>
<path d="M10.1403 12.2275H13.3027C13.7958 11.6259 14.1923 10.9511 14.4778 10.2275H10.892C10.709 10.9176 10.4572 11.5877 10.1403 12.2275Z" fill="white"/>
<path d="M4.85973 2.72754H1.69675C1.20359 3.3291 0.807222 4.00391 0.521698 4.72755H4.10802C4.291 4.03736 4.54283 3.36731 4.85973 2.72754Z" fill="white"/>
<path d="M12.8531 2.22755C11.6172 0.963749 9.97343 0.178956 8.21378 0.012207C8.86026 0.676272 9.41861 1.4209 9.87504 2.22755H12.8531Z" fill="white"/>
<path d="M2.14622 12.7275C3.38231 13.9913 5.02624 14.7763 6.78626 14.9428C6.13977 14.2787 5.58142 13.5342 5.125 12.7275H2.14622Z" fill="white"/>
<path d="M8.21378 14.9428C9.97343 14.7761 11.6172 13.9912 12.8531 12.7275H9.87504C9.41861 13.5342 8.86026 14.2787 8.21378 14.9428Z" fill="white"/>
<path d="M4.10786 10.2275H0.522522C0.808046 10.9511 1.20453 11.6259 1.69758 12.2275H4.85958C4.54268 11.5877 4.29085 10.9176 4.10786 10.2275Z" fill="white"/>
<path d="M6.78626 0.012207C5.02624 0.178712 3.38231 0.963627 2.14622 2.22755H5.125C5.58142 1.4209 6.13977 0.676272 6.78626 0.012207Z" fill="white"/>
<path d="M9.57848 12.2275C9.9132 11.5908 10.1792 10.9204 10.3722 10.2275H4.62778C4.82077 10.9204 5.08676 11.5908 5.42148 12.2275H9.57848Z" fill="white"/>
<path d="M5.70009 12.7275C6.19362 13.5501 6.79946 14.2998 7.50014 14.955C8.20083 14.2998 8.80667 13.5501 9.3002 12.7275H5.70009Z" fill="white"/>
<path d="M14.656 5.22754H0.343965C-0.114655 6.69239 -0.114655 8.26259 0.343965 9.72756H14.656C15.1147 8.26259 15.1147 6.69239 14.656 5.22754ZM3.9912 8.79323C3.9619 8.90089 3.86485 8.97609 3.75328 8.97755H3.74998C3.63951 8.97755 3.54222 8.90504 3.51048 8.79921L2.99998 7.09754L2.48948 8.79921C2.45774 8.90504 2.36045 8.97755 2.24998 8.97755H2.24668C2.13523 8.97609 2.03806 8.90089 2.00877 8.79323L1.25876 6.04322L1.74119 5.91175L2.26145 7.81922L2.76146 6.15577C2.79319 6.04993 2.89048 5.97742 3.00096 5.97742C3.11143 5.97742 3.20884 6.04993 3.24046 6.15577L3.74046 7.81922L4.26073 5.91175L4.74327 6.04322L3.9912 8.79323ZM8.49121 8.79323C8.46192 8.90089 8.36487 8.97609 8.2533 8.97755H8.25C8.13953 8.97755 8.04224 8.90504 8.0105 8.79921L7.5 7.09754L6.9895 8.79921C6.95776 8.90504 6.86047 8.97755 6.75 8.97755H6.7467C6.63525 8.97609 6.53808 8.90089 6.50878 8.79323L5.75878 6.04322L6.24121 5.91175L6.76147 7.81922L7.26147 6.15577C7.29321 6.04993 7.3905 5.97742 7.50098 5.97742C7.61145 5.97742 7.70886 6.04993 7.74048 6.15577L8.24048 7.81922L8.76075 5.91175L9.24329 6.04322L8.49121 8.79323ZM12.9912 8.79323C12.9619 8.90089 12.8649 8.97609 12.7533 8.97755H12.75C12.6395 8.97755 12.5423 8.90504 12.5105 8.79921L12 7.09754L11.4895 8.79921C11.4578 8.90504 11.3605 8.97755 11.25 8.97755H11.2467C11.1353 8.97609 11.0381 8.90089 11.0088 8.79323L10.2588 6.04322L10.7412 5.91175L11.2615 7.81922L11.7615 6.15577C11.7932 6.04993 11.8905 5.97742 12.001 5.97742C12.1115 5.97742 12.2089 6.04993 12.2405 6.15577L12.7405 7.81922L13.2608 5.91175L13.7433 6.04322L12.9912 8.79323Z" fill="white"/>
</svg>
