<svg width="18" height="24" viewBox="0 0 18 24" fill="none" xmlns="http://www.w3.org/2000/svg">
<path d="M9.31786 0.00500224C4.20159 -0.159251 0 3.74278 0 8.57959C0 14.0688 5.52974 18.0525 8.62916 23.7816C8.78652 24.0725 9.22608 24.0729 9.38398 23.7821C12.1879 18.627 16.98 15.1703 17.8681 10.204C18.7877 5.06485 14.7872 0.180657 9.31786 0.00500224ZM9.00613 13.0736C6.40078 13.0736 4.28865 11.0615 4.28865 8.57959C4.28865 6.0977 6.40083 4.08559 9.00613 4.08559C11.6115 4.08559 13.7237 6.0977 13.7237 8.57959C13.7237 11.0615 11.6115 13.0736 9.00613 13.0736Z" fill="#555555"/>
</svg>
