<svg width="45" height="35" viewBox="0 0 45 35" fill="none" xmlns="http://www.w3.org/2000/svg">
<path d="M6.88362 0.000152588C6.88241 0.000152588 6.88105 0.000152588 6.87984 0.000152588C6.45423 0.000152588 6.05392 0.166062 5.75165 0.467578C5.44604 0.772428 5.27771 1.17834 5.27771 1.61046V25.7568C5.27771 26.6422 6.00089 27.3643 6.88999 27.3666C10.6382 27.3755 16.9179 28.1568 21.25 32.6903V7.42048C21.25 7.12033 21.1734 6.83836 21.0287 6.60502C17.4731 0.878943 10.6403 0.0089405 6.88362 0.000152588Z" fill="white"/>
<path d="M39.7224 25.7568V1.61031C39.7224 1.17819 39.554 0.772275 39.2484 0.467426C38.9461 0.16591 38.5455 0 38.1204 0C38.119 0 38.1177 0 38.1164 0C34.3599 0.00893943 27.5272 0.878942 23.9714 6.60502C23.8267 6.83836 23.7502 7.12033 23.7502 7.42048V32.6901C28.0823 28.1566 34.362 27.3754 38.1102 27.3665C38.9992 27.3642 39.7224 26.6421 39.7224 25.7568Z" fill="white"/>
<path d="M43.39 5.56865H42.2224V25.7567C42.2224 28.0175 40.3805 29.861 38.1162 29.8666C34.937 29.8742 29.6948 30.4959 25.9822 34.0097C32.4032 32.4375 39.172 33.4595 43.0296 34.3386C43.5112 34.4483 44.009 34.335 44.3949 34.0274C44.7794 33.7206 45 33.2619 45 32.7696V7.17865C45.0002 6.29092 44.2777 5.56865 43.39 5.56865Z" fill="white"/>
<path d="M2.77759 25.7567V5.56865H1.61001C0.722427 5.56865 0 6.29092 0 7.17865V32.7692C0 33.2616 0.220607 33.7201 0.605154 34.0269C0.990761 34.3344 1.48804 34.4481 1.97046 34.3381C5.82805 33.4589 12.597 32.4371 19.0176 34.0092C15.3052 30.4955 10.0631 29.874 6.88381 29.8665C4.61971 29.861 2.77759 28.0175 2.77759 25.7567Z" fill="white"/>
</svg>
