<svg width="15" height="15" viewBox="0 0 15 15" fill="none" xmlns="http://www.w3.org/2000/svg">
<path d="M5.92209 14.0983C5.82196 13.9981 5.77184 13.8828 5.77184 13.7526C5.77184 13.6223 5.82196 13.507 5.92209 13.4069L11.8291 7.49992L5.92209 1.59277C5.82196 1.49264 5.77184 1.37729 5.77184 1.24726C5.77184 1.1168 5.82196 1.00151 5.92209 0.901382L6.6737 0.149933C6.77383 0.0498027 6.88917 5.23611e-05 7.01921 5.23626e-05C7.1495 5.23642e-05 7.26479 0.0501184 7.36492 0.149933L14.3691 7.15447C14.4694 7.25454 14.5193 7.36968 14.5193 7.49992C14.5193 7.63016 14.4693 7.74551 14.3691 7.84564L7.36498 14.8496C7.26479 14.95 7.14966 15 7.0191 15C6.88917 15 6.77388 14.9498 6.6737 14.8496L5.92209 14.0983Z" fill="#FF8A00"/>
<path d="M8.59745 7.15447C8.69779 7.25454 8.7478 7.36968 8.7478 7.49992C8.7478 7.63016 8.69763 7.74551 8.59745 7.84564L1.59333 14.8496C1.49315 14.95 1.37791 15 1.24746 15C1.11732 15 1.00208 14.9498 0.901898 14.8496L0.150343 14.0983C0.0501595 13.9981 0.000411047 13.8828 0.000411049 13.7526C0.00041105 13.6223 0.0504761 13.507 0.150343 13.4069L6.05755 7.49992L0.150343 1.59277C0.0501596 1.49264 0.000200434 1.37729 0.000200436 1.24726C0.000200437 1.1168 0.0501072 1.00151 0.150343 0.901382L0.901899 0.149933C1.00208 0.0498027 1.11737 5.23611e-05 1.24746 5.23626e-05C1.37791 5.23642e-05 1.49315 0.0501184 1.59333 0.149933L8.59745 7.15447Z" fill="#FF8A00"/>
</svg>
