<svg width="9" height="9" viewBox="0 0 9 9" fill="none" xmlns="http://www.w3.org/2000/svg">
<path d="M4.49641 0C5.73807 0 6.86228 0.504903 7.67836 1.31772C8.49118 2.13402 8.99608 3.25823 8.99608 4.49989C8.99608 5.74156 8.49118 6.86577 7.67836 7.68207C6.86206 8.49488 5.73807 8.99978 4.49641 8.99978C3.25474 8.99978 2.13075 8.49488 1.31793 7.68207C0.501634 6.86577 0 5.74177 0 4.49989C0 3.25823 0.501416 2.13402 1.31772 1.31772C2.13075 0.504903 3.25474 0 4.49641 0ZM6.78972 4.2543C6.9246 4.2543 7.03182 4.365 7.03182 4.49989C7.03182 4.63478 6.9246 4.74548 6.78972 4.74548H4.50338H4.49641C4.40641 4.74548 4.32687 4.69362 4.28547 4.62105L4.28198 4.61756L4.27849 4.61059V4.6071L4.27501 4.60013L4.27152 4.59316V4.58967L4.26803 4.5827L4.26455 4.57921V4.57224L4.26106 4.56527V4.56178L4.25757 4.55481V4.54783V4.54435V4.54086L4.25409 4.53737V4.5304V4.52343V4.51732V4.51384V4.50686V4.49989V1.57028C4.25409 1.43539 4.3613 1.32818 4.49619 1.32818C4.63107 1.32818 4.74177 1.43539 4.74177 1.57028V4.2543H6.78972ZM7.33254 1.66376C6.60623 0.937459 5.60318 0.491175 4.49641 0.491175C3.38963 0.491175 2.38658 0.937241 1.66027 1.66376C0.937459 2.39006 0.487688 3.39311 0.487688 4.49989C0.487688 5.60667 0.937241 6.60972 1.66027 7.33624C2.38658 8.06254 3.38963 8.50883 4.49641 8.50883C5.60318 8.50883 6.60623 8.06254 7.33254 7.33624C8.05884 6.60994 8.50861 5.60689 8.50861 4.49989C8.50861 3.39311 8.05906 2.39006 7.33254 1.66376Z" fill="#555555"/>
</svg>
