<svg width="13" height="14" viewBox="0 0 13 14" fill="none" xmlns="http://www.w3.org/2000/svg">
<path d="M12.8658 7.59439L6.5944 13.8654C6.50489 13.955 6.40166 14.0001 6.285 14.0001C6.16848 14.0001 6.0654 13.955 5.9757 13.8654L5.30275 13.1925C5.21305 13.1028 5.16827 12.9998 5.16827 12.883C5.16827 12.7662 5.21305 12.6632 5.30275 12.5735L10.5916 7.28472L5.3028 1.99582C5.2131 1.90612 5.16832 1.8029 5.16832 1.68643C5.16832 1.56967 5.2131 1.46645 5.3028 1.37675L5.97575 0.704082C6.0654 0.614289 6.16848 0.569558 6.28505 0.569558C6.40185 0.569558 6.50493 0.614384 6.5944 0.704082L12.8658 6.97513C12.9554 7.06478 13.0002 7.16806 13.0002 7.28467C13.0002 7.40128 12.9554 7.50451 12.8658 7.59439Z" fill="#757575"/>
<path d="M7.83256 7.28467C7.83256 7.40128 7.78792 7.50455 7.6979 7.59439L1.42694 13.8654C1.33729 13.955 1.23406 14.0001 1.11745 14.0001C1.00084 14.0001 0.897565 13.955 0.807914 13.8654L0.135106 13.1925C0.0452667 13.1028 0.000488281 12.9998 0.000488281 12.883C0.000488281 12.7662 0.0452667 12.6631 0.135106 12.5734L5.42386 7.28467L0.135106 1.99582C0.0452667 1.90612 0.000488281 1.8029 0.000488281 1.68643C0.000488281 1.56967 0.0452667 1.46645 0.135106 1.37675L0.807866 0.704082C0.897565 0.614289 1.00079 0.569558 1.1174 0.569558C1.23402 0.569558 1.33724 0.614384 1.42694 0.704082L7.6979 6.97513C7.78792 7.06478 7.83256 7.16806 7.83256 7.28467Z" fill="#757575"/>
</svg>
