<svg width="18" height="15" viewBox="0 0 18 15" fill="none" xmlns="http://www.w3.org/2000/svg">
<path d="M1.72764 4.35935C1.95534 4.52003 2.6417 4.99724 3.78677 5.79073C4.93187 6.58422 5.80909 7.19519 6.41848 7.62367C6.48543 7.67064 6.62767 7.77274 6.84527 7.93011C7.06291 8.08758 7.24374 8.21483 7.38764 8.3119C7.53164 8.40893 7.70572 8.51779 7.91005 8.63828C8.11432 8.75868 8.30687 8.84923 8.48767 8.90918C8.6685 8.96963 8.8359 8.99957 8.98989 8.99957H8.99999H9.01012C9.16411 8.99957 9.33158 8.96959 9.51241 8.90918C9.69314 8.84923 9.88587 8.75857 10.09 8.63828C10.2942 8.51764 10.4682 8.4089 10.6122 8.3119C10.7562 8.21483 10.9369 8.08758 11.1546 7.93011C11.3722 7.7726 11.5146 7.67064 11.5816 7.62367C12.1975 7.19519 13.7646 6.10698 16.2824 4.35914C16.7712 4.01777 17.1796 3.60586 17.5077 3.1237C17.836 2.64174 18 2.13614 18 1.60718C18 1.16515 17.8408 0.786773 17.5227 0.472071C17.2047 0.157298 16.8279 0 16.3928 0H1.60707C1.09148 0 0.694702 0.17408 0.4168 0.52224C0.138933 0.870471 0 1.30574 0 1.82802C0 2.24988 0.184212 2.70704 0.552461 3.1992C0.920675 3.69139 1.31253 4.07815 1.72764 4.35935Z" fill="white"/>
<path d="M16.9954 5.43415C14.7992 6.92062 13.1316 8.07585 11.9933 8.8996C11.6116 9.18074 11.302 9.40021 11.0642 9.55747C10.8264 9.71484 10.5102 9.87555 10.115 10.0395C9.71998 10.2038 9.35184 10.2856 9.01026 10.2856H9.00002H8.98992C8.64841 10.2856 8.28006 10.2038 7.88503 10.0395C7.49001 9.87555 7.17355 9.71484 6.93583 9.55747C6.69817 9.40021 6.38843 9.18074 6.00678 8.8996C5.10271 8.23671 3.43868 7.0814 1.01461 5.43415C0.632816 5.17986 0.294648 4.88837 0 4.5603V12.5355C0 12.9777 0.157298 13.3559 0.47207 13.6707C0.786772 13.9855 1.16519 14.1429 1.60718 14.1429H16.3929C16.8348 14.1429 17.2132 13.9855 17.5279 13.6707C17.8428 13.3558 18 12.9778 18 12.5355V4.5603C17.712 4.88158 17.3773 5.17307 16.9954 5.43415Z" fill="white"/>
</svg>
