<svg width="19" height="18" viewBox="0 0 19 18" fill="none" xmlns="http://www.w3.org/2000/svg">
<path d="M18.8935 2.91118C19.0493 2.6075 19.0231 2.26323 18.8867 1.97745C18.9251 1.65226 18.84 1.32208 18.5322 1.06884C18.2456 0.833113 17.9591 0.597254 17.6727 0.361486C17.1691 -0.0528927 16.3805 -0.183682 15.8907 0.361486C13.6658 2.83737 11.3391 5.20571 8.92717 7.48784C7.13397 5.8127 5.31899 4.16031 3.517 2.50577C2.88457 1.92491 1.96914 2.10718 1.57123 2.79916C0.991652 3.08682 0.521855 3.46184 0.133378 4.10192C-0.0515938 4.40688 -0.0371787 4.79184 0.133378 5.0979C1.2967 7.18365 3.54529 9.01749 5.39409 10.7051C5.1467 10.9266 4.90113 11.1501 4.64875 11.3669C2.15791 13.5059 0.477786 14.8631 3.59489 17.0563C3.63695 17.0859 3.67983 17.0794 3.72252 17.0967C3.78224 17.1242 3.83954 17.1436 3.90576 17.1545C3.92635 17.1553 3.94557 17.1588 3.96584 17.1572C4.03 17.1624 4.09279 17.1787 4.15782 17.1659C5.83368 16.8374 7.39216 15.5241 8.80618 14.0779C10.1836 15.4356 11.6504 16.7327 13.2632 17.5023C13.6472 17.6856 14.105 17.5788 14.4006 17.3225C14.8963 17.3599 15.3483 17.0519 15.5751 16.6092C15.6087 16.5884 15.6304 16.5766 15.6667 16.5538C16.3874 16.1036 16.4533 15.207 15.92 14.589C14.7158 13.1936 13.4358 11.8671 12.131 10.5642C14.4804 8.26845 17.4141 5.79252 18.8935 2.91118Z" fill="white"/>
</svg>
