<svg width="38" height="24" viewBox="0 0 38 24" fill="none" xmlns="http://www.w3.org/2000/svg">
<path d="M8.23782 13.3055V19.2466C8.23782 19.2466 13.9351 16.8733 18.9866 16.8733C24.038 16.8733 29.7365 19.2466 29.7365 19.2466V13.2225C29.7365 13.2225 24.3011 10.3479 18.9024 10.3479C13.5061 10.3455 8.23782 13.3055 8.23782 13.3055Z" fill="white"/>
<path d="M35.7715 11.8907L37.9091 10.7413L35.7715 9.55756V8.99591C35.7715 8.99591 36.3734 5.94356 32.9525 7.53964C32.7783 7.63444 32.6847 7.73041 32.6467 7.82402L18.5386 0L0 10.6098L7.00072 13.7901V12.758C7.00072 12.758 12.8746 9.4604 18.8953 9.4604C24.9149 9.4604 30.9736 12.6656 30.9736 12.6656V14.4679L34.8389 12.3919C34.8389 14.7961 34.8389 19.9386 34.8389 20.7965H33.552V23.7837L35.2631 22.6012L37.1626 23.7837V20.7953H35.7715V11.8907ZM34.8377 8.47691C34.8377 8.54919 34.8377 8.74826 34.8377 9.03975L33.7096 8.41411C34.1208 8.14158 34.8377 7.76359 34.8377 8.47691ZM34.4562 11.7734C33.9573 11.7734 33.5509 11.3693 33.5509 10.8705C33.5509 10.3716 33.9573 9.96636 34.4562 9.96636C34.9562 9.96636 35.3603 10.3716 35.3603 10.8705C35.3603 11.3693 34.9562 11.7734 34.4562 11.7734Z" fill="white"/>
</svg>
