<svg width="26" height="17" viewBox="0 0 26 17" fill="none" xmlns="http://www.w3.org/2000/svg">
<path d="M5.6499 9.12586V13.2008C5.6499 13.2008 9.55738 11.5729 13.0219 11.5729C16.4865 11.5729 20.3948 13.2008 20.3948 13.2008V9.06897C20.3948 9.06897 16.6669 7.09735 12.9642 7.09735C9.26318 7.09573 5.6499 9.12586 5.6499 9.12586Z" fill="white"/>
<path d="M24.5339 8.15548L26 7.36715L24.5339 6.55526V6.17004C24.5339 6.17004 24.9467 4.07652 22.6005 5.17123C22.481 5.23625 22.4168 5.30207 22.3908 5.36628L12.7147 0L0 7.27694L4.80145 9.45824V8.75037C4.80145 8.75037 8.83002 6.48862 12.9594 6.48862C17.0879 6.48862 21.2432 8.68698 21.2432 8.68698V9.92311L23.8943 8.49925C23.8943 10.1482 23.8943 13.6754 23.8943 14.2638H23.0117V16.3126L24.1852 15.5015L25.488 16.3126V14.2629H24.5339V8.15548ZM23.8935 5.81408C23.8935 5.86365 23.8935 6.00019 23.8935 6.20011L23.1198 5.771C23.4018 5.58408 23.8935 5.32483 23.8935 5.81408ZM23.6318 8.07502C23.2896 8.07502 23.0109 7.79789 23.0109 7.45574C23.0109 7.11359 23.2896 6.83565 23.6318 6.83565C23.9747 6.83565 24.2519 7.11359 24.2519 7.45574C24.2519 7.79789 23.9747 8.07502 23.6318 8.07502Z" fill="white"/>
</svg>
