<svg width="29" height="26" viewBox="0 0 29 26" fill="none" xmlns="http://www.w3.org/2000/svg">
<path d="M3.86526 24.5512C3.86526 24.5512 3.84001 25.1866 4.46073 25.1866C5.23295 25.1866 11.6264 25.1782 11.6264 25.1782L11.6369 19.3066C11.6369 19.3066 11.5359 18.3387 12.4754 18.3387H15.4486C16.5595 18.3387 16.4912 19.3066 16.4912 19.3066L16.4785 25.1593C16.4785 25.1593 22.5406 25.1593 23.4927 25.1593C24.2807 25.1593 24.2449 24.3681 24.2449 24.3681V13.5433L14.3597 4.75012L3.86526 13.5433V24.5512Z" fill="white"/>
<path d="M0 12.7248C0 12.7248 0.891104 14.3671 2.83428 12.7248L14.447 2.90056L25.3349 12.6638C27.5843 14.2861 28.427 12.6638 28.427 12.6638L14.447 0L0 12.7248Z" fill="white"/>
<path d="M25.0709 2.87744H22.2703L22.2818 6.27353L25.0709 8.63964V2.87744Z" fill="white"/>
</svg>
