<svg width="37" height="28" viewBox="0 0 37 28" fill="none" xmlns="http://www.w3.org/2000/svg">
<path d="M35.7703 0H0.575863C0.257871 0 0 0.24821 0 0.554535V27.0522C0 27.3585 0.257871 27.6067 0.575863 27.6067H35.7703C36.0885 27.6067 36.3462 27.3585 36.3462 27.0522V0.554535C36.3462 0.24821 36.0885 0 35.7703 0ZM32.891 23.1856L24.971 15.2875C24.8835 15.2005 24.7403 15.1948 24.6459 15.2749L19.1527 19.9306L12.1316 11.6059C12.086 11.5515 12.0193 11.5205 11.9439 11.522C11.8712 11.5234 11.8033 11.5571 11.7599 11.6132L3.45518 22.344V3.32721H32.891V23.1856Z" fill="#00DAF8"/>
</svg>
