<svg width="17" height="13" viewBox="0 0 17 13" fill="none" xmlns="http://www.w3.org/2000/svg">
<path d="M6.98148 11.8361C6.96069 11.7828 6.95352 11.7375 6.96058 11.7009C6.96759 11.6644 6.94341 11.6343 6.88796 11.611C6.83251 11.5878 6.80484 11.5693 6.80484 11.5561C6.80484 11.5428 6.7651 11.5328 6.68543 11.5262C6.6058 11.5195 6.56606 11.5161 6.56606 11.5161H6.43116H6.31698H3.32716C2.87039 11.5161 2.47933 11.3596 2.154 11.0462C1.82875 10.733 1.66615 10.3565 1.66615 9.91671V2.87888C1.66615 2.43903 1.82872 2.06259 2.154 1.74935C2.47933 1.43608 2.87039 1.27939 3.32716 1.27939H6.64914C6.73914 1.27939 6.8099 1.25789 6.86193 1.21447C6.91374 1.17116 6.94829 1.10614 6.96567 1.01951C6.98297 0.932888 6.99341 0.854666 6.9969 0.784672C7.00032 0.714749 6.99865 0.626372 6.99167 0.519754C6.98479 0.41317 6.98134 0.346537 6.98134 0.319751C6.98134 0.233126 6.94843 0.1583 6.88273 0.094854C6.81695 0.031688 6.73914 0 6.64918 0H3.32716C2.50365 0 1.79941 0.281586 1.21454 0.844722C0.629818 1.40786 0.337402 2.08591 0.337402 2.87899V9.91667C0.337402 10.7097 0.629818 11.3879 1.21454 11.9508C1.79941 12.5142 2.50365 12.7958 3.32716 12.7958H6.64929C6.73928 12.7958 6.81008 12.7741 6.86207 12.7309C6.91389 12.6875 6.94843 12.6226 6.96581 12.5359C6.98312 12.4493 6.99356 12.3707 6.99705 12.301C7.00046 12.231 6.99879 12.1428 6.99181 12.0362C6.98487 11.9295 6.98148 11.8629 6.98148 11.8361Z" fill="#555555"/>
<path d="M16.4181 5.94802L10.7707 0.50962C10.6393 0.383148 10.4836 0.319702 10.3036 0.319702C10.1237 0.319702 9.96789 0.383148 9.83634 0.50962C9.70482 0.636267 9.63912 0.786374 9.63912 0.959555V3.83865H4.98831C4.80825 3.83865 4.65259 3.90209 4.52107 4.02857C4.38956 4.15521 4.32385 4.30521 4.32385 4.4785V8.31734C4.32385 8.49059 4.38956 8.64059 4.52107 8.76717C4.65274 8.89357 4.80836 8.95719 4.98831 8.95719H9.63915V11.8362C9.63915 12.0094 9.70486 12.1595 9.83638 12.2861C9.96789 12.4127 10.1237 12.4761 10.3037 12.4761C10.4836 12.4761 10.6393 12.4127 10.7708 12.2861L16.4181 6.84792C16.5497 6.72117 16.6154 6.57138 16.6154 6.39806C16.6154 6.22481 16.5497 6.07467 16.4181 5.94802Z" fill="#555555"/>
</svg>
