<svg width="18" height="18" viewBox="0 0 18 18" fill="none" xmlns="http://www.w3.org/2000/svg">
<path d="M13.6852 11.9075C13.0971 11.3269 12.363 11.3269 11.7787 11.9075C11.3329 12.3495 10.8872 12.7915 10.449 13.2409C10.3291 13.3645 10.228 13.3908 10.0819 13.3083C9.79349 13.151 9.48635 13.0237 9.20917 12.8514C7.91693 12.0386 6.83444 10.9936 5.87556 9.81742C5.39987 9.23311 4.97661 8.60759 4.68071 7.90341C4.62078 7.76108 4.63201 7.66743 4.74813 7.55132C5.19386 7.12057 5.62835 6.67859 6.06659 6.2366C6.67713 5.62232 6.67713 4.90316 6.06284 4.28513C5.7145 3.93304 5.36616 3.58845 5.01781 3.23636C4.65823 2.87678 4.3024 2.51345 3.93907 2.15762C3.35101 1.58453 2.61687 1.58453 2.03255 2.16136C1.58307 2.60335 1.15233 3.05657 0.695359 3.49106C0.272103 3.89184 0.0586025 4.38252 0.013655 4.9556C-0.057512 5.88826 0.170971 6.76848 0.493095 7.62623C1.15233 9.40166 2.15615 10.9786 3.37348 12.4244C5.01781 14.3796 6.98052 15.9265 9.27659 17.0427C10.3104 17.5447 11.3816 17.9305 12.5465 17.9941C13.3481 18.0391 14.0448 17.8368 14.6029 17.2113C14.9849 16.7843 15.4157 16.3947 15.8202 15.9865C16.4195 15.3797 16.4233 14.6455 15.8277 14.0462C15.116 13.3308 14.4006 12.6192 13.6852 11.9075Z" fill="white"/>
<path d="M12.9698 8.92223L14.3519 8.68626C14.1347 7.41649 13.5354 6.26658 12.6252 5.35265C11.6626 4.39002 10.4453 3.78323 9.10432 3.59595L8.90955 4.98558C9.94708 5.13166 10.891 5.59986 11.6364 6.34524C12.3405 7.04942 12.8013 7.94088 12.9698 8.92223Z" fill="white"/>
<path d="M15.131 2.9141C13.5353 1.31846 11.5164 0.310887 9.28779 0L9.09302 1.38963C11.0183 1.65931 12.7637 2.53204 14.1421 3.90669C15.4493 5.21391 16.3071 6.86574 16.618 8.68237L18.0001 8.44639C17.6368 6.34135 16.6442 4.43108 15.131 2.9141Z" fill="white"/>
</svg>
