<svg width="12" height="14" viewBox="0 0 12 14" fill="none" xmlns="http://www.w3.org/2000/svg">
<path d="M1.24453 4.20515V5.66694H1.14426C0.513147 5.66694 0 6.16469 0 6.77687V12.8901C0 13.5022 0.513147 14 1.14426 14H9.93853C10.5696 14 11.0828 13.5022 11.0828 12.8901V6.77401C11.0828 6.16183 10.5696 5.66408 9.93853 5.66408H9.90904V4.20229C9.90904 1.88517 7.96557 0 5.57678 0C3.188 0.00286065 1.24453 1.88803 1.24453 4.20515ZM6.21969 10.1038C6.13122 10.1667 6.10763 10.2268 6.10763 10.3269C6.11057 10.7761 6.11057 11.2223 6.11057 11.6714C6.11942 11.8574 6.0221 12.0405 5.85105 12.1234C5.44702 12.3237 5.04299 12.0433 5.04299 11.6714V11.6686C5.04299 11.2195 5.04299 10.7703 5.04594 10.3212C5.04594 10.2297 5.0253 10.1696 4.94272 10.1095C4.52395 9.80915 4.38534 9.2971 4.59473 8.84798C4.79822 8.4103 5.29662 8.15284 5.76553 8.24438C6.28752 8.34736 6.65026 8.75358 6.65616 9.25991C6.65616 9.61177 6.51166 9.89783 6.21969 10.1038ZM3.14081 4.20515C3.14081 2.90069 4.23493 1.84226 5.57678 1.84226C6.92158 1.84226 8.01276 2.90356 8.01276 4.20515V5.66694H3.14081V4.20515Z" fill="#555555"/>
</svg>
