<svg width="26" height="26" viewBox="0 0 26 26" fill="none" xmlns="http://www.w3.org/2000/svg">
<path d="M26 4.05895C25.999 2.97271 25.5744 1.95213 24.8042 1.18505C23.2158 -0.397098 20.6335 -0.394916 19.0469 1.191L2.65703 17.6189C2.12391 18.1507 1.71697 18.8091 1.48012 19.523L1.46482 19.5694L0 26L6.45937 24.5563L6.50745 24.5404C7.22277 24.304 7.88266 23.8981 8.41716 23.3647L24.8092 6.93483C25.578 6.16637 26.001 5.14499 26 4.05895ZM3.58198 23.1194L2.89706 22.4352L3.39162 20.2635L5.76272 22.632L3.58198 23.1194ZM23.3696 5.50145L7.45585 21.4521L4.57409 18.5734L15.475 7.64736L17.135 9.30449L18.5726 7.86933L16.9096 6.20922L18.4561 4.6594L20.122 6.32248L21.5596 4.88732L19.8907 3.22126L20.4862 2.62438C21.2801 1.83093 22.573 1.82974 23.3682 2.6218C23.7537 3.00584 23.9663 3.51682 23.9669 4.06054C23.9673 4.60445 23.7557 5.11564 23.3696 5.50145ZM10.6953 23.9483H26V25.978H8.66912L10.6953 23.9483Z" fill="white"/>
</svg>
