<svg width="24" height="24" viewBox="0 0 24 24" fill="none" xmlns="http://www.w3.org/2000/svg">
<path d="M24 3.74672C23.9991 2.74404 23.6071 1.80196 22.8962 1.0939C21.43 -0.366552 19.0463 -0.364538 17.5817 1.09939L2.45264 16.2636C1.96053 16.7545 1.5849 17.3622 1.36627 18.0212L1.35214 18.0641L0 24L5.96249 22.6674L6.00688 22.6527C6.66718 22.4345 7.2763 22.0598 7.76969 21.5674L22.9008 6.40139C23.6104 5.69204 24.0009 4.74923 24 3.74672ZM3.30644 21.3409L2.67421 20.7094L3.13073 18.7048L5.31943 20.8911L3.30644 21.3409ZM21.5719 5.07827L6.88232 19.8019L4.22224 17.1447L14.2846 7.0591L15.8169 8.58876L17.1439 7.26399L15.6089 5.73159L17.0364 4.30098L18.5742 5.83614L19.9012 4.51137L18.3607 2.97347L18.9104 2.42251C19.6431 1.69009 20.8366 1.68899 21.5707 2.42013C21.9265 2.77462 22.1227 3.2463 22.1233 3.74819C22.1237 4.25026 21.9283 4.72213 21.5719 5.07827ZM9.87256 22.1061H24V23.9797H8.00226L9.87256 22.1061Z" fill="white"/>
</svg>
