<svg width="18" height="18" viewBox="0 0 18 18" fill="none" xmlns="http://www.w3.org/2000/svg">
<path d="M13.6856 11.9074C13.0975 11.3268 12.3634 11.3268 11.779 11.9074C11.3333 12.3494 10.8876 12.7914 10.4493 13.2408C10.3295 13.3644 10.2283 13.3907 10.0823 13.3083C9.79386 13.1509 9.48672 13.0236 9.20954 12.8513C7.9173 12.0385 6.83481 10.9935 5.87593 9.81733C5.40023 9.23302 4.97698 8.6075 4.68107 7.90332C4.62114 7.76098 4.63238 7.66734 4.7485 7.55123C5.19422 7.12048 5.62872 6.6785 6.06696 6.23651C6.67749 5.62223 6.67749 4.90307 6.06321 4.28504C5.71487 3.93295 5.36652 3.58835 5.01818 3.23626C4.6586 2.87668 4.30277 2.51336 3.93944 2.15752C3.35138 1.58444 2.61723 1.58444 2.03291 2.16127C1.58344 2.60325 1.15269 3.05647 0.695726 3.49097C0.27247 3.89175 0.0589687 4.38243 0.0140212 4.95551C-0.0571458 5.88817 0.171338 6.76839 0.493462 7.62614C1.15269 9.40157 2.15652 10.9785 3.37385 12.4243C5.01818 14.3795 6.98089 15.9265 9.27696 17.0426C10.3108 17.5446 11.382 17.9304 12.5469 17.994C13.3485 18.039 14.0451 17.8367 14.6032 17.2112C14.9853 16.7842 15.416 16.3947 15.8206 15.9864C16.4199 15.3796 16.4236 14.6454 15.8281 14.0461C15.1164 13.3307 14.401 12.6191 13.6856 11.9074Z" fill="#555555"/>
<path d="M12.9704 8.92214L14.3526 8.68616C14.1353 7.4164 13.536 6.26649 12.6258 5.35256C11.6632 4.38993 10.4459 3.78314 9.10493 3.59586L8.91016 4.98548C9.9477 5.13156 10.8916 5.59977 11.637 6.34515C12.3412 7.04932 12.8019 7.94078 12.9704 8.92214Z" fill="#555555"/>
<path d="M15.1317 2.9141C13.5361 1.31846 11.5172 0.310887 9.28852 0L9.09375 1.38963C11.019 1.65931 12.7645 2.53204 14.1429 3.90669C15.4501 5.21391 16.3078 6.86574 16.6187 8.68237L18.0009 8.44639C17.6375 6.34135 16.6449 4.43108 15.1317 2.9141Z" fill="#555555"/>
</svg>
